  0
SECTION
  2
HEADER
  9
$ACADVER
  1
AC1015
  9
$ACADMAINTVER
 70
     6
  9
$DWGCODEPAGE
  3
ANSI_1252
  9
$INSBASE
 10
0.0
 20
0.0
 30
0.0
  9
$EXTMIN
 10
-76.398591741
 20
-26.4103183558
 30
0.0
  9
$EXTMAX
 10
64.4423075258
 20
19.877643653
 30
0.0
  9
$LIMMIN
 10
0.0
 20
0.0
  9
$LIMMAX
 10
420.0
 20
297.0
  9
$ORTHOMODE
 70
     0
  9
$REGENMODE
 70
     1
  9
$FILLMODE
 70
     1
  9
$QTEXTMODE
 70
     0
  9
$MIRRTEXT
 70
     1
  9
$LTSCALE
 40
1.0
  9
$ATTMODE
 70
     1
  9
$TEXTSIZE
 40
3.5
  9
$TRACEWID
 40
1.0
  9
$TEXTSTYLE
  7
Standard
  9
$CLAYER
  8
0
  9
$CELTYPE
  6
ByLayer
  9
$CECOLOR
 62
   256
  9
$CELTSCALE
 40
1.0
  9
$DISPSILH
 70
     0
  9
$DIMSCALE
 40
1.0
  9
$DIMASZ
 40
3.302
  9
$DIMEXO
 40
0.0
  9
$DIMDLI
 40
3.75
  9
$DIMRND
 40
0.0
  9
$DIMDLE
 40
0.0
  9
$DIMEXE
 40
1.0
  9
$DIMTP
 40
0.0
  9
$DIMTM
 40
0.0
  9
$DIMTXT
 40
3.5
  9
$DIMCEN
 40
2.5
  9
$DIMTSZ
 40
0.0
  9
$DIMTOL
 70
     0
  9
$DIMLIM
 70
     0
  9
$DIMTIH
 70
     1
  9
$DIMTOH
 70
     1
  9
$DIMSE1
 70
     0
  9
$DIMSE2
 70
     0
  9
$DIMTAD
 70
     1
  9
$DIMZIN
 70
     1
  9
$DIMBLK
  1

  9
$DIMASO
 70
     1
  9
$DIMSHO
 70
     1
  9
$DIMPOST
  1

  9
$DIMAPOST
  1

  9
$DIMALT
 70
     0
  9
$DIMALTD
 70
     3
  9
$DIMALTF
 40
0.0393700787
  9
$DIMLFAC
 40
1.0
  9
$DIMTOFL
 70
     1
  9
$DIMTVP
 40
0.0
  9
$DIMTIX
 70
     0
  9
$DIMSOXD
 70
     0
  9
$DIMSAH
 70
     0
  9
$DIMBLK1
  1

  9
$DIMBLK2
  1

  9
$DIMSTYLE
  2
ISO-25
  9
$DIMCLRD
 70
     0
  9
$DIMCLRE
 70
     0
  9
$DIMCLRT
 70
     0
  9
$DIMTFAC
 40
1.0
  9
$DIMGAP
 40
1.524
  9
$DIMJUST
 70
     0
  9
$DIMSD1
 70
     0
  9
$DIMSD2
 70
     0
  9
$DIMTOLJ
 70
     0
  9
$DIMTZIN
 70
     1
  9
$DIMALTZ
 70
     0
  9
$DIMALTTZ
 70
     0
  9
$DIMUPT
 70
     0
  9
$DIMDEC
 70
     2
  9
$DIMTDEC
 70
     2
  9
$DIMALTU
 70
     2
  9
$DIMALTTD
 70
     3
  9
$DIMTXSTY
  7
Standard
  9
$DIMAUNIT
 70
     0
  9
$DIMADEC
 70
     2
  9
$DIMALTRND
 40
0.0
  9
$DIMAZIN
 70
     0
  9
$DIMDSEP
 70
    44
  9
$DIMATFIT
 70
     3
  9
$DIMFRAC
 70
     0
  9
$DIMLDRBLK
  1

  9
$DIMLUNIT
 70
     2
  9
$DIMLWD
 70
    -2
  9
$DIMLWE
 70
    -2
  9
$DIMTMOVE
 70
     0
  9
$LUNITS
 70
     2
  9
$LUPREC
 70
     2
  9
$SKETCHINC
 40
1.0
  9
$FILLETRAD
 40
10.0
  9
$AUNITS
 70
     0
  9
$AUPREC
 70
     2
  9
$MENU
  1
.
  9
$ELEVATION
 40
0.0
  9
$PELEVATION
 40
0.0
  9
$THICKNESS
 40
0.0
  9
$LIMCHECK
 70
     0
  9
$CHAMFERA
 40
0.0
  9
$CHAMFERB
 40
0.0
  9
$CHAMFERC
 40
0.0
  9
$CHAMFERD
 40
0.0
  9
$SKPOLY
 70
     0
  9
$TDCREATE
 40
2459700.129354977
  9
$TDUCREATE
 40
2459700.046021644
  9
$TDUPDATE
 40
2459700.129388785
  9
$TDUUPDATE
 40
2459700.046055452
  9
$TDINDWG
 40
0.0000000116
  9
$TDUSRTIMER
 40
0.0000000116
  9
$USRTIMER
 70
     1
  9
$ANGBASE
 50
0.0
  9
$ANGDIR
 70
     0
  9
$PDMODE
 70
     0
  9
$PDSIZE
 40
-1.0
  9
$PLINEWID
 40
0.0
  9
$SPLFRAME
 70
     0
  9
$SPLINETYPE
 70
     6
  9
$SPLINESEGS
 70
     8
  9
$HANDSEED
  5
1CA
  9
$SURFTAB1
 70
     6
  9
$SURFTAB2
 70
     6
  9
$SURFTYPE
 70
     6
  9
$SURFU
 70
     6
  9
$SURFV
 70
     6
  9
$UCSBASE
  2

  9
$UCSNAME
  2

  9
$UCSORG
 10
0.0
 20
0.0
 30
0.0
  9
$UCSXDIR
 10
1.0
 20
0.0
 30
0.0
  9
$UCSYDIR
 10
0.0
 20
1.0
 30
0.0
  9
$UCSORTHOREF
  2

  9
$UCSORTHOVIEW
 70
     0
  9
$UCSORGTOP
 10
0.0
 20
0.0
 30
0.0
  9
$UCSORGBOTTOM
 10
0.0
 20
0.0
 30
0.0
  9
$UCSORGLEFT
 10
0.0
 20
0.0
 30
0.0
  9
$UCSORGRIGHT
 10
0.0
 20
0.0
 30
0.0
  9
$UCSORGFRONT
 10
0.0
 20
0.0
 30
0.0
  9
$UCSORGBACK
 10
0.0
 20
0.0
 30
0.0
  9
$PUCSBASE
  2

  9
$PUCSNAME
  2

  9
$PUCSORG
 10
0.0
 20
0.0
 30
0.0
  9
$PUCSXDIR
 10
1.0
 20
0.0
 30
0.0
  9
$PUCSYDIR
 10
0.0
 20
1.0
 30
0.0
  9
$PUCSORTHOREF
  2

  9
$PUCSORTHOVIEW
 70
     0
  9
$PUCSORGTOP
 10
0.0
 20
0.0
 30
0.0
  9
$PUCSORGBOTTOM
 10
0.0
 20
0.0
 30
0.0
  9
$PUCSORGLEFT
 10
0.0
 20
0.0
 30
0.0
  9
$PUCSORGRIGHT
 10
0.0
 20
0.0
 30
0.0
  9
$PUCSORGFRONT
 10
0.0
 20
0.0
 30
0.0
  9
$PUCSORGBACK
 10
0.0
 20
0.0
 30
0.0
  9
$USERI1
 70
     0
  9
$USERI2
 70
     0
  9
$USERI3
 70
     0
  9
$USERI4
 70
     0
  9
$USERI5
 70
     0
  9
$USERR1
 40
0.0
  9
$USERR2
 40
0.0
  9
$USERR3
 40
0.0
  9
$USERR4
 40
0.0
  9
$USERR5
 40
0.0
  9
$WORLDVIEW
 70
     1
  9
$SHADEDGE
 70
     3
  9
$SHADEDIF
 70
    70
  9
$TILEMODE
 70
     1
  9
$MAXACTVP
 70
    64
  9
$PINSBASE
 10
0.0
 20
0.0
 30
0.0
  9
$PLIMCHECK
 70
     0
  9
$PEXTMIN
 10
-76.4110683143
 20
-6.0
 30
0.0
  9
$PEXTMAX
 10
68.523900043
 20
0.0
 30
0.0
  9
$PLIMMIN
 10
-87.6900541787
 20
-10.2296196991
  9
$PLIMMAX
 10
79.8028859073
 20
108.1997318768
  9
$UNITMODE
 70
     0
  9
$VISRETAIN
 70
     1
  9
$PLINEGEN
 70
     0
  9
$PSLTSCALE
 70
     1
  9
$TREEDEPTH
 70
  3020
  9
$CMLSTYLE
  2
Standard
  9
$CMLJUST
 70
     0
  9
$CMLSCALE
 40
20.0
  9
$PROXYGRAPHICS
 70
     1
  9
$MEASUREMENT
 70
     1
  9
$CELWEIGHT
370
    -1
  9
$ENDCAPS
280
     0
  9
$JOINSTYLE
280
     0
  9
$LWDISPLAY
290
     1
  9
$INSUNITS
 70
     4
  9
$HYPERLINKBASE
  1

  9
$STYLESHEET
  1

  9
$XEDIT
290
     1
  9
$CEPSNTYPE
380
     0
  9
$PSTYLEMODE
290
     1
  9
$FINGERPRINTGUID
  2
{56fc9af1-405f-4709-91ef-17ce6923ab41}
  9
$VERSIONGUID
  2
{FAEB1C32-E019-11D5-929B-00C0DF256EC4}
  9
$EXTNAMES
290
     1
  9
$PSVPSCALE
 40
0.0
  9
$OLESTARTUP
290
     0
  0
ENDSEC
  0
SECTION
  2
CLASSES
  0
CLASS
  1
ACDBDICTIONARYWDFLT
  2
AcDbDictionaryWithDefault
  3
ObjectDBX Classes
 90
        0
280
     0
281
     0
  0
CLASS
  1
VISUALSTYLE
  2
AcDbVisualStyle
  3
ObjectDBX Classes
 90
     4095
280
     0
281
     0
  0
CLASS
  1
MATERIAL
  2
AcDbMaterial
  3
ObjectDBX Classes
 90
     1153
280
     0
281
     0
  0
CLASS
  1
SCALE
  2
AcDbScale
  3
ObjectDBX Classes
 90
     1153
280
     0
281
     0
  0
CLASS
  1
TABLESTYLE
  2
AcDbTableStyle
  3
ObjectDBX Classes
 90
     4095
280
     0
281
     0
  0
CLASS
  1
MLEADERSTYLE
  2
AcDbMLeaderStyle
  3
ACDB_MLEADERSTYLE_CLASS
 90
     4095
280
     0
281
     0
  0
CLASS
  1
SUN
  2
AcDbSun
  3
SCENEOE
 90
     1153
280
     0
281
     0
  0
CLASS
  1
ACDBPLACEHOLDER
  2
AcDbPlaceHolder
  3
ObjectDBX Classes
 90
        0
280
     0
281
     0
  0
CLASS
  1
LAYOUT
  2
AcDbLayout
  3
ObjectDBX Classes
 90
        0
280
     0
281
     0
  0
ENDSEC
  0
SECTION
  2
TABLES
  0
TABLE
  2
VPORT
  5
8
330
0
100
AcDbSymbolTable
 70
     1
  0
VPORT
  5
29
330
8
100
AcDbSymbolTableRecord
100
AcDbViewportTableRecord
  2
*Active
 70
     0
 10
0.0
 20
0.0
 11
1.0
 21
1.0
 12
-5.9781421076
 22
-3.2663373514
 13
0.0
 23
0.0
 14
10.0
 24
10.0
 15
10.0
 25
10.0
 16
0.0
 26
0.0
 36
1.0
 17
0.0
 27
0.0
 37
0.0
 40
47.213721249
 41
3.0427111749
 42
50.0
 43
0.0
 44
0.0
 50
0.0
 51
0.0
 71
     0
 72
   100
 73
     1
 74
     3
 75
     0
 76
     0
 77
     0
 78
     0
281
     0
 65
     1
110
0.0
120
0.0
130
0.0
111
1.0
121
0.0
131
0.0
112
0.0
122
1.0
132
0.0
 79
     0
146
0.0
  0
ENDTAB
  0
TABLE
  2
LTYPE
  5
5
330
0
100
AcDbSymbolTable
 70
     6
  0
LTYPE
  5
14
330
5
100
AcDbSymbolTableRecord
100
AcDbLinetypeTableRecord
  2
ByBlock
 70
     0
  3

 72
    65
 73
     0
 40
0.0
  0
LTYPE
  5
15
330
5
100
AcDbSymbolTableRecord
100
AcDbLinetypeTableRecord
  2
ByLayer
 70
     0
  3

 72
    65
 73
     0
 40
0.0
  0
LTYPE
  5
16
330
5
100
AcDbSymbolTableRecord
100
AcDbLinetypeTableRecord
  2
Continuous
 70
     0
  3
Solid line
 72
    65
 73
     0
 40
0.0
  0
LTYPE
  5
6E
330
5
100
AcDbSymbolTableRecord
100
AcDbLinetypeTableRecord
  2
HIDDEN
 70
     0
  3
Hidden __ __ __ __ __ __ __ __ __ __ __ __ __ __
 72
    65
 73
     2
 40
1.905
 49
1.27
 74
     0
 49
-0.635
 74
     0
  0
LTYPE
  5
6F
330
5
100
AcDbSymbolTableRecord
100
AcDbLinetypeTableRecord
  2
PHANTOM
 70
     0
  3
Phantom ______  __  __  ______  __  __  ______
 72
    65
 73
     6
 40
12.7
 49
6.35
 74
     0
 49
-1.27
 74
     0
 49
1.27
 74
     0
 49
-1.27
 74
     0
 49
1.27
 74
     0
 49
-1.27
 74
     0
  0
LTYPE
  5
70
330
5
100
AcDbSymbolTableRecord
100
AcDbLinetypeTableRecord
  2
CENTER
 70
     0
  3
Center ____ _ ____ _ ____ _ ____ _ ____ _ ____
 72
    65
 73
     4
 40
10.16
 49
6.35
 74
     0
 49
-1.27
 74
     0
 49
1.27
 74
     0
 49
-1.27
 74
     0
  0
LTYPE
  5
71
330
5
100
AcDbSymbolTableRecord
100
AcDbLinetypeTableRecord
  2
CENTERX2
 70
     0
  3
Center (2x) ________  __  ________  __  _____
 72
    65
 73
     4
 40
20.32
 49
12.7
 74
     0
 49
-2.54
 74
     0
 49
2.54
 74
     0
 49
-2.54
 74
     0
  0
LTYPE
  5
72
330
5
100
AcDbSymbolTableRecord
100
AcDbLinetypeTableRecord
  2
DOT2
 70
     0
  3
Dot (.5x) ........................................
 72
    65
 73
     2
 40
0.635
 49
0.0
 74
     0
 49
-0.635
 74
     0
  0
ENDTAB
  0
TABLE
  2
LAYER
  5
2
330
0
100
AcDbSymbolTable
 70
     1
  0
LAYER
  5
10
330
2
100
AcDbSymbolTableRecord
100
AcDbLayerTableRecord
  2
0
 70
     0
 62
     7
  6
Continuous
370
    -3
390
F
  0
ENDTAB
  0
TABLE
  2
STYLE
  5
3
330
0
100
AcDbSymbolTable
 70
     2
  0
STYLE
  5
11
330
3
100
AcDbSymbolTableRecord
100
AcDbTextStyleTableRecord
  2
Standard
 70
     0
 40
0.0
 41
1.0
 50
0.0
 71
     0
 42
3.5
  3
txt
  4

  0
STYLE
  5
1B4
330
3
100
AcDbSymbolTableRecord
100
AcDbTextStyleTableRecord
  2
SLDTEXTSTYLE0
 70
     0
 40
0.0
 41
0.7
 50
0.0
 71
     0
 42
3.5
  3
TXT
  4

  0
ENDTAB
  0
TABLE
  2
VIEW
  5
6
330
0
100
AcDbSymbolTable
 70
     0
  0
ENDTAB
  0
TABLE
  2
UCS
  5
7
330
0
100
AcDbSymbolTable
 70
     0
  0
ENDTAB
  0
TABLE
  2
APPID
  5
9
330
0
100
AcDbSymbolTable
 70
     1
  0
APPID
  5
12
330
9
100
AcDbSymbolTableRecord
100
AcDbRegAppTableRecord
  2
ACAD
 70
     0
  0
ENDTAB
  0
TABLE
  2
DIMSTYLE
  5
A
330
0
100
AcDbSymbolTable
 70
     1
100
AcDbDimStyleTable
  0
DIMSTYLE
105
27
330
A
100
AcDbSymbolTableRecord
100
AcDbDimStyleTableRecord
  2
ISO-25
 70
     0
 41
2.5
 42
0.625
 43
3.75
 44
1.25
 73
     0
 74
     0
 77
     1
 78
     8
140
2.5
141
2.5
143
0.0393700787
147
0.625
171
     3
172
     1
178
     0
271
     2
272
     2
274
     3
278
    44
283
     0
284
     8
340
11
  0
ENDTAB
  0
TABLE
  2
BLOCK_RECORD
  5
1
330
0
100
AcDbSymbolTable
 70
     8
  0
BLOCK_RECORD
  5
1F
330
1
100
AcDbSymbolTableRecord
100
AcDbBlockTableRecord
  2
*Model_Space
340
22
  0
BLOCK_RECORD
  5
1B
330
1
100
AcDbSymbolTableRecord
100
AcDbBlockTableRecord
  2
*Paper_Space
340
1E
  0
BLOCK_RECORD
  5
23
330
1
100
AcDbSymbolTableRecord
100
AcDbBlockTableRecord
  2
*Paper_Space0
340
26
  0
BLOCK_RECORD
  5
C1
330
1
100
AcDbSymbolTableRecord
100
AcDbBlockTableRecord
  2
*Paper_Space1
340
C2
  0
BLOCK_RECORD
  5
D5
330
1
100
AcDbSymbolTableRecord
100
AcDbBlockTableRecord
  2
*Paper_Space2
340
D6
  0
BLOCK_RECORD
  5
E9
330
1
100
AcDbSymbolTableRecord
100
AcDbBlockTableRecord
  2
*Paper_Space3
340
EA
  0
BLOCK_RECORD
  5
100
330
1
100
AcDbSymbolTableRecord
100
AcDbBlockTableRecord
  2
*Paper_Space4
340
101
  0
BLOCK_RECORD
  5
12B
330
1
100
AcDbSymbolTableRecord
100
AcDbBlockTableRecord
  2
*Paper_Space5
340
12C
  0
BLOCK_RECORD
  5
154
330
1
100
AcDbSymbolTableRecord
100
AcDbBlockTableRecord
  2
*Paper_Space6
340
155
  0
BLOCK_RECORD
  5
179
330
1
100
AcDbSymbolTableRecord
100
AcDbBlockTableRecord
  2
*Paper_Space7
340
17A
  0
ENDTAB
  0
ENDSEC
  0
SECTION
  2
BLOCKS
  0
BLOCK
  5
20
330
1F
100
AcDbEntity
  8
0
100
AcDbBlockBegin
  2
*Model_Space
 70
     0
 10
0.0
 20
0.0
 30
0.0
  3
*Model_Space
  1

  0
ENDBLK
  5
21
330
1F
100
AcDbEntity
  8
0
100
AcDbBlockEnd
  0
BLOCK
  5
1C
330
1B
100
AcDbEntity
 67
     1
  8
0
100
AcDbBlockBegin
  2
*Paper_Space
 70
     0
 10
0.0
 20
0.0
 30
0.0
  3
*Paper_Space
  1

  0
ENDBLK
  5
1D
330
1B
100
AcDbEntity
 67
     1
  8
0
100
AcDbBlockEnd
  0
BLOCK
  5
24
330
23
100
AcDbEntity
  8
0
100
AcDbBlockBegin
  2
*Paper_Space0
 70
     0
 10
0.0
 20
0.0
 30
0.0
  3
*Paper_Space0
  1

  0
LINE
  5
B9
330
23
100
AcDbEntity
  8
0
  6
Continuous
 62
     7
370
    25
100
AcDbLine
 10
57.2334537938
 20
-0.0976513038
 30
0.0
 11
-48.7665462062
 21
-1.2750167632
 31
0.0
  0
LINE
  5
BA
330
23
100
AcDbEntity
  8
0
  6
Continuous
 62
     7
370
    25
100
AcDbLine
 10
-48.7665462062
 20
-1.2750167632
 30
0.0
 11
-64.0874350686
 21
-14.1307689569
 31
0.0
  0
LINE
  5
BB
330
23
100
AcDbEntity
  8
0
  6
Continuous
 62
     7
370
    25
100
AcDbLine
 10
-48.7665462062
 20
7.7347924322
 30
0.0
 11
57.2334537938
 21
8.9121578916
 31
0.0
  0
LINE
  5
BC
330
23
100
AcDbEntity
  8
0
  6
Continuous
 62
     7
370
    25
100
AcDbLine
 10
57.2334537938
 20
8.9121578916
 30
0.0
 11
76.4110683143
 21
-8.3571368388
 31
0.0
  0
LINE
  5
BD
330
23
100
AcDbEntity
  8
0
  6
Continuous
 62
     7
370
    25
100
AcDbLine
 10
76.4110683143
 20
-8.3571368388
 30
0.0
 11
72.5543426562
 21
-12.9534034975
 31
0.0
  0
LINE
  5
BE
330
23
100
AcDbEntity
  8
0
  6
Continuous
 62
     7
370
    25
100
AcDbLine
 10
72.5543426562
 20
-12.9534034975
 30
0.0
 11
57.2334537938
 21
-0.0976513038
 31
0.0
  0
LINE
  5
BF
330
23
100
AcDbEntity
  8
0
  6
Continuous
 62
     7
370
    25
100
AcDbLine
 10
-68.523900043
 20
-8.8435958852
 30
0.0
 11
-48.7665462062
 21
7.7347924322
 31
0.0
  0
LINE
  5
C0
330
23
100
AcDbEntity
  8
0
  6
Continuous
 62
     7
370
    25
100
AcDbLine
 10
-64.0874350686
 20
-14.1307689569
 30
0.0
 11
-68.523900043
 21
-8.8435958852
 31
0.0
  0
VIEWPORT
  5
1A4
330
23
100
AcDbEntity
  8
0
100
AcDbViewport
 10
0.0
 20
0.0
 30
0.0
 40
205.6
 41
156.0
 68
     1
 69
     1
 12
-5.9781421076
 22
-3.2663373514
 13
0.0
 23
0.0
 14
10.0
 24
10.0
 15
10.0
 25
10.0
 16
0.0
 26
0.0
 36
1.0
 17
0.0
 27
0.0
 37
0.0
 42
50.0
 43
0.0
 44
0.0
 45
109.0009916893
 50
0.0
 51
0.0
 72
   100
 90
   557152
  1

281
     0
 71
     1
 74
     0
110
0.0
120
0.0
130
0.0
111
1.0
121
0.0
131
0.0
112
0.0
122
1.0
132
0.0
 79
     0
146
0.0
  0
MTEXT
  5
1B9
330
23
100
AcDbEntity
  8
0
  6
Continuous
 62
     7
100
AcDbMText
 10
-68.523900043
 20
-15.1503353486
 30
0.0
 40
4.83362
 41
0.0
 71
     1
 72
     1
  1
SOLIDWORKS Educational Product.
  7
SLDTEXTSTYLE0
 73
     1
 44
1.0
  0
MTEXT
  5
1BA
330
23
100
AcDbEntity
  8
0
  6
Continuous
 62
     7
100
AcDbMText
 10
-68.523900043
 20
-22.4007653486
 30
0.0
 40
4.83362
 41
0.0
 71
     1
 72
     1
  1
For Instructional Use Only.
  7
SLDTEXTSTYLE0
 73
     1
 44
1.0
  0
ENDBLK
  5
25
330
23
100
AcDbEntity
  8
0
100
AcDbBlockEnd
  0
BLOCK
  5
C3
330
C1
100
AcDbEntity
  8
0
100
AcDbBlockBegin
  2
*Paper_Space1
 70
     0
 10
0.0
 20
0.0
 30
0.0
  3
*Paper_Space1
  1

  0
LINE
  5
CD
330
C1
100
AcDbEntity
  8
0
  6
Continuous
 62
     7
370
    25
100
AcDbLine
 10
-76.4110683143
 20
-8.3571368388
 30
0.0
 11
-72.5543426562
 21
-12.9534034975
 31
0.0
  0
LINE
  5
CE
330
C1
100
AcDbEntity
  8
0
  6
Continuous
 62
     7
370
    25
100
AcDbLine
 10
-57.2334537938
 20
8.9121578916
 30
0.0
 11
-76.4110683143
 21
-8.3571368388
 31
0.0
  0
LINE
  5
CF
330
C1
100
AcDbEntity
  8
0
  6
Continuous
 62
     7
370
    25
100
AcDbLine
 10
48.7665462062
 20
7.7347924322
 30
0.0
 11
-57.2334537938
 21
8.9121578916
 31
0.0
  0
LINE
  5
D0
330
C1
100
AcDbEntity
  8
0
  6
Continuous
 62
     7
370
    25
100
AcDbLine
 10
68.523900043
 20
-8.8435958852
 30
0.0
 11
48.7665462062
 21
7.7347924322
 31
0.0
  0
LINE
  5
D1
330
C1
100
AcDbEntity
  8
0
  6
Continuous
 62
     7
370
    25
100
AcDbLine
 10
64.0874350686
 20
-14.1307689569
 30
0.0
 11
68.523900043
 21
-8.8435958852
 31
0.0
  0
LINE
  5
D2
330
C1
100
AcDbEntity
  8
0
  6
Continuous
 62
     7
370
    25
100
AcDbLine
 10
48.7665462062
 20
-1.2750167632
 30
0.0
 11
64.0874350686
 21
-14.1307689569
 31
0.0
  0
LINE
  5
D3
330
C1
100
AcDbEntity
  8
0
  6
Continuous
 62
     7
370
    25
100
AcDbLine
 10
-57.2334537938
 20
-0.0976513038
 30
0.0
 11
48.7665462062
 21
-1.2750167632
 31
0.0
  0
LINE
  5
D4
330
C1
100
AcDbEntity
  8
0
  6
Continuous
 62
     7
370
    25
100
AcDbLine
 10
-72.5543426562
 20
-12.9534034975
 30
0.0
 11
-57.2334537938
 21
-0.0976513038
 31
0.0
  0
VIEWPORT
  5
1A6
330
C1
100
AcDbEntity
  8
0
100
AcDbViewport
 10
0.0
 20
0.0
 30
0.0
 40
205.6
 41
156.0
 68
     1
 69
     1
 12
-5.9781421076
 22
-3.2663373514
 13
0.0
 23
0.0
 14
10.0
 24
10.0
 15
10.0
 25
10.0
 16
0.0
 26
0.0
 36
1.0
 17
0.0
 27
0.0
 37
0.0
 42
50.0
 43
0.0
 44
0.0
 45
109.0009916893
 50
0.0
 51
0.0
 72
   100
 90
   557152
  1

281
     0
 71
     1
 74
     0
110
0.0
120
0.0
130
0.0
111
1.0
121
0.0
131
0.0
112
0.0
122
1.0
132
0.0
 79
     0
146
0.0
  0
MTEXT
  5
1BB
330
C1
100
AcDbEntity
  8
0
  6
Continuous
 62
     7
100
AcDbMText
 10
-76.4110683143
 20
-15.1503353486
 30
0.0
 40
4.83362
 41
0.0
 71
     1
 72
     1
  1
SOLIDWORKS Educational Product.
  7
SLDTEXTSTYLE0
 73
     1
 44
1.0
  0
MTEXT
  5
1BC
330
C1
100
AcDbEntity
  8
0
  6
Continuous
 62
     7
100
AcDbMText
 10
-76.4110683143
 20
-22.4007653486
 30
0.0
 40
4.83362
 41
0.0
 71
     1
 72
     1
  1
For Instructional Use Only.
  7
SLDTEXTSTYLE0
 73
     1
 44
1.0
  0
ENDBLK
  5
C4
330
C1
100
AcDbEntity
  8
0
100
AcDbBlockEnd
  0
BLOCK
  5
D7
330
D5
100
AcDbEntity
  8
0
100
AcDbBlockBegin
  2
*Paper_Space2
 70
     0
 10
0.0
 20
0.0
 30
0.0
  3
*Paper_Space2
  1

  0
LINE
  5
E3
330
D5
100
AcDbEntity
  8
0
  6
Continuous
 62
     7
370
    25
100
AcDbLine
 10
6.0
 20
8.9121578916
 30
0.0
 11
0.0
 21
8.9121578916
 31
0.0
  0
LINE
  5
E4
330
D5
100
AcDbEntity
  8
0
  6
Continuous
 62
     7
370
    25
100
AcDbLine
 10
6.0
 20
8.9121578916
 30
0.0
 11
6.0
 21
-14.1307689569
 31
0.0
  0
LINE
  5
E5
330
D5
100
AcDbEntity
  8
0
  6
Continuous
 62
     7
370
    25
100
AcDbLine
 10
6.0
 20
-8.3571368388
 30
0.0
 11
0.0
 21
-8.3571368388
 31
0.0
  0
LINE
  5
E6
330
D5
100
AcDbEntity
  8
0
  6
Continuous
 62
     7
370
    25
100
AcDbLine
 10
0.0
 20
8.9121578916
 30
0.0
 11
0.0
 21
-14.1307689569
 31
0.0
  0
LINE
  5
E7
330
D5
100
AcDbEntity
  8
0
  6
Continuous
 62
     7
370
    25
100
AcDbLine
 10
6.0
 20
-12.9534034975
 30
0.0
 11
0.0
 21
-12.9534034975
 31
0.0
  0
LINE
  5
E8
330
D5
100
AcDbEntity
  8
0
  6
Continuous
 62
     7
370
    25
100
AcDbLine
 10
6.0
 20
-14.1307689569
 30
0.0
 11
0.0
 21
-14.1307689569
 31
0.0
  0
VIEWPORT
  5
1A8
330
D5
100
AcDbEntity
  8
0
100
AcDbViewport
 10
0.0
 20
0.0
 30
0.0
 40
205.6
 41
156.0
 68
     1
 69
     1
 12
-5.9781421076
 22
-3.2663373514
 13
0.0
 23
0.0
 14
10.0
 24
10.0
 15
10.0
 25
10.0
 16
0.0
 26
0.0
 36
1.0
 17
0.0
 27
0.0
 37
0.0
 42
50.0
 43
0.0
 44
0.0
 45
109.0009916893
 50
0.0
 51
0.0
 72
   100
 90
   557152
  1

281
     0
 71
     1
 74
     0
110
0.0
120
0.0
130
0.0
111
1.0
121
0.0
131
0.0
112
0.0
122
1.0
132
0.0
 79
     0
146
0.0
  0
MTEXT
  5
1BD
330
D5
100
AcDbEntity
  8
0
  6
Continuous
 62
     7
100
AcDbMText
 10
0.0
 20
-15.1503353486
 30
0.0
 40
4.83362
 41
0.0
 71
     1
 72
     1
  1
SOLIDWORKS Educational Product.
  7
SLDTEXTSTYLE0
 73
     1
 44
1.0
  0
MTEXT
  5
1BE
330
D5
100
AcDbEntity
  8
0
  6
Continuous
 62
     7
100
AcDbMText
 10
0.0
 20
-22.4007653486
 30
0.0
 40
4.83362
 41
0.0
 71
     1
 72
     1
  1
For Instructional Use Only.
  7
SLDTEXTSTYLE0
 73
     1
 44
1.0
  0
ENDBLK
  5
D8
330
D5
100
AcDbEntity
  8
0
100
AcDbBlockEnd
  0
BLOCK
  5
EB
330
E9
100
AcDbEntity
  8
0
100
AcDbBlockBegin
  2
*Paper_Space3
 70
     0
 10
0.0
 20
0.0
 30
0.0
  3
*Paper_Space3
  1

  0
LWPOLYLINE
  5
F5
330
E9
100
AcDbEntity
  8
0
  6
Continuous
 62
     7
370
    25
100
AcDbPolyline
 90
       29
 70
   128
 43
0.0
 10
-3.2487874574
 20
8.2978351767
 10
-3.6976318668
 20
8.2972734901
 10
-4.1239693432
 20
8.2956165955
 10
-4.5064215454
 20
8.2929475766
 10
-4.8258107231
 20
8.2894002692
 10
-5.0661213691
 20
8.2851525499
 10
-5.2153033042
 20
8.2804174173
 10
-5.2658759234
 20
8.2754323106
 10
-5.2153033042
 20
8.2704472039
 10
-5.0661213691
 20
8.2657120713
 10
-4.8258107231
 20
8.2614643521
 10
-4.5064215454
 20
8.2579170446
 10
-4.1239693432
 20
8.2552480257
 10
-3.6976318668
 20
8.2535911311
 10
-3.2487874574
 20
8.2530294445
 10
-2.7999430481
 20
8.2535911311
 10
-2.3736055717
 20
8.2552480257
 10
-1.9911533695
 20
8.2579170446
 10
-1.6717641918
 20
8.2614643521
 10
-1.4314535458
 20
8.2657120713
 10
-1.2822716106
 20
8.2704472039
 10
-1.2316989915
 20
8.2754323106
 10
-1.2822716106
 20
8.2804174173
 10
-1.4314535458
 20
8.2851525499
 10
-1.6717641918
 20
8.2894002692
 10
-1.9911533695
 20
8.2929475766
 10
-2.3736055717
 20
8.2956165955
 10
-2.7999430481
 20
8.2972734901
 10
-3.2487874574
 20
8.2978351767
  0
LWPOLYLINE
  5
F6
330
E9
100
AcDbEntity
  8
0
  6
Continuous
 62
     7
370
    25
100
AcDbPolyline
 90
       29
 70
   128
 43
0.0
 10
-3.2487874574
 20
7.8938788794
 10
-3.6976318668
 20
7.8933171927
 10
-4.1239693432
 20
7.8916602982
 10
-4.5064215454
 20
7.8889912793
 10
-4.8258107231
 20
7.8854439718
 10
-5.0661213691
 20
7.8811962526
 10
-5.2153033042
 20
7.8764611199
 10
-5.2658759234
 20
7.8714760132
 10
-5.2153033042
 20
7.8664909066
 10
-5.0661213691
 20
7.8617557739
 10
-4.8258107231
 20
7.8575080547
 10
-4.5064215454
 20
7.8539607472
 10
-4.1239693432
 20
7.8512917283
 10
-3.6976318668
 20
7.8496348338
 10
-3.2487874574
 20
7.8490731471
 10
-2.7999430481
 20
7.8496348338
 10
-2.3736055717
 20
7.8512917283
 10
-1.9911533695
 20
7.8539607472
 10
-1.6717641918
 20
7.8575080547
 10
-1.4314535458
 20
7.8617557739
 10
-1.2822716106
 20
7.8664909066
 10
-1.2316989915
 20
7.8714760132
 10
-1.2822716106
 20
7.8764611199
 10
-1.4314535458
 20
7.8811962526
 10
-1.6717641918
 20
7.8854439718
 10
-1.9911533695
 20
7.8889912793
 10
-2.3736055717
 20
7.8916602982
 10
-2.7999430481
 20
7.8933171927
 10
-3.2487874574
 20
7.8938788794
  0
LWPOLYLINE
  5
F7
330
E9
100
AcDbEntity
  8
0
  6
Continuous
 62
     7
370
    25
100
AcDbPolyline
 90
       29
 70
   128
 43
0.0
 10
-3.2487874574
 20
8.8566729403
 10
-3.6976318668
 20
8.8561112537
 10
-4.1239693432
 20
8.8544543591
 10
-4.5064215454
 20
8.8517853402
 10
-4.8258107231
 20
8.8482380327
 10
-5.0661213691
 20
8.8439903135
 10
-5.2153033042
 20
8.8392551808
 10
-5.2658759234
 20
8.8342700742
 10
-5.2153033042
 20
8.8292849675
 10
-5.0661213691
 20
8.8245498348
 10
-4.8258107231
 20
8.8203021156
 10
-4.5064215454
 20
8.8167548081
 10
-4.1239693432
 20
8.8140857892
 10
-3.6976318668
 20
8.8124288947
 10
-3.2487874574
 20
8.811867208
 10
-2.7999430481
 20
8.8124288947
 10
-2.3736055717
 20
8.8140857892
 10
-1.9911533695
 20
8.8167548081
 10
-1.6717641918
 20
8.8203021156
 10
-1.4314535458
 20
8.8245498348
 10
-1.2822716106
 20
8.8292849675
 10
-1.2316989915
 20
8.8342700742
 10
-1.2822716106
 20
8.8392551808
 10
-1.4314535458
 20
8.8439903135
 10
-1.6717641918
 20
8.8482380327
 10
-1.9911533695
 20
8.8517853402
 10
-2.3736055717
 20
8.8544543591
 10
-2.7999430481
 20
8.8561112537
 10
-3.2487874574
 20
8.8566729403
  0
LINE
  5
FA
330
E9
100
AcDbEntity
  8
0
  6
Continuous
 62
     7
370
    25
100
AcDbLine
 10
-6.0
 20
-14.1307689569
 30
0.0
 11
0.0
 21
-14.1307689569
 31
0.0
  0
LINE
  5
FB
330
E9
100
AcDbEntity
  8
0
  6
Continuous
 62
     7
370
    25
100
AcDbLine
 10
-6.0
 20
-14.1307689569
 30
0.0
 11
-6.0
 21
8.9121578916
 31
0.0
  0
LINE
  5
FC
330
E9
100
AcDbEntity
  8
0
  6
Continuous
 62
     7
370
    25
100
AcDbLine
 10
-6.0
 20
-8.8435958852
 30
0.0
 11
0.0
 21
-8.8435958852
 31
0.0
  0
LINE
  5
FD
330
E9
100
AcDbEntity
  8
0
  6
Continuous
 62
     7
370
    25
100
AcDbLine
 10
0.0
 20
-14.1307689569
 30
0.0
 11
0.0
 21
8.9121578916
 31
0.0
  0
LINE
  5
FE
330
E9
100
AcDbEntity
  8
0
  6
Continuous
 62
     7
370
    25
100
AcDbLine
 10
-6.0
 20
7.7347924322
 30
0.0
 11
0.0
 21
7.7347924322
 31
0.0
  0
LINE
  5
FF
330
E9
100
AcDbEntity
  8
0
  6
Continuous
 62
     7
370
    25
100
AcDbLine
 10
-6.0
 20
8.9121578916
 30
0.0
 11
0.0
 21
8.9121578916
 31
0.0
  0
VIEWPORT
  5
1AA
330
E9
100
AcDbEntity
  8
0
100
AcDbViewport
 10
0.0
 20
0.0
 30
0.0
 40
205.6
 41
156.0
 68
     1
 69
     1
 12
-5.9781421076
 22
-3.2663373514
 13
0.0
 23
0.0
 14
10.0
 24
10.0
 15
10.0
 25
10.0
 16
0.0
 26
0.0
 36
1.0
 17
0.0
 27
0.0
 37
0.0
 42
50.0
 43
0.0
 44
0.0
 45
109.0009916893
 50
0.0
 51
0.0
 72
   100
 90
   557152
  1

281
     0
 71
     1
 74
     0
110
0.0
120
0.0
130
0.0
111
1.0
121
0.0
131
0.0
112
0.0
122
1.0
132
0.0
 79
     0
146
0.0
  0
MTEXT
  5
1BF
330
E9
100
AcDbEntity
  8
0
  6
Continuous
 62
     7
100
AcDbMText
 10
-6.0
 20
-15.1503353486
 30
0.0
 40
4.83362
 41
0.0
 71
     1
 72
     1
  1
SOLIDWORKS Educational Product.
  7
SLDTEXTSTYLE0
 73
     1
 44
1.0
  0
MTEXT
  5
1C0
330
E9
100
AcDbEntity
  8
0
  6
Continuous
 62
     7
100
AcDbMText
 10
-6.0
 20
-22.4007653486
 30
0.0
 40
4.83362
 41
0.0
 71
     1
 72
     1
  1
For Instructional Use Only.
  7
SLDTEXTSTYLE0
 73
     1
 44
1.0
  0
ENDBLK
  5
EC
330
E9
100
AcDbEntity
  8
0
100
AcDbBlockEnd
  0
BLOCK
  5
102
330
100
100
AcDbEntity
  8
0
100
AcDbBlockBegin
  2
*Paper_Space4
 70
     0
 10
0.0
 20
0.0
 30
0.0
  3
*Paper_Space4
  1

  0
CIRCLE
  5
112
330
100
100
AcDbEntity
  8
0
  6
Continuous
 62
     7
370
    25
100
AcDbCircle
 10
-0.0080626372
 20
3.2487690017
 30
0.0
 40
2.017045957821093
  0
CIRCLE
  5
113
330
100
100
AcDbEntity
  8
0
  6
Continuous
 62
     7
370
    25
100
AcDbCircle
 10
36.3607361748
 20
3.2487690017
 30
0.0
 40
2.01704595782109
  0
CIRCLE
  5
114
330
100
100
AcDbEntity
  8
0
  6
Continuous
 62
     7
370
    25
100
AcDbCircle
 10
-50.3210750174
 20
3.2487690017
 30
0.0
 40
2.017045957821097
  0
LINE
  5
11D
330
100
100
AcDbEntity
  8
0
  6
Continuous
 62
     7
370
    25
100
AcDbLine
 10
64.0874350686
 20
6.0
 30
0.0
 11
64.0874350686
 21
0.0
 31
0.0
  0
LINE
  5
11E
330
100
100
AcDbEntity
  8
0
  6
Continuous
 62
     7
370
    25
100
AcDbLine
 10
68.523900043
 20
6.0
 30
0.0
 11
68.523900043
 21
0.0
 31
0.0
  0
LINE
  5
11F
330
100
100
AcDbEntity
  8
0
  6
Continuous
 62
     7
370
    25
100
AcDbLine
 10
48.7665462062
 20
6.0
 30
0.0
 11
48.7665462062
 21
0.0
 31
0.0
  0
LINE
  5
120
330
100
100
AcDbEntity
  8
0
  6
Continuous
 62
     7
370
    25
100
AcDbLine
 10
-76.4110683143
 20
6.0
 30
0.0
 11
-76.4110683143
 21
0.0
 31
0.0
  0
LINE
  5
121
330
100
100
AcDbEntity
  8
0
  6
Continuous
 62
     7
370
    25
100
AcDbLine
 10
-72.5543426562
 20
6.0
 30
0.0
 11
-72.5543426562
 21
0.0
 31
0.0
  0
LINE
  5
122
330
100
100
AcDbEntity
  8
0
  6
Continuous
 62
     7
370
    25
100
AcDbLine
 10
-76.4110683143
 20
6.0
 30
0.0
 11
68.523900043
 21
6.0
 31
0.0
  0
LINE
  5
123
330
100
100
AcDbEntity
  8
0
  6
Continuous
 62
     7
370
    25
100
AcDbLine
 10
-76.4110683143
 20
0.0
 30
0.0
 11
68.523900043
 21
0.0
 31
0.0
  0
LINE
  5
124
330
100
100
AcDbEntity
  8
0
  6
Continuous
 62
     7
370
    25
100
AcDbLine
 10
-57.2334537938
 20
6.0
 30
0.0
 11
-57.2334537938
 21
0.0
 31
0.0
  0
ARC
  5
125
330
100
100
AcDbEntity
  8
0
  6
Continuous
 62
     7
370
    25
100
AcDbCircle
 10
36.4607713344
 20
3.2488577266
 30
0.0
 40
2.017019518391153
100
AcDbArc
 50
91.4229047015
 51
180.0019960769
  0
ARC
  5
126
330
100
100
AcDbEntity
  8
0
  6
Continuous
 62
     7
370
    25
100
AcDbCircle
 10
36.4607899595
 20
3.2487353559
 30
0.0
 40
2.017038142943662
100
AcDbArc
 50
179.9985200079
 51
268.576579214
  0
ARC
  5
127
330
100
100
AcDbEntity
  8
0
  6
Continuous
 62
     7
370
    25
100
AcDbCircle
 10
0.0919725223
 20
3.2488577266
 30
0.0
 40
2.017019518391159
100
AcDbArc
 50
91.4229047013
 51
180.0019960769
  0
ARC
  5
128
330
100
100
AcDbEntity
  8
0
  6
Continuous
 62
     7
370
    25
100
AcDbCircle
 10
0.0919911474
 20
3.2487353559
 30
0.0
 40
2.017038142943673
100
AcDbArc
 50
179.9985200079
 51
268.576579214
  0
ARC
  5
129
330
100
100
AcDbEntity
  8
0
  6
Continuous
 62
     7
370
    25
100
AcDbCircle
 10
-50.2210398579
 20
3.2488577266
 30
0.0
 40
2.017019518391165
100
AcDbArc
 50
91.4229047015
 51
180.0019960769
  0
ARC
  5
12A
330
100
100
AcDbEntity
  8
0
  6
Continuous
 62
     7
370
    25
100
AcDbCircle
 10
-50.2210212328
 20
3.2487353559
 30
0.0
 40
2.017038142943676
100
AcDbArc
 50
179.9985200079
 51
268.5765792141
  0
VIEWPORT
  5
1AC
330
100
100
AcDbEntity
  8
0
100
AcDbViewport
 10
0.0
 20
0.0
 30
0.0
 40
205.6
 41
156.0
 68
     1
 69
     1
 12
-5.9781421076
 22
-3.2663373514
 13
0.0
 23
0.0
 14
10.0
 24
10.0
 15
10.0
 25
10.0
 16
0.0
 26
0.0
 36
1.0
 17
0.0
 27
0.0
 37
0.0
 42
50.0
 43
0.0
 44
0.0
 45
109.0009916893
 50
0.0
 51
0.0
 72
   100
 90
   557152
  1

281
     0
 71
     1
 74
     0
110
0.0
120
0.0
130
0.0
111
1.0
121
0.0
131
0.0
112
0.0
122
1.0
132
0.0
 79
     0
146
0.0
  0
MTEXT
  5
1C1
330
100
100
AcDbEntity
  8
0
  6
Continuous
 62
     7
100
AcDbMText
 10
-76.4110683143
 20
-1.0195663917
 30
0.0
 40
4.83362
 41
0.0
 71
     1
 72
     1
  1
SOLIDWORKS Educational Product.
  7
SLDTEXTSTYLE0
 73
     1
 44
1.0
  0
MTEXT
  5
1C2
330
100
100
AcDbEntity
  8
0
  6
Continuous
 62
     7
100
AcDbMText
 10
-76.4110683143
 20
-8.2699963917
 30
0.0
 40
4.83362
 41
0.0
 71
     1
 72
     1
  1
For Instructional Use Only.
  7
SLDTEXTSTYLE0
 73
     1
 44
1.0
  0
ENDBLK
  5
103
330
100
100
AcDbEntity
  8
0
100
AcDbBlockEnd
  0
BLOCK
  5
12D
330
12B
100
AcDbEntity
  8
0
100
AcDbBlockBegin
  2
*Paper_Space5
 70
     0
 10
0.0
 20
0.0
 30
0.0
  3
*Paper_Space5
  1

  0
LWPOLYLINE
  5
13D
330
12B
100
AcDbEntity
  8
0
  6
Continuous
 62
     7
370
    25
100
AcDbPolyline
 90
       29
 70
   128
 43
0.0
 10
-3.658453426
 20
6.2351648463
 10
-3.9400763152
 20
6.0308434229
 10
-4.1360613843
 20
5.7945648989
 10
-4.2365811235
 20
5.538177266
 10
-4.2365950533
 20
5.2745368708
 10
-4.1361024753
 20
5.0168637434
 10
-3.9401425069
 20
4.7780786906
 10
-3.6585413992
 20
4.5701553918
 10
-3.3054198076
 20
4.4035199896
 10
-2.8984847232
 20
4.2865282787
 10
-2.4581415704
 20
4.2250467122
 10
-2.0064709936
 20
4.2221582323
 10
-1.5661216414
 20
4.2780076797
 10
-1.1591744692
 20
4.3897945298
 10
-0.8060355074
 20
4.5519133232
 10
-0.5244126181
 20
4.7562347466
 10
-0.328427549
 20
4.9925132706
 10
-0.2279078099
 20
5.2489009035
 10
-0.22789388
 20
5.5125412987
 10
-0.328386458
 20
5.7702144261
 10
-0.5243464264
 20
6.0089994789
 10
-0.8059475341
 20
6.2169227777
 10
-1.1590691257
 20
6.3835581799
 10
-1.5660042101
 20
6.5005498908
 10
-2.0063473629
 20
6.5620314574
 10
-2.4580179398
 20
6.5649199372
 10
-2.8983672919
 20
6.5090704898
 10
-3.3053144641
 20
6.3972836397
 10
-3.658453426
 20
6.2351648463
  0
LWPOLYLINE
  5
13E
330
12B
100
AcDbEntity
  8
0
  6
Continuous
 62
     7
370
    25
100
AcDbPolyline
 90
       29
 70
   128
 43
0.0
 10
22.0581708376
 20
-8.9405731404
 10
21.7765479484
 20
-9.1448945638
 10
21.5805628793
 20
-9.3811730878
 10
21.4800431401
 20
-9.6375607207
 10
21.4800292103
 20
-9.9012011159
 10
21.5805217883
 20
-10.1588742433
 10
21.7764817567
 20
-10.3976592961
 10
22.0580828644
 20
-10.6055825949
 10
22.411204456
 20
-10.7722179971
 10
22.8181395404
 20
-10.889209708
 10
23.2584826932
 20
-10.9506912746
 10
23.71015327
 20
-10.9535797544
 10
24.1505026222
 20
-10.897730307
 10
24.5574497944
 20
-10.7859434569
 10
24.9105887562
 20
-10.6238246635
 10
25.1922116455
 20
-10.4195032402
 10
25.3881967146
 20
-10.1832247161
 10
25.4887164537
 20
-9.9268370832
 10
25.4887303836
 20
-9.663196688
 10
25.3882378056
 20
-9.4055235607
 10
25.1922778372
 20
-9.1667385078
 10
24.9106767295
 20
-8.958815209
 10
24.5575551379
 20
-8.7921798068
 10
24.1506200535
 20
-8.6751880959
 10
23.7102769007
 20
-8.6137065294
 10
23.2586063238
 20
-8.6108180496
 10
22.8182569717
 20
-8.666667497
 10
22.4113097994
 20
-8.7784543471
 10
22.0581708376
 20
-8.9405731404
  0
LWPOLYLINE
  5
13F
330
12B
100
AcDbEntity
  8
0
  6
Continuous
 62
     7
370
    25
100
AcDbPolyline
 90
       29
 70
   128
 43
0.0
 10
-39.2351256619
 20
27.2294544062
 10
-39.5167485512
 20
27.0251329828
 10
-39.7127336203
 20
26.7888544588
 10
-39.8132533594
 20
26.5324668259
 10
-39.8132672893
 20
26.2688264307
 10
-39.7127747113
 20
26.0111533033
 10
-39.5168147429
 20
25.7723682505
 10
-39.2352136352
 20
25.5644449517
 10
-38.8820920436
 20
25.3978095494
 10
-38.4751569592
 20
25.2808178386
 10
-38.0348138064
 20
25.219336272
 10
-37.5831432296
 20
25.2164477922
 10
-37.1427938774
 20
25.2722972396
 10
-36.7358467052
 20
25.3840840897
 10
-36.3827077434
 20
25.5462028831
 10
-36.1010848541
 20
25.7505243064
 10
-35.905099785
 20
25.9868028305
 10
-35.8045800458
 20
26.2431904634
 10
-35.804566116
 20
26.5068308586
 10
-35.905058694
 20
26.7645039859
 10
-36.1010186624
 20
27.0032890388
 10
-36.3826197701
 20
27.2112123376
 10
-36.7357413617
 20
27.3778477398
 10
-37.1426764461
 20
27.4948394507
 10
-37.5830195989
 20
27.5563210172
 10
-38.0346901757
 20
27.559209497
 10
-38.4750395279
 20
27.5033600496
 10
-38.8819867001
 20
27.3915731995
 10
-39.2351256619
 20
27.2294544062
  0
LINE
  5
143
330
12B
100
AcDbEntity
  8
0
  6
Continuous
 62
     7
370
    25
100
AcDbLine
 10
-58.2734252499
 20
21.9181403676
 30
0.0
 11
-55.5463083839
 21
16.5907700023
 31
0.0
  0
LINE
  5
144
330
12B
100
AcDbEntity
  8
0
  6
Continuous
 62
     7
370
    25
100
AcDbLine
 10
-44.7128039755
 20
28.1908442775
 30
0.0
 11
-58.2734252499
 21
21.9181403676
 31
0.0
  0
LINE
  5
145
330
12B
100
AcDbEntity
  8
0
  6
Continuous
 62
     7
370
    25
100
AcDbLine
 10
30.2405148303
 20
-16.0401525972
 30
0.0
 11
-44.7128039755
 21
28.1908442775
 31
0.0
  0
LINE
  5
146
330
12B
100
AcDbEntity
  8
0
  6
Continuous
 62
     7
370
    25
100
AcDbLine
 10
44.2110737066
 20
-37.642115224
 30
0.0
 11
30.2405148303
 21
-16.0401525972
 31
0.0
  0
LINE
  5
147
330
12B
100
AcDbEntity
  8
0
  6
Continuous
 62
     7
370
    25
100
AcDbLine
 10
41.0740192387
 20
-40.14832482
 30
0.0
 11
44.2110737066
 21
-37.642115224
 31
0.0
  0
LINE
  5
148
330
12B
100
AcDbEntity
  8
0
  6
Continuous
 62
     7
370
    25
100
AcDbLine
 10
30.2405148303
 20
-23.3970295126
 30
0.0
 11
41.0740192387
 21
-40.14832482
 31
0.0
  0
LINE
  5
149
330
12B
100
AcDbEntity
  8
0
  6
Continuous
 62
     7
370
    25
100
AcDbLine
 10
-44.7128039755
 20
20.8339673621
 30
0.0
 11
30.2405148303
 21
-23.3970295126
 31
0.0
  0
LINE
  5
14A
330
12B
100
AcDbEntity
  8
0
  6
Continuous
 62
     7
370
    25
100
AcDbLine
 10
-55.5463083839
 20
16.5907700023
 30
0.0
 11
-44.7128039755
 21
20.8339673621
 31
0.0
  0
LINE
  5
14B
330
12B
100
AcDbEntity
  8
0
  6
Continuous
 62
     7
370
    25
100
AcDbLine
 10
44.2110737066
 20
-37.642115224
 30
0.0
 11
48.4537143937
 21
-35.1928908885
 31
0.0
  0
LINE
  5
14C
330
12B
100
AcDbEntity
  8
0
  6
Continuous
 62
     7
370
    25
100
AcDbLine
 10
30.2405148303
 20
-16.0401525972
 30
0.0
 11
34.4831555174
 21
-13.5909282618
 31
0.0
  0
LINE
  5
14D
330
12B
100
AcDbEntity
  8
0
  6
Continuous
 62
     7
370
    25
100
AcDbLine
 10
48.4537143937
 20
-35.1928908885
 30
0.0
 11
34.4831555174
 21
-13.5909282618
 31
0.0
  0
LINE
  5
14E
330
12B
100
AcDbEntity
  8
0
  6
Continuous
 62
     7
370
    25
100
AcDbLine
 10
41.0740192387
 20
-40.14832482
 30
0.0
 11
45.3166599258
 21
-37.6991004846
 31
0.0
  0
LINE
  5
14F
330
12B
100
AcDbEntity
  8
0
  6
Continuous
 62
     7
370
    25
100
AcDbLine
 10
45.3166599258
 20
-37.6991004846
 30
0.0
 11
48.4537143937
 21
-35.1928908885
 31
0.0
  0
LINE
  5
150
330
12B
100
AcDbEntity
  8
0
  6
Continuous
 62
     7
370
    25
100
AcDbLine
 10
-44.7128039755
 20
28.1908442775
 30
0.0
 11
-40.4701632883
 21
30.6400686129
 31
0.0
  0
LINE
  5
151
330
12B
100
AcDbEntity
  8
0
  6
Continuous
 62
     7
370
    25
100
AcDbLine
 10
34.4831555174
 20
-13.5909282618
 30
0.0
 11
-40.4701632883
 21
30.6400686129
 31
0.0
  0
LINE
  5
152
330
12B
100
AcDbEntity
  8
0
  6
Continuous
 62
     7
370
    25
100
AcDbLine
 10
-58.2734252499
 20
21.9181403676
 30
0.0
 11
-54.0307845628
 21
24.3673647031
 31
0.0
  0
LINE
  5
153
330
12B
100
AcDbEntity
  8
0
  6
Continuous
 62
     7
370
    25
100
AcDbLine
 10
-40.4701632883
 20
30.6400686129
 30
0.0
 11
-54.0307845628
 21
24.3673647031
 31
0.0
  0
VIEWPORT
  5
1AE
330
12B
100
AcDbEntity
  8
0
100
AcDbViewport
 10
0.0
 20
0.0
 30
0.0
 40
205.6
 41
156.0
 68
     1
 69
     1
 12
-5.9781421076
 22
-3.2663373514
 13
0.0
 23
0.0
 14
10.0
 24
10.0
 15
10.0
 25
10.0
 16
0.0
 26
0.0
 36
1.0
 17
0.0
 27
0.0
 37
0.0
 42
50.0
 43
0.0
 44
0.0
 45
109.0009916893
 50
0.0
 51
0.0
 72
   100
 90
   557152
  1

281
     0
 71
     1
 74
     0
110
0.0
120
0.0
130
0.0
111
1.0
121
0.0
131
0.0
112
0.0
122
1.0
132
0.0
 79
     0
146
0.0
  0
MTEXT
  5
1C3
330
12B
100
AcDbEntity
  8
0
  6
Continuous
 62
     7
100
AcDbMText
 10
-58.2734252499
 20
-41.1678912117
 30
0.0
 40
4.83362
 41
0.0
 71
     1
 72
     1
  1
SOLIDWORKS Educational Product.
  7
SLDTEXTSTYLE0
 73
     1
 44
1.0
  0
MTEXT
  5
1C4
330
12B
100
AcDbEntity
  8
0
  6
Continuous
 62
     7
100
AcDbMText
 10
-58.2734252499
 20
-48.4183212117
 30
0.0
 40
4.83362
 41
0.0
 71
     1
 72
     1
  1
For Instructional Use Only.
  7
SLDTEXTSTYLE0
 73
     1
 44
1.0
  0
ENDBLK
  5
12E
330
12B
100
AcDbEntity
  8
0
100
AcDbBlockEnd
  0
BLOCK
  5
156
330
154
100
AcDbEntity
  8
0
100
AcDbBlockBegin
  2
*Paper_Space6
 70
     0
 10
0.0
 20
0.0
 30
0.0
  3
*Paper_Space6
  1

  0
LWPOLYLINE
  5
164
330
154
100
AcDbEntity
  8
0
  6
Continuous
 62
     7
370
    25
100
AcDbPolyline
 90
       29
 70
   128
 43
0.0
 10
-3.2187405733
 20
6.0954966753
 10
-3.3834896074
 20
5.8784073617
 10
-3.4505282728
 20
5.6469305278
 10
-3.416494971
 20
5.4126733886
 10
-3.2830962737
 20
5.1873825753
 10
-3.0570213487
 20
4.9823551099
 10
-2.7496065368
 20
4.8078719257
 10
-2.3762669002
 20
4.6726823381
 10
-1.9557232473
 20
4.5835653176
 10
-1.5090633928
 20
4.5449895636
 10
-1.058684727
 20
4.5588894256
 10
-0.6271711168
 20
4.6245679064
 10
-0.2361604564
 20
4.7387316128
 10
0.0947403469
 20
4.8956558998
 10
0.3489385452
 20
5.0874719284
 10
0.5136875793
 20
5.304561242
 10
0.5807262447
 20
5.5360380759
 10
0.5466929428
 20
5.7702952151
 10
0.4132942456
 20
5.9955860284
 10
0.1872193206
 20
6.2006134938
 10
-0.1201954914
 20
6.375096678
 10
-0.493535128
 20
6.5102862656
 10
-0.9140787809
 20
6.5994032862
 10
-1.3607386353
 20
6.6379790401
 10
-1.8111173011
 20
6.6240791781
 10
-2.2426309114
 20
6.5584006973
 10
-2.6336415717
 20
6.4442369909
 10
-2.9645423751
 20
6.2873127039
 10
-3.2187405733
 20
6.0954966753
  0
LWPOLYLINE
  5
165
330
154
100
AcDbEntity
  8
0
  6
Continuous
 62
     7
370
    25
100
AcDbPolyline
 90
       29
 70
   128
 43
0.0
 10
28.9464841597
 20
-2.9925803188
 10
28.7817351256
 20
-3.2096696324
 10
28.7146964602
 20
-3.4411464662
 10
28.748729762
 20
-3.6754036054
 10
28.8821284593
 20
-3.9006944188
 10
29.1082033843
 20
-4.1057218842
 10
29.4156181962
 20
-4.2802050684
 10
29.7889578328
 20
-4.415394656
 10
30.2095014857
 20
-4.5045116765
 10
30.6561613402
 20
-4.5430874305
 10
31.106540006
 20
-4.5291875685
 10
31.5380536162
 20
-4.4635090876
 10
31.9290642766
 20
-4.3493453812
 10
32.2599650799
 20
-4.1924210942
 10
32.5141632782
 20
-4.0006050656
 10
32.6789123123
 20
-3.783515752
 10
32.7459509777
 20
-3.5520389181
 10
32.7119176758
 20
-3.317781779
 10
32.5785189786
 20
-3.0924909656
 10
32.3524440536
 20
-2.8874635002
 10
32.0450292416
 20
-2.712980316
 10
31.6716896051
 20
-2.5777907284
 10
31.2511459521
 20
-2.4886737079
 10
30.8044860977
 20
-2.4500979539
 10
30.3541074319
 20
-2.4639978159
 10
29.9225938217
 20
-2.5296762968
 10
29.5315831613
 20
-2.6438400032
 10
29.2006823579
 20
-2.8007642902
 10
28.9464841597
 20
-2.9925803188
  0
LWPOLYLINE
  5
166
330
154
100
AcDbEntity
  8
0
  6
Continuous
 62
     7
370
    25
100
AcDbPolyline
 90
       29
 70
   128
 43
0.0
 10
-47.7164804786
 20
18.6680463676
 10
-47.8812295127
 20
18.450957054
 10
-47.9482681781
 20
18.2194802201
 10
-47.9142348762
 20
17.9852230809
 10
-47.780836179
 20
17.7599322676
 10
-47.554761254
 20
17.5549048022
 10
-47.247346442
 20
17.380421618
 10
-46.8740068055
 20
17.2452320304
 10
-46.4534631525
 20
17.1561150099
 10
-46.0068032981
 20
17.1175392559
 10
-45.5564246323
 20
17.1314391179
 10
-45.1249110221
 20
17.1971175987
 10
-44.7339003617
 20
17.3112813051
 10
-44.4029995583
 20
17.4682055921
 10
-44.1488013601
 20
17.6600216208
 10
-43.984052326
 20
17.8771109343
 10
-43.9170136606
 20
18.1085877682
 10
-43.9510469624
 20
18.3428449074
 10
-44.0844456597
 20
18.5681357208
 10
-44.3105205847
 20
18.7731631862
 10
-44.6179353966
 20
18.9476463704
 10
-44.9912750332
 20
19.0828359579
 10
-45.4118186861
 20
19.1719529785
 10
-45.8584785406
 20
19.2105287324
 10
-46.3088572064
 20
19.1966288704
 10
-46.7403708166
 20
19.1309503896
 10
-47.131381477
 20
19.0167866832
 10
-47.4622822803
 20
18.8598623962
 10
-47.7164804786
 20
18.6680463676
  0
LINE
  5
16A
330
154
100
AcDbEntity
  8
0
  6
Continuous
 62
     7
370
    25
100
AcDbLine
 10
-70.3795058475
 20
8.4700963326
 30
0.0
 11
-66.9685477851
 21
3.6033015341
 31
0.0
  0
LINE
  5
16B
330
154
100
AcDbEntity
  8
0
  6
Continuous
 62
     7
370
    25
100
AcDbLine
 10
-53.418476035
 20
18.6631266096
 30
0.0
 11
-70.3795058475
 21
8.4700963326
 31
0.0
  0
LINE
  5
16C
330
154
100
AcDbEntity
  8
0
  6
Continuous
 62
     7
370
    25
100
AcDbLine
 10
40.3298448628
 20
-7.8248573997
 30
0.0
 11
-53.418476035
 21
18.6631266096
 31
0.0
  0
LINE
  5
16D
330
154
100
AcDbEntity
  8
0
  6
Continuous
 62
     7
370
    25
100
AcDbLine
 10
57.8036066324
 20
-26.7843037953
 30
0.0
 11
40.3298448628
 21
-7.8248573997
 31
0.0
  0
LINE
  5
16E
330
154
100
AcDbEntity
  8
0
  6
Continuous
 62
     7
370
    25
100
AcDbLine
 10
53.8799166129
 20
-30.2499207927
 30
0.0
 11
57.8036066324
 21
-26.7843037953
 31
0.0
  0
LINE
  5
16F
330
154
100
AcDbEntity
  8
0
  6
Continuous
 62
     7
370
    25
100
AcDbLine
 10
40.3298448628
 20
-15.5477712275
 30
0.0
 11
53.8799166129
 21
-30.2499207927
 31
0.0
  0
LINE
  5
170
330
154
100
AcDbEntity
  8
0
  6
Continuous
 62
     7
370
    25
100
AcDbLine
 10
-53.418476035
 20
10.9402127817
 30
0.0
 11
40.3298448628
 21
-15.5477712275
 31
0.0
  0
LINE
  5
171
330
154
100
AcDbEntity
  8
0
  6
Continuous
 62
     7
370
    25
100
AcDbLine
 10
-66.9685477851
 20
3.6033015341
 30
0.0
 11
-53.418476035
 21
10.9402127817
 31
0.0
  0
LINE
  5
172
330
154
100
AcDbEntity
  8
0
  6
Continuous
 62
     7
370
    25
100
AcDbLine
 10
57.8036066324
 20
-26.7843037953
 30
0.0
 11
60.603778966
 21
-24.0512497545
 31
0.0
  0
LINE
  5
173
330
154
100
AcDbEntity
  8
0
  6
Continuous
 62
     7
370
    25
100
AcDbLine
 10
40.3298448628
 20
-7.8248573997
 30
0.0
 11
43.1300171964
 21
-5.0918033589
 31
0.0
  0
LINE
  5
174
330
154
100
AcDbEntity
  8
0
  6
Continuous
 62
     7
370
    25
100
AcDbLine
 10
60.603778966
 20
-24.0512497545
 30
0.0
 11
43.1300171964
 21
-5.0918033589
 31
0.0
  0
LINE
  5
175
330
154
100
AcDbEntity
  8
0
  6
Continuous
 62
     7
370
    25
100
AcDbLine
 10
-53.418476035
 20
18.6631266096
 30
0.0
 11
-50.6183037014
 21
21.3961806504
 31
0.0
  0
LINE
  5
176
330
154
100
AcDbEntity
  8
0
  6
Continuous
 62
     7
370
    25
100
AcDbLine
 10
43.1300171964
 20
-5.0918033589
 30
0.0
 11
-50.6183037014
 21
21.3961806504
 31
0.0
  0
LINE
  5
177
330
154
100
AcDbEntity
  8
0
  6
Continuous
 62
     7
370
    25
100
AcDbLine
 10
-70.3795058475
 20
8.4700963326
 30
0.0
 11
-67.5793335139
 21
11.2031503734
 31
0.0
  0
LINE
  5
178
330
154
100
AcDbEntity
  8
0
  6
Continuous
 62
     7
370
    25
100
AcDbLine
 10
-50.6183037014
 20
21.3961806504
 30
0.0
 11
-67.5793335139
 21
11.2031503734
 31
0.0
  0
VIEWPORT
  5
1B0
330
154
100
AcDbEntity
  8
0
100
AcDbViewport
 10
0.0
 20
0.0
 30
0.0
 40
205.6
 41
156.0
 68
     1
 69
     1
 12
-5.9781421076
 22
-3.2663373514
 13
0.0
 23
0.0
 14
10.0
 24
10.0
 15
10.0
 25
10.0
 16
0.0
 26
0.0
 36
1.0
 17
0.0
 27
0.0
 37
0.0
 42
50.0
 43
0.0
 44
0.0
 45
109.0009916893
 50
0.0
 51
0.0
 72
   100
 90
   557152
  1

281
     0
 71
     1
 74
     0
110
0.0
120
0.0
130
0.0
111
1.0
121
0.0
131
0.0
112
0.0
122
1.0
132
0.0
 79
     0
146
0.0
  0
MTEXT
  5
1C5
330
154
100
AcDbEntity
  8
0
  6
Continuous
 62
     7
100
AcDbMText
 10
-70.3795058475
 20
-31.2694871844
 30
0.0
 40
4.83362
 41
0.0
 71
     1
 72
     1
  1
SOLIDWORKS Educational Product.
  7
SLDTEXTSTYLE0
 73
     1
 44
1.0
  0
MTEXT
  5
1C6
330
154
100
AcDbEntity
  8
0
  6
Continuous
 62
     7
100
AcDbMText
 10
-70.3795058475
 20
-38.5199171844
 30
0.0
 40
4.83362
 41
0.0
 71
     1
 72
     1
  1
For Instructional Use Only.
  7
SLDTEXTSTYLE0
 73
     1
 44
1.0
  0
ENDBLK
  5
157
330
154
100
AcDbEntity
  8
0
100
AcDbBlockEnd
  0
BLOCK
  5
17B
330
179
100
AcDbEntity
  8
0
100
AcDbBlockBegin
  2
*Paper_Space7
 70
     0
 10
0.0
 20
0.0
 30
0.0
  3
*Paper_Space7
  1

  0
LWPOLYLINE
  5
18B
330
179
100
AcDbEntity
  8
0
  6
Continuous
 62
     7
370
    25
100
AcDbPolyline
 90
       29
 70
   128
 43
0.0
 10
-2.9493363977
 20
7.0371555289
 10
-3.0607234248
 20
6.8907144597
 10
-3.0719181698
 20
6.7386380853
 10
-2.9823592816
 20
6.5885521501
 10
-2.7965376167
 20
6.4479825897
 10
-2.5237710494
 20
6.3239781487
 10
-2.1777372343
 20
6.2227569277
 10
-1.7757877518
 20
6.1493945813
 10
-1.3380780274
 20
6.1075698039
 10
-0.8865566543
 20
6.0993798644
 10
-0.4438647997
 20
6.1252354408
 10
-0.0322008815
 20
6.1838400263
 10
0.3277925523
 20
6.2722549423
 10
0.6180639279
 20
6.3860466959
 10
0.8240578263
 20
6.5195092932
 10
0.9354448533
 20
6.6659503624
 10
0.9466395984
 20
6.8180267368
 10
0.8570807101
 20
6.968112672
 10
0.6712590453
 20
7.1086822324
 10
0.398492478
 20
7.2326866733
 10
0.0524586629
 20
7.3339078944
 10
-0.3494908196
 20
7.4072702408
 10
-0.787200544
 20
7.4490950182
 10
-1.2387219171
 20
7.4572849576
 10
-1.6814137718
 20
7.4314293813
 10
-2.0930776899
 20
7.3728247958
 10
-2.4530711238
 20
7.2844098797
 10
-2.7433424993
 20
7.1706181262
 10
-2.9493363977
 20
7.0371555289
  0
LWPOLYLINE
  5
18C
330
179
100
AcDbEntity
  8
0
  6
Continuous
 62
     7
370
    25
100
AcDbPolyline
 90
       29
 70
   128
 43
0.0
 10
31.0705597842
 20
2.3701978374
 10
30.9591727571
 20
2.2237567681
 10
30.9479780121
 20
2.0716803937
 10
31.0375369003
 20
1.9215944586
 10
31.2233585652
 20
1.7810248982
 10
31.4961251325
 20
1.6570204572
 10
31.8421589476
 20
1.5557992362
 10
32.2441084301
 20
1.4824368898
 10
32.6818181545
 20
1.4406121124
 10
33.1333395276
 20
1.4324221729
 10
33.5760313822
 20
1.4582777493
 10
33.9876953004
 20
1.5168823348
 10
34.3476887342
 20
1.6052972508
 10
34.6379601098
 20
1.7190890043
 10
34.8439540082
 20
1.8525516017
 10
34.9553410352
 20
1.9989926709
 10
34.9665357803
 20
2.1510690453
 10
34.876976892
 20
2.3011549804
 10
34.6911552272
 20
2.4417245409
 10
34.4183886599
 20
2.5657289818
 10
34.0723548448
 20
2.6669502028
 10
33.6704053623
 20
2.7403125493
 10
33.2326956379
 20
2.7821373267
 10
32.7811742648
 20
2.7903272661
 10
32.3384824101
 20
2.7644716898
 10
31.926818492
 20
2.7058671043
 10
31.5668250581
 20
2.6174521882
 10
31.2765536826
 20
2.5036604347
 10
31.0705597842
 20
2.3701978374
  0
LWPOLYLINE
  5
18D
330
179
100
AcDbEntity
  8
0
  6
Continuous
 62
     7
370
    25
100
AcDbPolyline
 90
       29
 70
   128
 43
0.0
 10
-50.0128500051
 20
13.493478195
 10
-50.1242370322
 20
13.3470371258
 10
-50.1354317772
 20
13.1949607514
 10
-50.045872889
 20
13.0448748162
 10
-49.8600512241
 20
12.9043052558
 10
-49.5872846568
 20
12.7803008149
 10
-49.2412508417
 20
12.6790795938
 10
-48.8393013592
 20
12.6057172474
 10
-48.4015916348
 20
12.56389247
 10
-47.9500702617
 20
12.5557025306
 10
-47.507378407
 20
12.5815581069
 10
-47.0957144889
 20
12.6401626924
 10
-46.735721055
 20
12.7285776085
 10
-46.4454496795
 20
12.842369362
 10
-46.2394557811
 20
12.9758319593
 10
-46.128068754
 20
13.1222730285
 10
-46.116874009
 20
13.2743494029
 10
-46.2064328972
 20
13.4244353381
 10
-46.3922545621
 20
13.5650048985
 10
-46.6650211294
 20
13.6890093395
 10
-47.0110549445
 20
13.7902305605
 10
-47.413004427
 20
13.8635929069
 10
-47.8507141514
 20
13.9054176843
 10
-48.3022355245
 20
13.9136076238
 10
-48.7449273792
 20
13.8877520474
 10
-49.1565912973
 20
13.8291474619
 10
-49.5165847312
 20
13.7407325459
 10
-49.8068561067
 20
13.6269407923
 10
-50.0128500051
 20
13.493478195
  0
LINE
  5
191
330
179
100
AcDbEntity
  8
0
  6
Continuous
 62
     7
370
    25
100
AcDbLine
 10
-73.5973298928
 20
-0.7448821103
 30
0.0
 11
-69.9896933808
 21
-5.5328033513
 31
0.0
  0
LINE
  5
192
330
179
100
AcDbEntity
  8
0
  6
Continuous
 62
     7
370
    25
100
AcDbLine
 10
-55.6583141344
 20
13.2766615591
 30
0.0
 11
-73.5973298928
 21
-0.7448821103
 31
0.0
  0
LINE
  5
193
330
179
100
AcDbEntity
  8
0
  6
Continuous
 62
     7
370
    25
100
AcDbLine
 10
43.4956066184
 20
-0.3255890365
 30
0.0
 11
-55.6583141344
 21
13.2766615591
 31
0.0
  0
LINE
  5
194
330
179
100
AcDbEntity
  8
0
  6
Continuous
 62
     7
370
    25
100
AcDbLine
 10
61.9769188506
 20
-18.2842699158
 30
0.0
 11
43.4956066184
 21
-0.3255890365
 31
0.0
  0
LINE
  5
195
330
179
100
AcDbEntity
  8
0
  6
Continuous
 62
     7
370
    25
100
AcDbLine
 10
57.8269858648
 20
-22.7462220812
 30
0.0
 11
61.9769188506
 21
-18.2842699158
 31
0.0
  0
LINE
  5
196
330
179
100
AcDbEntity
  8
0
  6
Continuous
 62
     7
370
    25
100
AcDbLine
 10
43.4956066184
 20
-8.8201186091
 30
0.0
 11
57.8269858648
 21
-22.7462220812
 31
0.0
  0
LINE
  5
197
330
179
100
AcDbEntity
  8
0
  6
Continuous
 62
     7
370
    25
100
AcDbLine
 10
-55.6583141344
 20
4.7821319865
 30
0.0
 11
43.4956066184
 21
-8.8201186091
 31
0.0
  0
LINE
  5
198
330
179
100
AcDbEntity
  8
0
  6
Continuous
 62
     7
370
    25
100
AcDbLine
 10
-69.9896933808
 20
-5.5328033513
 30
0.0
 11
-55.6583141344
 21
4.7821319865
 31
0.0
  0
LINE
  5
199
330
179
100
AcDbEntity
  8
0
  6
Continuous
 62
     7
370
    25
100
AcDbLine
 10
61.9769188506
 20
-18.2842699158
 30
0.0
 11
64.0982391937
 21
-16.4134412228
 31
0.0
  0
LINE
  5
19A
330
179
100
AcDbEntity
  8
0
  6
Continuous
 62
     7
370
    25
100
AcDbLine
 10
43.4956066184
 20
-0.3255890365
 30
0.0
 11
45.6169269614
 21
1.5452396565
 31
0.0
  0
LINE
  5
19B
330
179
100
AcDbEntity
  8
0
  6
Continuous
 62
     7
370
    25
100
AcDbLine
 10
64.0982391937
 20
-16.4134412228
 30
0.0
 11
45.6169269614
 21
1.5452396565
 31
0.0
  0
LINE
  5
19C
330
179
100
AcDbEntity
  8
0
  6
Continuous
 62
     7
370
    25
100
AcDbLine
 10
59.9483062079
 20
-20.8753933882
 30
0.0
 11
64.0982391937
 21
-16.4134412228
 31
0.0
  0
LINE
  5
19D
330
179
100
AcDbEntity
  8
0
  6
Continuous
 62
     7
370
    25
100
AcDbLine
 10
57.8269858648
 20
-22.7462220812
 30
0.0
 11
59.9483062079
 21
-20.8753933882
 31
0.0
  0
LINE
  5
19E
330
179
100
AcDbEntity
  8
0
  6
Continuous
 62
     7
370
    25
100
AcDbLine
 10
-55.6583141344
 20
13.2766615591
 30
0.0
 11
-53.5369937913
 21
15.1474902521
 31
0.0
  0
LINE
  5
19F
330
179
100
AcDbEntity
  8
0
  6
Continuous
 62
     7
370
    25
100
AcDbLine
 10
45.6169269614
 20
1.5452396565
 30
0.0
 11
-53.5369937913
 21
15.1474902521
 31
0.0
  0
LINE
  5
1A0
330
179
100
AcDbEntity
  8
0
  6
Continuous
 62
     7
370
    25
100
AcDbLine
 10
-73.5973298928
 20
-0.7448821103
 30
0.0
 11
-71.4760095497
 21
1.1259465827
 31
0.0
  0
LINE
  5
1A1
330
179
100
AcDbEntity
  8
0
  6
Continuous
 62
     7
370
    25
100
AcDbLine
 10
-53.5369937913
 20
15.1474902521
 30
0.0
 11
-71.4760095497
 21
1.1259465827
 31
0.0
  0
VIEWPORT
  5
1B2
330
179
100
AcDbEntity
  8
0
100
AcDbViewport
 10
0.0
 20
0.0
 30
0.0
 40
205.6
 41
156.0
 68
     1
 69
     1
 12
-5.9781421076
 22
-3.2663373514
 13
0.0
 23
0.0
 14
10.0
 24
10.0
 15
10.0
 25
10.0
 16
0.0
 26
0.0
 36
1.0
 17
0.0
 27
0.0
 37
0.0
 42
50.0
 43
0.0
 44
0.0
 45
109.0009916893
 50
0.0
 51
0.0
 72
   100
 90
   557152
  1

281
     0
 71
     1
 74
     0
110
0.0
120
0.0
130
0.0
111
1.0
121
0.0
131
0.0
112
0.0
122
1.0
132
0.0
 79
     0
146
0.0
  0
MTEXT
  5
1C7
330
179
100
AcDbEntity
  8
0
  6
Continuous
 62
     7
100
AcDbMText
 10
-73.5973298928
 20
-23.7657884729
 30
0.0
 40
4.83362
 41
0.0
 71
     1
 72
     1
  1
SOLIDWORKS Educational Product.
  7
SLDTEXTSTYLE0
 73
     1
 44
1.0
  0
MTEXT
  5
1C8
330
179
100
AcDbEntity
  8
0
  6
Continuous
 62
     7
100
AcDbMText
 10
-73.5973298928
 20
-31.0162184729
 30
0.0
 40
4.83362
 41
0.0
 71
     1
 72
     1
  1
For Instructional Use Only.
  7
SLDTEXTSTYLE0
 73
     1
 44
1.0
  0
ENDBLK
  5
17C
330
179
100
AcDbEntity
  8
0
100
AcDbBlockEnd
  0
ENDSEC
  0
SECTION
  2
ENTITIES
  0
LWPOLYLINE
  5
82
330
1F
100
AcDbEntity
  8
0
  6
Continuous
 62
     7
370
    25
100
AcDbPolyline
 90
       29
 70
   128
 43
0.0
 10
-0.8839294486
 20
8.4693931505
 10
-0.9173296956
 20
8.452970984
 10
-0.8516868433
 20
8.4165905741
 10
-0.6902924984
 20
8.3620761865
 10
-0.4412396474
 20
8.2921614001
 10
-0.11701684
 20
8.2103520343
 10
0.2661180382
 20
8.1207503523
 10
0.6889530047
 20
8.0278493566
 10
1.1302853486
 20
7.936307491
 10
1.5679848234
 20
7.850715047
 10
1.9801033497
 20
7.775363987
 10
2.3459755838
 20
7.7140327278
 10
2.6472551641
 20
7.6697966749
 10
2.8688346743
 20
7.6448740087
 10
2.9996031928
 20
7.6405144558
 10
3.0330034397
 20
7.6569366222
 10
2.9673605874
 20
7.6933170321
 10
2.8059662426
 20
7.7478314198
 10
2.5569133915
 20
7.8177462061
 10
2.2326905842
 20
7.8995555719
 10
1.849555706
 20
7.9891572539
 10
1.4267207395
 20
8.0820582496
 10
0.9853883956
 20
8.1736001152
 10
0.5476889208
 20
8.2591925593
 10
0.1355703945
 20
8.3345436193
 10
-0.2303018396
 20
8.3958748784
 10
-0.5315814199
 20
8.4401109313
 10
-0.7531609302
 20
8.4650335975
 10
-0.8839294486
 20
8.4693931505
  0
LWPOLYLINE
  5
83
330
1F
100
AcDbEntity
  8
0
  6
Continuous
 62
     7
370
    25
100
AcDbPolyline
 90
       29
 70
   128
 43
0.0
 10
34.1289447528
 20
0.9964482454
 10
34.0955445058
 20
0.980026079
 10
34.1611873581
 20
0.9436456691
 10
34.322581703
 20
0.8891312814
 10
34.571634554
 20
0.819216495
 10
34.8958573614
 20
0.7374071293
 10
35.2789922396
 20
0.6478054473
 10
35.7018272061
 20
0.5549044516
 10
36.14315955
 20
0.463362586
 10
36.5808590248
 20
0.3777701419
 10
36.9929775511
 20
0.3024190819
 10
37.3588497852
 20
0.2410878228
 10
37.6601293654
 20
0.1968517699
 10
37.8817088757
 20
0.1719291037
 10
38.0124773941
 20
0.1675695507
 10
38.0458776411
 20
0.1839917172
 10
37.9802347888
 20
0.2203721271
 10
37.818840444
 20
0.2748865147
 10
37.5697875929
 20
0.3448013011
 10
37.2455647856
 20
0.4266106669
 10
36.8624299074
 20
0.5162123489
 10
36.4395949409
 20
0.6091133446
 10
35.998262597
 20
0.7006552101
 10
35.5605631222
 20
0.7862476542
 10
35.1484445959
 20
0.8615987142
 10
34.7825723618
 20
0.9229299734
 10
34.4812927815
 20
0.9671660263
 10
34.2597132712
 20
0.9920886925
 10
34.1289447528
 20
0.9964482454
  0
LWPOLYLINE
  5
84
330
1F
100
AcDbEntity
  8
0
  6
Continuous
 62
     7
370
    25
100
AcDbPolyline
 90
       29
 70
   128
 43
0.0
 10
-49.321140209
 20
18.8075506318
 10
-49.354540456
 20
18.7911284653
 10
-49.2888976037
 20
18.7547480554
 10
-49.1275032588
 20
18.7002336678
 10
-48.8784504078
 20
18.6303188814
 10
-48.5542276004
 20
18.5485095156
 10
-48.1710927222
 20
18.4589078336
 10
-47.7482577557
 20
18.3660068379
 10
-47.3069254118
 20
18.2744649723
 10
-46.869225937
 20
18.1888725283
 10
-46.4571074107
 20
18.1135214683
 10
-46.0912351766
 20
18.0521902091
 10
-45.7899555964
 20
18.0079541562
 10
-45.5683760861
 20
17.98303149
 10
-45.4376075677
 20
17.9786719371
 10
-45.4042073207
 20
17.9950941035
 10
-45.469850173
 20
18.0314745134
 10
-45.6312445178
 20
18.0859889011
 10
-45.8802973689
 20
18.1559036874
 10
-46.2045201762
 20
18.2377130532
 10
-46.5876550544
 20
18.3273147352
 10
-47.0104900209
 20
18.4202157309
 10
-47.4518223648
 20
18.5117575965
 10
-47.8895218396
 20
18.5973500406
 10
-48.3016403659
 20
18.6727011006
 10
-48.6675126
 20
18.7340323597
 10
-48.9687921803
 20
18.7782684126
 10
-49.1903716906
 20
18.8031910788
 10
-49.321140209
 20
18.8075506318
  0
LINE
  5
87
330
1F
100
AcDbEntity
  8
0
  6
Continuous
 62
     7
370
    25
100
AcDbLine
 10
-76.398591741
 20
6.5910342441
 30
0.0
 11
-73.5458312496
 21
1.3325904261
 31
0.0
  0
LINE
  5
88
330
1F
100
AcDbEntity
  8
0
  6
Continuous
 62
     7
370
    25
100
AcDbLine
 10
-54.6334331824
 20
19.7970191877
 30
0.0
 11
-76.398591741
 21
6.5910342441
 31
0.0
  0
LINE
  5
89
330
1F
100
AcDbEntity
  8
0
  6
Continuous
 62
     7
370
    25
100
AcDbLine
 10
47.4146076266
 20
-1.983523085
 30
0.0
 11
-54.6334331824
 21
19.7970191877
 31
0.0
  0
LINE
  5
8A
330
1F
100
AcDbEntity
  8
0
  6
Continuous
 62
     7
370
    25
100
AcDbLine
 10
63.3450313072
 20
-22.0879508837
 30
0.0
 11
47.4146076266
 21
-1.983523085
 31
0.0
  0
LINE
  5
8B
330
1F
100
AcDbEntity
  8
0
  6
Continuous
 62
     7
370
    25
100
AcDbLine
 10
58.0658747804
 20
-26.4103183558
 30
0.0
 11
63.3450313072
 21
-22.0879508837
 31
0.0
  0
LINE
  5
8C
330
1F
100
AcDbEntity
  8
0
  6
Continuous
 62
     7
370
    25
100
AcDbLine
 10
45.7125883658
 20
-10.8202901319
 30
0.0
 11
58.0658747804
 21
-26.4103183558
 31
0.0
  0
LINE
  5
8D
330
1F
100
AcDbEntity
  8
0
  6
Continuous
 62
     7
370
    25
100
AcDbLine
 10
-56.3354524433
 20
10.9602521409
 30
0.0
 11
45.7125883658
 21
-10.8202901319
 31
0.0
  0
LINE
  5
8E
330
1F
100
AcDbEntity
  8
0
  6
Continuous
 62
     7
370
    25
100
AcDbLine
 10
-73.5458312496
 20
1.3325904261
 30
0.0
 11
-56.3354524433
 21
10.9602521409
 31
0.0
  0
LINE
  5
8F
330
1F
100
AcDbEntity
  8
0
  6
Continuous
 62
     7
370
    25
100
AcDbLine
 10
63.3450313072
 20
-22.0879508837
 30
0.0
 11
64.4423075258
 21
-22.0073264184
 31
0.0
  0
LINE
  5
90
330
1F
100
AcDbEntity
  8
0
  6
Continuous
 62
     7
370
    25
100
AcDbLine
 10
47.4146076266
 20
-1.983523085
 30
0.0
 11
48.5118838452
 21
-1.9028986198
 31
0.0
  0
LINE
  5
91
330
1F
100
AcDbEntity
  8
0
  6
Continuous
 62
     7
370
    25
100
AcDbLine
 10
64.4423075258
 20
-22.0073264184
 30
0.0
 11
48.5118838452
 21
-1.9028986198
 31
0.0
  0
LINE
  5
92
330
1F
100
AcDbEntity
  8
0
  6
Continuous
 62
     7
370
    25
100
AcDbLine
 10
58.0658747804
 20
-26.4103183558
 30
0.0
 11
59.1631509989
 21
-26.3296938905
 31
0.0
  0
LINE
  5
93
330
1F
100
AcDbEntity
  8
0
  6
Continuous
 62
     7
370
    25
100
AcDbLine
 10
59.1631509989
 20
-26.3296938905
 30
0.0
 11
64.4423075258
 21
-22.0073264184
 31
0.0
  0
LINE
  5
94
330
1F
100
AcDbEntity
  8
0
  6
Continuous
 62
     7
370
    25
100
AcDbLine
 10
-54.6334331824
 20
19.7970191877
 30
0.0
 11
-53.5361569639
 21
19.877643653
 31
0.0
  0
LINE
  5
95
330
1F
100
AcDbEntity
  8
0
  6
Continuous
 62
     7
370
    25
100
AcDbLine
 10
48.5118838452
 20
-1.9028986198
 30
0.0
 11
-53.5361569639
 21
19.877643653
 31
0.0
  0
LINE
  5
96
330
1F
100
AcDbEntity
  8
0
  6
Continuous
 62
     7
370
    25
100
AcDbLine
 10
-73.5458312496
 20
1.3325904261
 30
0.0
 11
-72.448555031
 21
1.4132148914
 31
0.0
  0
LINE
  5
97
330
1F
100
AcDbEntity
  8
0
  6
Continuous
 62
     7
370
    25
100
AcDbLine
 10
-72.448555031
 20
1.4132148914
 30
0.0
 11
-55.6455295459
 21
10.812998997
 31
0.0
  0
MTEXT
  5
1B7
330
1F
100
AcDbEntity
  8
0
  6
Continuous
 62
     7
100
AcDbMText
 10
-76.398591741
 20
-27.4298847475
 30
0.0
 40
4.83362
 41
0.0
 71
     1
 72
     1
  1
SOLIDWORKS Educational Product.
  7
SLDTEXTSTYLE0
 73
     1
 44
1.0
  0
MTEXT
  5
1B8
330
1F
100
AcDbEntity
  8
0
  6
Continuous
 62
     7
100
AcDbMText
 10
-76.398591741
 20
-34.6803147475
 30
0.0
 40
4.83362
 41
0.0
 71
     1
 72
     1
  1
For Instructional Use Only.
  7
SLDTEXTSTYLE0
 73
     1
 44
1.0
  0
CIRCLE
  5
9F
330
1B
100
AcDbEntity
 67
     1
  8
0
  6
Continuous
 62
     7
370
    25
100
AcDbCircle
 10
0.0919989629
 20
-3.2487690017
 30
0.0
 40
2.017045957821093
  0
CIRCLE
  5
A0
330
1B
100
AcDbEntity
 67
     1
  8
0
  6
Continuous
 62
     7
370
    25
100
AcDbCircle
 10
36.4607977749
 20
-3.2487690017
 30
0.0
 40
2.01704595782109
  0
CIRCLE
  5
A1
330
1B
100
AcDbEntity
 67
     1
  8
0
  6
Continuous
 62
     7
370
    25
100
AcDbCircle
 10
-50.2210134173
 20
-3.2487690017
 30
0.0
 40
2.017045957821097
  0
LINE
  5
A8
330
1B
100
AcDbEntity
 67
     1
  8
0
  6
Continuous
 62
     7
370
    25
100
AcDbLine
 10
-57.2334537938
 20
-6.0
 30
0.0
 11
-57.2334537938
 21
0.0
 31
0.0
  0
LINE
  5
A9
330
1B
100
AcDbEntity
 67
     1
  8
0
  6
Continuous
 62
     7
370
    25
100
AcDbLine
 10
68.523900043
 20
-6.0
 30
0.0
 11
-76.4110683143
 21
-6.0
 31
0.0
  0
LINE
  5
AA
330
1B
100
AcDbEntity
 67
     1
  8
0
  6
Continuous
 62
     7
370
    25
100
AcDbLine
 10
-76.4110683143
 20
-6.0
 30
0.0
 11
-76.4110683143
 21
0.0
 31
0.0
  0
LINE
  5
AB
330
1B
100
AcDbEntity
 67
     1
  8
0
  6
Continuous
 62
     7
370
    25
100
AcDbLine
 10
68.523900043
 20
0.0
 30
0.0
 11
-76.4110683143
 21
0.0
 31
0.0
  0
LINE
  5
AC
330
1B
100
AcDbEntity
 67
     1
  8
0
  6
Continuous
 62
     7
370
    25
100
AcDbLine
 10
48.7665462062
 20
-6.0
 30
0.0
 11
48.7665462062
 21
0.0
 31
0.0
  0
LINE
  5
AD
330
1B
100
AcDbEntity
 67
     1
  8
0
  6
Continuous
 62
     7
370
    25
100
AcDbLine
 10
68.523900043
 20
-6.0
 30
0.0
 11
68.523900043
 21
0.0
 31
0.0
  0
ARC
  5
AE
330
1B
100
AcDbEntity
 67
     1
  8
0
  6
Continuous
 62
     7
370
    25
100
AcDbCircle
 10
-50.3212531957
 20
-3.2487874574
 30
0.0
 40
2.017090779626944
100
AcDbArc
 50
271.4240139747
 51
88.5759860254
  0
ARC
  5
AF
330
1B
100
AcDbEntity
 67
     1
  8
0
  6
Continuous
 62
     7
370
    25
100
AcDbCircle
 10
-0.0082408154
 20
-3.2487874574
 30
0.0
 40
2.017090779626945
100
AcDbArc
 50
271.4240139744
 51
88.5759860254
  0
ARC
  5
B0
330
1B
100
AcDbEntity
 67
     1
  8
0
  6
Continuous
 62
     7
370
    25
100
AcDbCircle
 10
36.3605579966
 20
-3.2487874574
 30
0.0
 40
2.017090779626943
100
AcDbArc
 50
271.4240139744
 51
88.5759860255
  0
VIEWPORT
  5
1A2
330
1B
100
AcDbEntity
 67
     1
  8
0
100
AcDbViewport
 10
0.0
 20
0.0
 30
0.0
 40
205.6
 41
156.0
 68
     1
 69
     1
 12
-5.9781421076
 22
-3.2663373514
 13
0.0
 23
0.0
 14
10.0
 24
10.0
 15
10.0
 25
10.0
 16
0.0
 26
0.0
 36
1.0
 17
0.0
 27
0.0
 37
0.0
 42
50.0
 43
0.0
 44
0.0
 45
109.0009916893
 50
0.0
 51
0.0
 72
   100
 90
   557152
  1

281
     0
 71
     1
 74
     0
110
0.0
120
0.0
130
0.0
111
1.0
121
0.0
131
0.0
112
0.0
122
1.0
132
0.0
 79
     0
146
0.0
  0
MTEXT
  5
1B5
330
1B
100
AcDbEntity
 67
     1
  8
0
  6
Continuous
 62
     7
100
AcDbMText
 10
-76.4110683143
 20
-7.0195663917
 30
0.0
 40
4.83362
 41
0.0
 71
     1
 72
     1
  1
SOLIDWORKS Educational Product.
  7
SLDTEXTSTYLE0
 73
     1
 44
1.0
  0
MTEXT
  5
1B6
330
1B
100
AcDbEntity
 67
     1
  8
0
  6
Continuous
 62
     7
100
AcDbMText
 10
-76.4110683143
 20
-14.2699963917
 30
0.0
 40
4.83362
 41
0.0
 71
     1
 72
     1
  1
For Instructional Use Only.
  7
SLDTEXTSTYLE0
 73
     1
 44
1.0
  0
ENDSEC
  0
SECTION
  2
OBJECTS
  0
DICTIONARY
  5
C
330
0
100
AcDbDictionary
281
     1
  3
ACAD_GROUP
350
D
  3
ACAD_LAYOUT
350
1A
  3
ACAD_MLINESTYLE
350
17
  3
ACAD_PLOTSETTINGS
350
19
  3
ACAD_PLOTSTYLENAME
350
E
  3
ACAD_SCALELIST
350
47
  3
DWGPROPS
350
1C9
  0
DICTIONARY
  5
D
102
{ACAD_REACTORS
330
C
102
}
330
C
100
AcDbDictionary
281
     1
  0
DICTIONARY
  5
1A
102
{ACAD_REACTORS
330
C
102
}
330
C
100
AcDbDictionary
281
     1
  3
_Back
350
26
  3
_Bottom
350
101
  3
_Dimetric
350
17A
  3
_Front
350
C2
  3
_Isometric
350
12C
  3
_Left
350
D6
  3
_Right
350
EA
  3
_Top
350
1E
  3
_Trimetric
350
155
  3
Model
350
22
  0
DICTIONARY
  5
17
102
{ACAD_REACTORS
330
C
102
}
330
C
100
AcDbDictionary
281
     1
  3
Standard
350
18
  0
DICTIONARY
  5
19
102
{ACAD_REACTORS
330
C
102
}
330
C
100
AcDbDictionary
281
     1
  0
ACDBDICTIONARYWDFLT
  5
E
102
{ACAD_REACTORS
330
C
102
}
330
C
100
AcDbDictionary
281
     1
  3
Normal
350
F
100
AcDbDictionaryWithDefault
340
F
  0
DICTIONARY
  5
47
102
{ACAD_REACTORS
330
C
102
}
330
C
100
AcDbDictionary
281
     1
  3
A0
350
48
  3
A1
350
49
  3
A2
350
4A
  3
A3
350
4B
  3
A4
350
4C
  3
A5
350
4D
  3
A6
350
4E
  3
A7
350
4F
  3
A8
350
50
  3
A9
350
51
  3
B0
350
52
  3
B1
350
53
  3
B2
350
54
  3
B3
350
55
  3
B4
350
56
  3
B5
350
57
  3
B6
350
58
  3
B7
350
59
  3
B8
350
5A
  3
B9
350
5B
  3
C0
350
5C
  3
C1
350
5D
  3
C2
350
5E
  3
C3
350
5F
  3
C4
350
60
  3
C5
350
61
  3
C6
350
62
  3
C7
350
63
  3
C8
350
64
  3
C9
350
65
  3
D0
350
66
  3
D1
350
67
  3
D2
350
68
  0
XRECORD
  5
1C9
102
{ACAD_REACTORS
330
C
102
}
330
C
100
AcDbXrecord
280
     1
  1
DWGPROPS COOKIE
  2

  3

  4

  6

  7

  8
$5PDJ00-CKN991J3FMM0
  9

300
=
301
=
302
=
303
=
304
=
305
=
306
=
307
=
308
=
309
=
 40
0.0
 41
2459700.046021644
 42
2459700.046055452
  1

 90
        0
  0
LAYOUT
  5
26
102
{ACAD_REACTORS
330
1A
102
}
330
1A
100
AcDbPlotSettings
  1

  2
none_device
  4
ISO_A4_(210.00_x_297.00_MM)
  6

 40
7.5
 41
20.0
 42
7.5
 43
20.0
 44
210.0
 45
297.0
 46
0.0
 47
0.0
 48
0.0
 49
0.0
140
0.0
141
0.0
142
1.0
143
0.5639492932
 70
   688
 72
     1
 73
     1
 74
     1
  7

 75
     0
147
1.7732090669
148
76.4110683143
149
6.0
100
AcDbLayout
  1
_Back
 70
     1
 71
     2
 10
0.0
 20
0.0
 11
0.0
 21
0.0
 12
0.0
 22
0.0
 32
0.0
 14
0.0
 24
0.0
 34
0.0
 15
0.0
 25
0.0
 35
0.0
146
0.0
 13
0.0
 23
0.0
 33
0.0
 16
1.0
 26
0.0
 36
0.0
 17
0.0
 27
1.0
 37
0.0
 76
     0
330
23
331
1A4
  0
LAYOUT
  5
101
102
{ACAD_REACTORS
330
1A
102
}
330
1A
100
AcDbPlotSettings
  1

  2
none_device
  4
ISO_A4_(210.00_x_297.00_MM)
  6

 40
7.5
 41
20.0
 42
7.5
 43
20.0
 44
210.0
 45
297.0
 46
0.0
 47
0.0
 48
0.0
 49
0.0
140
0.0
141
0.0
142
1.0
143
0.5639492932
 70
   688
 72
     1
 73
     1
 74
     1
  7

 75
     0
147
1.7732090669
148
76.4110683143
149
6.0
100
AcDbLayout
  1
_Bottom
 70
     1
 71
     6
 10
0.0
 20
0.0
 11
0.0
 21
0.0
 12
0.0
 22
0.0
 32
0.0
 14
0.0
 24
0.0
 34
0.0
 15
0.0
 25
0.0
 35
0.0
146
0.0
 13
0.0
 23
0.0
 33
0.0
 16
1.0
 26
0.0
 36
0.0
 17
0.0
 27
1.0
 37
0.0
 76
     0
330
100
331
1AC
  0
LAYOUT
  5
17A
102
{ACAD_REACTORS
330
1A
102
}
330
1A
100
AcDbPlotSettings
  1

  2
none_device
  4
ISO_A4_(210.00_x_297.00_MM)
  6

 40
7.5
 41
20.0
 42
7.5
 43
20.0
 44
210.0
 45
297.0
 46
0.0
 47
0.0
 48
0.0
 49
0.0
140
0.0
141
0.0
142
1.0
143
0.5639492932
 70
   688
 72
     1
 73
     1
 74
     1
  7

 75
     0
147
1.7732090669
148
76.4110683143
149
6.0
100
AcDbLayout
  1
_Dimetric
 70
     1
 71
     9
 10
0.0
 20
0.0
 11
0.0
 21
0.0
 12
0.0
 22
0.0
 32
0.0
 14
0.0
 24
0.0
 34
0.0
 15
0.0
 25
0.0
 35
0.0
146
0.0
 13
0.0
 23
0.0
 33
0.0
 16
1.0
 26
0.0
 36
0.0
 17
0.0
 27
1.0
 37
0.0
 76
     0
330
179
331
1B2
  0
LAYOUT
  5
C2
102
{ACAD_REACTORS
330
1A
102
}
330
1A
100
AcDbPlotSettings
  1

  2
none_device
  4
ISO_A4_(210.00_x_297.00_MM)
  6

 40
7.5
 41
20.0
 42
7.5
 43
20.0
 44
210.0
 45
297.0
 46
0.0
 47
0.0
 48
0.0
 49
0.0
140
0.0
141
0.0
142
1.0
143
0.5639492932
 70
   688
 72
     1
 73
     1
 74
     1
  7

 75
     0
147
1.7732090669
148
76.4110683143
149
6.0
100
AcDbLayout
  1
_Front
 70
     1
 71
     3
 10
0.0
 20
0.0
 11
0.0
 21
0.0
 12
0.0
 22
0.0
 32
0.0
 14
0.0
 24
0.0
 34
0.0
 15
0.0
 25
0.0
 35
0.0
146
0.0
 13
0.0
 23
0.0
 33
0.0
 16
1.0
 26
0.0
 36
0.0
 17
0.0
 27
1.0
 37
0.0
 76
     0
330
C1
331
1A6
  0
LAYOUT
  5
12C
102
{ACAD_REACTORS
330
1A
102
}
330
1A
100
AcDbPlotSettings
  1

  2
none_device
  4
ISO_A4_(210.00_x_297.00_MM)
  6

 40
7.5
 41
20.0
 42
7.5
 43
20.0
 44
210.0
 45
297.0
 46
0.0
 47
0.0
 48
0.0
 49
0.0
140
0.0
141
0.0
142
1.0
143
0.5639492932
 70
   688
 72
     1
 73
     1
 74
     1
  7

 75
     0
147
1.7732090669
148
76.4110683143
149
6.0
100
AcDbLayout
  1
_Isometric
 70
     1
 71
     7
 10
0.0
 20
0.0
 11
0.0
 21
0.0
 12
0.0
 22
0.0
 32
0.0
 14
0.0
 24
0.0
 34
0.0
 15
0.0
 25
0.0
 35
0.0
146
0.0
 13
0.0
 23
0.0
 33
0.0
 16
1.0
 26
0.0
 36
0.0
 17
0.0
 27
1.0
 37
0.0
 76
     0
330
12B
331
1AE
  0
LAYOUT
  5
D6
102
{ACAD_REACTORS
330
1A
102
}
330
1A
100
AcDbPlotSettings
  1

  2
none_device
  4
ISO_A4_(210.00_x_297.00_MM)
  6

 40
7.5
 41
20.0
 42
7.5
 43
20.0
 44
210.0
 45
297.0
 46
0.0
 47
0.0
 48
0.0
 49
0.0
140
0.0
141
0.0
142
1.0
143
0.5639492932
 70
   688
 72
     1
 73
     1
 74
     1
  7

 75
     0
147
1.7732090669
148
76.4110683143
149
6.0
100
AcDbLayout
  1
_Left
 70
     1
 71
     4
 10
0.0
 20
0.0
 11
0.0
 21
0.0
 12
0.0
 22
0.0
 32
0.0
 14
0.0
 24
0.0
 34
0.0
 15
0.0
 25
0.0
 35
0.0
146
0.0
 13
0.0
 23
0.0
 33
0.0
 16
1.0
 26
0.0
 36
0.0
 17
0.0
 27
1.0
 37
0.0
 76
     0
330
D5
331
1A8
  0
LAYOUT
  5
EA
102
{ACAD_REACTORS
330
1A
102
}
330
1A
100
AcDbPlotSettings
  1

  2
none_device
  4
ISO_A4_(210.00_x_297.00_MM)
  6

 40
7.5
 41
20.0
 42
7.5
 43
20.0
 44
210.0
 45
297.0
 46
0.0
 47
0.0
 48
0.0
 49
0.0
140
0.0
141
0.0
142
1.0
143
0.5639492932
 70
   688
 72
     1
 73
     1
 74
     1
  7

 75
     0
147
1.7732090669
148
76.4110683143
149
6.0
100
AcDbLayout
  1
_Right
 70
     1
 71
     5
 10
0.0
 20
0.0
 11
0.0
 21
0.0
 12
0.0
 22
0.0
 32
0.0
 14
0.0
 24
0.0
 34
0.0
 15
0.0
 25
0.0
 35
0.0
146
0.0
 13
0.0
 23
0.0
 33
0.0
 16
1.0
 26
0.0
 36
0.0
 17
0.0
 27
1.0
 37
0.0
 76
     0
330
E9
331
1AA
  0
LAYOUT
  5
1E
102
{ACAD_REACTORS
330
1A
102
}
330
1A
100
AcDbPlotSettings
  1

  2
none_device
  4
ISO_A4_(210.00_x_297.00_MM)
  6

 40
7.5
 41
20.0
 42
7.5
 43
20.0
 44
210.0
 45
297.0
 46
0.0
 47
0.0
 48
0.0
 49
0.0
140
0.0
141
0.0
142
1.0
143
0.5639492932
 70
   688
 72
     1
 73
     1
 74
     1
  7

 75
     0
147
1.7732090669
148
76.4110683143
149
6.0
100
AcDbLayout
  1
_Top
 70
     1
 71
     1
 10
-87.6900541787
 20
-10.2296196991
 11
79.8028859073
 21
108.1997318768
 12
0.0
 22
0.0
 32
0.0
 14
-76.4110683143
 24
-6.0
 34
0.0
 15
68.523900043
 25
0.0
 35
0.0
146
0.0
 13
0.0
 23
0.0
 33
0.0
 16
1.0
 26
0.0
 36
0.0
 17
0.0
 27
1.0
 37
0.0
 76
     0
330
1B
331
1A2
  0
LAYOUT
  5
155
102
{ACAD_REACTORS
330
1A
102
}
330
1A
100
AcDbPlotSettings
  1

  2
none_device
  4
ISO_A4_(210.00_x_297.00_MM)
  6

 40
7.5
 41
20.0
 42
7.5
 43
20.0
 44
210.0
 45
297.0
 46
0.0
 47
0.0
 48
0.0
 49
0.0
140
0.0
141
0.0
142
1.0
143
0.5639492932
 70
   688
 72
     1
 73
     1
 74
     1
  7

 75
     0
147
1.7732090669
148
76.4110683143
149
6.0
100
AcDbLayout
  1
_Trimetric
 70
     1
 71
     8
 10
0.0
 20
0.0
 11
0.0
 21
0.0
 12
0.0
 22
0.0
 32
0.0
 14
0.0
 24
0.0
 34
0.0
 15
0.0
 25
0.0
 35
0.0
146
0.0
 13
0.0
 23
0.0
 33
0.0
 16
1.0
 26
0.0
 36
0.0
 17
0.0
 27
1.0
 37
0.0
 76
     0
330
154
331
1B0
  0
LAYOUT
  5
22
102
{ACAD_REACTORS
330
1A
102
}
330
1A
100
AcDbPlotSettings
  1

  2
none_device
  4
ANSI_A_(11.00_x_8.50_Inches)
  6

 40
6.35
 41
19.05
 42
6.35000508
 43
19.05000254
 44
279.4
 45
215.9
 46
145.0908339956
 47
95.3149571272
 48
0.0
 49
0.0
140
0.0
141
0.0
142
0.0773212899
143
1.0
 70
  1696
 72
     0
 73
     0
 74
     0
  7

 75
     0
147
0.0179189148
148
-1300.4909072572
149
0.0
100
AcDbLayout
  1
Model
 70
     1
 71
     0
 10
0.0
 20
0.0
 11
420.0
 21
297.0
 12
0.0
 22
0.0
 32
0.0
 14
-76.398591741
 24
-26.4103183558
 34
0.0
 15
64.4423075258
 25
19.877643653
 35
0.0
146
0.0
 13
0.0
 23
0.0
 33
0.0
 16
1.0
 26
0.0
 36
0.0
 17
0.0
 27
1.0
 37
0.0
 76
     0
330
1F
331
29
  0
MLINESTYLE
  5
18
102
{ACAD_REACTORS
330
17
102
}
330
17
100
AcDbMlineStyle
  2
Standard
 70
     0
  3

 62
   256
 51
90.0
 52
90.0
 71
     2
 49
0.5
 62
   256
  6
BYLAYER
 49
-0.5
 62
   256
  6
BYLAYER
  0
ACDBPLACEHOLDER
  5
F
102
{ACAD_REACTORS
330
E
102
}
330
E
  0
SCALE
  5
48
102
{ACAD_REACTORS
330
47
102
}
330
47
100
AcDbScale
 70
     0
300
1:1
140
1.0
141
1.0
290
     1
  0
SCALE
  5
49
102
{ACAD_REACTORS
330
47
102
}
330
47
100
AcDbScale
 70
     0
300
1:2
140
1.0
141
2.0
290
     0
  0
SCALE
  5
4A
102
{ACAD_REACTORS
330
47
102
}
330
47
100
AcDbScale
 70
     0
300
1:4
140
1.0
141
4.0
290
     0
  0
SCALE
  5
4B
102
{ACAD_REACTORS
330
47
102
}
330
47
100
AcDbScale
 70
     0
300
1:5
140
1.0
141
5.0
290
     0
  0
SCALE
  5
4C
102
{ACAD_REACTORS
330
47
102
}
330
47
100
AcDbScale
 70
     0
300
1:8
140
1.0
141
8.0
290
     0
  0
SCALE
  5
4D
102
{ACAD_REACTORS
330
47
102
}
330
47
100
AcDbScale
 70
     0
300
1:10
140
1.0
141
10.0
290
     0
  0
SCALE
  5
4E
102
{ACAD_REACTORS
330
47
102
}
330
47
100
AcDbScale
 70
     0
300
1:16
140
1.0
141
16.0
290
     0
  0
SCALE
  5
4F
102
{ACAD_REACTORS
330
47
102
}
330
47
100
AcDbScale
 70
     0
300
1:20
140
1.0
141
20.0
290
     0
  0
SCALE
  5
50
102
{ACAD_REACTORS
330
47
102
}
330
47
100
AcDbScale
 70
     0
300
1:30
140
1.0
141
30.0
290
     0
  0
SCALE
  5
51
102
{ACAD_REACTORS
330
47
102
}
330
47
100
AcDbScale
 70
     0
300
1:40
140
1.0
141
40.0
290
     0
  0
SCALE
  5
52
102
{ACAD_REACTORS
330
47
102
}
330
47
100
AcDbScale
 70
     0
300
1:50
140
1.0
141
50.0
290
     0
  0
SCALE
  5
53
102
{ACAD_REACTORS
330
47
102
}
330
47
100
AcDbScale
 70
     0
300
1:100
140
1.0
141
100.0
290
     0
  0
SCALE
  5
54
102
{ACAD_REACTORS
330
47
102
}
330
47
100
AcDbScale
 70
     0
300
2:1
140
2.0
141
1.0
290
     0
  0
SCALE
  5
55
102
{ACAD_REACTORS
330
47
102
}
330
47
100
AcDbScale
 70
     0
300
4:1
140
4.0
141
1.0
290
     0
  0
SCALE
  5
56
102
{ACAD_REACTORS
330
47
102
}
330
47
100
AcDbScale
 70
     0
300
8:1
140
8.0
141
1.0
290
     0
  0
SCALE
  5
57
102
{ACAD_REACTORS
330
47
102
}
330
47
100
AcDbScale
 70
     0
300
10:1
140
10.0
141
1.0
290
     0
  0
SCALE
  5
58
102
{ACAD_REACTORS
330
47
102
}
330
47
100
AcDbScale
 70
     0
300
100:1
140
100.0
141
1.0
290
     0
  0
SCALE
  5
59
102
{ACAD_REACTORS
330
47
102
}
330
47
100
AcDbScale
 70
     0
300
1/128" = 1'-0"
140
0.0078125
141
12.0
290
     0
  0
SCALE
  5
5A
102
{ACAD_REACTORS
330
47
102
}
330
47
100
AcDbScale
 70
     0
300
1/64" = 1'-0"
140
0.015625
141
12.0
290
     0
  0
SCALE
  5
5B
102
{ACAD_REACTORS
330
47
102
}
330
47
100
AcDbScale
 70
     0
300
1/32" = 1'-0"
140
0.03125
141
12.0
290
     0
  0
SCALE
  5
5C
102
{ACAD_REACTORS
330
47
102
}
330
47
100
AcDbScale
 70
     0
300
1/16" = 1'-0"
140
0.0625
141
12.0
290
     0
  0
SCALE
  5
5D
102
{ACAD_REACTORS
330
47
102
}
330
47
100
AcDbScale
 70
     0
300
3/32" = 1'-0"
140
0.09375
141
12.0
290
     0
  0
SCALE
  5
5E
102
{ACAD_REACTORS
330
47
102
}
330
47
100
AcDbScale
 70
     0
300
1/8" = 1'-0"
140
0.125
141
12.0
290
     0
  0
SCALE
  5
5F
102
{ACAD_REACTORS
330
47
102
}
330
47
100
AcDbScale
 70
     0
300
3/16" = 1'-0"
140
0.1875
141
12.0
290
     0
  0
SCALE
  5
60
102
{ACAD_REACTORS
330
47
102
}
330
47
100
AcDbScale
 70
     0
300
1/4" = 1'-0"
140
0.25
141
12.0
290
     0
  0
SCALE
  5
61
102
{ACAD_REACTORS
330
47
102
}
330
47
100
AcDbScale
 70
     0
300
3/8" = 1'-0"
140
0.375
141
12.0
290
     0
  0
SCALE
  5
62
102
{ACAD_REACTORS
330
47
102
}
330
47
100
AcDbScale
 70
     0
300
1/2" = 1'-0"
140
0.5
141
12.0
290
     0
  0
SCALE
  5
63
102
{ACAD_REACTORS
330
47
102
}
330
47
100
AcDbScale
 70
     0
300
3/4" = 1'-0"
140
0.75
141
12.0
290
     0
  0
SCALE
  5
64
102
{ACAD_REACTORS
330
47
102
}
330
47
100
AcDbScale
 70
     0
300
1" = 1'-0"
140
1.0
141
12.0
290
     0
  0
SCALE
  5
65
102
{ACAD_REACTORS
330
47
102
}
330
47
100
AcDbScale
 70
     0
300
1-1/2" = 1'-0"
140
1.5
141
12.0
290
     0
  0
SCALE
  5
66
102
{ACAD_REACTORS
330
47
102
}
330
47
100
AcDbScale
 70
     0
300
3" = 1'-0"
140
3.0
141
12.0
290
     0
  0
SCALE
  5
67
102
{ACAD_REACTORS
330
47
102
}
330
47
100
AcDbScale
 70
     0
300
6" = 1'-0"
140
6.0
141
12.0
290
     0
  0
SCALE
  5
68
102
{ACAD_REACTORS
330
47
102
}
330
47
100
AcDbScale
 70
     0
300
1'-0" = 1'-0"
140
12.0
141
12.0
290
     0
  0
ENDSEC
  0
EOF
