  0
SECTION
  2
HEADER
  9
$ACADVER
  1
AC1015
  9
$ACADMAINTVER
 70
     6
  9
$DWGCODEPAGE
  3
ANSI_1252
  9
$INSBASE
 10
0.0
 20
0.0
 30
0.0
  9
$EXTMIN
 10
-121.0367825754
 20
-43.6077380828
 30
0.0
  9
$EXTMAX
 10
185.5325385441
 20
40.0289606184
 30
0.0
  9
$LIMMIN
 10
0.0
 20
0.0
  9
$LIMMAX
 10
420.0
 20
297.0
  9
$ORTHOMODE
 70
     0
  9
$REGENMODE
 70
     1
  9
$FILLMODE
 70
     1
  9
$QTEXTMODE
 70
     0
  9
$MIRRTEXT
 70
     1
  9
$LTSCALE
 40
1.0
  9
$ATTMODE
 70
     1
  9
$TEXTSIZE
 40
3.5
  9
$TRACEWID
 40
1.0
  9
$TEXTSTYLE
  7
Standard
  9
$CLAYER
  8
0
  9
$CELTYPE
  6
ByLayer
  9
$CECOLOR
 62
   256
  9
$CELTSCALE
 40
1.0
  9
$DISPSILH
 70
     0
  9
$DIMSCALE
 40
1.0
  9
$DIMASZ
 40
3.302
  9
$DIMEXO
 40
0.0
  9
$DIMDLI
 40
3.75
  9
$DIMRND
 40
0.0
  9
$DIMDLE
 40
0.0
  9
$DIMEXE
 40
1.0
  9
$DIMTP
 40
0.0
  9
$DIMTM
 40
0.0
  9
$DIMTXT
 40
3.5
  9
$DIMCEN
 40
2.5
  9
$DIMTSZ
 40
0.0
  9
$DIMTOL
 70
     0
  9
$DIMLIM
 70
     0
  9
$DIMTIH
 70
     1
  9
$DIMTOH
 70
     1
  9
$DIMSE1
 70
     0
  9
$DIMSE2
 70
     0
  9
$DIMTAD
 70
     1
  9
$DIMZIN
 70
     1
  9
$DIMBLK
  1

  9
$DIMASO
 70
     1
  9
$DIMSHO
 70
     1
  9
$DIMPOST
  1

  9
$DIMAPOST
  1

  9
$DIMALT
 70
     0
  9
$DIMALTD
 70
     3
  9
$DIMALTF
 40
0.0393700787
  9
$DIMLFAC
 40
1.0
  9
$DIMTOFL
 70
     1
  9
$DIMTVP
 40
0.0
  9
$DIMTIX
 70
     0
  9
$DIMSOXD
 70
     0
  9
$DIMSAH
 70
     0
  9
$DIMBLK1
  1

  9
$DIMBLK2
  1

  9
$DIMSTYLE
  2
ISO-25
  9
$DIMCLRD
 70
     0
  9
$DIMCLRE
 70
     0
  9
$DIMCLRT
 70
     0
  9
$DIMTFAC
 40
1.0
  9
$DIMGAP
 40
1.524
  9
$DIMJUST
 70
     0
  9
$DIMSD1
 70
     0
  9
$DIMSD2
 70
     0
  9
$DIMTOLJ
 70
     0
  9
$DIMTZIN
 70
     1
  9
$DIMALTZ
 70
     0
  9
$DIMALTTZ
 70
     0
  9
$DIMUPT
 70
     0
  9
$DIMDEC
 70
     2
  9
$DIMTDEC
 70
     2
  9
$DIMALTU
 70
     2
  9
$DIMALTTD
 70
     3
  9
$DIMTXSTY
  7
Standard
  9
$DIMAUNIT
 70
     0
  9
$DIMADEC
 70
     2
  9
$DIMALTRND
 40
0.0
  9
$DIMAZIN
 70
     0
  9
$DIMDSEP
 70
    44
  9
$DIMATFIT
 70
     3
  9
$DIMFRAC
 70
     0
  9
$DIMLDRBLK
  1

  9
$DIMLUNIT
 70
     2
  9
$DIMLWD
 70
    -2
  9
$DIMLWE
 70
    -2
  9
$DIMTMOVE
 70
     0
  9
$LUNITS
 70
     2
  9
$LUPREC
 70
     2
  9
$SKETCHINC
 40
1.0
  9
$FILLETRAD
 40
10.0
  9
$AUNITS
 70
     0
  9
$AUPREC
 70
     2
  9
$MENU
  1
.
  9
$ELEVATION
 40
0.0
  9
$PELEVATION
 40
0.0
  9
$THICKNESS
 40
0.0
  9
$LIMCHECK
 70
     0
  9
$CHAMFERA
 40
0.0
  9
$CHAMFERB
 40
0.0
  9
$CHAMFERC
 40
0.0
  9
$CHAMFERD
 40
0.0
  9
$SKPOLY
 70
     0
  9
$TDCREATE
 40
2459699.059198368
  9
$TDUCREATE
 40
2459698.975865035
  9
$TDUPDATE
 40
2459699.05923316
  9
$TDUUPDATE
 40
2459698.975899826
  9
$TDINDWG
 40
0.0000000116
  9
$TDUSRTIMER
 40
0.0000000116
  9
$USRTIMER
 70
     1
  9
$ANGBASE
 50
0.0
  9
$ANGDIR
 70
     0
  9
$PDMODE
 70
     0
  9
$PDSIZE
 40
-1.0
  9
$PLINEWID
 40
0.0
  9
$SPLFRAME
 70
     0
  9
$SPLINETYPE
 70
     6
  9
$SPLINESEGS
 70
     8
  9
$HANDSEED
  5
29B
  9
$SURFTAB1
 70
     6
  9
$SURFTAB2
 70
     6
  9
$SURFTYPE
 70
     6
  9
$SURFU
 70
     6
  9
$SURFV
 70
     6
  9
$UCSBASE
  2

  9
$UCSNAME
  2

  9
$UCSORG
 10
0.0
 20
0.0
 30
0.0
  9
$UCSXDIR
 10
1.0
 20
0.0
 30
0.0
  9
$UCSYDIR
 10
0.0
 20
1.0
 30
0.0
  9
$UCSORTHOREF
  2

  9
$UCSORTHOVIEW
 70
     0
  9
$UCSORGTOP
 10
0.0
 20
0.0
 30
0.0
  9
$UCSORGBOTTOM
 10
0.0
 20
0.0
 30
0.0
  9
$UCSORGLEFT
 10
0.0
 20
0.0
 30
0.0
  9
$UCSORGRIGHT
 10
0.0
 20
0.0
 30
0.0
  9
$UCSORGFRONT
 10
0.0
 20
0.0
 30
0.0
  9
$UCSORGBACK
 10
0.0
 20
0.0
 30
0.0
  9
$PUCSBASE
  2

  9
$PUCSNAME
  2

  9
$PUCSORG
 10
0.0
 20
0.0
 30
0.0
  9
$PUCSXDIR
 10
1.0
 20
0.0
 30
0.0
  9
$PUCSYDIR
 10
0.0
 20
1.0
 30
0.0
  9
$PUCSORTHOREF
  2

  9
$PUCSORTHOVIEW
 70
     0
  9
$PUCSORGTOP
 10
0.0
 20
0.0
 30
0.0
  9
$PUCSORGBOTTOM
 10
0.0
 20
0.0
 30
0.0
  9
$PUCSORGLEFT
 10
0.0
 20
0.0
 30
0.0
  9
$PUCSORGRIGHT
 10
0.0
 20
0.0
 30
0.0
  9
$PUCSORGFRONT
 10
0.0
 20
0.0
 30
0.0
  9
$PUCSORGBACK
 10
0.0
 20
0.0
 30
0.0
  9
$USERI1
 70
     0
  9
$USERI2
 70
     0
  9
$USERI3
 70
     0
  9
$USERI4
 70
     0
  9
$USERI5
 70
     0
  9
$USERR1
 40
0.0
  9
$USERR2
 40
0.0
  9
$USERR3
 40
0.0
  9
$USERR4
 40
0.0
  9
$USERR5
 40
0.0
  9
$WORLDVIEW
 70
     1
  9
$SHADEDGE
 70
     3
  9
$SHADEDIF
 70
    70
  9
$TILEMODE
 70
     1
  9
$MAXACTVP
 70
    64
  9
$PINSBASE
 10
0.0
 20
0.0
 30
0.0
  9
$PLIMCHECK
 70
     0
  9
$PEXTMIN
 10
-89.7688501769
 20
-183.2834037924
 30
0.0
  9
$PEXTMAX
 10
90.2311498231
 20
106.7165962076
 30
0.0
  9
$PLIMMIN
 10
-119.5124399205
 20
-194.4372499463
  9
$PLIMMAX
 10
322.1798677718
 20
117.8704423614
  9
$UNITMODE
 70
     0
  9
$VISRETAIN
 70
     1
  9
$PLINEGEN
 70
     0
  9
$PSLTSCALE
 70
     1
  9
$TREEDEPTH
 70
  3020
  9
$CMLSTYLE
  2
Standard
  9
$CMLJUST
 70
     0
  9
$CMLSCALE
 40
20.0
  9
$PROXYGRAPHICS
 70
     1
  9
$MEASUREMENT
 70
     1
  9
$CELWEIGHT
370
    -1
  9
$ENDCAPS
280
     0
  9
$JOINSTYLE
280
     0
  9
$LWDISPLAY
290
     1
  9
$INSUNITS
 70
     4
  9
$HYPERLINKBASE
  1

  9
$STYLESHEET
  1

  9
$XEDIT
290
     1
  9
$CEPSNTYPE
380
     0
  9
$PSTYLEMODE
290
     1
  9
$FINGERPRINTGUID
  2
{14783fb4-d4a8-4d00-8e29-389e095bfbe7}
  9
$VERSIONGUID
  2
{FAEB1C32-E019-11D5-929B-00C0DF256EC4}
  9
$EXTNAMES
290
     1
  9
$PSVPSCALE
 40
0.0
  9
$OLESTARTUP
290
     0
  0
ENDSEC
  0
SECTION
  2
CLASSES
  0
CLASS
  1
ACDBDICTIONARYWDFLT
  2
AcDbDictionaryWithDefault
  3
ObjectDBX Classes
 90
        0
280
     0
281
     0
  0
CLASS
  1
VISUALSTYLE
  2
AcDbVisualStyle
  3
ObjectDBX Classes
 90
     4095
280
     0
281
     0
  0
CLASS
  1
MATERIAL
  2
AcDbMaterial
  3
ObjectDBX Classes
 90
     1153
280
     0
281
     0
  0
CLASS
  1
SCALE
  2
AcDbScale
  3
ObjectDBX Classes
 90
     1153
280
     0
281
     0
  0
CLASS
  1
TABLESTYLE
  2
AcDbTableStyle
  3
ObjectDBX Classes
 90
     4095
280
     0
281
     0
  0
CLASS
  1
MLEADERSTYLE
  2
AcDbMLeaderStyle
  3
ACDB_MLEADERSTYLE_CLASS
 90
     4095
280
     0
281
     0
  0
CLASS
  1
SUN
  2
AcDbSun
  3
SCENEOE
 90
     1153
280
     0
281
     0
  0
CLASS
  1
ACDBPLACEHOLDER
  2
AcDbPlaceHolder
  3
ObjectDBX Classes
 90
        0
280
     0
281
     0
  0
CLASS
  1
LAYOUT
  2
AcDbLayout
  3
ObjectDBX Classes
 90
        0
280
     0
281
     0
  0
ENDSEC
  0
SECTION
  2
TABLES
  0
TABLE
  2
VPORT
  5
8
330
0
100
AcDbSymbolTable
 70
     1
  0
VPORT
  5
29
330
8
100
AcDbSymbolTableRecord
100
AcDbViewportTableRecord
  2
*Active
 70
     0
 10
0.0
 20
0.0
 11
1.0
 21
1.0
 12
32.2478779843
 22
-1.7893887322
 13
0.0
 23
0.0
 14
10.0
 24
10.0
 15
10.0
 25
10.0
 16
0.0
 26
0.0
 36
1.0
 17
0.0
 27
0.0
 37
0.0
 40
85.3094326753
 41
3.6654880678
 42
50.0
 43
0.0
 44
0.0
 50
0.0
 51
0.0
 71
     0
 72
   100
 73
     1
 74
     3
 75
     0
 76
     0
 77
     0
 78
     0
281
     0
 65
     1
110
0.0
120
0.0
130
0.0
111
1.0
121
0.0
131
0.0
112
0.0
122
1.0
132
0.0
 79
     0
146
0.0
  0
ENDTAB
  0
TABLE
  2
LTYPE
  5
5
330
0
100
AcDbSymbolTable
 70
     6
  0
LTYPE
  5
14
330
5
100
AcDbSymbolTableRecord
100
AcDbLinetypeTableRecord
  2
ByBlock
 70
     0
  3

 72
    65
 73
     0
 40
0.0
  0
LTYPE
  5
15
330
5
100
AcDbSymbolTableRecord
100
AcDbLinetypeTableRecord
  2
ByLayer
 70
     0
  3

 72
    65
 73
     0
 40
0.0
  0
LTYPE
  5
16
330
5
100
AcDbSymbolTableRecord
100
AcDbLinetypeTableRecord
  2
Continuous
 70
     0
  3
Solid line
 72
    65
 73
     0
 40
0.0
  0
LTYPE
  5
6E
330
5
100
AcDbSymbolTableRecord
100
AcDbLinetypeTableRecord
  2
HIDDEN
 70
     0
  3
Hidden __ __ __ __ __ __ __ __ __ __ __ __ __ __
 72
    65
 73
     2
 40
1.905
 49
1.27
 74
     0
 49
-0.635
 74
     0
  0
LTYPE
  5
6F
330
5
100
AcDbSymbolTableRecord
100
AcDbLinetypeTableRecord
  2
PHANTOM
 70
     0
  3
Phantom ______  __  __  ______  __  __  ______
 72
    65
 73
     6
 40
12.7
 49
6.35
 74
     0
 49
-1.27
 74
     0
 49
1.27
 74
     0
 49
-1.27
 74
     0
 49
1.27
 74
     0
 49
-1.27
 74
     0
  0
LTYPE
  5
70
330
5
100
AcDbSymbolTableRecord
100
AcDbLinetypeTableRecord
  2
CENTER
 70
     0
  3
Center ____ _ ____ _ ____ _ ____ _ ____ _ ____
 72
    65
 73
     4
 40
10.16
 49
6.35
 74
     0
 49
-1.27
 74
     0
 49
1.27
 74
     0
 49
-1.27
 74
     0
  0
LTYPE
  5
71
330
5
100
AcDbSymbolTableRecord
100
AcDbLinetypeTableRecord
  2
CENTERX2
 70
     0
  3
Center (2x) ________  __  ________  __  _____
 72
    65
 73
     4
 40
20.32
 49
12.7
 74
     0
 49
-2.54
 74
     0
 49
2.54
 74
     0
 49
-2.54
 74
     0
  0
LTYPE
  5
72
330
5
100
AcDbSymbolTableRecord
100
AcDbLinetypeTableRecord
  2
DOT2
 70
     0
  3
Dot (.5x) ........................................
 72
    65
 73
     2
 40
0.635
 49
0.0
 74
     0
 49
-0.635
 74
     0
  0
ENDTAB
  0
TABLE
  2
LAYER
  5
2
330
0
100
AcDbSymbolTable
 70
     1
  0
LAYER
  5
10
330
2
100
AcDbSymbolTableRecord
100
AcDbLayerTableRecord
  2
0
 70
     0
 62
     7
  6
Continuous
370
    -3
390
F
  0
ENDTAB
  0
TABLE
  2
STYLE
  5
3
330
0
100
AcDbSymbolTable
 70
     2
  0
STYLE
  5
11
330
3
100
AcDbSymbolTableRecord
100
AcDbTextStyleTableRecord
  2
Standard
 70
     0
 40
0.0
 41
1.0
 50
0.0
 71
     0
 42
3.5
  3
txt
  4

  0
STYLE
  5
285
330
3
100
AcDbSymbolTableRecord
100
AcDbTextStyleTableRecord
  2
SLDTEXTSTYLE0
 70
     0
 40
0.0
 41
0.7
 50
0.0
 71
     0
 42
3.5
  3
TXT
  4

  0
ENDTAB
  0
TABLE
  2
VIEW
  5
6
330
0
100
AcDbSymbolTable
 70
     0
  0
ENDTAB
  0
TABLE
  2
UCS
  5
7
330
0
100
AcDbSymbolTable
 70
     0
  0
ENDTAB
  0
TABLE
  2
APPID
  5
9
330
0
100
AcDbSymbolTable
 70
     1
  0
APPID
  5
12
330
9
100
AcDbSymbolTableRecord
100
AcDbRegAppTableRecord
  2
ACAD
 70
     0
  0
ENDTAB
  0
TABLE
  2
DIMSTYLE
  5
A
330
0
100
AcDbSymbolTable
 70
     1
100
AcDbDimStyleTable
  0
DIMSTYLE
105
27
330
A
100
AcDbSymbolTableRecord
100
AcDbDimStyleTableRecord
  2
ISO-25
 70
     0
 41
2.5
 42
0.625
 43
3.75
 44
1.25
 73
     0
 74
     0
 77
     1
 78
     8
140
2.5
141
2.5
143
0.0393700787
147
0.625
171
     3
172
     1
178
     0
271
     2
272
     2
274
     3
278
    44
283
     0
284
     8
340
11
  0
ENDTAB
  0
TABLE
  2
BLOCK_RECORD
  5
1
330
0
100
AcDbSymbolTable
 70
     8
  0
BLOCK_RECORD
  5
1F
330
1
100
AcDbSymbolTableRecord
100
AcDbBlockTableRecord
  2
*Model_Space
340
22
  0
BLOCK_RECORD
  5
1B
330
1
100
AcDbSymbolTableRecord
100
AcDbBlockTableRecord
  2
*Paper_Space
340
1E
  0
BLOCK_RECORD
  5
23
330
1
100
AcDbSymbolTableRecord
100
AcDbBlockTableRecord
  2
*Paper_Space0
340
26
  0
BLOCK_RECORD
  5
E9
330
1
100
AcDbSymbolTableRecord
100
AcDbBlockTableRecord
  2
*Paper_Space1
340
EA
  0
BLOCK_RECORD
  5
112
330
1
100
AcDbSymbolTableRecord
100
AcDbBlockTableRecord
  2
*Paper_Space2
340
113
  0
BLOCK_RECORD
  5
12E
330
1
100
AcDbSymbolTableRecord
100
AcDbBlockTableRecord
  2
*Paper_Space3
340
12F
  0
BLOCK_RECORD
  5
14A
330
1
100
AcDbSymbolTableRecord
100
AcDbBlockTableRecord
  2
*Paper_Space4
340
14B
  0
BLOCK_RECORD
  5
166
330
1
100
AcDbSymbolTableRecord
100
AcDbBlockTableRecord
  2
*Paper_Space5
340
167
  0
BLOCK_RECORD
  5
1BD
330
1
100
AcDbSymbolTableRecord
100
AcDbBlockTableRecord
  2
*Paper_Space6
340
1BE
  0
BLOCK_RECORD
  5
214
330
1
100
AcDbSymbolTableRecord
100
AcDbBlockTableRecord
  2
*Paper_Space7
340
215
  0
ENDTAB
  0
ENDSEC
  0
SECTION
  2
BLOCKS
  0
BLOCK
  5
20
330
1F
100
AcDbEntity
  8
0
100
AcDbBlockBegin
  2
*Model_Space
 70
     0
 10
0.0
 20
0.0
 30
0.0
  3
*Model_Space
  1

  0
ENDBLK
  5
21
330
1F
100
AcDbEntity
  8
0
100
AcDbBlockEnd
  0
BLOCK
  5
1C
330
1B
100
AcDbEntity
 67
     1
  8
0
100
AcDbBlockBegin
  2
*Paper_Space
 70
     0
 10
0.0
 20
0.0
 30
0.0
  3
*Paper_Space
  1

  0
ENDBLK
  5
1D
330
1B
100
AcDbEntity
 67
     1
  8
0
100
AcDbBlockEnd
  0
BLOCK
  5
24
330
23
100
AcDbEntity
  8
0
100
AcDbBlockBegin
  2
*Paper_Space0
 70
     0
 10
0.0
 20
0.0
 30
0.0
  3
*Paper_Space0
  1

  0
LINE
  5
E3
330
23
100
AcDbEntity
  8
0
  6
Continuous
 62
     7
370
    25
100
AcDbLine
 10
61.3636363636
 20
-6.0
 30
0.0
 11
61.3636363636
 21
0.0
 31
0.0
  0
LINE
  5
E4
330
23
100
AcDbEntity
  8
0
  6
Continuous
 62
     7
370
    25
100
AcDbLine
 10
90.2311498231
 20
-6.0
 30
0.0
 11
-89.7688501769
 21
-6.0
 31
0.0
  0
LINE
  5
E5
330
23
100
AcDbEntity
  8
0
  6
Continuous
 62
     7
370
    25
100
AcDbLine
 10
-61.3636363636
 20
-6.0
 30
0.0
 11
-61.3636363636
 21
0.0
 31
0.0
  0
LINE
  5
E6
330
23
100
AcDbEntity
  8
0
  6
Continuous
 62
     7
370
    25
100
AcDbLine
 10
90.2311498231
 20
0.0
 30
0.0
 11
-89.7688501769
 21
0.0
 31
0.0
  0
LINE
  5
E7
330
23
100
AcDbEntity
  8
0
  6
Continuous
 62
     7
370
    25
100
AcDbLine
 10
90.2311498231
 20
-6.0
 30
0.0
 11
90.2311498231
 21
0.0
 31
0.0
  0
LINE
  5
E8
330
23
100
AcDbEntity
  8
0
  6
Continuous
 62
     7
370
    25
100
AcDbLine
 10
-89.7688501769
 20
-6.0
 30
0.0
 11
-89.7688501769
 21
0.0
 31
0.0
  0
VIEWPORT
  5
275
330
23
100
AcDbEntity
  8
0
100
AcDbViewport
 10
0.0
 20
0.0
 30
0.0
 40
205.6
 41
156.0
 68
     1
 69
     1
 12
32.2478779843
 22
-1.7893887322
 13
0.0
 23
0.0
 14
10.0
 24
10.0
 15
10.0
 25
10.0
 16
0.0
 26
0.0
 36
1.0
 17
0.0
 27
0.0
 37
0.0
 42
50.0
 43
0.0
 44
0.0
 45
237.2631827653
 50
0.0
 51
0.0
 72
   100
 90
   557152
  1

281
     0
 71
     1
 74
     0
110
0.0
120
0.0
130
0.0
111
1.0
121
0.0
131
0.0
112
0.0
122
1.0
132
0.0
 79
     0
146
0.0
  0
MTEXT
  5
28A
330
23
100
AcDbEntity
  8
0
  6
Continuous
 62
     7
100
AcDbMText
 10
-89.7688501769
 20
-7.0195663917
 30
0.0
 40
4.83362
 41
0.0
 71
     1
 72
     1
  1
SOLIDWORKS Educational Product.
  7
SLDTEXTSTYLE0
 73
     1
 44
1.0
  0
MTEXT
  5
28B
330
23
100
AcDbEntity
  8
0
  6
Continuous
 62
     7
100
AcDbMText
 10
-89.7688501769
 20
-14.2699963917
 30
0.0
 40
4.83362
 41
0.0
 71
     1
 72
     1
  1
For Instructional Use Only.
  7
SLDTEXTSTYLE0
 73
     1
 44
1.0
  0
ENDBLK
  5
25
330
23
100
AcDbEntity
  8
0
100
AcDbBlockEnd
  0
BLOCK
  5
EB
330
E9
100
AcDbEntity
  8
0
100
AcDbBlockBegin
  2
*Paper_Space1
 70
     0
 10
0.0
 20
0.0
 30
0.0
  3
*Paper_Space1
  1

  0
CIRCLE
  5
F8
330
E9
100
AcDbEntity
  8
0
  6
Continuous
 62
     7
370
    25
100
AcDbCircle
 10
50.6123848462
 20
-138.451538559
 30
0.0
 40
1.919999999999987
  0
CIRCLE
  5
F9
330
E9
100
AcDbEntity
  8
0
  6
Continuous
 62
     7
370
    25
100
AcDbCircle
 10
-49.6023248299
 20
-158.5518452392
 30
0.0
 40
1.91999999999998
  0
CIRCLE
  5
FA
330
E9
100
AcDbEntity
  8
0
  6
Continuous
 62
     7
370
    25
100
AcDbCircle
 10
-49.6023248299
 20
-138.451538559
 30
0.0
 40
1.919999999999987
  0
CIRCLE
  5
FB
330
E9
100
AcDbEntity
  8
0
  6
Continuous
 62
     7
370
    25
100
AcDbCircle
 10
-49.6023248299
 20
-118.4607212184
 30
0.0
 40
1.919999999999995
  0
CIRCLE
  5
FC
330
E9
100
AcDbEntity
  8
0
  6
Continuous
 62
     7
370
    25
100
AcDbCircle
 10
-49.6023248299
 20
-97.762264326
 30
0.0
 40
1.919999999999995
  0
CIRCLE
  5
FD
330
E9
100
AcDbEntity
  8
0
  6
Continuous
 62
     7
370
    25
100
AcDbCircle
 10
-49.6023248299
 20
-77.131033191
 30
0.0
 40
1.919999999999995
  0
CIRCLE
  5
FE
330
E9
100
AcDbEntity
  8
0
  6
Continuous
 62
     7
370
    25
100
AcDbCircle
 10
50.6123848462
 20
-77.131033191
 30
0.0
 40
1.919999999999995
  0
CIRCLE
  5
FF
330
E9
100
AcDbEntity
  8
0
  6
Continuous
 62
     7
370
    25
100
AcDbCircle
 10
50.6123848462
 20
-118.4607212184
 30
0.0
 40
1.919999999999995
  0
CIRCLE
  5
100
330
E9
100
AcDbEntity
  8
0
  6
Continuous
 62
     7
370
    25
100
AcDbCircle
 10
50.6123848462
 20
-97.762264326
 30
0.0
 40
1.919999999999995
  0
CIRCLE
  5
101
330
E9
100
AcDbEntity
  8
0
  6
Continuous
 62
     7
370
    25
100
AcDbCircle
 10
50.8866185796
 20
-158.5518452392
 30
0.0
 40
1.919999999999973
  0
CIRCLE
  5
102
330
E9
100
AcDbEntity
  8
0
  6
Continuous
 62
     7
370
    25
100
AcDbCircle
 10
0.2709801058
 20
27.6684790947
 30
0.0
 40
5.000000000000006
  0
LINE
  5
105
330
E9
100
AcDbEntity
  8
0
  6
Continuous
 62
     7
370
    25
100
AcDbLine
 10
-54.6338672204
 20
-163.2834037924
 30
0.0
 11
-54.6338672204
 21
-63.2834037924
 31
0.0
  0
LINE
  5
106
330
E9
100
AcDbEntity
  8
0
  6
Continuous
 62
     7
370
    25
100
AcDbLine
 10
-90.2311498231
 20
-8.2834037924
 30
0.0
 11
-90.2311498231
 21
56.7165962076
 31
0.0
  0
LINE
  5
107
330
E9
100
AcDbEntity
  8
0
  6
Continuous
 62
     7
370
    25
100
AcDbLine
 10
-90.2311498231
 20
56.7165962076
 30
0.0
 11
-61.3636363636
 21
106.7165962076
 31
0.0
  0
LINE
  5
108
330
E9
100
AcDbEntity
  8
0
  6
Continuous
 62
     7
370
    25
100
AcDbLine
 10
-61.3636363636
 20
106.7165962076
 30
0.0
 11
61.3636363636
 21
106.7165962076
 31
0.0
  0
LINE
  5
109
330
E9
100
AcDbEntity
  8
0
  6
Continuous
 62
     7
370
    25
100
AcDbLine
 10
61.3636363636
 20
106.7165962076
 30
0.0
 11
89.7688501769
 21
56.7165962076
 31
0.0
  0
LINE
  5
10A
330
E9
100
AcDbEntity
  8
0
  6
Continuous
 62
     7
370
    25
100
AcDbLine
 10
89.7688501769
 20
56.7165962076
 30
0.0
 11
89.7688501769
 21
-8.2834037924
 31
0.0
  0
LINE
  5
10B
330
E9
100
AcDbEntity
  8
0
  6
Continuous
 62
     7
370
    25
100
AcDbLine
 10
89.7688501769
 20
-8.2834037924
 30
0.0
 11
56.6221304086
 21
-63.2834037924
 31
0.0
  0
LINE
  5
10C
330
E9
100
AcDbEntity
  8
0
  6
Continuous
 62
     7
370
    25
100
AcDbLine
 10
56.6221304086
 20
-63.2834037924
 30
0.0
 11
56.6221304086
 21
-163.2834037924
 31
0.0
  0
LINE
  5
10D
330
E9
100
AcDbEntity
  8
0
  6
Continuous
 62
     7
370
    25
100
AcDbLine
 10
36.6221304086
 20
-183.2834037924
 30
0.0
 11
-34.6338672204
 21
-183.2834037924
 31
0.0
  0
LINE
  5
10E
330
E9
100
AcDbEntity
  8
0
  6
Continuous
 62
     7
370
    25
100
AcDbLine
 10
-54.6338672204
 20
-63.2834037924
 30
0.0
 11
-90.2311498231
 21
-8.2834037924
 31
0.0
  0
ARC
  5
10F
330
E9
100
AcDbEntity
  8
0
  6
Continuous
 62
     7
370
    25
100
AcDbCircle
 10
-34.6338672204
 20
-163.2834037924
 30
0.0
 40
20.00000000000004
100
AcDbArc
 50
180.0
 51
270.0
  0
ARC
  5
110
330
E9
100
AcDbEntity
  8
0
  6
Continuous
 62
     7
370
    25
100
AcDbCircle
 10
36.6221304086
 20
-163.2834037924
 30
0.0
 40
20.00000000000001
100
AcDbArc
 50
270.0
 51
0.0
  0
ARC
  5
111
330
E9
100
AcDbEntity
  8
0
  6
Continuous
 62
     7
370
    25
100
AcDbCircle
 10
50.6123848462
 20
-158.5518452392
 30
0.0
 40
1.92000000000004
100
AcDbArc
 50
274.0952661775
 51
85.9047338225
  0
VIEWPORT
  5
277
330
E9
100
AcDbEntity
  8
0
100
AcDbViewport
 10
0.0
 20
0.0
 30
0.0
 40
205.6
 41
156.0
 68
     1
 69
     1
 12
32.2478779843
 22
-1.7893887322
 13
0.0
 23
0.0
 14
10.0
 24
10.0
 15
10.0
 25
10.0
 16
0.0
 26
0.0
 36
1.0
 17
0.0
 27
0.0
 37
0.0
 42
50.0
 43
0.0
 44
0.0
 45
237.2631827653
 50
0.0
 51
0.0
 72
   100
 90
   557152
  1

281
     0
 71
     1
 74
     0
110
0.0
120
0.0
130
0.0
111
1.0
121
0.0
131
0.0
112
0.0
122
1.0
132
0.0
 79
     0
146
0.0
  0
MTEXT
  5
28C
330
E9
100
AcDbEntity
  8
0
  6
Continuous
 62
     7
100
AcDbMText
 10
-90.2311498231
 20
-184.3029701841
 30
0.0
 40
4.83362
 41
0.0
 71
     1
 72
     1
  1
SOLIDWORKS Educational Product.
  7
SLDTEXTSTYLE0
 73
     1
 44
1.0
  0
MTEXT
  5
28D
330
E9
100
AcDbEntity
  8
0
  6
Continuous
 62
     7
100
AcDbMText
 10
-90.2311498231
 20
-191.5534001841
 30
0.0
 40
4.83362
 41
0.0
 71
     1
 72
     1
  1
For Instructional Use Only.
  7
SLDTEXTSTYLE0
 73
     1
 44
1.0
  0
ENDBLK
  5
EC
330
E9
100
AcDbEntity
  8
0
100
AcDbBlockEnd
  0
BLOCK
  5
114
330
112
100
AcDbEntity
  8
0
100
AcDbBlockBegin
  2
*Paper_Space2
 70
     0
 10
0.0
 20
0.0
 30
0.0
  3
*Paper_Space2
  1

  0
LINE
  5
126
330
112
100
AcDbEntity
  8
0
  6
Continuous
 62
     7
370
    25
100
AcDbLine
 10
6.0
 20
56.7165962076
 30
0.0
 11
0.0
 21
56.7165962076
 31
0.0
  0
LINE
  5
127
330
112
100
AcDbEntity
  8
0
  6
Continuous
 62
     7
370
    25
100
AcDbLine
 10
6.0
 20
106.7165962076
 30
0.0
 11
6.0
 21
-183.2834037924
 31
0.0
  0
LINE
  5
128
330
112
100
AcDbEntity
  8
0
  6
Continuous
 62
     7
370
    25
100
AcDbLine
 10
6.0
 20
-8.2834037924
 30
0.0
 11
0.0
 21
-8.2834037924
 31
0.0
  0
LINE
  5
129
330
112
100
AcDbEntity
  8
0
  6
Continuous
 62
     7
370
    25
100
AcDbLine
 10
0.0
 20
106.7165962076
 30
0.0
 11
0.0
 21
-183.2834037924
 31
0.0
  0
LINE
  5
12A
330
112
100
AcDbEntity
  8
0
  6
Continuous
 62
     7
370
    25
100
AcDbLine
 10
6.0
 20
106.7165962076
 30
0.0
 11
0.0
 21
106.7165962076
 31
0.0
  0
LINE
  5
12B
330
112
100
AcDbEntity
  8
0
  6
Continuous
 62
     7
370
    25
100
AcDbLine
 10
6.0
 20
-63.2834037924
 30
0.0
 11
0.0
 21
-63.2834037924
 31
0.0
  0
LINE
  5
12C
330
112
100
AcDbEntity
  8
0
  6
Continuous
 62
     7
370
    25
100
AcDbLine
 10
0.0
 20
-163.2834037924
 30
0.0
 11
6.0
 21
-163.2834037924
 31
0.0
  0
LINE
  5
12D
330
112
100
AcDbEntity
  8
0
  6
Continuous
 62
     7
370
    25
100
AcDbLine
 10
6.0
 20
-183.2834037924
 30
0.0
 11
0.0
 21
-183.2834037924
 31
0.0
  0
VIEWPORT
  5
279
330
112
100
AcDbEntity
  8
0
100
AcDbViewport
 10
0.0
 20
0.0
 30
0.0
 40
205.6
 41
156.0
 68
     1
 69
     1
 12
32.2478779843
 22
-1.7893887322
 13
0.0
 23
0.0
 14
10.0
 24
10.0
 15
10.0
 25
10.0
 16
0.0
 26
0.0
 36
1.0
 17
0.0
 27
0.0
 37
0.0
 42
50.0
 43
0.0
 44
0.0
 45
237.2631827653
 50
0.0
 51
0.0
 72
   100
 90
   557152
  1

281
     0
 71
     1
 74
     0
110
0.0
120
0.0
130
0.0
111
1.0
121
0.0
131
0.0
112
0.0
122
1.0
132
0.0
 79
     0
146
0.0
  0
MTEXT
  5
28E
330
112
100
AcDbEntity
  8
0
  6
Continuous
 62
     7
100
AcDbMText
 10
0.0
 20
-184.3029701841
 30
0.0
 40
4.83362
 41
0.0
 71
     1
 72
     1
  1
SOLIDWORKS Educational Product.
  7
SLDTEXTSTYLE0
 73
     1
 44
1.0
  0
MTEXT
  5
28F
330
112
100
AcDbEntity
  8
0
  6
Continuous
 62
     7
100
AcDbMText
 10
0.0
 20
-191.5534001841
 30
0.0
 40
4.83362
 41
0.0
 71
     1
 72
     1
  1
For Instructional Use Only.
  7
SLDTEXTSTYLE0
 73
     1
 44
1.0
  0
ENDBLK
  5
115
330
112
100
AcDbEntity
  8
0
100
AcDbBlockEnd
  0
BLOCK
  5
130
330
12E
100
AcDbEntity
  8
0
100
AcDbBlockBegin
  2
*Paper_Space3
 70
     0
 10
0.0
 20
0.0
 30
0.0
  3
*Paper_Space3
  1

  0
LINE
  5
142
330
12E
100
AcDbEntity
  8
0
  6
Continuous
 62
     7
370
    25
100
AcDbLine
 10
-6.0
 20
-63.2834037924
 30
0.0
 11
0.0
 21
-63.2834037924
 31
0.0
  0
LINE
  5
143
330
12E
100
AcDbEntity
  8
0
  6
Continuous
 62
     7
370
    25
100
AcDbLine
 10
-6.0
 20
-183.2834037924
 30
0.0
 11
-6.0
 21
106.7165962076
 31
0.0
  0
LINE
  5
144
330
12E
100
AcDbEntity
  8
0
  6
Continuous
 62
     7
370
    25
100
AcDbLine
 10
-6.0
 20
-8.2834037924
 30
0.0
 11
0.0
 21
-8.2834037924
 31
0.0
  0
LINE
  5
145
330
12E
100
AcDbEntity
  8
0
  6
Continuous
 62
     7
370
    25
100
AcDbLine
 10
0.0
 20
-183.2834037924
 30
0.0
 11
0.0
 21
106.7165962076
 31
0.0
  0
LINE
  5
146
330
12E
100
AcDbEntity
  8
0
  6
Continuous
 62
     7
370
    25
100
AcDbLine
 10
-6.0
 20
56.7165962076
 30
0.0
 11
0.0
 21
56.7165962076
 31
0.0
  0
LINE
  5
147
330
12E
100
AcDbEntity
  8
0
  6
Continuous
 62
     7
370
    25
100
AcDbLine
 10
-6.0
 20
106.7165962076
 30
0.0
 11
0.0
 21
106.7165962076
 31
0.0
  0
LINE
  5
148
330
12E
100
AcDbEntity
  8
0
  6
Continuous
 62
     7
370
    25
100
AcDbLine
 10
-6.0
 20
-163.2834037924
 30
0.0
 11
0.0
 21
-163.2834037924
 31
0.0
  0
LINE
  5
149
330
12E
100
AcDbEntity
  8
0
  6
Continuous
 62
     7
370
    25
100
AcDbLine
 10
0.0
 20
-183.2834037924
 30
0.0
 11
-6.0
 21
-183.2834037924
 31
0.0
  0
VIEWPORT
  5
27B
330
12E
100
AcDbEntity
  8
0
100
AcDbViewport
 10
0.0
 20
0.0
 30
0.0
 40
205.6
 41
156.0
 68
     1
 69
     1
 12
32.2478779843
 22
-1.7893887322
 13
0.0
 23
0.0
 14
10.0
 24
10.0
 15
10.0
 25
10.0
 16
0.0
 26
0.0
 36
1.0
 17
0.0
 27
0.0
 37
0.0
 42
50.0
 43
0.0
 44
0.0
 45
237.2631827653
 50
0.0
 51
0.0
 72
   100
 90
   557152
  1

281
     0
 71
     1
 74
     0
110
0.0
120
0.0
130
0.0
111
1.0
121
0.0
131
0.0
112
0.0
122
1.0
132
0.0
 79
     0
146
0.0
  0
MTEXT
  5
290
330
12E
100
AcDbEntity
  8
0
  6
Continuous
 62
     7
100
AcDbMText
 10
-6.0
 20
-184.3029701841
 30
0.0
 40
4.83362
 41
0.0
 71
     1
 72
     1
  1
SOLIDWORKS Educational Product.
  7
SLDTEXTSTYLE0
 73
     1
 44
1.0
  0
MTEXT
  5
291
330
12E
100
AcDbEntity
  8
0
  6
Continuous
 62
     7
100
AcDbMText
 10
-6.0
 20
-191.5534001841
 30
0.0
 40
4.83362
 41
0.0
 71
     1
 72
     1
  1
For Instructional Use Only.
  7
SLDTEXTSTYLE0
 73
     1
 44
1.0
  0
ENDBLK
  5
131
330
12E
100
AcDbEntity
  8
0
100
AcDbBlockEnd
  0
BLOCK
  5
14C
330
14A
100
AcDbEntity
  8
0
100
AcDbBlockBegin
  2
*Paper_Space4
 70
     0
 10
0.0
 20
0.0
 30
0.0
  3
*Paper_Space4
  1

  0
LINE
  5
15E
330
14A
100
AcDbEntity
  8
0
  6
Continuous
 62
     7
370
    25
100
AcDbLine
 10
54.6338672204
 20
6.0
 30
0.0
 11
54.6338672204
 21
0.0
 31
0.0
  0
LINE
  5
15F
330
14A
100
AcDbEntity
  8
0
  6
Continuous
 62
     7
370
    25
100
AcDbLine
 10
-89.7688501769
 20
0.0
 30
0.0
 11
90.2311498231
 21
0.0
 31
0.0
  0
LINE
  5
160
330
14A
100
AcDbEntity
  8
0
  6
Continuous
 62
     7
370
    25
100
AcDbLine
 10
34.6338672204
 20
0.0
 30
0.0
 11
34.6338672204
 21
6.0
 31
0.0
  0
LINE
  5
161
330
14A
100
AcDbEntity
  8
0
  6
Continuous
 62
     7
370
    25
100
AcDbLine
 10
-89.7688501769
 20
6.0
 30
0.0
 11
90.2311498231
 21
6.0
 31
0.0
  0
LINE
  5
162
330
14A
100
AcDbEntity
  8
0
  6
Continuous
 62
     7
370
    25
100
AcDbLine
 10
-36.6221304086
 20
6.0
 30
0.0
 11
-36.6221304086
 21
0.0
 31
0.0
  0
LINE
  5
163
330
14A
100
AcDbEntity
  8
0
  6
Continuous
 62
     7
370
    25
100
AcDbLine
 10
-56.6221304086
 20
0.0
 30
0.0
 11
-56.6221304086
 21
6.0
 31
0.0
  0
LINE
  5
164
330
14A
100
AcDbEntity
  8
0
  6
Continuous
 62
     7
370
    25
100
AcDbLine
 10
90.2311498231
 20
6.0
 30
0.0
 11
90.2311498231
 21
0.0
 31
0.0
  0
LINE
  5
165
330
14A
100
AcDbEntity
  8
0
  6
Continuous
 62
     7
370
    25
100
AcDbLine
 10
-89.7688501769
 20
6.0
 30
0.0
 11
-89.7688501769
 21
0.0
 31
0.0
  0
VIEWPORT
  5
27D
330
14A
100
AcDbEntity
  8
0
100
AcDbViewport
 10
0.0
 20
0.0
 30
0.0
 40
205.6
 41
156.0
 68
     1
 69
     1
 12
32.2478779843
 22
-1.7893887322
 13
0.0
 23
0.0
 14
10.0
 24
10.0
 15
10.0
 25
10.0
 16
0.0
 26
0.0
 36
1.0
 17
0.0
 27
0.0
 37
0.0
 42
50.0
 43
0.0
 44
0.0
 45
237.2631827653
 50
0.0
 51
0.0
 72
   100
 90
   557152
  1

281
     0
 71
     1
 74
     0
110
0.0
120
0.0
130
0.0
111
1.0
121
0.0
131
0.0
112
0.0
122
1.0
132
0.0
 79
     0
146
0.0
  0
MTEXT
  5
292
330
14A
100
AcDbEntity
  8
0
  6
Continuous
 62
     7
100
AcDbMText
 10
-89.7688501769
 20
-1.0195663917
 30
0.0
 40
4.83362
 41
0.0
 71
     1
 72
     1
  1
SOLIDWORKS Educational Product.
  7
SLDTEXTSTYLE0
 73
     1
 44
1.0
  0
MTEXT
  5
293
330
14A
100
AcDbEntity
  8
0
  6
Continuous
 62
     7
100
AcDbMText
 10
-89.7688501769
 20
-8.2699963917
 30
0.0
 40
4.83362
 41
0.0
 71
     1
 72
     1
  1
For Instructional Use Only.
  7
SLDTEXTSTYLE0
 73
     1
 44
1.0
  0
ENDBLK
  5
14D
330
14A
100
AcDbEntity
  8
0
100
AcDbBlockEnd
  0
BLOCK
  5
168
330
166
100
AcDbEntity
  8
0
100
AcDbBlockBegin
  2
*Paper_Space5
 70
     0
 10
0.0
 20
0.0
 30
0.0
  3
*Paper_Space5
  1

  0
LWPOLYLINE
  5
176
330
166
100
AcDbEntity
  8
0
  6
Continuous
 62
     7
370
    25
100
AcDbPolyline
 90
       15
 70
   128
 43
0.0
 10
20.2472016831
 20
-166.2452887446
 10
21.8306184892
 20
-167.0566910651
 10
23.3941229103
 20
-167.6525200411
 10
24.918052971
 20
-168.0252827774
 10
26.3832443667
 20
-168.1702915665
 10
27.7712714654
 20
-168.0857228387
 10
29.064679021
 20
-167.7726400947
 10
30.2472016831
 20
-167.2349805317
 10
31.3039685431
 20
-166.4795055308
 10
32.2216901445
 20
-165.5157156283
 10
32.9888256058
 20
-164.3557310415
 10
33.5957277533
 20
-163.0141392496
 10
34.0347644406
 20
-161.5078115478
 10
34.3004145264
 20
-159.855690881
 10
34.3893373069
 20
-158.0785536251
  0
LWPOLYLINE
  5
17A
330
166
100
AcDbEntity
  8
0
  6
Continuous
 62
     7
370
    25
100
AcDbPolyline
 90
       18
 70
   128
 43
0.0
 10
-38.673356204
 20
-112.0368477868
 10
-38.7650349455
 20
-111.4175831342
 10
-39.0276894478
 20
-110.7761035826
 10
-39.425846765
 20
-110.1990445
 10
-39.9057335452
 20
-109.7643409131
 10
-40.4025384195
 20
-109.5307019501
 10
-40.8491651368
 20
-109.5296818476
 10
-41.185294284
 20
-109.761418376
 10
-41.3655297574
 20
-110.1946142332
 10
-41.3655297574
 20
-110.7707639182
 10
-41.185294284
 20
-111.4120552234
 10
-40.8491651368
 20
-112.0318782047
 10
-40.4025384195
 20
-112.5465223337
 10
-39.9057335452
 20
-112.8864820692
 10
-39.425846765
 20
-113.0058439651
 10
-39.0276894478
 20
-112.8884875359
 10
-38.7650349455
 20
-112.5502624177
 10
-38.673356204
 20
-112.0368477868
  0
LWPOLYLINE
  5
183
330
166
100
AcDbEntity
  8
0
  6
Continuous
 62
     7
370
    25
100
AcDbPolyline
 90
       42
 70
   128
 43
0.0
 10
2.2547048129
 20
-112.3246232432
 10
2.1718348947
 20
-111.0303397531
 10
1.9251675408
 20
-109.6707136
 10
1.5204844249
 20
-108.2776132687
 10
0.9672709763
 20
-106.8836918502
 10
0.2784940493
 20
-105.5216216811
 10
-0.5297020088
 20
-104.2233285317
 10
-1.4383737672
 20
-103.0192432931
 10
-2.4262227302
 20
-101.9375887027
 10
-3.4700945553
 20
-101.0037178274
 10
-4.5455217717
 20
-100.2395198089
 10
-5.6272972769
 20
-99.6629068012
 10
-6.6900651699
 20
-99.2873941243
 10
-7.7089150721
 20
-99.1217834773
 10
-8.6599660054
 20
-99.1699566332
 10
-9.5209261418
 20
-99.4307844541
 10
-10.2716153056
 20
-99.898153357
 10
-10.894437979
 20
-100.561108611
 10
-11.3747957264
 20
-101.4041111067
 10
-11.7014293693
 20
-102.4074015801
 10
-11.866682892
 20
-103.547463753
 10
-11.866682892
 20
-104.7975755342
 10
-11.7014293693
 20
-106.1284353631
 10
-11.3747957264
 20
-107.5088490134
 10
-10.894437979
 20
-108.9064607591
 10
-10.2716153056
 20
-110.2885117653
 10
-9.5209261418
 20
-111.6226079279
 10
-8.6599660054
 20
-112.8774791636
 10
-7.7089150721
 20
-114.0237123542
 10
-6.6900651699
 20
-115.0344407652
 10
-5.6272972769
 20
-115.8859737792
 10
-4.5455217717
 20
-116.5583521842
 10
-3.4700945553
 20
-117.0358160003
 10
-2.4262227302
 20
-117.3071738802
 10
-1.4383737672
 20
-117.3660654253
 10
-0.5297020088
 20
-117.2111102676
 10
0.2784940493
 20
-116.8459404248
 10
0.9672709763
 20
-116.2791151684
 10
1.5204844249
 20
-115.5239204019
 10
1.9251675408
 20
-114.5980572508
 10
2.1718348947
 20
-113.5232271625
 10
2.2547048129
 20
-112.3246232432
  0
LWPOLYLINE
  5
192
330
166
100
AcDbEntity
  8
0
  6
Continuous
 62
     7
370
    25
100
AcDbPolyline
 90
        9
 70
   128
 43
0.0
 10
38.631977994
 20
-155.6293292896
 10
38.5430552135
 20
-157.4064665455
 10
38.2774051277
 20
-159.0585872124
 10
37.8383684405
 20
-160.5649149141
 10
37.2314662929
 20
-161.906506706
 10
36.4643308316
 20
-163.0664912928
 10
35.5466092302
 20
-164.0302811953
 10
34.4898423703
 20
-164.7857561963
 10
34.4890296966
 20
-164.786225419
  0
LWPOLYLINE
  5
193
330
166
100
AcDbEntity
  8
0
  6
Continuous
 62
     7
370
    25
100
AcDbPolyline
 90
       19
 70
   128
 43
0.0
 10
-8.1976250964
 20
-99.1192670123
 10
-8.5463686016
 20
-99.771294883
 10
-8.8730022446
 20
-100.7745853565
 10
-9.0382557673
 20
-101.9146475293
 10
-9.0382557673
 20
-103.1647593106
 10
-8.8730022446
 20
-104.4956191395
 10
-8.5463686016
 20
-105.8760327898
 10
-8.0660108543
 20
-107.2736445354
 10
-7.4431881809
 20
-108.6556955417
 10
-6.6924990171
 20
-109.9897917043
 10
-5.8315388806
 20
-111.24466294
 10
-4.8804879474
 20
-112.3908961306
 10
-3.8616380452
 20
-113.4016245415
 10
-2.7988701521
 20
-114.2531575556
 10
-1.7170946469
 20
-114.9255359606
 10
-0.6416674306
 20
-115.4029997766
 10
0.4022043945
 20
-115.6743576566
 10
1.3900533575
 20
-115.7332492017
 10
1.3933262232
 20
-115.7330821323
  0
LINE
  5
196
330
166
100
AcDbEntity
  8
0
  6
Continuous
 62
     7
370
    25
100
AcDbLine
 10
30.2463890095
 20
-167.2354497545
 30
0.0
 11
34.4890296966
 21
-164.786225419
 31
0.0
  0
LINE
  5
197
330
166
100
AcDbEntity
  8
0
  6
Continuous
 62
     7
370
    25
100
AcDbLine
 10
59.5604172271
 20
7.0294698519
 30
0.0
 11
63.8030579142
 21
9.4786941874
 31
0.0
  0
LINE
  5
198
330
166
100
AcDbEntity
  8
0
  6
Continuous
 62
     7
370
    25
100
AcDbLine
 10
59.5604172271
 20
7.0294698519
 30
0.0
 11
39.1480027039
 21
59.6403465244
 31
0.0
  0
LINE
  5
199
330
166
100
AcDbEntity
  8
0
  6
Continuous
 62
     7
370
    25
100
AcDbLine
 10
39.1480027039
 20
59.6403465244
 30
0.0
 11
43.390643391
 21
62.0895708599
 31
0.0
  0
LINE
  5
19A
330
166
100
AcDbEntity
  8
0
  6
Continuous
 62
     7
370
    25
100
AcDbLine
 10
63.8030579142
 20
9.4786941874
 30
0.0
 11
43.390643391
 21
62.0895708599
 31
0.0
  0
LINE
  5
19B
330
166
100
AcDbEntity
  8
0
  6
Continuous
 62
     7
370
    25
100
AcDbLine
 10
-67.7188033865
 20
27.4310471434
 30
0.0
 11
-44.2805330642
 21
-31.0093229599
 31
0.0
  0
LINE
  5
19C
330
166
100
AcDbEntity
  8
0
  6
Continuous
 62
     7
370
    25
100
AcDbLine
 10
-67.7188033865
 20
80.5061999159
 30
0.0
 11
-67.7188033865
 21
27.4310471434
 31
0.0
  0
LINE
  5
19D
330
166
100
AcDbEntity
  8
0
  6
Continuous
 62
     7
370
    25
100
AcDbLine
 10
-47.6332840781
 20
109.7381170226
 30
0.0
 11
-67.7188033865
 21
80.5061999159
 31
0.0
  0
LINE
  5
19E
330
166
100
AcDbEntity
  8
0
  6
Continuous
 62
     7
370
    25
100
AcDbLine
 10
39.1480027039
 20
59.6403465244
 30
0.0
 11
-47.6332840781
 21
109.7381170226
 31
0.0
  0
LINE
  5
19F
330
166
100
AcDbEntity
  8
0
  6
Continuous
 62
     7
370
    25
100
AcDbLine
 10
59.5604172271
 20
-46.0456829207
 30
0.0
 11
59.5604172271
 21
7.0294698519
 31
0.0
  0
LINE
  5
1A0
330
166
100
AcDbEntity
  8
0
  6
Continuous
 62
     7
370
    25
100
AcDbLine
 10
34.3893373069
 20
-76.4244724365
 30
0.0
 11
59.5604172271
 21
-46.0456829207
 31
0.0
  0
LINE
  5
1A1
330
166
100
AcDbEntity
  8
0
  6
Continuous
 62
     7
370
    25
100
AcDbLine
 10
34.3893373069
 20
-158.0785536251
 30
0.0
 11
34.3893373069
 21
-76.4244724365
 31
0.0
  0
LINE
  5
1A2
330
166
100
AcDbEntity
  8
0
  6
Continuous
 62
     7
370
    25
100
AcDbLine
 10
-30.1383974405
 20
-137.1583015044
 30
0.0
 11
20.2472016831
 21
-166.2452887446
 31
0.0
  0
LINE
  5
1A3
330
166
100
AcDbEntity
  8
0
  6
Continuous
 62
     7
370
    25
100
AcDbLine
 10
-44.2805330642
 20
-31.0093229599
 30
0.0
 11
-44.2805330642
 21
-112.6634041485
 31
0.0
  0
LINE
  5
1A4
330
166
100
AcDbEntity
  8
0
  6
Continuous
 62
     7
370
    25
100
AcDbLine
 10
-35.8989982331
 20
57.9195841065
 30
0.0
 11
-28.8279304213
 21
53.8375435474
 31
0.0
  0
LINE
  5
1A5
330
166
100
AcDbEntity
  8
0
  6
Continuous
 62
     7
370
    25
100
AcDbLine
 10
-28.8279304213
 20
53.8375435474
 30
0.0
 11
-28.8279304213
 21
62.2724101342
 31
0.0
  0
LINE
  5
1A6
330
166
100
AcDbEntity
  8
0
  6
Continuous
 62
     7
370
    25
100
AcDbLine
 10
-28.8279304213
 20
62.2724101342
 30
0.0
 11
-35.8989982331
 21
66.3544506933
 31
0.0
  0
LINE
  5
1A7
330
166
100
AcDbEntity
  8
0
  6
Continuous
 62
     7
370
    25
100
AcDbLine
 10
-35.8989982331
 20
66.3544506933
 30
0.0
 11
-35.8989982331
 21
57.9195841065
 31
0.0
  0
LINE
  5
1A8
330
166
100
AcDbEntity
  8
0
  6
Continuous
 62
     7
370
    25
100
AcDbLine
 10
20.6695442618
 20
25.7707966717
 30
0.0
 11
27.7406120737
 21
21.6887561126
 31
0.0
  0
LINE
  5
1A9
330
166
100
AcDbEntity
  8
0
  6
Continuous
 62
     7
370
    25
100
AcDbLine
 10
27.7406120737
 20
21.6887561126
 30
0.0
 11
27.7406120737
 21
30.1236226993
 31
0.0
  0
LINE
  5
1AA
330
166
100
AcDbEntity
  8
0
  6
Continuous
 62
     7
370
    25
100
AcDbLine
 10
27.7406120737
 20
30.1236226993
 30
0.0
 11
20.6695442618
 21
34.2056632585
 31
0.0
  0
LINE
  5
1AB
330
166
100
AcDbEntity
  8
0
  6
Continuous
 62
     7
370
    25
100
AcDbLine
 10
20.6695442618
 20
34.2056632585
 30
0.0
 11
20.6695442618
 21
25.7707966717
 31
0.0
  0
LINE
  5
1AC
330
166
100
AcDbEntity
  8
0
  6
Continuous
 62
     7
370
    25
100
AcDbLine
 10
-47.6332840781
 20
109.7381170226
 30
0.0
 11
-43.390643391
 21
112.1873413581
 31
0.0
  0
LINE
  5
1AD
330
166
100
AcDbEntity
  8
0
  6
Continuous
 62
     7
370
    25
100
AcDbLine
 10
43.390643391
 20
62.0895708599
 30
0.0
 11
-43.390643391
 21
112.1873413581
 31
0.0
  0
LINE
  5
1AE
330
166
100
AcDbEntity
  8
0
  6
Continuous
 62
     7
370
    25
100
AcDbLine
 10
59.5604172271
 20
-46.0456829207
 30
0.0
 11
63.8030579142
 21
-43.5964585852
 31
0.0
  0
LINE
  5
1AF
330
166
100
AcDbEntity
  8
0
  6
Continuous
 62
     7
370
    25
100
AcDbLine
 10
63.8030579142
 20
-43.5964585852
 30
0.0
 11
63.8030579142
 21
9.4786941874
 31
0.0
  0
LINE
  5
1B0
330
166
100
AcDbEntity
  8
0
  6
Continuous
 62
     7
370
    25
100
AcDbLine
 10
22.7908646054
 20
26.9954088394
 30
0.0
 11
27.7406120737
 21
24.137980448
 31
0.0
  0
LINE
  5
1B1
330
166
100
AcDbEntity
  8
0
  6
Continuous
 62
     7
370
    25
100
AcDbLine
 10
22.7908646054
 20
32.9810510907
 30
0.0
 11
22.7908646054
 21
26.9954088394
 31
0.0
  0
LINE
  5
1B2
330
166
100
AcDbEntity
  8
0
  6
Continuous
 62
     7
370
    25
100
AcDbLine
 10
22.7908646054
 20
26.9954088394
 30
0.0
 11
20.6695442618
 21
25.7707966717
 31
0.0
  0
LINE
  5
1B3
330
166
100
AcDbEntity
  8
0
  6
Continuous
 62
     7
370
    25
100
AcDbLine
 10
34.3893373069
 20
-76.4244724365
 30
0.0
 11
38.631977994
 21
-73.9752481011
 31
0.0
  0
LINE
  5
1B4
330
166
100
AcDbEntity
  8
0
  6
Continuous
 62
     7
370
    25
100
AcDbLine
 10
38.631977994
 20
-73.9752481011
 30
0.0
 11
63.8030579142
 21
-43.5964585852
 31
0.0
  0
LINE
  5
1B5
330
166
100
AcDbEntity
  8
0
  6
Continuous
 62
     7
370
    25
100
AcDbLine
 10
-33.7776778896
 20
59.1441962743
 30
0.0
 11
-28.8279304213
 21
56.2867678829
 31
0.0
  0
LINE
  5
1B6
330
166
100
AcDbEntity
  8
0
  6
Continuous
 62
     7
370
    25
100
AcDbLine
 10
-33.7776778896
 20
65.1298385256
 30
0.0
 11
-33.7776778896
 21
59.1441962743
 31
0.0
  0
LINE
  5
1B7
330
166
100
AcDbEntity
  8
0
  6
Continuous
 62
     7
370
    25
100
AcDbLine
 10
-33.7776778896
 20
59.1441962743
 30
0.0
 11
-35.8989982331
 21
57.9195841065
 31
0.0
  0
LINE
  5
1B8
330
166
100
AcDbEntity
  8
0
  6
Continuous
 62
     7
370
    25
100
AcDbLine
 10
34.3893373069
 20
-158.0785536251
 30
0.0
 11
38.631977994
 21
-155.6293292896
 31
0.0
  0
LINE
  5
1B9
330
166
100
AcDbEntity
  8
0
  6
Continuous
 62
     7
370
    25
100
AcDbLine
 10
38.631977994
 20
-155.6293292896
 30
0.0
 11
38.631977994
 21
-73.9752481011
 31
0.0
  0
LINE
  5
1BA
330
166
100
AcDbEntity
  8
0
  6
Continuous
 62
     7
370
    25
100
AcDbLine
 10
-38.7137439278
 20
-111.9444716071
 30
0.0
 11
-38.6768069569
 21
-111.9231483477
 31
0.0
  0
ARC
  5
1BB
330
166
100
AcDbEntity
  8
0
  6
Continuous
 62
     7
370
    25
100
AcDbCircle
 10
-13.728932251
 20
-111.3543607377
 30
0.0
 40
30.57963222310311
100
AcDbArc
 50
182.4534496702
 51
237.5465504754
  0
ARC
  5
1BC
330
166
100
AcDbEntity
  8
0
  6
Continuous
 62
     7
370
    25
100
AcDbCircle
 10
-36.9853634049
 20
-109.4970893413
 30
0.0
 40
2.996160741181874
100
AcDbArc
 50
184.2689756165
 51
234.7696498067
  0
VIEWPORT
  5
27F
330
166
100
AcDbEntity
  8
0
100
AcDbViewport
 10
0.0
 20
0.0
 30
0.0
 40
205.6
 41
156.0
 68
     1
 69
     1
 12
32.2478779843
 22
-1.7893887322
 13
0.0
 23
0.0
 14
10.0
 24
10.0
 15
10.0
 25
10.0
 16
0.0
 26
0.0
 36
1.0
 17
0.0
 27
0.0
 37
0.0
 42
50.0
 43
0.0
 44
0.0
 45
237.2631827653
 50
0.0
 51
0.0
 72
   100
 90
   557152
  1

281
     0
 71
     1
 74
     0
110
0.0
120
0.0
130
0.0
111
1.0
121
0.0
131
0.0
112
0.0
122
1.0
132
0.0
 79
     0
146
0.0
  0
MTEXT
  5
294
330
166
100
AcDbEntity
  8
0
  6
Continuous
 62
     7
100
AcDbMText
 10
-67.7188033865
 20
-169.1898579582
 30
0.0
 40
4.83362
 41
0.0
 71
     1
 72
     1
  1
SOLIDWORKS Educational Product.
  7
SLDTEXTSTYLE0
 73
     1
 44
1.0
  0
MTEXT
  5
295
330
166
100
AcDbEntity
  8
0
  6
Continuous
 62
     7
100
AcDbMText
 10
-67.7188033865
 20
-176.4402879582
 30
0.0
 40
4.83362
 41
0.0
 71
     1
 72
     1
  1
For Instructional Use Only.
  7
SLDTEXTSTYLE0
 73
     1
 44
1.0
  0
ENDBLK
  5
169
330
166
100
AcDbEntity
  8
0
100
AcDbBlockEnd
  0
BLOCK
  5
1BF
330
1BD
100
AcDbEntity
  8
0
100
AcDbBlockBegin
  2
*Paper_Space6
 70
     0
 10
0.0
 20
0.0
 30
0.0
  3
*Paper_Space6
  1

  0
LWPOLYLINE
  5
1CD
330
1BD
100
AcDbEntity
  8
0
  6
Continuous
 62
     7
370
    25
100
AcDbPolyline
 90
       15
 70
   128
 43
0.0
 10
27.8306474599
 20
-168.1623950139
 10
29.8111156929
 20
-168.5928500819
 10
31.7666783888
 20
-168.8023044047
 10
33.672743212
 20
-168.7881239727
 10
35.5053402914
 20
-168.550487113
 10
37.2414236556
 20
-168.0923822471
 10
38.8591610488
 20
-167.4195703095
 10
40.3382084848
 20
-166.5405123005
 10
41.6599660838
 20
-165.4662628848
 10
42.8078119771
 20
-164.2103313721
 10
43.7673113367
 20
-162.7885118297
 10
44.5263979014
 20
-161.2186844635
 10
45.0755257172
 20
-159.5205907633
 10
45.4077891831
 20
-157.7155852428
 10
45.5190098935
 20
-155.8263668935
  0
LWPOLYLINE
  5
1CF
330
1BD
100
AcDbEntity
  8
0
  6
Continuous
 62
     7
370
    25
100
AcDbPolyline
 90
       15
 70
   128
 43
0.0
 10
-52.8778105549
 20
-129.0842194845
 10
-52.7665898446
 20
-131.0338926455
 10
-52.4343263786
 20
-133.0195023471
 10
-51.8851985628
 20
-135.0160783951
 10
-51.1261119981
 20
-136.9985126874
 10
-50.1666126386
 20
-138.9418749625
 10
-49.0187667452
 20
-140.8217263121
 10
-47.6970091462
 20
-142.614426515
 10
-46.2179617102
 20
-144.2974313258
 10
-44.600224317
 20
-145.8495759826
 10
-42.8641409529
 20
-147.2513413657
 10
-41.0315438734
 20
-148.4850994621
 10
-39.1254790502
 20
-149.5353350479
 10
-37.1699163543
 20
-150.3888408013
 10
-35.1894481213
 20
-151.0348833922
  0
LWPOLYLINE
  5
1D1
330
1BD
100
AcDbEntity
  8
0
  6
Continuous
 62
     7
370
    25
100
AcDbPolyline
 90
       18
 70
   128
 43
0.0
 10
-45.8645998793
 20
-126.934522598
 10
-45.9792676246
 20
-126.3088408375
 10
-46.3077843462
 20
-125.7053323936
 10
-46.8057820405
 20
-125.2055044256
 10
-47.4060033593
 20
-124.8768614703
 10
-48.0273850876
 20
-124.7637885799
 10
-48.5860061798
 20
-124.8815568748
 10
-49.0064217619
 20
-125.2142610942
 10
-49.2318523801
 20
-125.7169676897
 10
-49.2318523801
 20
-126.3217833499
 10
-49.0064217619
 20
-126.9470243686
 10
-48.5860061798
 20
-127.5082484816
 10
-48.0273850876
 20
-127.9296592626
 10
-47.4060033593
 20
-128.1543428505
 10
-46.8057820405
 20
-128.1519544818
 10
-46.3077843462
 20
-127.9228167188
 10
-45.9792676246
 20
-127.4978758862
 10
-45.8645998793
 20
-126.934522598
  0
LWPOLYLINE
  5
1DA
330
1BD
100
AcDbEntity
  8
0
  6
Continuous
 62
     7
370
    25
100
AcDbPolyline
 90
       42
 70
   128
 43
0.0
 10
5.3264222005
 20
-116.3464121442
 10
5.2227721446
 20
-115.0097825309
 10
4.9142514465
 20
-113.6481426544
 10
4.4080915697
 20
-112.2934081993
 10
3.7161564729
 20
-110.9773329931
 10
2.8546645281
 20
-109.730764723
 10
1.8438083765
 20
-108.5829218929
 10
0.7072816295
 20
-107.5607089658
 10
-0.5282764893
 20
-106.6880857463
 10
-1.8339055448
 20
-105.9855057831
 10
-3.1790026984
 20
-105.469436955
 10
-4.5320400131
 20
-105.151975478
 10
-5.8613034408
 20
-105.04056238
 10
-7.1356361735
 20
-105.1378090896
 10
-8.325168932
 20
-105.4414362264
 10
-9.4020200767
 20
-105.9443270276
 10
-10.3409491294
 20
-106.6346941591
 10
-11.1199483889
 20
-107.4963560004
 10
-11.7207587728
 20
-108.5091159283
 10
-12.129297795
 20
-109.6492357085
 10
-12.335989647
 20
-110.8899918995
 10
-12.335989647
 20
-112.202302228
 10
-12.129297795
 20
-113.5554072521
 10
-11.7207587728
 20
-114.9175913369
 10
-11.1199483889
 20
-116.2569260418
 10
-10.3409491294
 20
-117.5420184967
 10
-9.4020200767
 20
-118.7427472236
 10
-8.325168932
 20
-119.8309681588
 10
-7.1356361735
 20
-120.781174326
 10
-5.8613034408
 20
-121.5710936978
 10
-4.5320400131
 20
-122.1822112338
 10
-3.1790026984
 20
-122.6002028569
 10
-1.8339055448
 20
-122.8152711976
 10
-0.5282764893
 20
-122.8223752365
 10
0.7072816295
 20
-122.6213484607
 10
1.8438083765
 20
-122.2169027676
 10
2.8546645281
 20
-121.6185180215
 10
3.7161564729
 20
-120.8402198535
 10
4.4080915697
 20
-119.9002509132
 10
4.9142514465
 20
-118.8206432757
 10
5.2227721446
 20
-117.6267020291
 10
5.3264222005
 20
-116.3464121442
  0
LWPOLYLINE
  5
1E9
330
1BD
100
AcDbEntity
  8
0
  6
Continuous
 62
     7
370
    25
100
AcDbPolyline
 90
       20
 70
   128
 43
0.0
 10
-9.4649961078
 20
-105.982132977
 10
-9.8539772171
 20
-106.6870799011
 10
-10.2625162393
 20
-107.8271996813
 10
-10.4692080913
 20
-109.0679558723
 10
-10.4692080913
 20
-110.3802662008
 10
-10.2625162393
 20
-111.7333712249
 10
-9.8539772171
 20
-113.0955553096
 10
-9.2531668332
 20
-114.4348900146
 10
-8.4741675737
 20
-115.7199824695
 10
-7.535238521
 20
-116.9207111964
 10
-6.4583873763
 20
-118.0089321316
 10
-5.2688546178
 20
-118.9591382987
 10
-3.9945218851
 20
-119.7490576706
 10
-2.6652584573
 20
-120.3601752066
 10
-1.3122211427
 20
-120.7781668296
 10
0.032876011
 20
-120.9932351704
 10
1.3385050664
 20
-121.0003392092
 10
2.5740631852
 20
-120.7993124335
 10
3.7105899322
 20
-120.3948667404
 10
4.296259631
 20
-120.0813373906
  0
LINE
  5
1ED
330
1BD
100
AcDbEntity
  8
0
  6
Continuous
 62
     7
370
    25
100
AcDbLine
 10
41.8002106329
 20
-165.331676458
 30
0.0
 11
44.6003829665
 21
-162.5986224171
 31
0.0
  0
LINE
  5
1EE
330
1BD
100
AcDbEntity
  8
0
  6
Continuous
 62
     7
370
    25
100
AcDbLine
 10
77.0018917098
 20
24.1940665798
 30
0.0
 11
79.8020640434
 21
26.9271206206
 31
0.0
  0
LINE
  5
1EF
330
1BD
100
AcDbEntity
  8
0
  6
Continuous
 62
     7
370
    25
100
AcDbLine
 10
77.0018917098
 20
24.1940665798
 30
0.0
 11
51.4709396784
 21
73.9911973149
 31
0.0
  0
LINE
  5
1F0
330
1BD
100
AcDbEntity
  8
0
  6
Continuous
 62
     7
370
    25
100
AcDbLine
 10
51.4709396784
 20
73.9911973149
 30
0.0
 11
54.271112012
 21
76.7242513557
 31
0.0
  0
LINE
  5
1F1
330
1BD
100
AcDbEntity
  8
0
  6
Continuous
 62
     7
370
    25
100
AcDbLine
 10
79.8020640434
 20
26.9271206206
 30
0.0
 11
54.271112012
 21
76.7242513557
 31
0.0
  0
LINE
  5
1F2
330
1BD
100
AcDbEntity
  8
0
  6
Continuous
 62
     7
370
    25
100
AcDbLine
 10
-82.1933701922
 20
11.7440530773
 30
0.0
 11
-52.8778105549
 21
-43.3674894143
 31
0.0
  0
LINE
  5
1F3
330
1BD
100
AcDbEntity
  8
0
  6
Continuous
 62
     7
370
    25
100
AcDbLine
 10
-82.1933701922
 20
67.4599276229
 30
0.0
 11
-82.1933701922
 21
11.7440530773
 31
0.0
  0
LINE
  5
1F4
330
1BD
100
AcDbEntity
  8
0
  6
Continuous
 62
     7
370
    25
100
AcDbLine
 10
-57.0712843456
 20
103.4906480261
 30
0.0
 11
-82.1933701922
 21
67.4599276229
 31
0.0
  0
LINE
  5
1F5
330
1BD
100
AcDbEntity
  8
0
  6
Continuous
 62
     7
370
    25
100
AcDbLine
 10
51.4709396784
 20
73.9911973149
 30
0.0
 11
-57.0712843456
 21
103.4906480261
 31
0.0
  0
LINE
  5
1F6
330
1BD
100
AcDbEntity
  8
0
  6
Continuous
 62
     7
370
    25
100
AcDbLine
 10
77.0018917098
 20
-31.5218079658
 30
0.0
 11
77.0018917098
 21
24.1940665798
 31
0.0
  0
LINE
  5
1F7
330
1BD
100
AcDbEntity
  8
0
  6
Continuous
 62
     7
370
    25
100
AcDbLine
 10
45.5190098935
 20
-70.1096368233
 30
0.0
 11
77.0018917098
 21
-31.5218079658
 31
0.0
  0
LINE
  5
1F8
330
1BD
100
AcDbEntity
  8
0
  6
Continuous
 62
     7
370
    25
100
AcDbLine
 10
45.5190098935
 20
-155.8263668935
 30
0.0
 11
45.5190098935
 21
-70.1096368233
 31
0.0
  0
LINE
  5
1F9
330
1BD
100
AcDbEntity
  8
0
  6
Continuous
 62
     7
370
    25
100
AcDbLine
 10
-35.1894481213
 20
-151.0348833922
 30
0.0
 11
27.8306474599
 21
-168.1623950139
 31
0.0
  0
LINE
  5
1FA
330
1BD
100
AcDbEntity
  8
0
  6
Continuous
 62
     7
370
    25
100
AcDbLine
 10
-52.8778105549
 20
-43.3674894143
 30
0.0
 11
-52.8778105549
 21
-129.0842194845
 31
0.0
  0
LINE
  5
1FB
330
1BD
100
AcDbEntity
  8
0
  6
Continuous
 62
     7
370
    25
100
AcDbLine
 10
-42.3945547167
 20
52.216193254
 30
0.0
 11
-33.5503734999
 21
49.8125343072
 31
0.0
  0
LINE
  5
1FC
330
1BD
100
AcDbEntity
  8
0
  6
Continuous
 62
     7
370
    25
100
AcDbLine
 10
-33.5503734999
 20
49.8125343072
 30
0.0
 11
-33.5503734999
 21
58.6670725234
 31
0.0
  0
LINE
  5
1FD
330
1BD
100
AcDbEntity
  8
0
  6
Continuous
 62
     7
370
    25
100
AcDbLine
 10
-33.5503734999
 20
58.6670725234
 30
0.0
 11
-42.3945547167
 21
61.0707314703
 31
0.0
  0
LINE
  5
1FE
330
1BD
100
AcDbEntity
  8
0
  6
Continuous
 62
     7
370
    25
100
AcDbLine
 10
-42.3945547167
 20
61.0707314703
 30
0.0
 11
-42.3945547167
 21
52.216193254
 31
0.0
  0
LINE
  5
1FF
330
1BD
100
AcDbEntity
  8
0
  6
Continuous
 62
     7
370
    25
100
AcDbLine
 10
28.3588950175
 20
33.5197109123
 30
0.0
 11
37.2030762343
 21
31.1160519655
 31
0.0
  0
LINE
  5
200
330
1BD
100
AcDbEntity
  8
0
  6
Continuous
 62
     7
370
    25
100
AcDbLine
 10
37.2030762343
 20
31.1160519655
 30
0.0
 11
37.2030762343
 21
39.9705901818
 31
0.0
  0
LINE
  5
201
330
1BD
100
AcDbEntity
  8
0
  6
Continuous
 62
     7
370
    25
100
AcDbLine
 10
37.2030762343
 20
39.9705901818
 30
0.0
 11
28.3588950175
 21
42.3742491286
 31
0.0
  0
LINE
  5
202
330
1BD
100
AcDbEntity
  8
0
  6
Continuous
 62
     7
370
    25
100
AcDbLine
 10
28.3588950175
 20
42.3742491286
 30
0.0
 11
28.3588950175
 21
33.5197109123
 31
0.0
  0
LINE
  5
203
330
1BD
100
AcDbEntity
  8
0
  6
Continuous
 62
     7
370
    25
100
AcDbLine
 10
-57.0712843456
 20
103.4906480261
 30
0.0
 11
-54.271112012
 21
106.223702067
 31
0.0
  0
LINE
  5
204
330
1BD
100
AcDbEntity
  8
0
  6
Continuous
 62
     7
370
    25
100
AcDbLine
 10
54.271112012
 20
76.7242513557
 30
0.0
 11
-54.271112012
 21
106.223702067
 31
0.0
  0
LINE
  5
205
330
1BD
100
AcDbEntity
  8
0
  6
Continuous
 62
     7
370
    25
100
AcDbLine
 10
77.0018917098
 20
-31.5218079658
 30
0.0
 11
79.8020640434
 21
-28.788753925
 31
0.0
  0
LINE
  5
206
330
1BD
100
AcDbEntity
  8
0
  6
Continuous
 62
     7
370
    25
100
AcDbLine
 10
79.8020640434
 20
-28.788753925
 30
0.0
 11
79.8020640434
 21
26.9271206206
 31
0.0
  0
LINE
  5
207
330
1BD
100
AcDbEntity
  8
0
  6
Continuous
 62
     7
370
    25
100
AcDbLine
 10
29.7589811843
 20
34.8862379328
 30
0.0
 11
37.2030762343
 21
32.8630924058
 31
0.0
  0
LINE
  5
208
330
1BD
100
AcDbEntity
  8
0
  6
Continuous
 62
     7
370
    25
100
AcDbLine
 10
29.7589811843
 20
41.9937357087
 30
0.0
 11
29.7589811843
 21
34.8862379328
 31
0.0
  0
LINE
  5
209
330
1BD
100
AcDbEntity
  8
0
  6
Continuous
 62
     7
370
    25
100
AcDbLine
 10
29.7589811843
 20
34.8862379328
 30
0.0
 11
28.3588950175
 21
33.5197109123
 31
0.0
  0
LINE
  5
20A
330
1BD
100
AcDbEntity
  8
0
  6
Continuous
 62
     7
370
    25
100
AcDbLine
 10
45.5190098935
 20
-70.1096368233
 30
0.0
 11
48.319182227
 21
-67.3765827825
 31
0.0
  0
LINE
  5
20B
330
1BD
100
AcDbEntity
  8
0
  6
Continuous
 62
     7
370
    25
100
AcDbLine
 10
48.319182227
 20
-67.3765827825
 30
0.0
 11
79.8020640434
 21
-28.788753925
 31
0.0
  0
LINE
  5
20C
330
1BD
100
AcDbEntity
  8
0
  6
Continuous
 62
     7
370
    25
100
AcDbLine
 10
-40.9944685499
 20
53.5827202744
 30
0.0
 11
-33.5503734999
 21
51.5595747475
 31
0.0
  0
LINE
  5
20D
330
1BD
100
AcDbEntity
  8
0
  6
Continuous
 62
     7
370
    25
100
AcDbLine
 10
-40.9944685499
 20
60.6902180504
 30
0.0
 11
-40.9944685499
 21
53.5827202744
 31
0.0
  0
LINE
  5
20E
330
1BD
100
AcDbEntity
  8
0
  6
Continuous
 62
     7
370
    25
100
AcDbLine
 10
-40.9944685499
 20
53.5827202744
 30
0.0
 11
-42.3945547167
 21
52.216193254
 31
0.0
  0
LINE
  5
20F
330
1BD
100
AcDbEntity
  8
0
  6
Continuous
 62
     7
370
    25
100
AcDbLine
 10
45.5190098935
 20
-155.8263668935
 30
0.0
 11
48.319182227
 21
-153.0933128527
 31
0.0
  0
LINE
  5
210
330
1BD
100
AcDbEntity
  8
0
  6
Continuous
 62
     7
370
    25
100
AcDbLine
 10
48.319182227
 20
-153.0933128527
 30
0.0
 11
48.319182227
 21
-67.3765827825
 31
0.0
  0
LINE
  5
211
330
1BD
100
AcDbEntity
  8
0
  6
Continuous
 62
     7
370
    25
100
AcDbLine
 10
-46.7505605367
 20
-127.1706029216
 30
0.0
 11
-45.9516135653
 21
-126.3908061846
 31
0.0
  0
ARC
  5
212
330
1BD
100
AcDbEntity
  8
0
  6
Continuous
 62
     7
370
    25
100
AcDbCircle
 10
35.266652848
 20
-153.4668359138
 30
0.0
 40
13.05787282324096
100
AcDbArc
 50
315.6265763278
 51
1.639180818
  0
ARC
  5
213
330
1BD
100
AcDbEntity
  8
0
  6
Continuous
 62
     7
370
    25
100
AcDbCircle
 10
-46.1204688794
 20
-125.0705017702
 30
0.0
 40
2.192587590635211
100
AcDbArc
 50
172.6269162984
 51
253.2992211572
  0
VIEWPORT
  5
281
330
1BD
100
AcDbEntity
  8
0
100
AcDbViewport
 10
0.0
 20
0.0
 30
0.0
 40
205.6
 41
156.0
 68
     1
 69
     1
 12
32.2478779843
 22
-1.7893887322
 13
0.0
 23
0.0
 14
10.0
 24
10.0
 15
10.0
 25
10.0
 16
0.0
 26
0.0
 36
1.0
 17
0.0
 27
0.0
 37
0.0
 42
50.0
 43
0.0
 44
0.0
 45
237.2631827653
 50
0.0
 51
0.0
 72
   100
 90
   557152
  1

281
     0
 71
     1
 74
     0
110
0.0
120
0.0
130
0.0
111
1.0
121
0.0
131
0.0
112
0.0
122
1.0
132
0.0
 79
     0
146
0.0
  0
MTEXT
  5
296
330
1BD
100
AcDbEntity
  8
0
  6
Continuous
 62
     7
100
AcDbMText
 10
-82.1933701922
 20
-169.8218707963
 30
0.0
 40
4.83362
 41
0.0
 71
     1
 72
     1
  1
SOLIDWORKS Educational Product.
  7
SLDTEXTSTYLE0
 73
     1
 44
1.0
  0
MTEXT
  5
297
330
1BD
100
AcDbEntity
  8
0
  6
Continuous
 62
     7
100
AcDbMText
 10
-82.1933701922
 20
-177.0723007963
 30
0.0
 40
4.83362
 41
0.0
 71
     1
 72
     1
  1
For Instructional Use Only.
  7
SLDTEXTSTYLE0
 73
     1
 44
1.0
  0
ENDBLK
  5
1C0
330
1BD
100
AcDbEntity
  8
0
100
AcDbBlockEnd
  0
BLOCK
  5
216
330
214
100
AcDbEntity
  8
0
100
AcDbBlockBegin
  2
*Paper_Space7
 70
     0
 10
0.0
 20
0.0
 30
0.0
  3
*Paper_Space7
  1

  0
LWPOLYLINE
  5
228
330
214
100
AcDbEntity
  8
0
  6
Continuous
 62
     7
370
    25
100
AcDbPolyline
 90
       18
 70
   128
 43
0.0
 10
-47.6688757044
 20
-145.616489365
 10
-47.7901552796
 20
-144.9472923093
 10
-48.1376145266
 20
-144.3379144437
 10
-48.6643271486
 20
-143.8706556256
 10
-49.2991576876
 20
-143.6086217474
 10
-49.9563687614
 20
-143.5872019366
 10
-50.5472003728
 20
-143.8092890572
 10
-50.9918574388
 20
-144.2448890129
 10
-51.2302865587
 20
-144.835171616
 10
-51.2302865587
 20
-145.50041593
 10
-50.9918574388
 20
-146.1507770242
 10
-50.5472003728
 20
-146.698420029
 10
-49.9563687614
 20
-147.0693827219
 10
-49.2991576876
 20
-147.2135645357
 10
-48.6643271486
 20
-147.1114929176
 10
-48.1376145266
 20
-146.7769532051
 10
-47.7901552796
 20
-146.2551268402
 10
-47.6688757044
 20
-145.616489365
  0
LWPOLYLINE
  5
231
330
214
100
AcDbEntity
  8
0
  6
Continuous
 62
     7
370
    25
100
AcDbPolyline
 90
       42
 70
   128
 43
0.0
 10
6.4738598447
 20
-125.4891696074
 10
6.3642332474
 20
-124.0361667008
 10
6.0379230099
 20
-122.5895976448
 10
5.5025775677
 20
-121.1833687919
 10
4.7707449642
 20
-119.8504409548
 10
3.8595787353
 20
-118.622056832
 10
2.7904358452
 20
-117.5270087063
 10
1.588376097
 20
-116.5909635777
 10
0.2815747525
 20
-115.8358615507
 10
-1.0993378725
 20
-115.2794015766
 10
-2.5219943564
 20
-114.9346266058
 10
-3.953048837
 20
-114.8096178712
 10
-5.3589586102
 20
-114.9073054718
 10
-6.7067703425
 20
-115.2253996928
 10
-7.9648924693
 20
-115.7564446755
 10
-9.1038356743
 20
-116.4879931754
 10
-10.096904094
 20
-117.4028983158
 10
-10.9208210463
 20
-118.4797154956
 10
-11.5562746163
 20
-119.6932050328
 10
-11.9883703108
 20
-121.0149237612
 10
-12.206980173
 20
-122.413891714
 10
-12.206980173
 20
-123.857318268
 10
-11.9883703108
 20
-125.3113707283
 10
-11.5562746163
 20
-126.7419673376
 10
-10.9208210463
 20
-128.1155761239
 10
-10.096904094
 20
-129.4000008614
 10
-9.1038356743
 20
-130.565135723
 10
-7.9648924693
 20
-131.5836709349
 10
-6.7067703425
 20
-132.4317328951
 10
-5.3589586102
 20
-133.0894437501
 10
-3.953048837
 20
-133.5413873148
 10
-2.5219943564
 20
-133.7769704152
 10
-1.0993378725
 20
-133.790671183
 10
0.2815747525
 20
-133.5821684838
 10
1.588376097
 20
-133.1563494442
 10
2.7904358452
 20
-132.5231949016
 10
3.8595787353
 20
-131.6975454619
 10
4.7707449642
 20
-130.698753648
 10
5.5025775677
 20
-129.5502302936
 10
6.0379230099
 20
-128.2788958127
 10
6.3642332474
 20
-126.9145492079
 10
6.4738598447
 20
-125.4891696074
  0
LWPOLYLINE
  5
241
330
214
100
AcDbEntity
  8
0
  6
Continuous
 62
     7
370
    25
100
AcDbPolyline
 90
       21
 70
   128
 43
0.0
 10
-8.7496500605
 20
-116.2300290382
 10
-9.5066074843
 20
-117.2324963669
 10
-10.1420610543
 20
-118.4459859042
 10
-10.5741567488
 20
-119.7677046325
 10
-10.792766611
 20
-121.1666725853
 10
-10.792766611
 20
-122.6100991393
 10
-10.5741567488
 20
-124.0641515997
 10
-10.1420610543
 20
-125.4947482089
 10
-9.5066074843
 20
-126.8683569952
 10
-8.6826905319
 20
-128.1527817327
 10
-7.6896221122
 20
-129.3179165943
 10
-6.5506789073
 20
-130.3364518062
 10
-5.2925567805
 20
-131.1845137665
 10
-3.9447450482
 20
-131.8422246214
 10
-2.5388352749
 20
-132.2941681862
 10
-1.1077807943
 20
-132.5297512865
 10
0.3148756896
 20
-132.5434520543
 10
1.6957883145
 20
-132.3349493551
 10
3.0025896591
 20
-131.9091303155
 10
4.2046494072
 20
-131.275975773
 10
4.4032963777
 20
-131.1440684449
  0
LINE
  5
247
330
214
100
AcDbEntity
  8
0
  6
Continuous
 62
     7
370
    25
100
AcDbLine
 10
43.5044524929
 20
-174.8975385264
 30
0.0
 11
45.625772836
 21
-173.0267098334
 31
0.0
  0
LINE
  5
248
330
214
100
AcDbEntity
  8
0
  6
Continuous
 62
     7
370
    25
100
AcDbLine
 10
82.2821917229
 20
40.9682480401
 30
0.0
 11
84.403512066
 21
42.8390767331
 31
0.0
  0
LINE
  5
249
330
214
100
AcDbEntity
  8
0
  6
Continuous
 62
     7
370
    25
100
AcDbLine
 10
82.2821917229
 20
40.9682480401
 30
0.0
 11
55.2791054786
 21
91.5107692062
 31
0.0
  0
LINE
  5
24A
330
214
100
AcDbEntity
  8
0
  6
Continuous
 62
     7
370
    25
100
AcDbLine
 10
55.2791054786
 20
91.5107692062
 30
0.0
 11
57.4004258217
 21
93.3815978992
 31
0.0
  0
LINE
  5
24B
330
214
100
AcDbEntity
  8
0
  6
Continuous
 62
     7
370
    25
100
AcDbLine
 10
84.403512066
 20
42.8390767331
 30
0.0
 11
57.4004258217
 21
93.3815978992
 31
0.0
  0
LINE
  5
24C
330
214
100
AcDbEntity
  8
0
  6
Continuous
 62
     7
370
    25
100
AcDbLine
 10
-86.0923906875
 20
0.8988637611
 30
0.0
 11
-55.0864734693
 21
-54.8620119126
 31
0.0
  0
LINE
  5
24D
330
214
100
AcDbEntity
  8
0
  6
Continuous
 62
     7
370
    25
100
AcDbLine
 10
-86.0923906875
 20
62.1814514658
 30
0.0
 11
-86.0923906875
 21
0.8988637611
 31
0.0
  0
LINE
  5
24E
330
214
100
AcDbEntity
  8
0
  6
Continuous
 62
     7
370
    25
100
AcDbLine
 10
-59.5217461648
 20
105.9743169965
 30
0.0
 11
-86.0923906875
 21
62.1814514658
 31
0.0
  0
LINE
  5
24F
330
214
100
AcDbEntity
  8
0
  6
Continuous
 62
     7
370
    25
100
AcDbLine
 10
55.2791054786
 20
91.5107692062
 30
0.0
 11
-59.5217461648
 21
105.9743169965
 31
0.0
  0
LINE
  5
250
330
214
100
AcDbEntity
  8
0
  6
Continuous
 62
     7
370
    25
100
AcDbLine
 10
82.2821917229
 20
-20.3143396646
 30
0.0
 11
82.2821917229
 21
40.9682480401
 31
0.0
  0
LINE
  5
251
330
214
100
AcDbEntity
  8
0
  6
Continuous
 62
     7
370
    25
100
AcDbLine
 10
48.9839828719
 20
-67.9736569684
 30
0.0
 11
82.2821917229
 21
-20.3143396646
 31
0.0
  0
LINE
  5
252
330
214
100
AcDbEntity
  8
0
  6
Continuous
 62
     7
370
    25
100
AcDbLine
 10
48.9839828719
 20
-162.2545611294
 30
0.0
 11
48.9839828719
 21
-67.9736569684
 31
0.0
  0
LINE
  5
253
330
214
100
AcDbEntity
  8
0
  6
Continuous
 62
     7
370
    25
100
AcDbLine
 10
-36.3781865348
 20
-170.3561195087
 30
0.0
 11
30.2756959374
 21
-178.7537193587
 31
0.0
  0
LINE
  5
254
330
214
100
AcDbEntity
  8
0
  6
Continuous
 62
     7
370
    25
100
AcDbLine
 10
-55.0864734693
 20
-54.8620119126
 30
0.0
 11
-55.0864734693
 21
-149.1429160737
 31
0.0
  0
LINE
  5
255
330
214
100
AcDbEntity
  8
0
  6
Continuous
 62
     7
370
    25
100
AcDbLine
 10
-43.9987450849
 20
52.0085419094
 30
0.0
 11
-34.6446016176
 21
50.830030608
 31
0.0
  0
LINE
  5
256
330
214
100
AcDbEntity
  8
0
  6
Continuous
 62
     7
370
    25
100
AcDbLine
 10
-34.6446016176
 20
50.830030608
 30
0.0
 11
-34.6446016176
 21
60.5692480079
 31
0.0
  0
LINE
  5
257
330
214
100
AcDbEntity
  8
0
  6
Continuous
 62
     7
370
    25
100
AcDbLine
 10
-34.6446016176
 20
60.5692480079
 30
0.0
 11
-43.9987450849
 21
61.7477593093
 31
0.0
  0
LINE
  5
258
330
214
100
AcDbEntity
  8
0
  6
Continuous
 62
     7
370
    25
100
AcDbLine
 10
-43.9987450849
 20
61.7477593093
 30
0.0
 11
-43.9987450849
 21
52.0085419094
 31
0.0
  0
LINE
  5
259
330
214
100
AcDbEntity
  8
0
  6
Continuous
 62
     7
370
    25
100
AcDbLine
 10
30.8344026531
 20
43.1664730434
 30
0.0
 11
40.1885461203
 21
41.9879617419
 31
0.0
  0
LINE
  5
25A
330
214
100
AcDbEntity
  8
0
  6
Continuous
 62
     7
370
    25
100
AcDbLine
 10
40.1885461203
 20
41.9879617419
 30
0.0
 11
40.1885461203
 21
51.7271791418
 31
0.0
  0
LINE
  5
25B
330
214
100
AcDbEntity
  8
0
  6
Continuous
 62
     7
370
    25
100
AcDbLine
 10
40.1885461203
 20
51.7271791418
 30
0.0
 11
30.8344026531
 21
52.9056904432
 31
0.0
  0
LINE
  5
25C
330
214
100
AcDbEntity
  8
0
  6
Continuous
 62
     7
370
    25
100
AcDbLine
 10
30.8344026531
 20
52.9056904432
 30
0.0
 11
30.8344026531
 21
43.1664730434
 31
0.0
  0
LINE
  5
25D
330
214
100
AcDbEntity
  8
0
  6
Continuous
 62
     7
370
    25
100
AcDbLine
 10
-59.5217461648
 20
105.9743169965
 30
0.0
 11
-57.4004258217
 21
107.8451456895
 31
0.0
  0
LINE
  5
25E
330
214
100
AcDbEntity
  8
0
  6
Continuous
 62
     7
370
    25
100
AcDbLine
 10
57.4004258217
 20
93.3815978992
 30
0.0
 11
-57.4004258217
 21
107.8451456895
 31
0.0
  0
LINE
  5
25F
330
214
100
AcDbEntity
  8
0
  6
Continuous
 62
     7
370
    25
100
AcDbLine
 10
82.2821917229
 20
-20.3143396646
 30
0.0
 11
84.403512066
 21
-18.4435109716
 31
0.0
  0
LINE
  5
260
330
214
100
AcDbEntity
  8
0
  6
Continuous
 62
     7
370
    25
100
AcDbLine
 10
84.403512066
 20
-18.4435109716
 30
0.0
 11
84.403512066
 21
42.8390767331
 31
0.0
  0
LINE
  5
261
330
214
100
AcDbEntity
  8
0
  6
Continuous
 62
     7
370
    25
100
AcDbLine
 10
31.8950628246
 20
44.1018873899
 30
0.0
 11
40.1885461203
 21
43.0570067093
 31
0.0
  0
LINE
  5
262
330
214
100
AcDbEntity
  8
0
  6
Continuous
 62
     7
370
    25
100
AcDbLine
 10
31.8950628246
 20
52.7720598223
 30
0.0
 11
31.8950628246
 21
44.1018873899
 31
0.0
  0
LINE
  5
263
330
214
100
AcDbEntity
  8
0
  6
Continuous
 62
     7
370
    25
100
AcDbLine
 10
31.8950628246
 20
44.1018873899
 30
0.0
 11
30.8344026531
 21
43.1664730434
 31
0.0
  0
LINE
  5
264
330
214
100
AcDbEntity
  8
0
  6
Continuous
 62
     7
370
    25
100
AcDbLine
 10
48.9839828719
 20
-67.9736569684
 30
0.0
 11
51.105303215
 21
-66.1028282754
 31
0.0
  0
LINE
  5
265
330
214
100
AcDbEntity
  8
0
  6
Continuous
 62
     7
370
    25
100
AcDbLine
 10
51.105303215
 20
-66.1028282754
 30
0.0
 11
84.403512066
 21
-18.4435109716
 31
0.0
  0
LINE
  5
266
330
214
100
AcDbEntity
  8
0
  6
Continuous
 62
     7
370
    25
100
AcDbLine
 10
-42.9380849133
 20
52.9439562559
 30
0.0
 11
-34.6446016176
 21
51.8990755754
 31
0.0
  0
LINE
  5
267
330
214
100
AcDbEntity
  8
0
  6
Continuous
 62
     7
370
    25
100
AcDbLine
 10
-42.9380849133
 20
61.6141286884
 30
0.0
 11
-42.9380849133
 21
52.9439562559
 31
0.0
  0
LINE
  5
268
330
214
100
AcDbEntity
  8
0
  6
Continuous
 62
     7
370
    25
100
AcDbLine
 10
-42.9380849133
 20
52.9439562559
 30
0.0
 11
-43.9987450849
 21
52.0085419094
 31
0.0
  0
LINE
  5
269
330
214
100
AcDbEntity
  8
0
  6
Continuous
 62
     7
370
    25
100
AcDbLine
 10
48.9839828719
 20
-162.2545611294
 30
0.0
 11
51.105303215
 21
-160.3837324364
 31
0.0
  0
LINE
  5
26A
330
214
100
AcDbEntity
  8
0
  6
Continuous
 62
     7
370
    25
100
AcDbLine
 10
51.105303215
 20
-160.3837324364
 30
0.0
 11
51.105303215
 21
-66.1028282754
 31
0.0
  0
LINE
  5
26B
330
214
100
AcDbEntity
  8
0
  6
Continuous
 62
     7
370
    25
100
AcDbLine
 10
-48.1789187724
 20
-145.9324080579
 30
0.0
 11
-47.7028711094
 21
-145.9627422691
 31
0.0
  0
LINE
  5
26C
330
214
100
AcDbEntity
  8
0
  6
Continuous
 62
     7
370
    25
100
AcDbLine
 10
-48.8860255534
 20
-146.5560176222
 30
0.0
 11
-48.1789187724
 21
-145.9324080579
 31
0.0
  0
LINE
  5
26D
330
214
100
AcDbEntity
  8
0
  6
Continuous
 62
     7
370
    25
100
AcDbLine
 10
-47.6896339736
 20
-145.8882995056
 30
0.0
 11
-48.1789187724
 21
-145.9324080579
 31
0.0
  0
ARC
  5
26E
330
214
100
AcDbEntity
  8
0
  6
Continuous
 62
     7
370
    25
100
AcDbCircle
 10
32.687865662
 20
-162.6326819027
 30
0.0
 40
16.30050341057764
100
AcDbArc
 50
261.4900418456
 51
1.3292023768
  0
ARC
  5
26F
330
214
100
AcDbEntity
  8
0
  6
Continuous
 62
     7
370
    25
100
AcDbCircle
 10
-33.2768254607
 20
-148.7647953004
 30
0.0
 40
21.81292556216249
100
AcDbArc
 50
180.9932555609
 51
261.825988661
  0
ARC
  5
270
330
214
100
AcDbEntity
  8
0
  6
Continuous
 62
     7
370
    25
100
AcDbCircle
 10
34.5093453725
 20
-160.6998771249
 30
0.0
 40
16.59896876835768
100
AcDbArc
 50
312.0443707588
 51
1.091323921
  0
ARC
  5
271
330
214
100
AcDbEntity
  8
0
  6
Continuous
 62
     7
370
    25
100
AcDbCircle
 10
-48.5508738464
 20
-144.5914033305
 30
0.0
 40
1.992996734111955
100
AcDbArc
 50
153.2815679013
 51
260.3188717833
  0
ARC
  5
272
330
214
100
AcDbEntity
  8
0
  6
Continuous
 62
     7
370
    25
100
AcDbCircle
 10
-47.2969649407
 20
-143.2177987184
 30
0.0
 40
2.103037728412417
100
AcDbArc
 50
190.3394248036
 51
258.9764688995
  0
VIEWPORT
  5
283
330
214
100
AcDbEntity
  8
0
100
AcDbViewport
 10
0.0
 20
0.0
 30
0.0
 40
205.6
 41
156.0
 68
     1
 69
     1
 12
32.2478779843
 22
-1.7893887322
 13
0.0
 23
0.0
 14
10.0
 24
10.0
 15
10.0
 25
10.0
 16
0.0
 26
0.0
 36
1.0
 17
0.0
 27
0.0
 37
0.0
 42
50.0
 43
0.0
 44
0.0
 45
237.2631827653
 50
0.0
 51
0.0
 72
   100
 90
   557152
  1

281
     0
 71
     1
 74
     0
110
0.0
120
0.0
130
0.0
111
1.0
121
0.0
131
0.0
112
0.0
122
1.0
132
0.0
 79
     0
146
0.0
  0
MTEXT
  5
298
330
214
100
AcDbEntity
  8
0
  6
Continuous
 62
     7
100
AcDbMText
 10
-86.0923906875
 20
-179.952751705
 30
0.0
 40
4.83362
 41
0.0
 71
     1
 72
     1
  1
SOLIDWORKS Educational Product.
  7
SLDTEXTSTYLE0
 73
     1
 44
1.0
  0
MTEXT
  5
299
330
214
100
AcDbEntity
  8
0
  6
Continuous
 62
     7
100
AcDbMText
 10
-86.0923906875
 20
-187.203181705
 30
0.0
 40
4.83362
 41
0.0
 71
     1
 72
     1
  1
For Instructional Use Only.
  7
SLDTEXTSTYLE0
 73
     1
 44
1.0
  0
ENDBLK
  5
217
330
214
100
AcDbEntity
  8
0
100
AcDbBlockEnd
  0
ENDSEC
  0
SECTION
  2
ENTITIES
  0
LWPOLYLINE
  5
74
330
1F
100
AcDbEntity
  8
0
  6
Continuous
 62
     7
370
    25
100
AcDbPolyline
 90
       15
 70
   128
 43
0.0
 10
172.1597845909
 20
1.3391031741
 10
174.2302735832
 20
1.6583892275
 10
176.1912149354
 20
2.0601563261
 10
178.0179486721
 20
2.5393520155
 10
179.6875025568
 20
3.0899501319
 10
181.1788809807
 20
3.7050265844
 10
182.4733289947
 20
4.3768464299
 10
183.554568164
 20
5.0969611439
 10
184.4090012788
 20
5.8563148662
 10
185.0258833468
 20
6.645358283
 10
185.3974567182
 20
7.4541687157
 10
185.5190486422
 20
8.2725749036
 10
185.3891300297
 20
9.0902849142
 10
185.0093346828
 20
9.8970155697
 10
184.3844387482
 20
10.6826217639
  0
LWPOLYLINE
  5
7E
330
1F
100
AcDbEntity
  8
0
  6
Continuous
 62
     7
370
    25
100
AcDbPolyline
 90
       15
 70
   128
 43
0.0
 10
160.7251280356
 20
35.1879593385
 10
159.8629899424
 20
35.9425616177
 10
158.7744515773
 20
36.6566704205
 10
157.4732019417
 20
37.3213054143
 10
155.9756050049
 20
37.9281084285
 10
154.3004939174
 20
38.469448563
 10
152.4689341728
 20
38.9385181516
 10
150.5039586977
 20
39.3294183721
 10
148.4302781989
 20
39.6372334273
 10
146.2739704117
 20
39.8580923644
 10
144.0621521577
 20
39.9892177541
 10
141.8226383348
 20
40.0289606184
 10
139.5835921287
 20
39.976821168
 10
137.3731708446
 20
39.8334550864
 10
135.2191718126
 20
39.6006652856
  0
LWPOLYLINE
  5
80
330
1F
100
AcDbEntity
  8
0
  6
Continuous
 62
     7
370
    25
100
AcDbPolyline
 90
       18
 70
   128
 43
0.0
 10
114.429069662
 20
33.8125493978
 10
113.7317868486
 20
33.7716395834
 10
113.0425776979
 20
33.8254318749
 10
112.4545237248
 20
33.9666613253
 10
112.0470448767
 20
34.1762541146
 10
111.8751734302
 20
34.4259035754
 10
111.9621215763
 20
34.6818931646
 10
112.2961464862
 20
34.9096500696
 10
112.8321362449
 20
35.0784144585
 10
113.4977024655
 20
35.1653937652
 10
114.2029567418
 20
35.1588409526
 10
114.8526505759
 20
35.0596410142
 10
115.3590392154
 20
34.8811914514
 10
115.6537320685
 20
34.6475928665
 10
115.6969292326
 20
34.3903940428
 10
115.4827966911
 20
34.1443311066
 10
115.0402542304
 20
33.942636221
 10
114.429069662
 20
33.8125493978
  0
LWPOLYLINE
  5
81
330
1F
100
AcDbEntity
  8
0
  6
Continuous
 62
     7
370
    25
100
AcDbPolyline
 90
       18
 70
   128
 43
0.0
 10
166.6635364249
 20
1.8259193502
 10
165.9662536115
 20
1.7850095358
 10
165.2770444608
 20
1.8388018273
 10
164.6889904876
 20
1.9800312777
 10
164.2815116396
 20
2.1896240671
 10
164.109640193
 20
2.4392735279
 10
164.1965883391
 20
2.695263117
 10
164.5306132491
 20
2.9230200221
 10
165.0666030078
 20
3.0917844109
 10
165.7321692283
 20
3.1787637177
 10
166.4374235047
 20
3.172210905
 10
167.0871173388
 20
3.0730109666
 10
167.5935059782
 20
2.8945614038
 10
167.8881988314
 20
2.6609628189
 10
167.9313959954
 20
2.4037639952
 10
167.7172634539
 20
2.157701059
 10
167.2747209932
 20
1.9560061734
 10
166.6635364249
 20
1.8259193502
  0
LWPOLYLINE
  5
82
330
1F
100
AcDbEntity
  8
0
  6
Continuous
 62
     7
370
    25
100
AcDbPolyline
 90
       18
 70
   128
 43
0.0
 10
147.703615428
 20
-0.6518518073
 10
147.0063326146
 20
-0.6927616217
 10
146.3171234639
 20
-0.6389693302
 10
145.7290694907
 20
-0.4977398798
 10
145.3215906427
 20
-0.2881470905
 10
145.1497191961
 20
-0.0384976297
 10
145.2366673422
 20
0.2174919595
 10
145.5706922522
 20
0.4452488645
 10
146.1066820109
 20
0.6140132534
 10
146.7722482315
 20
0.7009925601
 10
147.4775025078
 20
0.6944397475
 10
148.1271963419
 20
0.5952398091
 10
148.6335849814
 20
0.4167902463
 10
148.9282778345
 20
0.1831916614
 10
148.9714749985
 20
-0.0740071623
 10
148.757342457
 20
-0.3200700985
 10
148.3147999963
 20
-0.5217649841
 10
147.703615428
 20
-0.6518518073
  0
LWPOLYLINE
  5
83
330
1F
100
AcDbEntity
  8
0
  6
Continuous
 62
     7
370
    25
100
AcDbPolyline
 90
       18
 70
   128
 43
0.0
 10
128.8469719215
 20
-3.1161261793
 10
128.1496891081
 20
-3.1570359937
 10
127.4604799573
 20
-3.1032437022
 10
126.8724259842
 20
-2.9620142519
 10
126.4649471361
 20
-2.7524214625
 10
126.2930756896
 20
-2.5027720017
 10
126.3800238357
 20
-2.2467824125
 10
126.7140487456
 20
-2.0190255075
 10
127.2500385044
 20
-1.8502611187
 10
127.9156047249
 20
-1.7632818119
 10
128.6208590012
 20
-1.7698346245
 10
129.2705528353
 20
-1.8690345629
 10
129.7769414748
 20
-2.0474841257
 10
130.071634328
 20
-2.2810827106
 10
130.114831492
 20
-2.5382815343
 10
129.9006989505
 20
-2.7843444705
 10
129.4581564898
 20
-2.9860393562
 10
128.8469719215
 20
-3.1161261793
  0
LWPOLYLINE
  5
84
330
1F
100
AcDbEntity
  8
0
  6
Continuous
 62
     7
370
    25
100
AcDbPolyline
 90
       18
 70
   128
 43
0.0
 10
109.3228366094
 20
-5.6676315026
 10
108.625553796
 20
-5.708541317
 10
107.9363446453
 20
-5.6547490255
 10
107.3482906721
 20
-5.5135195751
 10
106.9408118241
 20
-5.3039267857
 10
106.7689403775
 20
-5.0542773249
 10
106.8558885237
 20
-4.7982877358
 10
107.1899134336
 20
-4.5705308307
 10
107.7259031923
 20
-4.4017664419
 10
108.3914694129
 20
-4.3147871351
 10
109.0967236892
 20
-4.3213399478
 10
109.7464175233
 20
-4.4205398862
 10
110.2528061628
 20
-4.598989449
 10
110.5474990159
 20
-4.8325880339
 10
110.5906961799
 20
-5.0897868576
 10
110.3765636384
 20
-5.3358497938
 10
109.9340211778
 20
-5.5375446794
 10
109.3228366094
 20
-5.6676315026
  0
LWPOLYLINE
  5
85
330
1F
100
AcDbEntity
  8
0
  6
Continuous
 62
     7
370
    25
100
AcDbPolyline
 90
       18
 70
   128
 43
0.0
 10
89.8621130188
 20
-8.2108498855
 10
89.1648302054
 20
-8.2517596999
 10
88.4756210547
 20
-8.1979674084
 10
87.8875670816
 20
-8.056737958
 10
87.4800882335
 20
-7.8471451686
 10
87.308216787
 20
-7.5974957078
 10
87.3951649331
 20
-7.3415061187
 10
87.729189843
 20
-7.1137492136
 10
88.2651796018
 20
-6.9449848248
 10
88.9307458223
 20
-6.858005518
 10
89.6360000986
 20
-6.8645583307
 10
90.2856939327
 20
-6.9637582691
 10
90.7920825722
 20
-7.1422078318
 10
91.0867754254
 20
-7.3758064167
 10
91.1299725894
 20
-7.6330052405
 10
90.9158400479
 20
-7.8790681766
 10
90.4732975872
 20
-8.0807630623
 10
89.8621130188
 20
-8.2108498855
  0
LWPOLYLINE
  5
86
330
1F
100
AcDbEntity
  8
0
  6
Continuous
 62
     7
370
    25
100
AcDbPolyline
 90
       18
 70
   128
 43
0.0
 10
56.5875672529
 20
26.2535513196
 10
55.8902844395
 20
26.2126415052
 10
55.2010752888
 20
26.2664337967
 10
54.6130213156
 20
26.4076632471
 10
54.2055424676
 20
26.6172560365
 10
54.033671021
 20
26.8669054973
 10
54.1206191672
 20
27.1228950864
 10
54.4546440771
 20
27.3506519915
 10
54.9906338358
 20
27.5194163803
 10
55.6562000564
 20
27.6063956871
 10
56.3614543327
 20
27.5998428744
 10
57.0111481668
 20
27.500642936
 10
57.5175368063
 20
27.3221933733
 10
57.8122296594
 20
27.0885947884
 10
57.8554268234
 20
26.8313959646
 10
57.641294282
 20
26.5853330285
 10
57.1987518213
 20
26.3836381428
 10
56.5875672529
 20
26.2535513196
  0
LWPOLYLINE
  5
87
330
1F
100
AcDbEntity
  8
0
  6
Continuous
 62
     7
370
    25
100
AcDbPolyline
 90
       18
 70
   128
 43
0.0
 10
95.5724261555
 20
31.3482750258
 10
94.8751433421
 20
31.3073652114
 10
94.1859341914
 20
31.3611575029
 10
93.5978802182
 20
31.5023869532
 10
93.1904013702
 20
31.7119797426
 10
93.0185299236
 20
31.9616292034
 10
93.1054780698
 20
32.2176187926
 10
93.4395029797
 20
32.4453756976
 10
93.9754927384
 20
32.6141400864
 10
94.641058959
 20
32.7011193932
 10
95.3463132353
 20
32.6945665806
 10
95.9960070694
 20
32.5953666422
 10
96.5023957089
 20
32.4169170794
 10
96.797088562
 20
32.1833184945
 10
96.840285726
 20
31.9261196708
 10
96.6261531846
 20
31.6800567346
 10
96.1836107239
 20
31.4783618489
 10
95.5724261555
 20
31.3482750258
  0
LWPOLYLINE
  5
88
330
1F
100
AcDbEntity
  8
0
  6
Continuous
 62
     7
370
    25
100
AcDbPolyline
 90
       18
 70
   128
 43
0.0
 10
76.0482908434
 20
28.7967697025
 10
75.35100803
 20
28.7558598881
 10
74.6617988793
 20
28.8096521796
 10
74.0737449062
 20
28.95088163
 10
73.6662660581
 20
29.1604744194
 10
73.4943946116
 20
29.4101238802
 10
73.5813427577
 20
29.6661134693
 10
73.9153676676
 20
29.8938703744
 10
74.4513574264
 20
30.0626347632
 10
75.1169236469
 20
30.14961407
 10
75.8221779232
 20
30.1430612573
 10
76.4718717573
 20
30.0438613189
 10
76.9782603968
 20
29.8654117561
 10
77.27295325
 20
29.6318131712
 10
77.316150414
 20
29.3746143475
 10
77.1020178725
 20
29.1285514113
 10
76.6594754118
 20
28.9268565257
 10
76.0482908434
 20
28.7967697025
  0
LWPOLYLINE
  5
89
330
1F
100
AcDbEntity
  8
0
  6
Continuous
 62
     7
370
    25
100
AcDbPolyline
 90
       18
 70
   128
 43
0.0
 10
133.2979361327
 20
36.3846310756
 10
132.6006533193
 20
36.3437212612
 10
131.9114441686
 20
36.3975135527
 10
131.3233901954
 20
36.5387430031
 10
130.9159113474
 20
36.7483357925
 10
130.7440399008
 20
36.9979852533
 10
130.8309880469
 20
37.2539748424
 10
131.1650129569
 20
37.4817317475
 10
131.7010027156
 20
37.6504961363
 10
132.3665689362
 20
37.7374754431
 10
133.0718232125
 20
37.7309226304
 10
133.7215170466
 20
37.631722692
 10
134.227905686
 20
37.4532731293
 10
134.5225985392
 20
37.2196745444
 10
134.5657957032
 20
36.9624757206
 10
134.3516631617
 20
36.7164127845
 10
133.909120701
 20
36.5147178988
 10
133.2979361327
 20
36.3846310756
  0
LWPOLYLINE
  5
8A
330
1F
100
AcDbEntity
  8
0
  6
Continuous
 62
     7
370
    25
100
AcDbPolyline
 90
       30
 70
   128
 43
0.0
 10
-24.5285265712
 20
-5.0370386507
 10
-25.5812109943
 20
-5.1293344106
 10
-26.6623004291
 20
-5.1369113021
 10
-27.7212443354
 20
-5.059415038
 10
-28.7085276728
 20
-4.9004692577
 10
-29.5779861699
 20
-4.6675060891
 10
-30.2889649137
 20
-4.3714186311
 10
-30.8082193283
 20
-4.0260516041
 10
-31.1114696544
 20
-3.6475539865
 10
-31.1845362438
 20
-3.2536239062
 10
-31.0240025839
 20
-2.8626810959
 10
-30.6373750503
 20
-2.4930056069
 10
-30.0427319168
 20
-2.1618830543
 10
-29.2678780353
 20
-1.8847963606
 10
-28.3490447123
 20
-1.6747017916
 10
-27.3291955725
 20
-1.5414231358
 10
-26.2560176285
 20
-1.4911923552
 10
-25.179691488
 20
-1.5263581851
 10
-24.1505449651
 20
-1.6452763104
 10
-23.2166998075
 20
-1.8423862518
 10
-22.4218215768
 20
-2.1084713674
 10
-21.8030778957
 20
-2.4310898131
 10
-21.3894005309
 20
-2.7951563088
 10
-21.2001325763
 20
-3.1836475098
 10
-21.2441239911
 20
-3.5783979994
 10
-21.5193177856
 20
-3.9609496834
 10
-22.0128462039
 20
-4.3134148702
 10
-22.7016324057
 20
-4.6193126794
 10
-23.5534695135
 20
-4.8643396695
 10
-24.5285265712
 20
-5.0370386507
  0
LWPOLYLINE
  5
96
330
1F
100
AcDbEntity
  8
0
  6
Continuous
 62
     7
370
    25
100
AcDbPolyline
 90
       12
 70
   128
 43
0.0
 10
185.5325385441
 20
2.68015819
 10
185.4109198074
 20
1.8689023034
 10
185.039346436
 20
1.0600918707
 10
184.422464368
 20
0.2710484539
 10
183.5680312532
 20
-0.4883052684
 10
182.4867920838
 20
-1.2084199824
 10
181.1923440698
 20
-1.8802398279
 10
179.700965646
 20
-2.4953162805
 10
178.0314117613
 20
-3.0459143968
 10
176.2046780245
 20
-3.5251100862
 10
174.2437366724
 20
-3.9268771848
 10
172.1732476801
 20
-4.2461632382
  0
LINE
  5
97
330
1F
100
AcDbEntity
  8
0
  6
Continuous
 62
     7
370
    25
100
AcDbLine
 10
185.5325385441
 20
2.68015819
 30
0.0
 11
185.5190754549
 21
8.2654246023
 31
0.0
  0
LINE
  5
98
330
1F
100
AcDbEntity
  8
0
  6
Continuous
 62
     7
370
    25
100
AcDbLine
 10
172.1597845909
 20
1.3391031741
 30
0.0
 11
77.8332586402
 21
-10.9879284327
 31
0.0
  0
LINE
  5
99
330
1F
100
AcDbEntity
  8
0
  6
Continuous
 62
     7
370
    25
100
AcDbLine
 10
77.8332586402
 20
-10.9879284327
 30
0.0
 11
37.7731259414
 21
-30.0099011261
 31
0.0
  0
LINE
  5
9A
330
1F
100
AcDbEntity
  8
0
  6
Continuous
 62
     7
370
    25
100
AcDbLine
 10
37.7731259414
 20
-30.0099011261
 30
0.0
 11
-23.5391159266
 21
-38.0224716705
 31
0.0
  0
LINE
  5
9B
330
1F
100
AcDbEntity
  8
0
  6
Continuous
 62
     7
370
    25
100
AcDbLine
 10
-23.5391159266
 20
-38.0224716705
 30
0.0
 11
-80.2873330556
 21
-34.2582875497
 31
0.0
  0
LINE
  5
9C
330
1F
100
AcDbEntity
  8
0
  6
Continuous
 62
     7
370
    25
100
AcDbLine
 10
-80.2873330556
 20
-34.2582875497
 30
0.0
 11
-121.0367825754
 21
7.9483104613
 31
0.0
  0
LINE
  5
9D
330
1F
100
AcDbEntity
  8
0
  6
Continuous
 62
     7
370
    25
100
AcDbLine
 10
-121.0367825754
 20
7.9483104613
 30
0.0
 11
-83.3049752224
 21
23.8805387455
 31
0.0
  0
LINE
  5
9E
330
1F
100
AcDbEntity
  8
0
  6
Continuous
 62
     7
370
    25
100
AcDbLine
 10
-83.3049752224
 20
23.8805387455
 30
0.0
 11
-21.9927333544
 21
31.8931092899
 31
0.0
  0
LINE
  5
9F
330
1F
100
AcDbEntity
  8
0
  6
Continuous
 62
     7
370
    25
100
AcDbLine
 10
-21.9927333544
 20
31.8931092899
 30
0.0
 11
40.8926458618
 21
27.2736336788
 31
0.0
  0
LINE
  5
A0
330
1F
100
AcDbEntity
  8
0
  6
Continuous
 62
     7
370
    25
100
AcDbLine
 10
40.8926458618
 20
27.2736336788
 30
0.0
 11
135.2191718126
 21
39.6006652856
 31
0.0
  0
LINE
  5
A1
330
1F
100
AcDbEntity
  8
0
  6
Continuous
 62
     7
370
    25
100
AcDbLine
 10
160.7251280356
 20
35.1879593385
 30
0.0
 11
184.3844387482
 21
10.6826217639
 31
0.0
  0
LINE
  5
A2
330
1F
100
AcDbEntity
  8
0
  6
Continuous
 62
     7
370
    25
100
AcDbLine
 10
-23.5256528375
 20
-43.6077380828
 30
0.0
 11
-23.5391159266
 21
-38.0224716705
 31
0.0
  0
LINE
  5
A3
330
1F
100
AcDbEntity
  8
0
  6
Continuous
 62
     7
370
    25
100
AcDbLine
 10
-23.5256528375
 20
-43.6077380828
 30
0.0
 11
-80.2738699664
 21
-39.843553962
 31
0.0
  0
LINE
  5
A4
330
1F
100
AcDbEntity
  8
0
  6
Continuous
 62
     7
370
    25
100
AcDbLine
 10
-80.2738699664
 20
-39.843553962
 30
0.0
 11
-80.2873330556
 21
-34.2582875497
 31
0.0
  0
LINE
  5
A5
330
1F
100
AcDbEntity
  8
0
  6
Continuous
 62
     7
370
    25
100
AcDbLine
 10
37.7865890305
 20
-35.5951675384
 30
0.0
 11
37.7731259414
 21
-30.0099011261
 31
0.0
  0
LINE
  5
A6
330
1F
100
AcDbEntity
  8
0
  6
Continuous
 62
     7
370
    25
100
AcDbLine
 10
37.7865890305
 20
-35.5951675384
 30
0.0
 11
-23.5256528375
 21
-43.6077380828
 31
0.0
  0
LINE
  5
A7
330
1F
100
AcDbEntity
  8
0
  6
Continuous
 62
     7
370
    25
100
AcDbLine
 10
-121.0233194863
 20
2.363044049
 30
0.0
 11
-121.0367825754
 21
7.9483104613
 31
0.0
  0
LINE
  5
A8
330
1F
100
AcDbEntity
  8
0
  6
Continuous
 62
     7
370
    25
100
AcDbLine
 10
-80.2738699664
 20
-39.843553962
 30
0.0
 11
-121.0233194863
 21
2.363044049
 31
0.0
  0
LINE
  5
A9
330
1F
100
AcDbEntity
  8
0
  6
Continuous
 62
     7
370
    25
100
AcDbLine
 10
77.8467217293
 20
-16.573194845
 30
0.0
 11
77.8332586402
 21
-10.9879284327
 31
0.0
  0
LINE
  5
AA
330
1F
100
AcDbEntity
  8
0
  6
Continuous
 62
     7
370
    25
100
AcDbLine
 10
77.8467217293
 20
-16.573194845
 30
0.0
 11
37.7865890305
 21
-35.5951675384
 31
0.0
  0
LINE
  5
AB
330
1F
100
AcDbEntity
  8
0
  6
Continuous
 62
     7
370
    25
100
AcDbLine
 10
172.1732476801
 20
-4.2461632382
 30
0.0
 11
172.1597845909
 21
1.3391031741
 31
0.0
  0
LINE
  5
AC
330
1F
100
AcDbEntity
  8
0
  6
Continuous
 62
     7
370
    25
100
AcDbLine
 10
172.1732476801
 20
-4.2461632382
 30
0.0
 11
77.8467217293
 21
-16.573194845
 31
0.0
  0
MTEXT
  5
288
330
1F
100
AcDbEntity
  8
0
  6
Continuous
 62
     7
100
AcDbMText
 10
-121.0367825754
 20
-44.6273044745
 30
0.0
 40
4.83362
 41
0.0
 71
     1
 72
     1
  1
SOLIDWORKS Educational Product.
  7
SLDTEXTSTYLE0
 73
     1
 44
1.0
  0
MTEXT
  5
289
330
1F
100
AcDbEntity
  8
0
  6
Continuous
 62
     7
100
AcDbMText
 10
-121.0367825754
 20
-51.8777344745
 30
0.0
 40
4.83362
 41
0.0
 71
     1
 72
     1
  1
For Instructional Use Only.
  7
SLDTEXTSTYLE0
 73
     1
 44
1.0
  0
CIRCLE
  5
B7
330
1B
100
AcDbEntity
 67
     1
  8
0
  6
Continuous
 62
     7
370
    25
100
AcDbCircle
 10
-50.6123848462
 20
-158.5518452392
 30
0.0
 40
1.91999999999998
  0
CIRCLE
  5
C0
330
1B
100
AcDbEntity
 67
     1
  8
0
  6
Continuous
 62
     7
370
    25
100
AcDbCircle
 10
-0.8113658745
 20
-129.9684714403
 30
0.0
 40
10.00000000000001
  0
LINE
  5
C4
330
1B
100
AcDbEntity
 67
     1
  8
0
  6
Continuous
 62
     7
370
    25
100
AcDbLine
 10
-89.7688501769
 20
-8.2834037924
 30
0.0
 11
-56.6221304086
 21
-63.2834037924
 31
0.0
  0
LINE
  5
C5
330
1B
100
AcDbEntity
 67
     1
  8
0
  6
Continuous
 62
     7
370
    25
100
AcDbLine
 10
-89.7688501769
 20
56.7165962076
 30
0.0
 11
-89.7688501769
 21
-8.2834037924
 31
0.0
  0
LINE
  5
C6
330
1B
100
AcDbEntity
 67
     1
  8
0
  6
Continuous
 62
     7
370
    25
100
AcDbLine
 10
-61.3636363636
 20
106.7165962076
 30
0.0
 11
-89.7688501769
 21
56.7165962076
 31
0.0
  0
LINE
  5
C7
330
1B
100
AcDbEntity
 67
     1
  8
0
  6
Continuous
 62
     7
370
    25
100
AcDbLine
 10
61.3636363636
 20
106.7165962076
 30
0.0
 11
-61.3636363636
 21
106.7165962076
 31
0.0
  0
LINE
  5
C8
330
1B
100
AcDbEntity
 67
     1
  8
0
  6
Continuous
 62
     7
370
    25
100
AcDbLine
 10
90.2311498231
 20
56.7165962076
 30
0.0
 11
61.3636363636
 21
106.7165962076
 31
0.0
  0
LINE
  5
C9
330
1B
100
AcDbEntity
 67
     1
  8
0
  6
Continuous
 62
     7
370
    25
100
AcDbLine
 10
90.2311498231
 20
-8.2834037924
 30
0.0
 11
90.2311498231
 21
56.7165962076
 31
0.0
  0
LINE
  5
CA
330
1B
100
AcDbEntity
 67
     1
  8
0
  6
Continuous
 62
     7
370
    25
100
AcDbLine
 10
54.6338672204
 20
-63.2834037924
 30
0.0
 11
90.2311498231
 21
-8.2834037924
 31
0.0
  0
LINE
  5
CB
330
1B
100
AcDbEntity
 67
     1
  8
0
  6
Continuous
 62
     7
370
    25
100
AcDbLine
 10
-56.6221304086
 20
-63.2834037924
 30
0.0
 11
-56.6221304086
 21
-163.2834037924
 31
0.0
  0
LINE
  5
CC
330
1B
100
AcDbEntity
 67
     1
  8
0
  6
Continuous
 62
     7
370
    25
100
AcDbLine
 10
-44.7688501769
 20
51.5515962076
 30
0.0
 11
-34.7688501769
 21
51.5515962076
 31
0.0
  0
LINE
  5
CD
330
1B
100
AcDbEntity
 67
     1
  8
0
  6
Continuous
 62
     7
370
    25
100
AcDbLine
 10
-34.7688501769
 20
51.5515962076
 30
0.0
 11
-34.7688501769
 21
61.8815962076
 31
0.0
  0
LINE
  5
CE
330
1B
100
AcDbEntity
 67
     1
  8
0
  6
Continuous
 62
     7
370
    25
100
AcDbLine
 10
-34.7688501769
 20
61.8815962076
 30
0.0
 11
-44.7688501769
 21
61.8815962076
 31
0.0
  0
LINE
  5
CF
330
1B
100
AcDbEntity
 67
     1
  8
0
  6
Continuous
 62
     7
370
    25
100
AcDbLine
 10
-44.7688501769
 20
61.8815962076
 30
0.0
 11
-44.7688501769
 21
51.5515962076
 31
0.0
  0
LINE
  5
D0
330
1B
100
AcDbEntity
 67
     1
  8
0
  6
Continuous
 62
     7
370
    25
100
AcDbLine
 10
35.2311498231
 20
52.1731659205
 30
0.0
 11
45.2311498231
 21
52.1731659205
 31
0.0
  0
LINE
  5
D1
330
1B
100
AcDbEntity
 67
     1
  8
0
  6
Continuous
 62
     7
370
    25
100
AcDbLine
 10
45.2311498231
 20
52.1731659205
 30
0.0
 11
45.2311498231
 21
62.5031659205
 31
0.0
  0
LINE
  5
D2
330
1B
100
AcDbEntity
 67
     1
  8
0
  6
Continuous
 62
     7
370
    25
100
AcDbLine
 10
45.2311498231
 20
62.5031659205
 30
0.0
 11
35.2311498231
 21
62.5031659205
 31
0.0
  0
LINE
  5
D3
330
1B
100
AcDbEntity
 67
     1
  8
0
  6
Continuous
 62
     7
370
    25
100
AcDbLine
 10
35.2311498231
 20
62.5031659205
 30
0.0
 11
35.2311498231
 21
52.1731659205
 31
0.0
  0
LINE
  5
D4
330
1B
100
AcDbEntity
 67
     1
  8
0
  6
Continuous
 62
     7
370
    25
100
AcDbLine
 10
-36.6221304086
 20
-183.2834037924
 30
0.0
 11
34.6338672204
 21
-183.2834037924
 31
0.0
  0
LINE
  5
D5
330
1B
100
AcDbEntity
 67
     1
  8
0
  6
Continuous
 62
     7
370
    25
100
AcDbLine
 10
54.6338672204
 20
-163.2834037924
 30
0.0
 11
54.6338672204
 21
-63.2834037924
 31
0.0
  0
ARC
  5
D6
330
1B
100
AcDbEntity
 67
     1
  8
0
  6
Continuous
 62
     7
370
    25
100
AcDbCircle
 10
34.6338672204
 20
-163.2834037924
 30
0.0
 40
20.00000000000001
100
AcDbArc
 50
270.0
 51
0.0
  0
ARC
  5
D7
330
1B
100
AcDbEntity
 67
     1
  8
0
  6
Continuous
 62
     7
370
    25
100
AcDbCircle
 10
-36.6221304086
 20
-163.2834037924
 30
0.0
 40
20.00000000000003
100
AcDbArc
 50
180.0
 51
270.0
  0
ARC
  5
D8
330
1B
100
AcDbEntity
 67
     1
  8
0
  6
Continuous
 62
     7
370
    25
100
AcDbCircle
 10
-50.8866185796
 20
-158.5518452392
 30
0.0
 40
1.920000000000038
100
AcDbArc
 50
274.0952661775
 51
85.9047338225
  0
VIEWPORT
  5
273
330
1B
100
AcDbEntity
 67
     1
  8
0
100
AcDbViewport
 10
0.0
 20
0.0
 30
0.0
 40
205.6
 41
156.0
 68
     1
 69
     1
 12
32.2478779843
 22
-1.7893887322
 13
0.0
 23
0.0
 14
10.0
 24
10.0
 15
10.0
 25
10.0
 16
0.0
 26
0.0
 36
1.0
 17
0.0
 27
0.0
 37
0.0
 42
50.0
 43
0.0
 44
0.0
 45
237.2631827653
 50
0.0
 51
0.0
 72
   100
 90
   557152
  1

281
     0
 71
     1
 74
     0
110
0.0
120
0.0
130
0.0
111
1.0
121
0.0
131
0.0
112
0.0
122
1.0
132
0.0
 79
     0
146
0.0
  0
MTEXT
  5
286
330
1B
100
AcDbEntity
 67
     1
  8
0
  6
Continuous
 62
     7
100
AcDbMText
 10
-89.7688501769
 20
-184.3029701841
 30
0.0
 40
4.83362
 41
0.0
 71
     1
 72
     1
  1
SOLIDWORKS Educational Product.
  7
SLDTEXTSTYLE0
 73
     1
 44
1.0
  0
MTEXT
  5
287
330
1B
100
AcDbEntity
 67
     1
  8
0
  6
Continuous
 62
     7
100
AcDbMText
 10
-89.7688501769
 20
-191.5534001841
 30
0.0
 40
4.83362
 41
0.0
 71
     1
 72
     1
  1
For Instructional Use Only.
  7
SLDTEXTSTYLE0
 73
     1
 44
1.0
  0
ENDSEC
  0
SECTION
  2
OBJECTS
  0
DICTIONARY
  5
C
330
0
100
AcDbDictionary
281
     1
  3
ACAD_GROUP
350
D
  3
ACAD_LAYOUT
350
1A
  3
ACAD_MLINESTYLE
350
17
  3
ACAD_PLOTSETTINGS
350
19
  3
ACAD_PLOTSTYLENAME
350
E
  3
ACAD_SCALELIST
350
47
  3
DWGPROPS
350
29A
  0
DICTIONARY
  5
D
102
{ACAD_REACTORS
330
C
102
}
330
C
100
AcDbDictionary
281
     1
  0
DICTIONARY
  5
1A
102
{ACAD_REACTORS
330
C
102
}
330
C
100
AcDbDictionary
281
     1
  3
_Back
350
EA
  3
_Bottom
350
14B
  3
_Dimetric
350
215
  3
_Front
350
1E
  3
_Isometric
350
167
  3
_Left
350
113
  3
_Right
350
12F
  3
_Top
350
26
  3
_Trimetric
350
1BE
  3
Model
350
22
  0
DICTIONARY
  5
17
102
{ACAD_REACTORS
330
C
102
}
330
C
100
AcDbDictionary
281
     1
  3
Standard
350
18
  0
DICTIONARY
  5
19
102
{ACAD_REACTORS
330
C
102
}
330
C
100
AcDbDictionary
281
     1
  0
ACDBDICTIONARYWDFLT
  5
E
102
{ACAD_REACTORS
330
C
102
}
330
C
100
AcDbDictionary
281
     1
  3
Normal
350
F
100
AcDbDictionaryWithDefault
340
F
  0
DICTIONARY
  5
47
102
{ACAD_REACTORS
330
C
102
}
330
C
100
AcDbDictionary
281
     1
  3
A0
350
48
  3
A1
350
49
  3
A2
350
4A
  3
A3
350
4B
  3
A4
350
4C
  3
A5
350
4D
  3
A6
350
4E
  3
A7
350
4F
  3
A8
350
50
  3
A9
350
51
  3
B0
350
52
  3
B1
350
53
  3
B2
350
54
  3
B3
350
55
  3
B4
350
56
  3
B5
350
57
  3
B6
350
58
  3
B7
350
59
  3
B8
350
5A
  3
B9
350
5B
  3
C0
350
5C
  3
C1
350
5D
  3
C2
350
5E
  3
C3
350
5F
  3
C4
350
60
  3
C5
350
61
  3
C6
350
62
  3
C7
350
63
  3
C8
350
64
  3
C9
350
65
  3
D0
350
66
  3
D1
350
67
  3
D2
350
68
  0
XRECORD
  5
29A
102
{ACAD_REACTORS
330
C
102
}
330
C
100
AcDbXrecord
280
     1
  1
DWGPROPS COOKIE
  2

  3

  4

  6

  7

  8
$5PDJ00-CKN991J3FMM0
  9

300
=
301
=
302
=
303
=
304
=
305
=
306
=
307
=
308
=
309
=
 40
0.0
 41
2459698.975865035
 42
2459698.975899826
  1

 90
        0
  0
LAYOUT
  5
EA
102
{ACAD_REACTORS
330
1A
102
}
330
1A
100
AcDbPlotSettings
  1

  2
none_device
  4
ISO_A4_(210.00_x_297.00_MM)
  6

 40
7.5
 41
20.0
 42
7.5
 43
20.0
 44
210.0
 45
297.0
 46
0.0
 47
0.0
 48
0.0
 49
0.0
140
0.0
141
0.0
142
1.0
143
1.4871794872
 70
   688
 72
     1
 73
     1
 74
     1
  7

 75
     0
147
0.6724137931
148
89.7688501769
149
183.2834037924
100
AcDbLayout
  1
_Back
 70
     1
 71
     3
 10
0.0
 20
0.0
 11
0.0
 21
0.0
 12
0.0
 22
0.0
 32
0.0
 14
0.0
 24
0.0
 34
0.0
 15
0.0
 25
0.0
 35
0.0
146
0.0
 13
0.0
 23
0.0
 33
0.0
 16
1.0
 26
0.0
 36
0.0
 17
0.0
 27
1.0
 37
0.0
 76
     0
330
E9
331
277
  0
LAYOUT
  5
14B
102
{ACAD_REACTORS
330
1A
102
}
330
1A
100
AcDbPlotSettings
  1

  2
none_device
  4
ISO_A4_(210.00_x_297.00_MM)
  6

 40
7.5
 41
20.0
 42
7.5
 43
20.0
 44
210.0
 45
297.0
 46
0.0
 47
0.0
 48
0.0
 49
0.0
140
0.0
141
0.0
142
1.0
143
1.4871794872
 70
   688
 72
     1
 73
     1
 74
     1
  7

 75
     0
147
0.6724137931
148
89.7688501769
149
183.2834037924
100
AcDbLayout
  1
_Bottom
 70
     1
 71
     6
 10
0.0
 20
0.0
 11
0.0
 21
0.0
 12
0.0
 22
0.0
 32
0.0
 14
0.0
 24
0.0
 34
0.0
 15
0.0
 25
0.0
 35
0.0
146
0.0
 13
0.0
 23
0.0
 33
0.0
 16
1.0
 26
0.0
 36
0.0
 17
0.0
 27
1.0
 37
0.0
 76
     0
330
14A
331
27D
  0
LAYOUT
  5
215
102
{ACAD_REACTORS
330
1A
102
}
330
1A
100
AcDbPlotSettings
  1

  2
none_device
  4
ISO_A4_(210.00_x_297.00_MM)
  6

 40
7.5
 41
20.0
 42
7.5
 43
20.0
 44
210.0
 45
297.0
 46
0.0
 47
0.0
 48
0.0
 49
0.0
140
0.0
141
0.0
142
1.0
143
1.4871794872
 70
   688
 72
     1
 73
     1
 74
     1
  7

 75
     0
147
0.6724137931
148
89.7688501769
149
183.2834037924
100
AcDbLayout
  1
_Dimetric
 70
     1
 71
     9
 10
0.0
 20
0.0
 11
0.0
 21
0.0
 12
0.0
 22
0.0
 32
0.0
 14
0.0
 24
0.0
 34
0.0
 15
0.0
 25
0.0
 35
0.0
146
0.0
 13
0.0
 23
0.0
 33
0.0
 16
1.0
 26
0.0
 36
0.0
 17
0.0
 27
1.0
 37
0.0
 76
     0
330
214
331
283
  0
LAYOUT
  5
1E
102
{ACAD_REACTORS
330
1A
102
}
330
1A
100
AcDbPlotSettings
  1

  2
none_device
  4
ISO_A4_(210.00_x_297.00_MM)
  6

 40
7.5
 41
20.0
 42
7.5
 43
20.0
 44
210.0
 45
297.0
 46
0.0
 47
0.0
 48
0.0
 49
0.0
140
0.0
141
0.0
142
1.0
143
1.4871794872
 70
   688
 72
     1
 73
     1
 74
     1
  7

 75
     0
147
0.6724137931
148
89.7688501769
149
183.2834037924
100
AcDbLayout
  1
_Front
 70
     1
 71
     1
 10
-119.5124399205
 20
-194.4372499463
 11
322.1798677718
 21
117.8704423614
 12
0.0
 22
0.0
 32
0.0
 14
-89.7688501769
 24
-183.2834037924
 34
0.0
 15
90.2311498231
 25
106.7165962076
 35
0.0
146
0.0
 13
0.0
 23
0.0
 33
0.0
 16
1.0
 26
0.0
 36
0.0
 17
0.0
 27
1.0
 37
0.0
 76
     0
330
1B
331
273
  0
LAYOUT
  5
167
102
{ACAD_REACTORS
330
1A
102
}
330
1A
100
AcDbPlotSettings
  1

  2
none_device
  4
ISO_A4_(210.00_x_297.00_MM)
  6

 40
7.5
 41
20.0
 42
7.5
 43
20.0
 44
210.0
 45
297.0
 46
0.0
 47
0.0
 48
0.0
 49
0.0
140
0.0
141
0.0
142
1.0
143
1.4871794872
 70
   688
 72
     1
 73
     1
 74
     1
  7

 75
     0
147
0.6724137931
148
89.7688501769
149
183.2834037924
100
AcDbLayout
  1
_Isometric
 70
     1
 71
     7
 10
0.0
 20
0.0
 11
0.0
 21
0.0
 12
0.0
 22
0.0
 32
0.0
 14
0.0
 24
0.0
 34
0.0
 15
0.0
 25
0.0
 35
0.0
146
0.0
 13
0.0
 23
0.0
 33
0.0
 16
1.0
 26
0.0
 36
0.0
 17
0.0
 27
1.0
 37
0.0
 76
     0
330
166
331
27F
  0
LAYOUT
  5
113
102
{ACAD_REACTORS
330
1A
102
}
330
1A
100
AcDbPlotSettings
  1

  2
none_device
  4
ISO_A4_(210.00_x_297.00_MM)
  6

 40
7.5
 41
20.0
 42
7.5
 43
20.0
 44
210.0
 45
297.0
 46
0.0
 47
0.0
 48
0.0
 49
0.0
140
0.0
141
0.0
142
1.0
143
1.4871794872
 70
   688
 72
     1
 73
     1
 74
     1
  7

 75
     0
147
0.6724137931
148
89.7688501769
149
183.2834037924
100
AcDbLayout
  1
_Left
 70
     1
 71
     4
 10
0.0
 20
0.0
 11
0.0
 21
0.0
 12
0.0
 22
0.0
 32
0.0
 14
0.0
 24
0.0
 34
0.0
 15
0.0
 25
0.0
 35
0.0
146
0.0
 13
0.0
 23
0.0
 33
0.0
 16
1.0
 26
0.0
 36
0.0
 17
0.0
 27
1.0
 37
0.0
 76
     0
330
112
331
279
  0
LAYOUT
  5
12F
102
{ACAD_REACTORS
330
1A
102
}
330
1A
100
AcDbPlotSettings
  1

  2
none_device
  4
ISO_A4_(210.00_x_297.00_MM)
  6

 40
7.5
 41
20.0
 42
7.5
 43
20.0
 44
210.0
 45
297.0
 46
0.0
 47
0.0
 48
0.0
 49
0.0
140
0.0
141
0.0
142
1.0
143
1.4871794872
 70
   688
 72
     1
 73
     1
 74
     1
  7

 75
     0
147
0.6724137931
148
89.7688501769
149
183.2834037924
100
AcDbLayout
  1
_Right
 70
     1
 71
     5
 10
0.0
 20
0.0
 11
0.0
 21
0.0
 12
0.0
 22
0.0
 32
0.0
 14
0.0
 24
0.0
 34
0.0
 15
0.0
 25
0.0
 35
0.0
146
0.0
 13
0.0
 23
0.0
 33
0.0
 16
1.0
 26
0.0
 36
0.0
 17
0.0
 27
1.0
 37
0.0
 76
     0
330
12E
331
27B
  0
LAYOUT
  5
26
102
{ACAD_REACTORS
330
1A
102
}
330
1A
100
AcDbPlotSettings
  1

  2
none_device
  4
ISO_A4_(210.00_x_297.00_MM)
  6

 40
7.5
 41
20.0
 42
7.5
 43
20.0
 44
210.0
 45
297.0
 46
0.0
 47
0.0
 48
0.0
 49
0.0
140
0.0
141
0.0
142
1.0
143
1.4871794872
 70
   688
 72
     1
 73
     1
 74
     1
  7

 75
     0
147
0.6724137931
148
89.7688501769
149
183.2834037924
100
AcDbLayout
  1
_Top
 70
     1
 71
     2
 10
0.0
 20
0.0
 11
0.0
 21
0.0
 12
0.0
 22
0.0
 32
0.0
 14
0.0
 24
0.0
 34
0.0
 15
0.0
 25
0.0
 35
0.0
146
0.0
 13
0.0
 23
0.0
 33
0.0
 16
1.0
 26
0.0
 36
0.0
 17
0.0
 27
1.0
 37
0.0
 76
     0
330
23
331
275
  0
LAYOUT
  5
1BE
102
{ACAD_REACTORS
330
1A
102
}
330
1A
100
AcDbPlotSettings
  1

  2
none_device
  4
ISO_A4_(210.00_x_297.00_MM)
  6

 40
7.5
 41
20.0
 42
7.5
 43
20.0
 44
210.0
 45
297.0
 46
0.0
 47
0.0
 48
0.0
 49
0.0
140
0.0
141
0.0
142
1.0
143
1.4871794872
 70
   688
 72
     1
 73
     1
 74
     1
  7

 75
     0
147
0.6724137931
148
89.7688501769
149
183.2834037924
100
AcDbLayout
  1
_Trimetric
 70
     1
 71
     8
 10
0.0
 20
0.0
 11
0.0
 21
0.0
 12
0.0
 22
0.0
 32
0.0
 14
0.0
 24
0.0
 34
0.0
 15
0.0
 25
0.0
 35
0.0
146
0.0
 13
0.0
 23
0.0
 33
0.0
 16
1.0
 26
0.0
 36
0.0
 17
0.0
 27
1.0
 37
0.0
 76
     0
330
1BD
331
281
  0
LAYOUT
  5
22
102
{ACAD_REACTORS
330
1A
102
}
330
1A
100
AcDbPlotSettings
  1

  2
none_device
  4
ANSI_A_(11.00_x_8.50_Inches)
  6

 40
6.35
 41
19.05
 42
6.35000508
 43
19.05000254
 44
279.4
 45
215.9
 46
104.2539466707
 47
90.5144970687
 48
0.0
 49
0.0
140
0.0
141
0.0
142
0.0355221454
143
1.0
 70
  1696
 72
     0
 73
     0
 74
     0
  7

 75
     0
147
0.0179189148
148
-1300.4909072572
149
0.0
100
AcDbLayout
  1
Model
 70
     1
 71
     0
 10
0.0
 20
0.0
 11
420.0
 21
297.0
 12
0.0
 22
0.0
 32
0.0
 14
-121.0367825754
 24
-43.6077380828
 34
0.0
 15
185.5325385441
 25
40.0289606184
 35
0.0
146
0.0
 13
0.0
 23
0.0
 33
0.0
 16
1.0
 26
0.0
 36
0.0
 17
0.0
 27
1.0
 37
0.0
 76
     0
330
1F
331
29
  0
MLINESTYLE
  5
18
102
{ACAD_REACTORS
330
17
102
}
330
17
100
AcDbMlineStyle
  2
Standard
 70
     0
  3

 62
   256
 51
90.0
 52
90.0
 71
     2
 49
0.5
 62
   256
  6
BYLAYER
 49
-0.5
 62
   256
  6
BYLAYER
  0
ACDBPLACEHOLDER
  5
F
102
{ACAD_REACTORS
330
E
102
}
330
E
  0
SCALE
  5
48
102
{ACAD_REACTORS
330
47
102
}
330
47
100
AcDbScale
 70
     0
300
1:1
140
1.0
141
1.0
290
     1
  0
SCALE
  5
49
102
{ACAD_REACTORS
330
47
102
}
330
47
100
AcDbScale
 70
     0
300
1:2
140
1.0
141
2.0
290
     0
  0
SCALE
  5
4A
102
{ACAD_REACTORS
330
47
102
}
330
47
100
AcDbScale
 70
     0
300
1:4
140
1.0
141
4.0
290
     0
  0
SCALE
  5
4B
102
{ACAD_REACTORS
330
47
102
}
330
47
100
AcDbScale
 70
     0
300
1:5
140
1.0
141
5.0
290
     0
  0
SCALE
  5
4C
102
{ACAD_REACTORS
330
47
102
}
330
47
100
AcDbScale
 70
     0
300
1:8
140
1.0
141
8.0
290
     0
  0
SCALE
  5
4D
102
{ACAD_REACTORS
330
47
102
}
330
47
100
AcDbScale
 70
     0
300
1:10
140
1.0
141
10.0
290
     0
  0
SCALE
  5
4E
102
{ACAD_REACTORS
330
47
102
}
330
47
100
AcDbScale
 70
     0
300
1:16
140
1.0
141
16.0
290
     0
  0
SCALE
  5
4F
102
{ACAD_REACTORS
330
47
102
}
330
47
100
AcDbScale
 70
     0
300
1:20
140
1.0
141
20.0
290
     0
  0
SCALE
  5
50
102
{ACAD_REACTORS
330
47
102
}
330
47
100
AcDbScale
 70
     0
300
1:30
140
1.0
141
30.0
290
     0
  0
SCALE
  5
51
102
{ACAD_REACTORS
330
47
102
}
330
47
100
AcDbScale
 70
     0
300
1:40
140
1.0
141
40.0
290
     0
  0
SCALE
  5
52
102
{ACAD_REACTORS
330
47
102
}
330
47
100
AcDbScale
 70
     0
300
1:50
140
1.0
141
50.0
290
     0
  0
SCALE
  5
53
102
{ACAD_REACTORS
330
47
102
}
330
47
100
AcDbScale
 70
     0
300
1:100
140
1.0
141
100.0
290
     0
  0
SCALE
  5
54
102
{ACAD_REACTORS
330
47
102
}
330
47
100
AcDbScale
 70
     0
300
2:1
140
2.0
141
1.0
290
     0
  0
SCALE
  5
55
102
{ACAD_REACTORS
330
47
102
}
330
47
100
AcDbScale
 70
     0
300
4:1
140
4.0
141
1.0
290
     0
  0
SCALE
  5
56
102
{ACAD_REACTORS
330
47
102
}
330
47
100
AcDbScale
 70
     0
300
8:1
140
8.0
141
1.0
290
     0
  0
SCALE
  5
57
102
{ACAD_REACTORS
330
47
102
}
330
47
100
AcDbScale
 70
     0
300
10:1
140
10.0
141
1.0
290
     0
  0
SCALE
  5
58
102
{ACAD_REACTORS
330
47
102
}
330
47
100
AcDbScale
 70
     0
300
100:1
140
100.0
141
1.0
290
     0
  0
SCALE
  5
59
102
{ACAD_REACTORS
330
47
102
}
330
47
100
AcDbScale
 70
     0
300
1/128" = 1'-0"
140
0.0078125
141
12.0
290
     0
  0
SCALE
  5
5A
102
{ACAD_REACTORS
330
47
102
}
330
47
100
AcDbScale
 70
     0
300
1/64" = 1'-0"
140
0.015625
141
12.0
290
     0
  0
SCALE
  5
5B
102
{ACAD_REACTORS
330
47
102
}
330
47
100
AcDbScale
 70
     0
300
1/32" = 1'-0"
140
0.03125
141
12.0
290
     0
  0
SCALE
  5
5C
102
{ACAD_REACTORS
330
47
102
}
330
47
100
AcDbScale
 70
     0
300
1/16" = 1'-0"
140
0.0625
141
12.0
290
     0
  0
SCALE
  5
5D
102
{ACAD_REACTORS
330
47
102
}
330
47
100
AcDbScale
 70
     0
300
3/32" = 1'-0"
140
0.09375
141
12.0
290
     0
  0
SCALE
  5
5E
102
{ACAD_REACTORS
330
47
102
}
330
47
100
AcDbScale
 70
     0
300
1/8" = 1'-0"
140
0.125
141
12.0
290
     0
  0
SCALE
  5
5F
102
{ACAD_REACTORS
330
47
102
}
330
47
100
AcDbScale
 70
     0
300
3/16" = 1'-0"
140
0.1875
141
12.0
290
     0
  0
SCALE
  5
60
102
{ACAD_REACTORS
330
47
102
}
330
47
100
AcDbScale
 70
     0
300
1/4" = 1'-0"
140
0.25
141
12.0
290
     0
  0
SCALE
  5
61
102
{ACAD_REACTORS
330
47
102
}
330
47
100
AcDbScale
 70
     0
300
3/8" = 1'-0"
140
0.375
141
12.0
290
     0
  0
SCALE
  5
62
102
{ACAD_REACTORS
330
47
102
}
330
47
100
AcDbScale
 70
     0
300
1/2" = 1'-0"
140
0.5
141
12.0
290
     0
  0
SCALE
  5
63
102
{ACAD_REACTORS
330
47
102
}
330
47
100
AcDbScale
 70
     0
300
3/4" = 1'-0"
140
0.75
141
12.0
290
     0
  0
SCALE
  5
64
102
{ACAD_REACTORS
330
47
102
}
330
47
100
AcDbScale
 70
     0
300
1" = 1'-0"
140
1.0
141
12.0
290
     0
  0
SCALE
  5
65
102
{ACAD_REACTORS
330
47
102
}
330
47
100
AcDbScale
 70
     0
300
1-1/2" = 1'-0"
140
1.5
141
12.0
290
     0
  0
SCALE
  5
66
102
{ACAD_REACTORS
330
47
102
}
330
47
100
AcDbScale
 70
     0
300
3" = 1'-0"
140
3.0
141
12.0
290
     0
  0
SCALE
  5
67
102
{ACAD_REACTORS
330
47
102
}
330
47
100
AcDbScale
 70
     0
300
6" = 1'-0"
140
6.0
141
12.0
290
     0
  0
SCALE
  5
68
102
{ACAD_REACTORS
330
47
102
}
330
47
100
AcDbScale
 70
     0
300
1'-0" = 1'-0"
140
12.0
141
12.0
290
     0
  0
ENDSEC
  0
EOF
