  0
SECTION
  2
HEADER
  9
$ACADVER
  1
AC1015
  9
$ACADMAINTVER
 70
     6
  9
$DWGCODEPAGE
  3
ANSI_1252
  9
$INSBASE
 10
0.0
 20
0.0
 30
0.0
  9
$EXTMIN
 10
-14.0251814563
 20
-18.2841887909
 30
0.0
  9
$EXTMAX
 10
18.3705086836
 20
20.9078667862
 30
0.0
  9
$LIMMIN
 10
0.0
 20
0.0
  9
$LIMMAX
 10
420.0
 20
297.0
  9
$ORTHOMODE
 70
     0
  9
$REGENMODE
 70
     1
  9
$FILLMODE
 70
     1
  9
$QTEXTMODE
 70
     0
  9
$MIRRTEXT
 70
     1
  9
$LTSCALE
 40
1.0
  9
$ATTMODE
 70
     1
  9
$TEXTSIZE
 40
3.5
  9
$TRACEWID
 40
1.0
  9
$TEXTSTYLE
  7
Standard
  9
$CLAYER
  8
0
  9
$CELTYPE
  6
ByLayer
  9
$CECOLOR
 62
   256
  9
$CELTSCALE
 40
1.0
  9
$DISPSILH
 70
     0
  9
$DIMSCALE
 40
1.0
  9
$DIMASZ
 40
3.302
  9
$DIMEXO
 40
0.0
  9
$DIMDLI
 40
3.75
  9
$DIMRND
 40
0.0
  9
$DIMDLE
 40
0.0
  9
$DIMEXE
 40
1.0
  9
$DIMTP
 40
0.0
  9
$DIMTM
 40
0.0
  9
$DIMTXT
 40
3.5
  9
$DIMCEN
 40
2.5
  9
$DIMTSZ
 40
0.0
  9
$DIMTOL
 70
     0
  9
$DIMLIM
 70
     0
  9
$DIMTIH
 70
     1
  9
$DIMTOH
 70
     1
  9
$DIMSE1
 70
     0
  9
$DIMSE2
 70
     0
  9
$DIMTAD
 70
     1
  9
$DIMZIN
 70
     1
  9
$DIMBLK
  1

  9
$DIMASO
 70
     1
  9
$DIMSHO
 70
     1
  9
$DIMPOST
  1

  9
$DIMAPOST
  1

  9
$DIMALT
 70
     0
  9
$DIMALTD
 70
     3
  9
$DIMALTF
 40
0.0393700787
  9
$DIMLFAC
 40
1.0
  9
$DIMTOFL
 70
     1
  9
$DIMTVP
 40
0.0
  9
$DIMTIX
 70
     0
  9
$DIMSOXD
 70
     0
  9
$DIMSAH
 70
     0
  9
$DIMBLK1
  1

  9
$DIMBLK2
  1

  9
$DIMSTYLE
  2
ISO-25
  9
$DIMCLRD
 70
     0
  9
$DIMCLRE
 70
     0
  9
$DIMCLRT
 70
     0
  9
$DIMTFAC
 40
1.0
  9
$DIMGAP
 40
1.524
  9
$DIMJUST
 70
     0
  9
$DIMSD1
 70
     0
  9
$DIMSD2
 70
     0
  9
$DIMTOLJ
 70
     0
  9
$DIMTZIN
 70
     1
  9
$DIMALTZ
 70
     0
  9
$DIMALTTZ
 70
     0
  9
$DIMUPT
 70
     0
  9
$DIMDEC
 70
     2
  9
$DIMTDEC
 70
     2
  9
$DIMALTU
 70
     2
  9
$DIMALTTD
 70
     3
  9
$DIMTXSTY
  7
Standard
  9
$DIMAUNIT
 70
     0
  9
$DIMADEC
 70
     2
  9
$DIMALTRND
 40
0.0
  9
$DIMAZIN
 70
     0
  9
$DIMDSEP
 70
    44
  9
$DIMATFIT
 70
     3
  9
$DIMFRAC
 70
     0
  9
$DIMLDRBLK
  1

  9
$DIMLUNIT
 70
     2
  9
$DIMLWD
 70
    -2
  9
$DIMLWE
 70
    -2
  9
$DIMTMOVE
 70
     0
  9
$LUNITS
 70
     2
  9
$LUPREC
 70
     2
  9
$SKETCHINC
 40
1.0
  9
$FILLETRAD
 40
10.0
  9
$AUNITS
 70
     0
  9
$AUPREC
 70
     2
  9
$MENU
  1
.
  9
$ELEVATION
 40
0.0
  9
$PELEVATION
 40
0.0
  9
$THICKNESS
 40
0.0
  9
$LIMCHECK
 70
     0
  9
$CHAMFERA
 40
0.0
  9
$CHAMFERB
 40
0.0
  9
$CHAMFERC
 40
0.0
  9
$CHAMFERD
 40
0.0
  9
$SKPOLY
 70
     0
  9
$TDCREATE
 40
2459700.121986667
  9
$TDUCREATE
 40
2459700.038653333
  9
$TDUPDATE
 40
2459700.122032755
  9
$TDUUPDATE
 40
2459700.038699421
  9
$TDINDWG
 40
0.0000000116
  9
$TDUSRTIMER
 40
0.0000000116
  9
$USRTIMER
 70
     1
  9
$ANGBASE
 50
0.0
  9
$ANGDIR
 70
     0
  9
$PDMODE
 70
     0
  9
$PDSIZE
 40
-1.0
  9
$PLINEWID
 40
0.0
  9
$SPLFRAME
 70
     0
  9
$SPLINETYPE
 70
     6
  9
$SPLINESEGS
 70
     8
  9
$HANDSEED
  5
14A
  9
$SURFTAB1
 70
     6
  9
$SURFTAB2
 70
     6
  9
$SURFTYPE
 70
     6
  9
$SURFU
 70
     6
  9
$SURFV
 70
     6
  9
$UCSBASE
  2

  9
$UCSNAME
  2

  9
$UCSORG
 10
0.0
 20
0.0
 30
0.0
  9
$UCSXDIR
 10
1.0
 20
0.0
 30
0.0
  9
$UCSYDIR
 10
0.0
 20
1.0
 30
0.0
  9
$UCSORTHOREF
  2

  9
$UCSORTHOVIEW
 70
     0
  9
$UCSORGTOP
 10
0.0
 20
0.0
 30
0.0
  9
$UCSORGBOTTOM
 10
0.0
 20
0.0
 30
0.0
  9
$UCSORGLEFT
 10
0.0
 20
0.0
 30
0.0
  9
$UCSORGRIGHT
 10
0.0
 20
0.0
 30
0.0
  9
$UCSORGFRONT
 10
0.0
 20
0.0
 30
0.0
  9
$UCSORGBACK
 10
0.0
 20
0.0
 30
0.0
  9
$PUCSBASE
  2

  9
$PUCSNAME
  2

  9
$PUCSORG
 10
0.0
 20
0.0
 30
0.0
  9
$PUCSXDIR
 10
1.0
 20
0.0
 30
0.0
  9
$PUCSYDIR
 10
0.0
 20
1.0
 30
0.0
  9
$PUCSORTHOREF
  2

  9
$PUCSORTHOVIEW
 70
     0
  9
$PUCSORGTOP
 10
0.0
 20
0.0
 30
0.0
  9
$PUCSORGBOTTOM
 10
0.0
 20
0.0
 30
0.0
  9
$PUCSORGLEFT
 10
0.0
 20
0.0
 30
0.0
  9
$PUCSORGRIGHT
 10
0.0
 20
0.0
 30
0.0
  9
$PUCSORGFRONT
 10
0.0
 20
0.0
 30
0.0
  9
$PUCSORGBACK
 10
0.0
 20
0.0
 30
0.0
  9
$USERI1
 70
     0
  9
$USERI2
 70
     0
  9
$USERI3
 70
     0
  9
$USERI4
 70
     0
  9
$USERI5
 70
     0
  9
$USERR1
 40
0.0
  9
$USERR2
 40
0.0
  9
$USERR3
 40
0.0
  9
$USERR4
 40
0.0
  9
$USERR5
 40
0.0
  9
$WORLDVIEW
 70
     1
  9
$SHADEDGE
 70
     3
  9
$SHADEDIF
 70
    70
  9
$TILEMODE
 70
     1
  9
$MAXACTVP
 70
    64
  9
$PINSBASE
 10
0.0
 20
0.0
 30
0.0
  9
$PLIMCHECK
 70
     0
  9
$PEXTMIN
 10
-20.33
 20
-6.0
 30
0.0
  9
$PEXTMAX
 10
20.33
 20
0.0
 30
0.0
  9
$PLIMMIN
 10
-23.4942023346
 20
-7.1865758755
  9
$PLIMMAX
 10
23.4942023346
 20
26.0375486381
  9
$UNITMODE
 70
     0
  9
$VISRETAIN
 70
     1
  9
$PLINEGEN
 70
     0
  9
$PSLTSCALE
 70
     1
  9
$TREEDEPTH
 70
  3020
  9
$CMLSTYLE
  2
Standard
  9
$CMLJUST
 70
     0
  9
$CMLSCALE
 40
20.0
  9
$PROXYGRAPHICS
 70
     1
  9
$MEASUREMENT
 70
     1
  9
$CELWEIGHT
370
    -1
  9
$ENDCAPS
280
     0
  9
$JOINSTYLE
280
     0
  9
$LWDISPLAY
290
     1
  9
$INSUNITS
 70
     4
  9
$HYPERLINKBASE
  1

  9
$STYLESHEET
  1

  9
$XEDIT
290
     1
  9
$CEPSNTYPE
380
     0
  9
$PSTYLEMODE
290
     1
  9
$FINGERPRINTGUID
  2
{87928f42-e61c-4f55-8e4c-37c6d3f9aee8}
  9
$VERSIONGUID
  2
{FAEB1C32-E019-11D5-929B-00C0DF256EC4}
  9
$EXTNAMES
290
     1
  9
$PSVPSCALE
 40
0.0
  9
$OLESTARTUP
290
     0
  0
ENDSEC
  0
SECTION
  2
CLASSES
  0
CLASS
  1
ACDBDICTIONARYWDFLT
  2
AcDbDictionaryWithDefault
  3
ObjectDBX Classes
 90
        0
280
     0
281
     0
  0
CLASS
  1
VISUALSTYLE
  2
AcDbVisualStyle
  3
ObjectDBX Classes
 90
     4095
280
     0
281
     0
  0
CLASS
  1
MATERIAL
  2
AcDbMaterial
  3
ObjectDBX Classes
 90
     1153
280
     0
281
     0
  0
CLASS
  1
SCALE
  2
AcDbScale
  3
ObjectDBX Classes
 90
     1153
280
     0
281
     0
  0
CLASS
  1
TABLESTYLE
  2
AcDbTableStyle
  3
ObjectDBX Classes
 90
     4095
280
     0
281
     0
  0
CLASS
  1
MLEADERSTYLE
  2
AcDbMLeaderStyle
  3
ACDB_MLEADERSTYLE_CLASS
 90
     4095
280
     0
281
     0
  0
CLASS
  1
SUN
  2
AcDbSun
  3
SCENEOE
 90
     1153
280
     0
281
     0
  0
CLASS
  1
ACDBPLACEHOLDER
  2
AcDbPlaceHolder
  3
ObjectDBX Classes
 90
        0
280
     0
281
     0
  0
CLASS
  1
LAYOUT
  2
AcDbLayout
  3
ObjectDBX Classes
 90
        0
280
     0
281
     0
  0
ENDSEC
  0
SECTION
  2
TABLES
  0
TABLE
  2
VPORT
  5
8
330
0
100
AcDbSymbolTable
 70
     1
  0
VPORT
  5
29
330
8
100
AcDbSymbolTableRecord
100
AcDbViewportTableRecord
  2
*Active
 70
     0
 10
0.0
 20
0.0
 11
1.0
 21
1.0
 12
2.1726636137
 22
1.3118389977
 13
0.0
 23
0.0
 14
10.0
 24
10.0
 15
10.0
 25
10.0
 16
0.0
 26
0.0
 36
1.0
 17
0.0
 27
0.0
 37
0.0
 40
39.9758966886
 41
0.8265881864
 42
50.0
 43
0.0
 44
0.0
 50
0.0
 51
0.0
 71
     0
 72
   100
 73
     1
 74
     3
 75
     0
 76
     0
 77
     0
 78
     0
281
     0
 65
     1
110
0.0
120
0.0
130
0.0
111
1.0
121
0.0
131
0.0
112
0.0
122
1.0
132
0.0
 79
     0
146
0.0
  0
ENDTAB
  0
TABLE
  2
LTYPE
  5
5
330
0
100
AcDbSymbolTable
 70
     6
  0
LTYPE
  5
14
330
5
100
AcDbSymbolTableRecord
100
AcDbLinetypeTableRecord
  2
ByBlock
 70
     0
  3

 72
    65
 73
     0
 40
0.0
  0
LTYPE
  5
15
330
5
100
AcDbSymbolTableRecord
100
AcDbLinetypeTableRecord
  2
ByLayer
 70
     0
  3

 72
    65
 73
     0
 40
0.0
  0
LTYPE
  5
16
330
5
100
AcDbSymbolTableRecord
100
AcDbLinetypeTableRecord
  2
Continuous
 70
     0
  3
Solid line
 72
    65
 73
     0
 40
0.0
  0
LTYPE
  5
6E
330
5
100
AcDbSymbolTableRecord
100
AcDbLinetypeTableRecord
  2
HIDDEN
 70
     0
  3
Hidden __ __ __ __ __ __ __ __ __ __ __ __ __ __
 72
    65
 73
     2
 40
1.905
 49
1.27
 74
     0
 49
-0.635
 74
     0
  0
LTYPE
  5
6F
330
5
100
AcDbSymbolTableRecord
100
AcDbLinetypeTableRecord
  2
PHANTOM
 70
     0
  3
Phantom ______  __  __  ______  __  __  ______
 72
    65
 73
     6
 40
12.7
 49
6.35
 74
     0
 49
-1.27
 74
     0
 49
1.27
 74
     0
 49
-1.27
 74
     0
 49
1.27
 74
     0
 49
-1.27
 74
     0
  0
LTYPE
  5
70
330
5
100
AcDbSymbolTableRecord
100
AcDbLinetypeTableRecord
  2
CENTER
 70
     0
  3
Center ____ _ ____ _ ____ _ ____ _ ____ _ ____
 72
    65
 73
     4
 40
10.16
 49
6.35
 74
     0
 49
-1.27
 74
     0
 49
1.27
 74
     0
 49
-1.27
 74
     0
  0
LTYPE
  5
71
330
5
100
AcDbSymbolTableRecord
100
AcDbLinetypeTableRecord
  2
CENTERX2
 70
     0
  3
Center (2x) ________  __  ________  __  _____
 72
    65
 73
     4
 40
20.32
 49
12.7
 74
     0
 49
-2.54
 74
     0
 49
2.54
 74
     0
 49
-2.54
 74
     0
  0
LTYPE
  5
72
330
5
100
AcDbSymbolTableRecord
100
AcDbLinetypeTableRecord
  2
DOT2
 70
     0
  3
Dot (.5x) ........................................
 72
    65
 73
     2
 40
0.635
 49
0.0
 74
     0
 49
-0.635
 74
     0
  0
ENDTAB
  0
TABLE
  2
LAYER
  5
2
330
0
100
AcDbSymbolTable
 70
     1
  0
LAYER
  5
10
330
2
100
AcDbSymbolTableRecord
100
AcDbLayerTableRecord
  2
0
 70
     0
 62
     7
  6
Continuous
370
    -3
390
F
  0
ENDTAB
  0
TABLE
  2
STYLE
  5
3
330
0
100
AcDbSymbolTable
 70
     2
  0
STYLE
  5
11
330
3
100
AcDbSymbolTableRecord
100
AcDbTextStyleTableRecord
  2
Standard
 70
     0
 40
0.0
 41
1.0
 50
0.0
 71
     0
 42
3.5
  3
txt
  4

  0
STYLE
  5
134
330
3
100
AcDbSymbolTableRecord
100
AcDbTextStyleTableRecord
  2
SLDTEXTSTYLE0
 70
     0
 40
0.0
 41
0.7
 50
0.0
 71
     0
 42
3.5
  3
TXT
  4

  0
ENDTAB
  0
TABLE
  2
VIEW
  5
6
330
0
100
AcDbSymbolTable
 70
     0
  0
ENDTAB
  0
TABLE
  2
UCS
  5
7
330
0
100
AcDbSymbolTable
 70
     0
  0
ENDTAB
  0
TABLE
  2
APPID
  5
9
330
0
100
AcDbSymbolTable
 70
     1
  0
APPID
  5
12
330
9
100
AcDbSymbolTableRecord
100
AcDbRegAppTableRecord
  2
ACAD
 70
     0
  0
ENDTAB
  0
TABLE
  2
DIMSTYLE
  5
A
330
0
100
AcDbSymbolTable
 70
     1
100
AcDbDimStyleTable
  0
DIMSTYLE
105
27
330
A
100
AcDbSymbolTableRecord
100
AcDbDimStyleTableRecord
  2
ISO-25
 70
     0
 41
2.5
 42
0.625
 43
3.75
 44
1.25
 73
     0
 74
     0
 77
     1
 78
     8
140
2.5
141
2.5
143
0.0393700787
147
0.625
171
     3
172
     1
178
     0
271
     2
272
     2
274
     3
278
    44
283
     0
284
     8
340
11
  0
ENDTAB
  0
TABLE
  2
BLOCK_RECORD
  5
1
330
0
100
AcDbSymbolTable
 70
     8
  0
BLOCK_RECORD
  5
1F
330
1
100
AcDbSymbolTableRecord
100
AcDbBlockTableRecord
  2
*Model_Space
340
22
  0
BLOCK_RECORD
  5
1B
330
1
100
AcDbSymbolTableRecord
100
AcDbBlockTableRecord
  2
*Paper_Space
340
1E
  0
BLOCK_RECORD
  5
23
330
1
100
AcDbSymbolTableRecord
100
AcDbBlockTableRecord
  2
*Paper_Space0
340
26
  0
BLOCK_RECORD
  5
98
330
1
100
AcDbSymbolTableRecord
100
AcDbBlockTableRecord
  2
*Paper_Space1
340
99
  0
BLOCK_RECORD
  5
A4
330
1
100
AcDbSymbolTableRecord
100
AcDbBlockTableRecord
  2
*Paper_Space2
340
A5
  0
BLOCK_RECORD
  5
B0
330
1
100
AcDbSymbolTableRecord
100
AcDbBlockTableRecord
  2
*Paper_Space3
340
B1
  0
BLOCK_RECORD
  5
C0
330
1
100
AcDbSymbolTableRecord
100
AcDbBlockTableRecord
  2
*Paper_Space4
340
C1
  0
BLOCK_RECORD
  5
D4
330
1
100
AcDbSymbolTableRecord
100
AcDbBlockTableRecord
  2
*Paper_Space5
340
D5
  0
BLOCK_RECORD
  5
EE
330
1
100
AcDbSymbolTableRecord
100
AcDbBlockTableRecord
  2
*Paper_Space6
340
EF
  0
BLOCK_RECORD
  5
108
330
1
100
AcDbSymbolTableRecord
100
AcDbBlockTableRecord
  2
*Paper_Space7
340
109
  0
ENDTAB
  0
ENDSEC
  0
SECTION
  2
BLOCKS
  0
BLOCK
  5
20
330
1F
100
AcDbEntity
  8
0
100
AcDbBlockBegin
  2
*Model_Space
 70
     0
 10
0.0
 20
0.0
 30
0.0
  3
*Model_Space
  1

  0
ENDBLK
  5
21
330
1F
100
AcDbEntity
  8
0
100
AcDbBlockEnd
  0
BLOCK
  5
1C
330
1B
100
AcDbEntity
 67
     1
  8
0
100
AcDbBlockBegin
  2
*Paper_Space
 70
     0
 10
0.0
 20
0.0
 30
0.0
  3
*Paper_Space
  1

  0
ENDBLK
  5
1D
330
1B
100
AcDbEntity
 67
     1
  8
0
100
AcDbBlockEnd
  0
BLOCK
  5
24
330
23
100
AcDbEntity
  8
0
100
AcDbBlockBegin
  2
*Paper_Space0
 70
     0
 10
0.0
 20
0.0
 30
0.0
  3
*Paper_Space0
  1

  0
LINE
  5
94
330
23
100
AcDbEntity
  8
0
  6
Continuous
 62
     7
370
    25
100
AcDbLine
 10
-3.6137290164
 20
-20.0062455897
 30
0.0
 11
-3.6137290164
 21
-16.9490372174
 31
0.0
  0
LINE
  5
95
330
23
100
AcDbEntity
  8
0
  6
Continuous
 62
     7
370
    25
100
AcDbLine
 10
2.3722024831
 20
-20.191125659
 30
0.0
 11
2.3722024831
 21
-17.16687378
 31
0.0
  0
ARC
  5
96
330
23
100
AcDbEntity
  8
0
  6
Continuous
 62
     7
370
    25
100
AcDbCircle
 10
0.0
 20
0.0
 30
0.0
 40
17.32999999999999
100
AcDbArc
 50
277.867585844
 51
257.9641037406
  0
ARC
  5
97
330
23
100
AcDbEntity
  8
0
  6
Continuous
 62
     7
370
    25
100
AcDbCircle
 10
0.0
 20
0.0
 30
0.0
 40
20.33000000000007
100
AcDbArc
 50
276.7008127025
 51
259.7610641716
  0
VIEWPORT
  5
124
330
23
100
AcDbEntity
  8
0
100
AcDbViewport
 10
0.0
 20
0.0
 30
0.0
 40
205.6
 41
156.0
 68
     1
 69
     1
 12
2.1726636137
 22
1.3118389977
 13
0.0
 23
0.0
 14
10.0
 24
10.0
 15
10.0
 25
10.0
 16
0.0
 26
0.0
 36
1.0
 17
0.0
 27
0.0
 37
0.0
 42
50.0
 43
0.0
 44
0.0
 45
39.9758966886
 50
0.0
 51
0.0
 72
   100
 90
   557152
  1

281
     0
 71
     1
 74
     0
110
0.0
120
0.0
130
0.0
111
1.0
121
0.0
131
0.0
112
0.0
122
1.0
132
0.0
 79
     0
146
0.0
  0
MTEXT
  5
139
330
23
100
AcDbEntity
  8
0
  6
Continuous
 62
     7
100
AcDbMText
 10
-20.33
 20
-21.2106920507
 30
0.0
 40
4.83362
 41
0.0
 71
     1
 72
     1
  1
SOLIDWORKS Educational Product.
  7
SLDTEXTSTYLE0
 73
     1
 44
1.0
  0
MTEXT
  5
13A
330
23
100
AcDbEntity
  8
0
  6
Continuous
 62
     7
100
AcDbMText
 10
-20.33
 20
-28.4611220507
 30
0.0
 40
4.83362
 41
0.0
 71
     1
 72
     1
  1
For Instructional Use Only.
  7
SLDTEXTSTYLE0
 73
     1
 44
1.0
  0
ENDBLK
  5
25
330
23
100
AcDbEntity
  8
0
100
AcDbBlockEnd
  0
BLOCK
  5
9A
330
98
100
AcDbEntity
  8
0
100
AcDbBlockBegin
  2
*Paper_Space1
 70
     0
 10
0.0
 20
0.0
 30
0.0
  3
*Paper_Space1
  1

  0
LINE
  5
A0
330
98
100
AcDbEntity
  8
0
  6
Continuous
 62
     7
370
    25
100
AcDbLine
 10
3.6137290164
 20
-20.0062455897
 30
0.0
 11
3.6137290164
 21
-16.9490372174
 31
0.0
  0
LINE
  5
A1
330
98
100
AcDbEntity
  8
0
  6
Continuous
 62
     7
370
    25
100
AcDbLine
 10
-2.3722024831
 20
-20.191125659
 30
0.0
 11
-2.3722024831
 21
-17.16687378
 31
0.0
  0
ARC
  5
A2
330
98
100
AcDbEntity
  8
0
  6
Continuous
 62
     7
370
    25
100
AcDbCircle
 10
0.0
 20
0.0
 30
0.0
 40
17.33
100
AcDbArc
 50
282.0358962594
 51
262.132414156
  0
ARC
  5
A3
330
98
100
AcDbEntity
  8
0
  6
Continuous
 62
     7
370
    25
100
AcDbCircle
 10
0.0
 20
0.0
 30
0.0
 40
20.33000000000007
100
AcDbArc
 50
280.2389358284
 51
263.2991872975
  0
VIEWPORT
  5
126
330
98
100
AcDbEntity
  8
0
100
AcDbViewport
 10
0.0
 20
0.0
 30
0.0
 40
205.6
 41
156.0
 68
     1
 69
     1
 12
2.1726636137
 22
1.3118389977
 13
0.0
 23
0.0
 14
10.0
 24
10.0
 15
10.0
 25
10.0
 16
0.0
 26
0.0
 36
1.0
 17
0.0
 27
0.0
 37
0.0
 42
50.0
 43
0.0
 44
0.0
 45
39.9758966886
 50
0.0
 51
0.0
 72
   100
 90
   557152
  1

281
     0
 71
     1
 74
     0
110
0.0
120
0.0
130
0.0
111
1.0
121
0.0
131
0.0
112
0.0
122
1.0
132
0.0
 79
     0
146
0.0
  0
MTEXT
  5
13B
330
98
100
AcDbEntity
  8
0
  6
Continuous
 62
     7
100
AcDbMText
 10
-20.33
 20
-21.2106920507
 30
0.0
 40
4.83362
 41
0.0
 71
     1
 72
     1
  1
SOLIDWORKS Educational Product.
  7
SLDTEXTSTYLE0
 73
     1
 44
1.0
  0
MTEXT
  5
13C
330
98
100
AcDbEntity
  8
0
  6
Continuous
 62
     7
100
AcDbMText
 10
-20.33
 20
-28.4611220507
 30
0.0
 40
4.83362
 41
0.0
 71
     1
 72
     1
  1
For Instructional Use Only.
  7
SLDTEXTSTYLE0
 73
     1
 44
1.0
  0
ENDBLK
  5
9B
330
98
100
AcDbEntity
  8
0
100
AcDbBlockEnd
  0
BLOCK
  5
A6
330
A4
100
AcDbEntity
  8
0
100
AcDbBlockBegin
  2
*Paper_Space2
 70
     0
 10
0.0
 20
0.0
 30
0.0
  3
*Paper_Space2
  1

  0
LINE
  5
AC
330
A4
100
AcDbEntity
  8
0
  6
Continuous
 62
     7
370
    25
100
AcDbLine
 10
6.0
 20
20.33
 30
0.0
 11
0.0
 21
20.33
 31
0.0
  0
LINE
  5
AD
330
A4
100
AcDbEntity
  8
0
  6
Continuous
 62
     7
370
    25
100
AcDbLine
 10
6.0
 20
20.33
 30
0.0
 11
6.0
 21
-20.191125659
 31
0.0
  0
LINE
  5
AE
330
A4
100
AcDbEntity
  8
0
  6
Continuous
 62
     7
370
    25
100
AcDbLine
 10
0.0
 20
-20.191125659
 30
0.0
 11
6.0
 21
-20.191125659
 31
0.0
  0
LINE
  5
AF
330
A4
100
AcDbEntity
  8
0
  6
Continuous
 62
     7
370
    25
100
AcDbLine
 10
0.0
 20
20.33
 30
0.0
 11
0.0
 21
-20.191125659
 31
0.0
  0
VIEWPORT
  5
128
330
A4
100
AcDbEntity
  8
0
100
AcDbViewport
 10
0.0
 20
0.0
 30
0.0
 40
205.6
 41
156.0
 68
     1
 69
     1
 12
2.1726636137
 22
1.3118389977
 13
0.0
 23
0.0
 14
10.0
 24
10.0
 15
10.0
 25
10.0
 16
0.0
 26
0.0
 36
1.0
 17
0.0
 27
0.0
 37
0.0
 42
50.0
 43
0.0
 44
0.0
 45
39.9758966886
 50
0.0
 51
0.0
 72
   100
 90
   557152
  1

281
     0
 71
     1
 74
     0
110
0.0
120
0.0
130
0.0
111
1.0
121
0.0
131
0.0
112
0.0
122
1.0
132
0.0
 79
     0
146
0.0
  0
MTEXT
  5
13D
330
A4
100
AcDbEntity
  8
0
  6
Continuous
 62
     7
100
AcDbMText
 10
0.0
 20
-21.2106920507
 30
0.0
 40
4.83362
 41
0.0
 71
     1
 72
     1
  1
SOLIDWORKS Educational Product.
  7
SLDTEXTSTYLE0
 73
     1
 44
1.0
  0
MTEXT
  5
13E
330
A4
100
AcDbEntity
  8
0
  6
Continuous
 62
     7
100
AcDbMText
 10
0.0
 20
-28.4611220507
 30
0.0
 40
4.83362
 41
0.0
 71
     1
 72
     1
  1
For Instructional Use Only.
  7
SLDTEXTSTYLE0
 73
     1
 44
1.0
  0
ENDBLK
  5
A7
330
A4
100
AcDbEntity
  8
0
100
AcDbBlockEnd
  0
BLOCK
  5
B2
330
B0
100
AcDbEntity
  8
0
100
AcDbBlockBegin
  2
*Paper_Space3
 70
     0
 10
0.0
 20
0.0
 30
0.0
  3
*Paper_Space3
  1

  0
LINE
  5
BB
330
B0
100
AcDbEntity
  8
0
  6
Continuous
 62
     7
370
    25
100
AcDbLine
 10
0.0
 20
20.33
 30
0.0
 11
-6.0
 21
20.33
 31
0.0
  0
LINE
  5
BC
330
B0
100
AcDbEntity
  8
0
  6
Continuous
 62
     7
370
    25
100
AcDbLine
 10
-6.0
 20
-20.0062455897
 30
0.0
 11
0.0
 21
-20.0062455897
 31
0.0
  0
LINE
  5
BD
330
B0
100
AcDbEntity
  8
0
  6
Continuous
 62
     7
370
    25
100
AcDbLine
 10
-6.0
 20
-20.191125659
 30
0.0
 11
-6.0
 21
20.33
 31
0.0
  0
LINE
  5
BE
330
B0
100
AcDbEntity
  8
0
  6
Continuous
 62
     7
370
    25
100
AcDbLine
 10
0.0
 20
-20.191125659
 30
0.0
 11
-6.0
 21
-20.191125659
 31
0.0
  0
LINE
  5
BF
330
B0
100
AcDbEntity
  8
0
  6
Continuous
 62
     7
370
    25
100
AcDbLine
 10
0.0
 20
-20.191125659
 30
0.0
 11
0.0
 21
20.33
 31
0.0
  0
VIEWPORT
  5
12A
330
B0
100
AcDbEntity
  8
0
100
AcDbViewport
 10
0.0
 20
0.0
 30
0.0
 40
205.6
 41
156.0
 68
     1
 69
     1
 12
2.1726636137
 22
1.3118389977
 13
0.0
 23
0.0
 14
10.0
 24
10.0
 15
10.0
 25
10.0
 16
0.0
 26
0.0
 36
1.0
 17
0.0
 27
0.0
 37
0.0
 42
50.0
 43
0.0
 44
0.0
 45
39.9758966886
 50
0.0
 51
0.0
 72
   100
 90
   557152
  1

281
     0
 71
     1
 74
     0
110
0.0
120
0.0
130
0.0
111
1.0
121
0.0
131
0.0
112
0.0
122
1.0
132
0.0
 79
     0
146
0.0
  0
MTEXT
  5
13F
330
B0
100
AcDbEntity
  8
0
  6
Continuous
 62
     7
100
AcDbMText
 10
-6.0
 20
-21.2106920507
 30
0.0
 40
4.83362
 41
0.0
 71
     1
 72
     1
  1
SOLIDWORKS Educational Product.
  7
SLDTEXTSTYLE0
 73
     1
 44
1.0
  0
MTEXT
  5
140
330
B0
100
AcDbEntity
  8
0
  6
Continuous
 62
     7
100
AcDbMText
 10
-6.0
 20
-28.4611220507
 30
0.0
 40
4.83362
 41
0.0
 71
     1
 72
     1
  1
For Instructional Use Only.
  7
SLDTEXTSTYLE0
 73
     1
 44
1.0
  0
ENDBLK
  5
B3
330
B0
100
AcDbEntity
  8
0
100
AcDbBlockEnd
  0
BLOCK
  5
C2
330
C0
100
AcDbEntity
  8
0
100
AcDbBlockBegin
  2
*Paper_Space4
 70
     0
 10
0.0
 20
0.0
 30
0.0
  3
*Paper_Space4
  1

  0
LINE
  5
CE
330
C0
100
AcDbEntity
  8
0
  6
Continuous
 62
     7
370
    25
100
AcDbLine
 10
20.33
 20
0.0
 30
0.0
 11
20.33
 21
6.0
 31
0.0
  0
LINE
  5
CF
330
C0
100
AcDbEntity
  8
0
  6
Continuous
 62
     7
370
    25
100
AcDbLine
 10
-20.33
 20
6.0
 30
0.0
 11
-20.33
 21
0.0
 31
0.0
  0
LINE
  5
D0
330
C0
100
AcDbEntity
  8
0
  6
Continuous
 62
     7
370
    25
100
AcDbLine
 10
3.6137290164
 20
6.0
 30
0.0
 11
3.6137290164
 21
0.0
 31
0.0
  0
LINE
  5
D1
330
C0
100
AcDbEntity
  8
0
  6
Continuous
 62
     7
370
    25
100
AcDbLine
 10
-20.33
 20
6.0
 30
0.0
 11
20.33
 21
6.0
 31
0.0
  0
LINE
  5
D2
330
C0
100
AcDbEntity
  8
0
  6
Continuous
 62
     7
370
    25
100
AcDbLine
 10
-2.3722024831
 20
0.0
 30
0.0
 11
-2.3722024831
 21
6.0
 31
0.0
  0
LINE
  5
D3
330
C0
100
AcDbEntity
  8
0
  6
Continuous
 62
     7
370
    25
100
AcDbLine
 10
-20.33
 20
0.0
 30
0.0
 11
20.33
 21
0.0
 31
0.0
  0
VIEWPORT
  5
12C
330
C0
100
AcDbEntity
  8
0
100
AcDbViewport
 10
0.0
 20
0.0
 30
0.0
 40
205.6
 41
156.0
 68
     1
 69
     1
 12
2.1726636137
 22
1.3118389977
 13
0.0
 23
0.0
 14
10.0
 24
10.0
 15
10.0
 25
10.0
 16
0.0
 26
0.0
 36
1.0
 17
0.0
 27
0.0
 37
0.0
 42
50.0
 43
0.0
 44
0.0
 45
39.9758966886
 50
0.0
 51
0.0
 72
   100
 90
   557152
  1

281
     0
 71
     1
 74
     0
110
0.0
120
0.0
130
0.0
111
1.0
121
0.0
131
0.0
112
0.0
122
1.0
132
0.0
 79
     0
146
0.0
  0
MTEXT
  5
141
330
C0
100
AcDbEntity
  8
0
  6
Continuous
 62
     7
100
AcDbMText
 10
-20.33
 20
-1.0195663917
 30
0.0
 40
4.83362
 41
0.0
 71
     1
 72
     1
  1
SOLIDWORKS Educational Product.
  7
SLDTEXTSTYLE0
 73
     1
 44
1.0
  0
MTEXT
  5
142
330
C0
100
AcDbEntity
  8
0
  6
Continuous
 62
     7
100
AcDbMText
 10
-20.33
 20
-8.2699963917
 30
0.0
 40
4.83362
 41
0.0
 71
     1
 72
     1
  1
For Instructional Use Only.
  7
SLDTEXTSTYLE0
 73
     1
 44
1.0
  0
ENDBLK
  5
C3
330
C0
100
AcDbEntity
  8
0
100
AcDbBlockEnd
  0
BLOCK
  5
D6
330
D4
100
AcDbEntity
  8
0
100
AcDbBlockBegin
  2
*Paper_Space5
 70
     0
 10
0.0
 20
0.0
 30
0.0
  3
*Paper_Space5
  1

  0
LWPOLYLINE
  5
DA
330
D4
100
AcDbEntity
  8
0
  6
Continuous
 62
     7
370
    25
100
AcDbPolyline
 90
      137
 70
   128
 43
0.0
 10
-1.6873483943
 20
-20.2602791935
 10
-1.0672100501
 20
-20.4725801985
 10
-0.4532256026
 20
-20.6499524384
 10
0.1534150633
 20
-20.792052171
 10
0.7515362948
 20
-20.8986040108
 10
1.3399789495
 20
-20.9694014633
 10
1.9176026418
 20
-21.004307325
 10
2.4832879531
 20
-21.0032539493
 10
3.0359386007
 20
-20.9662433777
 10
3.5744835631
 20
-20.8933473355
 10
4.097879155
 20
-20.7847070934
 10
4.6051110502
 20
-20.640533193
 10
5.0951962474
 20
-20.4611050394
 10
5.567184975
 20
-20.2467703595
 10
6.020162532
 20
-19.9979445278
 10
6.4532510602
 20
-19.715109762
 10
6.8656112463
 20
-19.398814188
 10
7.2564439475
 20
-19.0496707779
 10
7.6249917408
 20
-18.6683561619
 10
7.9705403909
 20
-18.2556093173
 10
8.292420234
 20
-17.812230136
 10
8.590007476
 20
-17.3390778745
 10
8.8627254008
 20
-16.8370694889
 10
9.1100454889
 20
-16.3071778575
 10
9.3314884406
 20
-15.7504298957
 10
9.5266251057
 20
-15.1679045656
 10
9.6950773147
 20
-14.5607307851
 10
9.8365186119
 20
-13.9300852403
 10
9.950674888
 20
-13.2771901047
 10
10.0373249112
 20
-12.6033106711
 10
10.0963007562
 20
-11.9097528991
 10
10.1274881295
 20
-11.1978608846
 10
10.1308265908
 20
-10.4690142545
 10
10.1063096702
 20
-9.7246254935
 10
10.053984881
 20
-8.9661372063
 10
9.9739536269
 20
-8.1950193224
 10
9.8663710065
 20
-7.4127662467
 10
9.7314455118
 20
-6.6208939642
 10
9.5694386248
 20
-5.8209371014
 10
9.3806643102
 20
-5.0144459525
 10
9.1654884076
 20
-4.2029834751
 10
8.9243279218
 20
-3.3881222611
 10
8.6576502151
 20
-2.5714414888
 10
8.3659721017
 20
-1.7545238631
 10
8.0498588456
 20
-0.9389525477
 10
7.7099230655
 20
-0.1263080972
 10
7.3468235476
 20
0.6818346059
 10
6.9612639688
 20
1.4839094034
 10
6.5539915327
 20
2.2783618966
 10
6.1257955222
 20
3.0636524585
 10
5.6775057692
 20
3.8382592176
 10
5.2099910468
 20
4.6006810077
 10
4.7241573858
 20
5.3494402763
 10
4.2209463181
 20
6.0830859486
 10
3.7013330531
 20
6.8001962397
 10
3.1663245868
 20
7.4993814097
 10
2.6169577508
 20
8.1792864571
 10
2.0542972029
 20
8.8385937446
 10
1.4794333635
 20
9.4760255531
 10
0.893480303
 20
10.0903465572
 10
0.2975735821
 20
10.68036622
 10
-0.3071319484
 20
11.2449410996
 10
-0.9194643859
 20
11.7829770655
 10
-1.5382370471
 20
12.2934314189
 10
-2.1622507678
 20
12.7753149134
 10
-2.7902962265
 20
13.2276936721
 10
-3.4211562887
 20
13.6496909975
 10
-4.0536083648
 20
14.0404890705
 10
-4.6864267804
 20
14.3993305352
 10
-5.3183851508
 20
14.7255199668
 10
-5.9482587582
 20
15.0184252192
 10
-6.574826925
 20
15.2774786501
 10
-7.1968753794
 20
15.5021782211
 10
-7.8131986087
 20
15.6920884707
 10
-8.4226021955
 20
15.8468413581
 10
-9.0239051326
 20
15.9661369765
 10
-9.6159421115
 20
16.0497441342
 10
-10.197565781
 20
16.0975008029
 10
-10.7676489704
 20
16.1093144315
 10
-11.3250868743
 20
16.0851621256
 10
-11.8687991934
 20
16.0250906915
 10
-12.3977322284
 20
15.9292165461
 10
-12.9108609217
 20
15.7977254909
 10
-13.407190844
 20
15.6308723518
 10
-13.8857601217
 20
15.4289804856
 10
-14.3456413008
 20
15.1924411532
 10
-14.7859431443
 20
14.9217127612
 10
-15.2058123593
 20
14.6173199739
 10
-15.604435251
 20
14.2798526959
 10
-15.9810392992
 20
13.9099649295
 10
-16.3348946558
 20
13.5083735071
 10
-16.6653155587
 20
13.0758567016
 10
-16.9716616616
 20
12.6132527186
 10
-17.253339274
 20
12.1214580719
 10
-17.5098025125
 20
11.6014258459
 10
-17.7405543586
 20
11.0541638486
 10
-17.9451476214
 20
10.4807326587
 10
-18.123185805
 20
9.88224357
 10
-18.2743238763
 20
9.2598564376
 10
-18.3982689338
 20
8.6147774308
 10
-18.4947807755
 20
7.9482566946
 10
-18.5636723641
 20
7.261585928
 10
-18.6048101895
 20
6.5560958797
 10
-18.6181145279
 20
5.8331537701
 10
-18.6035595958
 20
5.0941606409
 10
-18.5611736002
 20
4.3405486403
 10
-18.491038684
 20
3.5737782476
 10
-18.3932907668
 20
2.7953354426
 10
-18.2681192813
 20
2.0067288258
 10
-18.1157668064
 20
1.2094866951
 10
-17.936528597
 20
0.4051540837
 10
-17.7307520117
 20
-0.4047102341
 10
-17.4988358399
 20
-1.2185367637
 10
-17.2412295287
 20
-2.0347483317
 10
-16.9584323121
 20
-2.8517631428
 10
-16.6509922431
 20
-3.6679978448
 10
-16.3195051322
 20
-4.4818705974
 10
-15.9646133922
 20
-5.2918041379
 10
-15.5870047934
 20
-6.0962288373
 10
-15.1874111309
 20
-6.8935857429
 10
-14.7666068061
 20
-7.6823295992
 10
-14.3254073262
 20
-8.4609318422
 10
-13.8646677236
 20
-9.2278835624
 10
-13.3852808988
 20
-9.9816984286
 10
-12.8881758903
 20
-10.7209155685
 10
-12.3743160738
 20
-11.4441023996
 10
-11.8446972954
 20
-12.149857406
 10
-11.3003459417
 20
-12.8368128538
 10
-10.7423169505
 20
-13.5036374426
 10
-10.1716917665
 20
-14.1490388847
 10
-9.5895762456
 20
-14.7717664099
 10
-8.9970985116
 20
-15.3706131896
 10
-8.3954067698
 20
-15.9444186752
 10
-7.7856670823
 20
-16.4920708476
 10
-7.1690611077
 20
-17.0125083721
 10
-6.5467838113
 20
-17.5047226551
 10
-5.9200411493
 20
-17.9677597989
  0
LWPOLYLINE
  5
DC
330
D4
100
AcDbEntity
  8
0
  6
Continuous
 62
     7
370
    25
100
AcDbPolyline
 90
       74
 70
   128
 43
0.0
 10
10.1641739172
 20
-17.6067733722
 10
10.2628032191
 20
-17.5487201923
 10
10.6958917474
 20
-17.2658854265
 10
11.1082519334
 20
-16.9495898525
 10
11.4990846346
 20
-16.6004464424
 10
11.8676324279
 20
-16.2191318265
 10
12.213181078
 20
-15.8063849818
 10
12.5350609212
 20
-15.3630058005
 10
12.8326481631
 20
-14.889853539
 10
13.105366088
 20
-14.3878451535
 10
13.352686176
 20
-13.8579535221
 10
13.5741291277
 20
-13.3012055603
 10
13.7692657928
 20
-12.7186802301
 10
13.9377180018
 20
-12.1115064496
 10
14.079159299
 20
-11.4808609048
 10
14.1933155751
 20
-10.8279657692
 10
14.2799655983
 20
-10.1540863356
 10
14.3389414433
 20
-9.4605285636
 10
14.3701288166
 20
-8.7486365491
 10
14.3734672779
 20
-8.019789919
 10
14.3489503574
 20
-7.275401158
 10
14.2966255681
 20
-6.5169128709
 10
14.216594314
 20
-5.7457949869
 10
14.1090116936
 20
-4.9635419113
 10
13.9740861989
 20
-4.1716696287
 10
13.8120793119
 20
-3.3717127659
 10
13.6233049974
 20
-2.5652216171
 10
13.4081290947
 20
-1.7537591397
 10
13.1669686089
 20
-0.9388979256
 10
12.9002909022
 20
-0.1222171534
 10
12.6086127888
 20
0.6947004724
 10
12.2924995327
 20
1.5102717878
 10
11.9525637526
 20
2.3229162383
 10
11.5894642348
 20
3.1310589414
 10
11.2039046559
 20
3.9331337389
 10
10.7966322198
 20
4.7275862321
 10
10.3684362093
 20
5.5128767939
 10
9.9201464563
 20
6.2874835531
 10
9.4526317339
 20
7.0499053432
 10
8.9667980729
 20
7.7986646117
 10
8.4635870053
 20
8.5323102841
 10
7.9439737402
 20
9.2494205752
 10
7.4089652739
 20
9.9486057452
 10
6.8595984379
 20
10.6285107926
 10
6.29693789
 20
11.2878180801
 10
5.7220740506
 20
11.9252498886
 10
5.1361209901
 20
12.5395708927
 10
4.5402142692
 20
13.1295905555
 10
3.9355087388
 20
13.694165435
 10
3.3231763012
 20
14.2322014009
 10
2.70440364
 20
14.7426557543
 10
2.0803899193
 20
15.2245392488
 10
1.4523444606
 20
15.6769180076
 10
0.8214843985
 20
16.098915333
 10
0.1890323223
 20
16.489713406
 10
-0.4437860933
 20
16.8485548707
 10
-1.0757444637
 20
17.1747443023
 10
-1.7056180711
 20
17.4676495547
 10
-2.3321862379
 20
17.7267029856
 10
-2.9542346922
 20
17.9514025566
 10
-3.5705579215
 20
18.1413128062
 10
-4.1799615084
 20
18.2960656936
 10
-4.7812644455
 20
18.415361312
 10
-5.3733014244
 20
18.4989684697
 10
-5.9549250939
 20
18.5467251384
 10
-6.5250082833
 20
18.558538767
 10
-7.0824461872
 20
18.534386461
 10
-7.6261585063
 20
18.474315027
 10
-8.1550915413
 20
18.3784408816
 10
-8.6682202346
 20
18.2469498263
 10
-9.1645501569
 20
18.0800966872
 10
-9.6431194346
 20
17.8782048211
 10
-10.1030006137
 20
17.6416654887
 10
-10.1641739172
 20
17.6067733722
  0
LWPOLYLINE
  5
DE
330
D4
100
AcDbEntity
  8
0
  6
Continuous
 62
     7
370
    25
100
AcDbPolyline
 90
      125
 70
   128
 43
0.0
 10
-1.6873483943
 20
-17.7639437871
 10
-1.1167905799
 20
-17.9362692804
 10
-0.5533942154
 20
-18.0731133237
 10
0.0015499354
 20
-18.1741624015
 10
0.5467704727
 20
-18.2391850063
 10
1.0810182742
 20
-18.2680321687
 10
1.6030693564
 20
-18.2606377987
 10
2.111727679
 20
-18.2170188371
 10
2.6058278851
 20
-18.1372752167
 10
3.0842379711
 20
-18.0215896333
 10
3.5458618799
 20
-17.8702271274
 10
3.9896420124
 20
-17.6835344766
 10
4.4145616503
 20
-17.4619394013
 10
4.8196472853
 20
-17.205949585
 10
5.2039708498
 20
-16.9161515106
 10
5.5666518429
 20
-16.5932091175
 10
5.9068593477
 20
-16.2378622796
 10
6.2238139349
 20
-15.8509251112
 10
6.5167894487
 20
-15.4332841009
 10
6.7851146703
 20
-14.9858960814
 10
7.0281748555
 20
-14.5097860368
 10
7.2454131438
 20
-14.0060447546
 10
7.4363318332
 20
-13.4758263265
 10
7.6004935214
 20
-12.9203455046
 10
7.7375221072
 20
-12.3408749181
 10
7.8471036526
 20
-11.7387421575
 10
7.9289871018
 20
-11.1153267336
 10
7.9829848564
 20
-10.4720569165
 10
8.0089732054
 20
-9.8104064635
 10
8.0068926084
 20
-9.1318912427
 10
7.9767478323
 20
-8.4380657601
 10
7.9186079398
 20
-7.7305195981
 10
7.8326061318
 20
-7.0108737737
 10
7.7189394421
 20
-6.2807770249
 10
7.5778682855
 20
-5.5419020329
 10
7.4097158619
 20
-4.7959415905
 10
7.2148674153
 20
-4.0446047234
 10
6.9937693514
 20
-3.2896127749
 10
6.7469282149
 20
-2.5326954622
 10
6.4749095289
 20
-1.7755869139
 10
6.1783364992
 20
-1.0200216962
 10
5.8578885868
 20
-0.26773084
 10
5.5142999507
 20
0.4795621258
 10
5.1483577667
 20
1.2201451227
 10
4.7609004231
 20
1.9523214449
 10
4.3528156004
 20
2.6744136466
 10
3.9250382376
 20
3.3847673852
 10
3.4785483901
 20
4.0817552113
 10
3.0143689842
 20
4.7637802976
 10
2.5335634738
 20
5.4292800967
 10
2.037233404
 20
6.0767299216
 10
1.5265158871
 20
6.7046464384
 10
1.0025809977
 20
7.3115910647
 10
0.466629092
 20
7.8961732658
 10
-0.0801119423
 20
8.4570537401
 10
-0.6363894994
 20
8.9929474874
 10
-1.2009291247
 20
9.5026267536
 10
-1.772437435
 20
9.9849238425
 10
-2.3496050814
 20
10.438733792
 10
-2.9311097494
 20
10.8630169051
 10
-3.5156191882
 20
11.2568011317
 10
-4.1017942628
 20
11.6191842963
 10
-4.6882920223
 20
11.9493361643
 10
-5.2737687765
 20
12.2465003443
 10
-5.8568831743
 20
12.509996021
 10
-6.4362992768
 20
12.7392195152
 10
-7.0106896182
 20
12.9336456665
 10
-7.5787382469
 20
13.0928290367
 10
-8.1391437404
 20
13.2164049303
 10
-8.6906221868
 20
13.3040902297
 10
-9.2319101266
 20
13.3556840444
 10
-9.761767447
 20
13.3710681709
 10
-10.2789802235
 20
13.3502073635
 10
-10.7823635005
 20
13.2931494152
 10
-11.2707640065
 20
13.2000250481
 10
-11.7430627959
 20
13.0710476139
 10
-12.1981778131
 20
12.9065126051
 10
-12.635066371
 20
12.7067969781
 10
-13.0527275401
 20
12.4723582896
 10
-13.4502044418
 20
12.2037336481
 10
-13.8265864403
 20
11.9015384837
 10
-14.181011229
 20
11.5664651376
 10
-14.5126668065
 20
11.1992812767
 10
-14.8207933362
 20
10.8008281341
 10
-15.1046848878
 20
10.372018582
 10
-15.3636910541
 20
9.9138350408
 10
-15.5972184415
 20
9.4273272275
 10
-15.8047320292
 20
8.9136097512
 10
-15.9857563952
 20
8.3738595597
 10
-16.1398768053
 20
7.8093132426
 10
-16.2667401633
 20
7.2212641985
 10
-16.3660558201
 20
6.6110596717
 10
-16.4375962396
 20
5.9800976655
 10
-16.4811975196
 20
5.3298237396
 10
-16.496759768
 20
4.661727698
 10
-16.4842473309
 20
3.977340176
 10
-16.4436888749
 20
3.2782291332
 10
-16.375177321
 20
2.5659962614
 10
-16.278869632
 20
1.8422733152
 10
-16.1549864527
 20
1.1087183732
 10
-16.0038116046
 20
0.3670120397
 10
-15.8256914353
 20
-0.3811464059
 10
-15.6210340254
 20
-1.1340429022
 10
-15.3903082533
 20
-1.8899525327
 10
-15.1340427213
 20
-2.6471434777
 10
-14.8528245441
 20
-3.4038809818
 10
-14.5472980038
 20
-4.1584313288
 10
-14.2181630744
 20
-4.9090658129
 10
-13.8661738172
 20
-5.6540647001
 10
-13.4921366541
 20
-6.3917211677
 10
-13.0969085193
 20
-7.1203452146
 10
-12.6813948967
 20
-7.8382675334
 10
-12.2465477448
 20
-8.5438433351
 10
-11.7933633161
 20
-9.2354561166
 10
-11.3228798746
 20
-9.9115213649
 10
-10.836175317
 20
-10.5704901871
 10
-10.3343647034
 20
-11.2108528588
 10
-9.8185977021
 20
-11.831142283
 10
-9.2900559564
 20
-12.4299373515
 10
-8.7499503769
 20
-13.0058662003
 10
-8.1995183675
 20
-13.557609353
 10
-7.6400209904
 20
-14.0839027437
 10
-7.0727400767
 20
-14.5835406126
 10
-6.4989752902
 20
-15.0553782693
 10
-5.9200411493
 20
-15.4983347143
  0
LWPOLYLINE
  5
E2
330
D4
100
AcDbEntity
  8
0
  6
Continuous
 62
     7
370
    25
100
AcDbPolyline
 90
       43
 70
   128
 43
0.0
 10
-10.5220039195
 20
13.3273753422
 10
-10.5781526491
 20
13.2500524695
 10
-10.8620442006
 20
12.8212429175
 10
-11.1210503669
 20
12.3630593763
 10
-11.3545777543
 20
11.8765515629
 10
-11.5620913421
 20
11.3628340867
 10
-11.7431157081
 20
10.8230838952
 10
-11.8972361181
 20
10.2585375781
 10
-12.0240994761
 20
9.670488534
 10
-12.123415133
 20
9.0602840071
 10
-12.1949555525
 20
8.4293220009
 10
-12.2385568325
 20
7.7790480751
 10
-12.2541190809
 20
7.1109520335
 10
-12.2416066438
 20
6.4265645115
 10
-12.2010481878
 20
5.7274534687
 10
-12.1325366339
 20
5.0152205969
 10
-12.0362289449
 20
4.2914976506
 10
-11.9123457656
 20
3.5579427087
 10
-11.7611709174
 20
2.8162363752
 10
-11.5830507481
 20
2.0680779295
 10
-11.3783933383
 20
1.3151814332
 10
-11.1476675662
 20
0.5592718027
 10
-10.8914020342
 20
-0.1979191422
 10
-10.6101838569
 20
-0.9546566464
 10
-10.3046573167
 20
-1.7092069933
 10
-9.9755223873
 20
-2.4598414774
 10
-9.6235331301
 20
-3.2048403647
 10
-9.249495967
 20
-3.9424968322
 10
-8.8542678322
 20
-4.6711208791
 10
-8.4387542096
 20
-5.389043198
 10
-8.0039070576
 20
-6.0946189996
 10
-7.550722629
 20
-6.7862317811
 10
-7.0802391875
 20
-7.4622970295
 10
-6.5935346299
 20
-8.1212658517
 10
-6.0917240162
 20
-8.7616285234
 10
-5.575957015
 20
-9.3819179476
 10
-5.0474152693
 20
-9.980713016
 10
-4.5073096898
 20
-10.5566418648
 10
-3.9568776804
 20
-11.1083850175
 10
-3.3973803033
 20
-11.6346784082
 10
-2.8300993896
 20
-12.1343162772
 10
-2.2563346031
 20
-12.6061539338
 10
-1.6774004622
 20
-13.0491103788
  0
LINE
  5
E5
330
D4
100
AcDbEntity
  8
0
  6
Continuous
 62
     7
370
    25
100
AcDbLine
 10
-10.1641739172
 20
17.6067733722
 30
0.0
 11
-14.4068146044
 21
15.1575490367
 31
0.0
  0
LINE
  5
E6
330
D4
100
AcDbEntity
  8
0
  6
Continuous
 62
     7
370
    25
100
AcDbLine
 10
5.9215332301
 20
-20.0559977077
 30
0.0
 11
10.1641739172
 21
-17.6067733722
 31
0.0
  0
LINE
  5
E7
330
D4
100
AcDbEntity
  8
0
  6
Continuous
 62
     7
370
    25
100
AcDbLine
 10
-1.6774004622
 20
-15.5185354635
 30
0.0
 11
-5.9200411493
 21
-17.9677597989
 31
0.0
  0
LINE
  5
E8
330
D4
100
AcDbEntity
  8
0
  6
Continuous
 62
     7
370
    25
100
AcDbLine
 10
-1.6873483943
 20
-20.2602791935
 30
0.0
 11
-1.6873483943
 21
-17.7639437871
 31
0.0
  0
LINE
  5
E9
330
D4
100
AcDbEntity
  8
0
  6
Continuous
 62
     7
370
    25
100
AcDbLine
 10
-5.9200411493
 20
-17.9677597989
 30
0.0
 11
-5.9200411493
 21
-15.4983347143
 31
0.0
  0
LINE
  5
EA
330
D4
100
AcDbEntity
  8
0
  6
Continuous
 62
     7
370
    25
100
AcDbLine
 10
2.5552922928
 20
-15.3147194516
 30
0.0
 11
-1.6873483943
 21
-17.7639437871
 31
0.0
  0
LINE
  5
EB
330
D4
100
AcDbEntity
  8
0
  6
Continuous
 62
     7
370
    25
100
AcDbLine
 10
-5.9200411493
 20
-15.4983347143
 30
0.0
 11
-1.6774004622
 21
-13.0491103788
 31
0.0
  0
LINE
  5
EC
330
D4
100
AcDbEntity
  8
0
  6
Continuous
 62
     7
370
    25
100
AcDbLine
 10
-1.6774004622
 20
-15.5185354635
 30
0.0
 11
-1.6774004622
 21
-13.0491103788
 31
0.0
  0
ARC
  5
ED
330
D4
100
AcDbEntity
  8
0
  6
Continuous
 62
     7
370
    25
100
AcDbCircle
 10
5.4588254236
 20
-7.1482202412
 30
0.0
 40
8.667307194005645
100
AcDbArc
 50
250.4275657462
 51
275.43235208
  0
VIEWPORT
  5
12E
330
D4
100
AcDbEntity
  8
0
100
AcDbViewport
 10
0.0
 20
0.0
 30
0.0
 40
205.6
 41
156.0
 68
     1
 69
     1
 12
2.1726636137
 22
1.3118389977
 13
0.0
 23
0.0
 14
10.0
 24
10.0
 15
10.0
 25
10.0
 16
0.0
 26
0.0
 36
1.0
 17
0.0
 27
0.0
 37
0.0
 42
50.0
 43
0.0
 44
0.0
 45
39.9758966886
 50
0.0
 51
0.0
 72
   100
 90
   557152
  1

281
     0
 71
     1
 74
     0
110
0.0
120
0.0
130
0.0
111
1.0
121
0.0
131
0.0
112
0.0
122
1.0
132
0.0
 79
     0
146
0.0
  0
MTEXT
  5
143
330
D4
100
AcDbEntity
  8
0
  6
Continuous
 62
     7
100
AcDbMText
 10
-18.6181145279
 20
-22.0238737167
 30
0.0
 40
4.83362
 41
0.0
 71
     1
 72
     1
  1
SOLIDWORKS Educational Product.
  7
SLDTEXTSTYLE0
 73
     1
 44
1.0
  0
MTEXT
  5
144
330
D4
100
AcDbEntity
  8
0
  6
Continuous
 62
     7
100
AcDbMText
 10
-18.6181145279
 20
-29.2743037167
 30
0.0
 40
4.83362
 41
0.0
 71
     1
 72
     1
  1
For Instructional Use Only.
  7
SLDTEXTSTYLE0
 73
     1
 44
1.0
  0
ENDBLK
  5
D7
330
D4
100
AcDbEntity
  8
0
100
AcDbBlockEnd
  0
BLOCK
  5
F0
330
EE
100
AcDbEntity
  8
0
100
AcDbBlockBegin
  2
*Paper_Space6
 70
     0
 10
0.0
 20
0.0
 30
0.0
  3
*Paper_Space6
  1

  0
LWPOLYLINE
  5
F4
330
EE
100
AcDbEntity
  8
0
  6
Continuous
 62
     7
370
    25
100
AcDbPolyline
 90
      137
 70
   128
 43
0.0
 10
0.3958750953
 20
-20.7503707783
 10
1.1715169137
 20
-20.8082272865
 10
1.9394617082
 20
-20.831054609
 10
2.6982212231
 20
-20.8188085073
 10
3.4463250034
 20
-20.7715127138
 10
4.1823232448
 20
-20.6892588866
 10
4.9047896029
 20
-20.5722064313
 10
5.612323958
 20
-20.4205821922
 10
6.3035551281
 20
-20.2346800131
 10
6.9771435262
 20
-20.0148601671
 10
7.6317837568
 20
-19.7615486591
 10
8.2662071452
 20
-19.4752363997
 10
8.8791841963
 20
-19.1564782541
 10
9.4695269777
 20
-18.8058919669
 10
10.0360914213
 20
-18.4241569646
 10
10.5777795409
 20
-18.0120130389
 10
11.0935415601
 20
-17.5702589136
 10
11.5823779461
 20
-17.0997506957
 10
12.0433413477
 20
-16.6014002173
 10
12.4755384305
 20
-16.0761732677
 10
12.8781316086
 20
-15.5250877223
 10
13.2503406674
 20
-14.9492115697
 10
13.5914442762
 20
-14.3496608417
 10
13.9007813856
 20
-13.7275974512
 10
14.1777525089
 20
-13.0842269399
 10
14.4218208835
 20
-12.4207961418
 10
14.6325135119
 20
-11.7385907677
 10
14.8094220775
 20
-11.0389329126
 10
14.9522037364
 20
-10.323178494
 10
15.0605817818
 20
-9.5927146243
 10
15.1343461798
 20
-8.8489569223
 10
15.1733539773
 20
-8.0933467696
 10
15.1775295781
 20
-7.327348518
 10
15.1468648901
 20
-6.5524466508
 10
15.0814193406
 20
-5.7701429064
 10
14.9813197613
 20
-4.9819533679
 10
14.8467601422
 20
-4.1894055246
 10
14.6780012564
 20
-3.3940353125
 10
14.4753701538
 20
-2.597384137
 10
14.2392595279
 20
-1.800995886
 10
13.9701269545
 20
-1.0064139379
 10
13.6684940052
 20
-0.2151781706
 10
13.3349452362
 20
0.571178023
 10
12.9701270559
 20
1.3511307062
 10
12.5747464717
 20
2.1231683525
 10
12.1495697204
 20
2.8857947741
 10
11.6954207826
 20
3.6375320222
 10
11.2131797864
 20
4.3769232508
 10
10.7037813017
 20
5.1025355402
 10
10.1682125284
 20
5.8129626737
 10
9.6075113842
 20
6.5068278634
 10
9.0227644922
 20
7.1827864176
 10
8.4151050758
 20
7.8395283474
 10
7.7857107622
 20
8.475780905
 10
7.1358013
 20
9.0903110508
 10
6.4666361959
 20
9.6819278421
 10
5.7795122733
 20
10.2494847421
 10
5.0757611593
 20
10.7918818411
 10
4.3567467041
 20
11.3080679887
 10
3.6238623379
 20
11.7970428303
 10
2.8785283703
 20
12.2578587463
 10
2.1221892378
 20
12.6896226881
 10
1.3563107048
 20
13.0914979091
 10
0.5823770227
 20
13.4627055864
 10
-0.1981119464
 20
13.8025263297
 10
-0.9836436366
 20
14.1103015758
 10
-1.7726957091
 20
14.3854348647
 10
-2.5637390029
 20
14.6273929959
 10
-3.355240498
 20
14.8357070611
 10
-4.1456662863
 20
15.0099733534
 10
-4.9334845445
 20
15.1498541496
 10
-5.7171685027
 20
15.2550783646
 10
-6.4951994031
 20
15.3254420768
 10
-7.2660694432
 20
15.3608089231
 10
-8.0282846984
 20
15.3611103638
 10
-8.7803680164
 20
15.3263458145
 10
-9.5208618807
 20
15.256582648
 10
-10.2483312346
 20
15.1519560634
 10
-10.9613662626
 20
15.0126688241
 10
-11.6585851227
 20
14.838990865
 10
-12.3386366239
 20
14.6312587691
 10
-13.0002028452
 20
14.3898751154
 10
-13.6420016897
 20
14.1153076989
 10
-14.2627893689
 20
13.8080886235
 10
-14.8613628134
 20
13.4688132714
 10
-15.4365620046
 20
13.0981391487
 10
-15.9872722222
 20
12.6967846117
 10
-16.5124262051
 20
12.2655274744
 10
-17.0110062195
 20
11.8052035011
 10
-17.4820460311
 20
11.316704787
 10
-17.9246327777
 20
10.8009780291
 10
-18.3379087384
 20
10.2590226915
 10
-18.721072996
 20
9.6918890687
 10
-19.0733829887
 20
9.10067625
 10
-19.3941559493
 20
8.4865299895
 10
-19.682770229
 20
7.8506404855
 10
-19.938666501
 20
7.1942400745
 10
-20.1613488456
 20
6.5186008421
 10
-20.3503857106
 20
5.8250321586
 10
-20.5054107476
 20
5.1148781408
 10
-20.6261235226
 20
4.3895150476
 10
-20.7122900974
 20
3.6503486127
 10
-20.7637434836
 20
2.89881132
 10
-20.780383966
 20
2.1363596281
 10
-20.7621792959
 20
1.3644711473
 10
-20.7091647532
 20
0.584641776
 10
-20.6214430788
 20
-0.201617198
 10
-20.4991842749
 20
-0.9927820265
 10
-20.3426252755
 20
-1.787319454
 10
-20.1520694878
 20
-2.583689689
 10
-19.9278862036
 20
-3.380349388
 10
-19.6705098838
 20
-4.1757546465
 10
-19.3804393167
 20
-4.9683639911
 10
-19.0582366509
 20
-5.7566413669
 10
-18.7045263064
 20
-6.5390591142
 10
-18.319993764
 20
-7.3141009289
 10
-17.9053842371
 20
-8.0802648015
 10
-17.4615012276
 20
-8.8360659276
 10
-16.9892049683
 20
-9.5800395856
 10
-16.4894107564
 20
-10.3107439751
 10
-15.9630871793
 20
-11.0267630111
 10
-15.4112542374
 20
-11.7267090687
 10
-14.8349813677
 20
-12.4092256717
 10
-14.2353853712
 20
-13.0729901218
 10
-13.6136282482
 20
-13.7167160619
 10
-12.9709149469
 20
-14.3391559689
 10
-12.3084910279
 20
-14.9391035716
 10
-11.6276402503
 20
-15.515396188
 10
-10.9296820842
 20
-16.0669169791
 10
-10.2159691531
 20
-16.5925971128
 10
-9.487884613
 20
-17.0914178355
 10
-8.7468394715
 20
-17.5624124464
 10
-7.9942698537
 20
-18.0046681712
 10
-7.2316342187
 20
-18.4173279303
 10
-6.4604105331
 20
-18.7995920007
 10
-5.6820934072
 20
-19.150719565
 10
-4.898191198
 20
-19.4700301479
  0
LWPOLYLINE
  5
F6
330
EE
100
AcDbEntity
  8
0
  6
Continuous
 62
     7
370
    25
100
AcDbPolyline
 90
       73
 70
   128
 43
0.0
 10
14.2000609654
 20
-14.5487858112
 10
14.3825502797
 20
-14.3666966549
 10
14.8435136813
 20
-13.8683461765
 10
15.2757107641
 20
-13.3431192269
 10
15.6783039422
 20
-12.7920336815
 10
16.050513001
 20
-12.2161575288
 10
16.3916166098
 20
-11.6166068009
 10
16.7009537192
 20
-10.9945434104
 10
16.9779248424
 20
-10.351172899
 10
17.2219932171
 20
-9.687742101
 10
17.4326858455
 20
-9.0055367269
 10
17.6095944111
 20
-8.3058788718
 10
17.75237607
 20
-7.5901244532
 10
17.8607541153
 20
-6.8596605835
 10
17.9345185134
 20
-6.1159028814
 10
17.9735263109
 20
-5.3602927288
 10
17.9777019117
 20
-4.5942944772
 10
17.9470372237
 20
-3.81939261
 10
17.8815916742
 20
-3.0370888656
 10
17.7814920948
 20
-2.248899327
 10
17.6469324758
 20
-1.4563514838
 10
17.47817359
 20
-0.6609812717
 10
17.2755424874
 20
0.1356699038
 10
17.0394318615
 20
0.9320581548
 10
16.7702992881
 20
1.7266401029
 10
16.4686663388
 20
2.5178758702
 10
16.1351175698
 20
3.3042320638
 10
15.7702993895
 20
4.0841847471
 10
15.3749188053
 20
4.8562223933
 10
14.9497420539
 20
5.618848815
 10
14.4955931161
 20
6.3705860631
 10
14.01335212
 20
7.1099772917
 10
13.5039536352
 20
7.835589581
 10
12.968384862
 20
8.5460167146
 10
12.4076837177
 20
9.2398819042
 10
11.8229368258
 20
9.9158404584
 10
11.2152774094
 20
10.5725823882
 10
10.5858830957
 20
11.2088349459
 10
9.9359736336
 20
11.8233650916
 10
9.2668085295
 20
12.4149818829
 10
8.5796846068
 20
12.9825387829
 10
7.8759334929
 20
13.524935882
 10
7.1569190377
 20
14.0411220295
 10
6.4240346715
 20
14.5300968712
 10
5.6787007038
 20
14.9909127871
 10
4.9223615714
 20
15.4226767289
 10
4.1564830384
 20
15.82455195
 10
3.3825493563
 20
16.1957596272
 10
2.6020603872
 20
16.5355803705
 10
1.816528697
 20
16.8433556166
 10
1.0274766245
 20
17.1184889056
 10
0.2364333307
 20
17.3604470367
 10
-0.5550681644
 20
17.5687611019
 10
-1.3454939527
 20
17.7430273942
 10
-2.1333122109
 20
17.8829081905
 10
-2.9169961691
 20
17.9881324054
 10
-3.6950270695
 20
18.0584961176
 10
-4.4658971096
 20
18.093862964
 10
-5.2281123648
 20
18.0941644046
 10
-5.9801956828
 20
18.0593998553
 10
-6.7206895471
 20
17.9896366888
 10
-7.448158901
 20
17.8850101042
 10
-8.161193929
 20
17.7457228649
 10
-8.8584127891
 20
17.5720449058
 10
-9.5384642903
 20
17.3643128099
 10
-10.2000305116
 20
17.1229291562
 10
-10.8418293561
 20
16.8483617397
 10
-11.4626170353
 20
16.5411426643
 10
-12.0611904798
 20
16.2018673122
 10
-12.636389671
 20
15.8311931895
 10
-13.1870998886
 20
15.4298386526
 10
-13.7122538716
 20
14.9985815152
 10
-14.2000609654
 20
14.5487858112
  0
LWPOLYLINE
  5
F8
330
EE
100
AcDbEntity
  8
0
  6
Continuous
 62
     7
370
    25
100
AcDbPolyline
 90
      125
 70
   128
 43
0.0
 10
0.3958750953
 20
-18.1298317301
 10
1.1095037634
 20
-18.1589162363
 10
1.8141752045
 20
-18.1526594646
 10
2.5082749876
 20
-18.1110757493
 10
3.1902129019
 20
-18.0342603606
 10
3.8584265998
 20
-17.9223892856
 10
4.5113851767
 20
-17.7757188255
 10
5.1475926778
 20
-17.5945850082
 10
5.7655915258
 20
-17.3794028188
 10
6.3639658603
 20
-17.1306652484
 10
6.9413447813
 20
-16.8489421648
 10
7.4964054902
 20
-16.5348790071
 10
8.0278763203
 20
-16.1891953069
 10
8.5345396504
 20
-15.8126830394
 10
9.0152346941
 20
-15.4062048097
 10
9.4688601595
 20
-14.9706918759
 10
9.8943767722
 20
-14.5071420159
 10
10.2908096563
 20
-14.0166172412
 10
10.6572505681
 20
-13.5002413641
 10
10.9928599764
 20
-12.9591974227
 10
11.2968689864
 20
-12.3947249707
 10
11.5685811011
 20
-11.8081172375
 10
11.807373817
 20
-11.2007181652
 10
12.0127000503
 20
-10.5739193298
 10
12.1840893902
 20
-9.929156753
 10
12.3211491768
 20
-9.2679076121
 10
12.4235654005
 20
-8.5916868558
 10
12.4911034216
 20
-7.9020437332
 10
12.5236085077
 20
-7.200558245
 10
12.5210061884
 20
-6.4888375228
 10
12.4833024257
 20
-5.7685121479
 10
12.4105836003
 20
-5.0412324149
 10
12.3030163142
 20
-4.3086645513
 10
12.1608470084
 20
-3.5724869
 10
11.9844013984
 20
-2.8343860738
 10
11.7740837284
 20
-2.0960530917
 10
11.5303758448
 20
-1.3591795048
 10
11.2538360921
 20
-0.6254535204
 10
10.9450980343
 20
0.1034438655
 10
10.6048690028
 20
0.8258427193
 10
10.2339284761
 20
1.5400879958
 10
9.833126294
 20
2.2445433299
 10
9.4033807108
 20
2.937594786
 10
8.945676291
 20
3.6176545549
 10
8.461061654
 20
4.2831645919
 10
7.9506470717
 20
4.9326001866
 10
7.4156019247
 20
5.5644734555
 10
6.8571520231
 20
6.1773367513
 10
6.2765767986
 20
6.7697859792
 10
5.6752063724
 20
7.340463814
 10
5.0544185087
 20
7.8880628094
 10
4.4156354578
 20
8.411328394
 10
3.7603206976
 20
8.9090617449
 10
3.089975581
 20
9.3801225349
 10
2.4061358957
 20
9.8234315444
 10
1.7103683465
 20
10.2379731344
 10
1.0042669651
 20
10.6227975735
 10
0.2894494584
 20
10.977023213
 10
-0.4324464975
 20
11.2998385076
 10
-1.1597670097
 20
11.5905038745
 10
-1.8908457572
 20
11.8483533872
 10
-2.6240078089
 20
12.0727963023
 10
-3.3575734607
 20
12.2633184117
 10
-4.0898620838
 20
12.4194832217
 10
-4.8191959753
 20
12.5409329522
 10
-5.5439042014
 20
12.627389357
 10
-6.2623264261
 20
12.6786543609
 10
-6.972816715
 20
12.6946105138
 10
-7.6737473058
 20
12.6752212594
 10
-8.363512338
 20
12.6205310193
 10
-9.0405315319
 20
12.5306650911
 10
-9.7032538089
 20
12.4058293613
 10
-10.3501608454
 20
12.2463098335
 10
-10.979770551
 20
12.0524719737
 10
-11.5906404643
 20
11.824759872
 10
-12.1813710573
 20
11.5636952264
 10
-12.7506089424
 20
11.2698761464
 10
-13.2970499723
 20
10.9439757836
 10
-13.8194422284
 20
10.5867407889
 10
-14.3165888888
 20
10.1989896023
 10
-14.7873509702
 20
9.7816105774
 10
-15.2306499376
 20
9.3355599467
 10
-15.645470175
 20
8.8618596303
 10
-16.0308613124
 20
8.3615948948
 10
-16.385940403
 20
7.8359118672
 10
-16.7098939461
 20
7.2860149086
 10
-17.001979751
 20
6.7131638553
 10
-17.2615286372
 20
6.1186711325
 10
-17.4879459676
 20
5.5038987472
 10
-17.680713011
 20
4.8702551678
 10
-17.8393881303
 20
4.2191920976
 10
-17.9636077941
 20
3.5522011487
 10
-18.0530874103
 20
2.8708104243
 10
-18.1076219775
 20
2.1765810185
 10
-18.1270865546
 20
1.4711034389
 10
-18.1114365475
 20
0.7559939635
 10
-18.0607078112
 20
0.0328909371
 10
-17.975016567
 20
-0.6965489817
 10
-17.8545591373
 20
-1.4306546165
 10
-17.6996114948
 20
-2.1677441014
 10
-17.5105286309
 20
-2.9061287344
 10
-17.2877437422
 20
-3.6441168462
 10
-17.0317672379
 20
-4.380017676
 10
-16.7431855705
 20
-5.1121452452
 10
-16.4226598925
 20
-5.8388222196
 10
-16.0709245411
 20
-6.5583837527
 10
-15.6887853565
 20
-7.2691812998
 10
-15.2771178349
 20
-7.9695863947
 10
-14.8368651236
 20
-8.657994381
 10
-14.3690358592
 20
-9.3328280878
 10
-13.8747018578
 20
-9.9925414437
 10
-13.3549956586
 20
-10.6356230187
 10
-12.8111079296
 20
-11.2605994865
 10
-12.2442847399
 20
-11.8660390007
 10
-11.6558247044
 20
-12.4505544747
 10
-11.0470760089
 20
-13.0128067599
 10
-10.4194333215
 20
-13.5515077132
 10
-9.7743345972
 20
-14.065423149
 10
-9.1132577834
 20
-14.553375666
 10
-8.4377174339
 20
-15.0142473453
 10
-7.7492612391
 20
-15.4469823109
 10
-7.0494664804
 20
-15.8505891495
 10
-6.3399364158
 20
-16.2241431814
 10
-5.6222966076
 20
-16.5667885791
 10
-4.898191198
 20
-16.8777403281
  0
LWPOLYLINE
  5
FC
330
EE
100
AcDbEntity
  8
0
  6
Continuous
 62
     7
370
    25
100
AcDbPolyline
 90
       42
 70
   128
 43
0.0
 10
-13.3697428493
 20
10.897080279
 10
-13.5857680694
 20
10.568965908
 10
-13.9097216125
 20
10.0190689494
 10
-14.2018074174
 20
9.4462178962
 10
-14.4613563036
 20
8.8517251734
 10
-14.687773634
 20
8.236952788
 10
-14.8805406775
 20
7.6033092086
 10
-15.0392157967
 20
6.9522461385
 10
-15.1634354605
 20
6.2852551895
 10
-15.2529150768
 20
5.6038644652
 10
-15.3074496439
 20
4.9096350593
 10
-15.326914221
 20
4.2041574797
 10
-15.311264214
 20
3.4890480043
 10
-15.2605354776
 20
2.765944978
 10
-15.1748442335
 20
2.0365050591
 10
-15.0543868037
 20
1.3023994243
 10
-14.8994391612
 20
0.5653099394
 10
-14.7103562974
 20
-0.1730746936
 10
-14.4875714086
 20
-0.9110628054
 10
-14.2315949043
 20
-1.6469636352
 10
-13.9430132369
 20
-2.3790912044
 10
-13.6224875589
 20
-3.1057681787
 10
-13.2707522075
 20
-3.8253297118
 10
-12.8886130229
 20
-4.5361272589
 10
-12.4769455014
 20
-5.2365323539
 10
-12.03669279
 20
-5.9249403401
 10
-11.5688635256
 20
-6.599774047
 10
-11.0745295242
 20
-7.2594874029
 10
-10.554823325
 20
-7.9025689778
 10
-10.0109355961
 20
-8.5275454457
 10
-9.4441124063
 20
-9.1329849599
 10
-8.8556523708
 20
-9.7175004339
 10
-8.2469036753
 20
-10.279752719
 10
-7.619260988
 20
-10.8184536724
 10
-6.9741622636
 20
-11.3323691082
 10
-6.3130854498
 20
-11.8203216252
 10
-5.6375451003
 20
-12.2811933044
 10
-4.9490889056
 20
-12.71392827
 10
-4.2492941468
 20
-13.1175351087
 10
-3.5397640822
 20
-13.4910891406
 10
-2.8221242741
 20
-13.8337345383
 10
-2.0980188644
 20
-14.1446862873
  0
LINE
  5
FF
330
EE
100
AcDbEntity
  8
0
  6
Continuous
 62
     7
370
    25
100
AcDbLine
 10
-14.2000609654
 20
14.5487858112
 30
0.0
 11
-17.0002332989
 21
11.8157317704
 31
0.0
  0
LINE
  5
100
330
EE
100
AcDbEntity
  8
0
  6
Continuous
 62
     7
370
    25
100
AcDbLine
 10
11.3998886318
 20
-17.281839852
 30
0.0
 11
14.2000609654
 21
-14.5487858112
 31
0.0
  0
LINE
  5
101
330
EE
100
AcDbEntity
  8
0
  6
Continuous
 62
     7
370
    25
100
AcDbLine
 10
-2.0980188644
 20
-16.7369761071
 30
0.0
 11
-4.898191198
 21
-19.4700301479
 31
0.0
  0
LINE
  5
102
330
EE
100
AcDbEntity
  8
0
  6
Continuous
 62
     7
370
    25
100
AcDbLine
 10
0.3958750953
 20
-20.7503707783
 30
0.0
 11
0.3958750953
 21
-18.1298317301
 31
0.0
  0
LINE
  5
103
330
EE
100
AcDbEntity
  8
0
  6
Continuous
 62
     7
370
    25
100
AcDbLine
 10
-4.898191198
 20
-19.4700301479
 30
0.0
 11
-4.898191198
 21
-16.8777403281
 31
0.0
  0
LINE
  5
104
330
EE
100
AcDbEntity
  8
0
  6
Continuous
 62
     7
370
    25
100
AcDbLine
 10
3.1960474289
 20
-15.3967776893
 30
0.0
 11
0.3958750953
 21
-18.1298317301
 31
0.0
  0
LINE
  5
105
330
EE
100
AcDbEntity
  8
0
  6
Continuous
 62
     7
370
    25
100
AcDbLine
 10
-4.898191198
 20
-16.8777403281
 30
0.0
 11
-2.0980188644
 21
-14.1446862873
 31
0.0
  0
LINE
  5
106
330
EE
100
AcDbEntity
  8
0
  6
Continuous
 62
     7
370
    25
100
AcDbLine
 10
-2.0980188644
 20
-16.7369761071
 30
0.0
 11
-2.0980188644
 21
-14.1446862873
 31
0.0
  0
ARC
  5
107
330
EE
100
AcDbEntity
  8
0
  6
Continuous
 62
     7
370
    25
100
AcDbCircle
 10
4.2419613923
 20
-3.4912254081
 30
0.0
 40
11.95140624103968
100
AcDbArc
 50
264.9794013874
 51
301.9679455577
  0
VIEWPORT
  5
130
330
EE
100
AcDbEntity
  8
0
100
AcDbViewport
 10
0.0
 20
0.0
 30
0.0
 40
205.6
 41
156.0
 68
     1
 69
     1
 12
2.1726636137
 22
1.3118389977
 13
0.0
 23
0.0
 14
10.0
 24
10.0
 15
10.0
 25
10.0
 16
0.0
 26
0.0
 36
1.0
 17
0.0
 27
0.0
 37
0.0
 42
50.0
 43
0.0
 44
0.0
 45
39.9758966886
 50
0.0
 51
0.0
 72
   100
 90
   557152
  1

281
     0
 71
     1
 74
     0
110
0.0
120
0.0
130
0.0
111
1.0
121
0.0
131
0.0
112
0.0
122
1.0
132
0.0
 79
     0
146
0.0
  0
MTEXT
  5
145
330
EE
100
AcDbEntity
  8
0
  6
Continuous
 62
     7
100
AcDbMText
 10
-20.780383966
 20
-21.8506210007
 30
0.0
 40
4.83362
 41
0.0
 71
     1
 72
     1
  1
SOLIDWORKS Educational Product.
  7
SLDTEXTSTYLE0
 73
     1
 44
1.0
  0
MTEXT
  5
146
330
EE
100
AcDbEntity
  8
0
  6
Continuous
 62
     7
100
AcDbMText
 10
-20.780383966
 20
-29.1010510007
 30
0.0
 40
4.83362
 41
0.0
 71
     1
 72
     1
  1
For Instructional Use Only.
  7
SLDTEXTSTYLE0
 73
     1
 44
1.0
  0
ENDBLK
  5
F1
330
EE
100
AcDbEntity
  8
0
100
AcDbBlockEnd
  0
BLOCK
  5
10A
330
108
100
AcDbEntity
  8
0
100
AcDbBlockBegin
  2
*Paper_Space7
 70
     0
 10
0.0
 20
0.0
 30
0.0
  3
*Paper_Space7
  1

  0
LWPOLYLINE
  5
10E
330
108
100
AcDbEntity
  8
0
  6
Continuous
 62
     7
370
    25
100
AcDbPolyline
 90
      137
 70
   128
 43
0.0
 10
1.259013624
 20
-21.1587799723
 10
2.0793795426
 20
-21.0939087935
 10
2.8916046211
 20
-20.9917838174
 10
3.6941147897
 20
-20.8526029594
 10
4.4853548059
 20
-20.6766359481
 10
5.2637912686
 20
-20.4642238028
 10
6.0279155892
 20
-20.2157781722
 10
6.7762469162
 20
-19.9317805371
 10
7.507335004
 20
-19.6127812772
 10
8.2197630241
 20
-19.2593986041
 10
8.9121503109
 20
-18.8723173637
 10
9.5831550368
 20
-18.4522877086
 10
10.2314768134
 20
-18.0001236449
 10
10.8558592108
 20
-17.5167014538
 10
11.4550921934
 20
-17.0029579943
 10
12.0280144642
 20
-16.4598888869
 10
12.5735157156
 20
-15.8885465846
 10
13.0905387814
 20
-15.2900383329
 10
13.5780816852
 20
-14.6655240242
 10
14.0351995822
 20
-14.01621395
 10
14.4610065907
 20
-13.3433664553
 10
14.8546775084
 20
-12.6482854998
 10
15.2154494121
 20
-11.9323181313
 10
15.5426231357
 20
-11.1968518747
 10
15.8355646256
 20
-10.4433120432
 10
16.0937061694
 20
-9.6731589762
 10
16.3165474958
 20
-8.887885209
 10
16.5036567446
 20
-8.0890125805
 10
16.6546713031
 20
-7.2780892836
 10
16.7692985094
 20
-6.4566868653
 10
16.847316219
 20
-5.6263971808
 10
16.8885732359
 20
-4.7888293085
 10
16.8929896051
 20
-3.9456064318
 10
16.8605567678
 20
-3.0983626932
 10
16.7913375778
 20
-2.2487400276
 10
16.6854661802
 20
-1.3983849804
 10
16.5431477506
 20
-0.548945516
 10
16.3646580984
 20
0.2979321754
 10
16.1503431315
 20
1.1406068682
 10
15.9006181864
 20
1.9774454822
 10
15.6159672231
 20
2.8068262474
 10
15.2969418873
 20
3.6271418467
 10
14.9441604414
 20
4.4368025313
 10
14.5583065658
 20
5.2342392011
 10
14.1401280349
 20
6.0179064459
 10
13.690435267
 20
6.7862855403
 10
13.2100997542
 20
7.5378873869
 10
12.7000523736
 20
8.2712554021
 10
12.1612815827
 20
8.9849683389
 10
11.5948315046
 20
9.6776430415
 10
11.0017999037
 20
10.3479371255
 10
10.3833360589
 20
10.9945515794
 10
9.740638536
 20
11.6162332823
 10
9.074952865
 20
12.2117774323
 10
8.3875691264
 20
12.7800298813
 10
7.6798194508
 20
13.3198893719
 10
6.9530754375
 20
13.8303096711
 10
6.2087454962
 20
14.3103015987
 10
5.4482721179
 20
14.7589349436
 10
4.6731290788
 20
15.1753402666
 10
3.8848185848
 20
15.558710586
 10
3.0848683597
 20
15.9083029405
 10
2.274828685
 20
16.2234398299
 10
1.4562693951
 20
16.5035105275
 10
0.6307768353
 20
16.7479722642
 10
-0.2000492127
 20
16.9563512799
 10
-1.0345986309
 20
17.1282437417
 10
-1.8712540858
 20
17.2633165269
 10
-2.7083941622
 20
17.3613078682
 10
-3.5443965057
 20
17.4220278609
 10
-4.377640967
 20
17.4453588315
 10
-5.2065127414
 20
17.4312555652
 10
-6.0294054983
 20
17.3797453937
 10
-6.8447244943
 20
17.2909281424
 10
-7.6508896638
 20
17.1649759365
 10
-8.4463386809
 20
17.002132868
 10
-9.2295299875
 20
16.8027145222
 10
-9.9989457805
 20
16.5671073664
 10
-10.7530949534
 20
16.2957680007
 10
-11.490515986
 20
15.9892222734
 10
-12.2097797766
 20
15.6480642614
 10
-12.9094924121
 20
15.2729551197
 10
-13.5882978686
 20
14.8646217994
 10
-14.2448806399
 20
14.4238556391
 10
-14.8779682869
 20
13.9515108314
 10
-15.4863339032
 20
13.4485027676
 10
-16.068798493
 20
12.9158062633
 10
-16.6242332561
 20
12.3544536697
 10
-17.1515617753
 20
11.7655328724
 10
-17.6497621025
 20
11.1501851838
 10
-18.1178687393
 20
10.5096031306
 10
-18.5549745079
 20
9.8450281431
 10
-18.9602323095
 20
9.1577481492
 10
-19.3328567656
 20
8.4490950786
 10
-19.6721257405
 20
7.7204422814
 10
-19.9773817401
 20
6.9732018663
 10
-20.2480331869
 20
6.2088219648
 10
-20.4835555657
 20
5.4287839238
 10
-20.6834924408
 20
4.6345994356
 10
-20.84745634
 20
3.8278076077
 10
-20.9751295058
 20
3.0099719804
 10
-21.0662645112
 20
2.1826774964
 10
-21.120684739
 20
1.3475274296
 10
-21.1382847244
 20
0.5061402776
 10
-21.119030359
 20
-0.3398533744
 10
-21.0629589573
 20
-1.1888140143
 10
-20.9701791841
 20
-2.0390963797
 10
-20.8408708441
 20
-2.889052647
 10
-20.6752845331
 20
-3.7370356244
 10
-20.473741153
 20
-4.5814019445
 10
-20.2366312892
 20
-5.4205152486
 10
-19.9644144541
 20
-6.2527493583
 10
-19.6576181963
 20
-7.0764914271
 10
-19.3168370785
 20
-7.8901450656
 10
-18.9427315251
 20
-8.6921334354
 10
-18.5360265423
 20
-9.4809023055
 10
-18.0975103131
 20
-10.2549230635
 10
-17.6280326699
 20
-11.0126956785
 10
-17.1285034472
 20
-11.7527516084
 10
-16.599890719
 20
-12.473656645
 10
-16.043218922
 20
-13.1740136945
 10
-15.4595668708
 20
-13.8524654842
 10
-14.8500656669
 20
-14.5076971934
 10
-14.2158965068
 20
-15.1384390011
 10
-13.5582883928
 20
-15.7434685472
 10
-12.8785157512
 20
-16.3216133011
 10
-12.1778959625
 20
-16.8717528343
 10
-11.4577868086
 20
-17.3928209916
 10
-10.719583841
 20
-17.8838079573
 10
-9.9647176767
 20
-18.3437622124
 10
-9.1946512254
 20
-18.7717923781
 10
-8.4108768545
 20
-19.1670689439
 10
-7.6149134972
 20
-19.5288258746
 10
-6.8083037084
 20
-19.8563620955
 10
-5.9926106755
 20
-20.1490428503
 10
-5.169415189
 20
-20.4063009318
 10
-4.3403125791
 20
-20.6276377811
  0
LWPOLYLINE
  5
110
330
108
100
AcDbEntity
  8
0
  6
Continuous
 62
     7
370
    25
100
AcDbPolyline
 90
       74
 70
   128
 43
0.0
 10
13.4470310387
 20
-15.2474999998
 10
13.5764125365
 20
-15.1321293013
 10
14.1493348073
 20
-14.5890601939
 10
14.6948360587
 20
-14.0177178916
 10
15.2118591245
 20
-13.4192096399
 10
15.6994020282
 20
-12.7946953312
 10
16.1565199253
 20
-12.145385257
 10
16.5823269338
 20
-11.4725377623
 10
16.9759978515
 20
-10.7774568068
 10
17.3367697552
 20
-10.0614894383
 10
17.6639434788
 20
-9.3260231817
 10
17.9568849687
 20
-8.5724833502
 10
18.2150265125
 20
-7.8023302832
 10
18.4378678389
 20
-7.017056516
 10
18.6249770876
 20
-6.2181838875
 10
18.7759916462
 20
-5.4072605906
 10
18.8906188524
 20
-4.5858581723
 10
18.9686365621
 20
-3.7555684878
 10
19.009893579
 20
-2.9180006155
 10
19.0143099482
 20
-2.0747777388
 10
18.9818771108
 20
-1.2275340002
 10
18.9126579209
 20
-0.3779113346
 10
18.8067865232
 20
0.4724437126
 10
18.6644680937
 20
1.321883177
 10
18.4859784415
 20
2.1687608684
 10
18.2716634746
 20
3.0114355612
 10
18.0219385295
 20
3.8482741752
 10
17.7372875662
 20
4.6776549404
 10
17.4182622304
 20
5.4979705397
 10
17.0654807844
 20
6.3076312243
 10
16.6796269089
 20
7.1050678941
 10
16.261448378
 20
7.8887351389
 10
15.8117556101
 20
8.6571142333
 10
15.3314200973
 20
9.4087160799
 10
14.8213727167
 20
10.1420840951
 10
14.2826019258
 20
10.8557970319
 10
13.7161518477
 20
11.5484717345
 10
13.1231202468
 20
12.2187658185
 10
12.504656402
 20
12.8653802724
 10
11.8619588791
 20
13.4870619753
 10
11.1962732081
 20
14.0826061253
 10
10.5088894695
 20
14.6508585743
 10
9.8011397939
 20
15.1907180649
 10
9.0743957806
 20
15.7011383641
 10
8.3300658393
 20
16.1811302917
 10
7.569592461
 20
16.6297636366
 10
6.7944494219
 20
17.0461689596
 10
6.0061389279
 20
17.429539279
 10
5.2061887028
 20
17.7791316335
 10
4.3961490281
 20
18.0942685229
 10
3.5775897382
 20
18.3743392205
 10
2.7520971784
 20
18.6188009572
 10
1.9212711304
 20
18.8271799729
 10
1.0867217121
 20
18.9990724347
 10
0.2500662573
 20
19.1341452199
 10
-0.5870738191
 20
19.2321365612
 10
-1.4230761626
 20
19.2928565539
 10
-2.256320624
 20
19.3161875245
 10
-3.0851923983
 20
19.3020842582
 10
-3.9080851552
 20
19.2505740867
 10
-4.7234041512
 20
19.1617568354
 10
-5.5295693207
 20
19.0358046295
 10
-6.3250183378
 20
18.872961561
 10
-7.1082096444
 20
18.6735432152
 10
-7.8776254374
 20
18.4379360594
 10
-8.6317746103
 20
18.1665966937
 10
-9.3691956429
 20
17.8600509664
 10
-10.0884594336
 20
17.5188929544
 10
-10.788172069
 20
17.1437838127
 10
-11.4669775255
 20
16.7354504924
 10
-12.1235602969
 20
16.2946843321
 10
-12.7566479439
 20
15.8223395244
 10
-13.3650135601
 20
15.3193314606
 10
-13.4470310387
 20
15.2474999998
  0
LWPOLYLINE
  5
112
330
108
100
AcDbEntity
  8
0
  6
Continuous
 62
     7
370
    25
100
AcDbPolyline
 90
      125
 70
   128
 43
0.0
 10
1.259013624
 20
-18.2764162767
 10
2.0137906667
 20
-18.1901727469
 10
2.7590940018
 20
-18.0665409357
 10
3.493216109
 20
-17.9058040888
 10
4.2144750848
 20
-17.7083304608
 10
4.9212184955
 20
-17.4745724718
 10
5.611827163
 20
-17.2050656709
 10
6.284718875
 20
-16.9004275091
 10
6.9383520091
 20
-16.5613559248
 10
7.5712290652
 20
-16.1886277449
 10
8.1819000962
 20
-15.7830969047
 10
8.7689660299
 20
-15.345692492
 10
9.3310818744
 20
-14.877416618
 10
9.8669597994
 20
-14.3793421218
 10
10.3753720868
 20
-13.8526101123
 10
10.8551539434
 20
-13.2984273541
 10
11.3052061693
 20
-12.7180635024
 10
11.7244976766
 20
-12.1128481943
 10
12.1120678515
 20
-11.4841680028
 10
12.4670287548
 20
-10.8334632597
 10
12.7885671568
 20
-10.1622247562
 10
13.0759463998
 20
-9.4719903269
 10
13.3285080863
 20
-8.7643413269
 10
13.5456735871
 20
-8.0408990091
 10
13.7269453674
 20
-7.3033208091
 10
13.8719081261
 20
-6.5532965486
 10
13.9802297476
 20
-5.7925445637
 10
14.0516620626
 20
-5.0228077681
 10
14.0860414168
 20
-4.2458496603
 10
14.0832890458
 20
-3.4634502827
 10
14.0434112552
 20
-2.6774021444
 10
13.9664994068
 20
-1.8895061134
 10
13.8527297088
 20
-1.1015672916
 10
13.702362812
 20
-0.3153908791
 10
13.5157432133
 20
0.4672219622
 10
13.2932984657
 20
1.2444782342
 10
13.0355381992
 20
2.0145972113
 10
12.743052953
 20
2.7758145196
 10
12.4165128227
 20
3.5263861791
 10
12.0566659251
 20
4.2645925998
 10
11.664336684
 20
4.9887425207
 10
11.2404239418
 20
5.6971768848
 10
10.7858988996
 20
6.3882726401
 10
10.301802893
 20
7.0604464583
 10
9.7892450056
 20
7.7121583616
 10
9.2493995282
 20
8.3419152516
 10
8.683503269
 20
8.9482743298
 10
8.0928527192
 20
9.5298464026
 10
7.4788010833
 20
10.0852990649
 10
6.8427551786
 20
10.613359752
 10
6.1861722121
 20
11.1128186554
 10
5.5105564421
 20
11.5825314944
 10
4.8174557319
 20
12.0214221377
 10
4.1084580033
 20
12.4284850692
 10
3.3851875991
 20
12.8027876909
 10
2.649301561
 20
13.1434724604
 10
1.9024858341
 20
13.4497588551
 10
1.1464514035
 20
13.7209451603
 10
0.3829303749
 20
13.9564100771
 10
-0.3863279941
 20
14.1556141458
 10
-1.1595613011
 20
14.3181009819
 10
-1.9349980372
 20
14.4434983214
 10
-2.7108616453
 20
14.5315188739
 10
-3.4853745903
 20
14.5819609806
 10
-4.2567624315
 20
14.5947090767
 10
-5.023257888
 20
14.5697339558
 10
-5.7831048875
 20
14.5070928369
 10
-6.5345625896
 20
14.4069292333
 10
-7.2759093741
 20
14.2694726239
 10
-8.0054467854
 20
14.0950379275
 10
-8.7215034236
 20
13.884024781
 10
-9.4224387738
 20
13.6369166241
 10
-10.1066469646
 20
13.3542795916
 10
-10.7725604472
 20
13.0367612166
 10
-11.4186535866
 20
12.6850889464
 10
-12.0434461573
 20
12.3000684767
 10
-12.645506734
 20
11.8825819049
 10
-13.2234559714
 20
11.4335857098
 10
-13.7759697644
 20
10.9541085599
 10
-14.3017822813
 20
10.4452489569
 10
-14.7996888643
 20
9.9081727189
 10
-15.2685487891
 20
9.3441103093
 10
-15.7072878785
 20
8.7543540182
 10
-16.1149009635
 20
8.1402550011
 10
-16.4904541859
 20
7.5032201839
 10
-16.8330871379
 20
6.8447090393
 10
-17.1420148336
 20
6.1662302431
 10
-17.416529507
 20
5.4693382178
 10
-17.6560022339
 20
4.7556295715
 10
-17.8598843724
 20
4.0267394396
 10
-18.0277088203
 20
3.2843377392
 10
-18.1590910849
 20
2.5301253427
 10
-18.2537301642
 20
1.7658301814
 10
-18.3114092362
 20
0.9932032867
 10
-18.3319961557
 20
0.2140147782
 10
-18.3154437573
 20
-0.5699501916
 10
-18.2617899632
 20
-1.3568955269
 10
-18.1711576964
 20
-2.145018304
 10
-18.0437545992
 20
-2.9325129016
 10
-17.8798725572
 20
-3.7175751375
 10
-17.6798870308
 20
-4.4984064021
 10
-17.4442561951
 20
-5.2732177792
 10
-17.1735198898
 20
-6.0402341445
 10
-16.8682983829
 20
-6.7976982323
 10
-16.5292909492
 20
-7.5438746615
 10
-16.1572742686
 20
-8.2770539115
 10
-15.7531006464
 20
-8.9955562389
 10
-15.3176960608
 20
-9.6977355255
 10
-14.8520580415
 20
-10.3819830501
 10
-14.3572533842
 20
-11.0467311738
 10
-13.8344157063
 20
-11.6904569314
 10
-13.2847428503
 20
-12.3116855213
 10
-12.7094941391
 20
-12.9089936833
 10
-12.1099874909
 20
-13.4810129601
 10
-11.4875963998
 20
-14.0264328324
 10
-10.8437467892
 20
-14.5440037209
 10
-10.1799137446
 20
-15.0325398498
 10
-9.4976181347
 20
-15.4909219628
 10
-8.7984231263
 20
-15.918099888
 10
-8.0839306038
 20
-16.3130949433
 10
-7.3557774986
 20
-16.6750021789
 10
-6.615632039
 20
-17.0029924506
 10
-5.8651899284
 20
-17.2963143195
 10
-5.1061704603
 20
-17.5542957731
 10
-4.3403125791
 20
-17.7763457654
  0
LWPOLYLINE
  5
116
330
108
100
AcDbEntity
  8
0
  6
Continuous
 62
     7
370
    25
100
AcDbPolyline
 90
       46
 70
   128
 43
0.0
 10
-12.4742001024
 20
12.0063234686
 10
-12.6783685212
 20
11.7790014119
 10
-13.147228446
 20
11.2149390023
 10
-13.5859675354
 20
10.6251827112
 10
-13.9935806204
 20
10.0110836941
 10
-14.3691338428
 20
9.3740488769
 10
-14.7117667949
 20
8.7155377323
 10
-15.0206944906
 20
8.0370589361
 10
-15.295209164
 20
7.3401669108
 10
-15.5346818908
 20
6.6264582645
 10
-15.7385640293
 20
5.8975681326
 10
-15.9063884772
 20
5.1551664322
 10
-16.0377707419
 20
4.4009540357
 10
-16.1324098212
 20
3.6366588744
 10
-16.1900888931
 20
2.8640319797
 10
-16.2106758126
 20
2.0848434712
 10
-16.1941234142
 20
1.3008785014
 10
-16.1404696201
 20
0.5139331661
 10
-16.0498373533
 20
-0.274189611
 10
-15.9224342561
 20
-1.0616842086
 10
-15.7585522141
 20
-1.8467464445
 10
-15.5585666877
 20
-2.6275777091
 10
-15.322935852
 20
-3.4023890862
 10
-15.0521995467
 20
-4.1694054515
 10
-14.7469780398
 20
-4.9268695393
 10
-14.4079706061
 20
-5.6730459685
 10
-14.0359539255
 20
-6.4062252185
 10
-13.6317803033
 20
-7.1247275458
 10
-13.1963757178
 20
-7.8269068325
 10
-12.7307376985
 20
-8.5111543571
 10
-12.2359330411
 20
-9.1759024808
 10
-11.7130953632
 20
-9.8196282384
 10
-11.1634225072
 20
-10.4408568283
 10
-10.588173796
 20
-11.0381649903
 10
-9.9886671479
 20
-11.6101842671
 10
-9.3662760568
 20
-12.1556041394
 10
-8.7224264461
 20
-12.6731750279
 10
-8.0585934016
 20
-13.1617111568
 10
-7.3762977916
 20
-13.6200932698
 10
-6.6771027833
 20
-14.047271195
 10
-5.9626102608
 20
-14.4422662503
 10
-5.2344571555
 20
-14.8041734859
 10
-4.4943116959
 20
-15.1321637576
 10
-3.7438695854
 20
-15.4254856265
 10
-2.9848501172
 20
-15.6834670801
 10
-2.2189922361
 20
-15.9055170724
  0
LINE
  5
119
330
108
100
AcDbEntity
  8
0
  6
Continuous
 62
     7
370
    25
100
AcDbLine
 10
-13.4470310387
 20
15.2474999998
 30
0.0
 11
-15.5683513817
 21
13.3766713068
 31
0.0
  0
LINE
  5
11A
330
108
100
AcDbEntity
  8
0
  6
Continuous
 62
     7
370
    25
100
AcDbLine
 10
11.3257106956
 20
-17.1183286928
 30
0.0
 11
13.4470310387
 21
-15.2474999998
 31
0.0
  0
LINE
  5
11B
330
108
100
AcDbEntity
  8
0
  6
Continuous
 62
     7
370
    25
100
AcDbLine
 10
-2.2189922361
 20
-18.7568090881
 30
0.0
 11
-4.3403125791
 21
-20.6276377811
 31
0.0
  0
LINE
  5
11C
330
108
100
AcDbEntity
  8
0
  6
Continuous
 62
     7
370
    25
100
AcDbLine
 10
1.259013624
 20
-21.1587799723
 30
0.0
 11
1.259013624
 21
-18.2764162767
 31
0.0
  0
LINE
  5
11D
330
108
100
AcDbEntity
  8
0
  6
Continuous
 62
     7
370
    25
100
AcDbLine
 10
-4.3403125791
 20
-20.6276377811
 30
0.0
 11
-4.3403125791
 21
-17.7763457654
 31
0.0
  0
LINE
  5
11E
330
108
100
AcDbEntity
  8
0
  6
Continuous
 62
     7
370
    25
100
AcDbLine
 10
3.3803339671
 20
-16.4055875837
 30
0.0
 11
1.259013624
 21
-18.2764162767
 31
0.0
  0
LINE
  5
11F
330
108
100
AcDbEntity
  8
0
  6
Continuous
 62
     7
370
    25
100
AcDbLine
 10
-4.3403125791
 20
-17.7763457654
 30
0.0
 11
-2.2189922361
 21
-15.9055170724
 31
0.0
  0
LINE
  5
120
330
108
100
AcDbEntity
  8
0
  6
Continuous
 62
     7
370
    25
100
AcDbLine
 10
-2.2189922361
 20
-18.7568090881
 30
0.0
 11
-2.2189922361
 21
-15.9055170724
 31
0.0
  0
ARC
  5
121
330
108
100
AcDbEntity
  8
0
  6
Continuous
 62
     7
370
    25
100
AcDbCircle
 10
2.2275051888
 20
-2.3483404059
 30
0.0
 40
14.10443945749254
100
AcDbArc
 50
274.6883104319
 51
305.1757431355
  0
VIEWPORT
  5
132
330
108
100
AcDbEntity
  8
0
100
AcDbViewport
 10
0.0
 20
0.0
 30
0.0
 40
205.6
 41
156.0
 68
     1
 69
     1
 12
2.1726636137
 22
1.3118389977
 13
0.0
 23
0.0
 14
10.0
 24
10.0
 15
10.0
 25
10.0
 16
0.0
 26
0.0
 36
1.0
 17
0.0
 27
0.0
 37
0.0
 42
50.0
 43
0.0
 44
0.0
 45
39.9758966886
 50
0.0
 51
0.0
 72
   100
 90
   557152
  1

281
     0
 71
     1
 74
     0
110
0.0
120
0.0
130
0.0
111
1.0
121
0.0
131
0.0
112
0.0
122
1.0
132
0.0
 79
     0
146
0.0
  0
MTEXT
  5
147
330
108
100
AcDbEntity
  8
0
  6
Continuous
 62
     7
100
AcDbMText
 10
-21.1382847244
 20
-22.178346364
 30
0.0
 40
4.83362
 41
0.0
 71
     1
 72
     1
  1
SOLIDWORKS Educational Product.
  7
SLDTEXTSTYLE0
 73
     1
 44
1.0
  0
MTEXT
  5
148
330
108
100
AcDbEntity
  8
0
  6
Continuous
 62
     7
100
AcDbMText
 10
-21.1382847244
 20
-29.428776364
 30
0.0
 40
4.83362
 41
0.0
 71
     1
 72
     1
  1
For Instructional Use Only.
  7
SLDTEXTSTYLE0
 73
     1
 44
1.0
  0
ENDBLK
  5
10B
330
108
100
AcDbEntity
  8
0
100
AcDbBlockEnd
  0
ENDSEC
  0
SECTION
  2
ENTITIES
  0
LWPOLYLINE
  5
76
330
1F
100
AcDbEntity
  8
0
  6
Continuous
 62
     7
370
    25
100
AcDbPolyline
 90
       46
 70
   128
 43
0.0
 10
8.895216352
 20
14.4788504207
 10
9.474794452
 20
13.8546837852
 10
10.0444267296
 20
13.2087488777
 10
10.6030092531
 20
12.542297502
 10
11.1494595052
 20
11.8566212226
 10
11.6827184804
 20
11.153048861
 10
12.2017527375
 20
10.432943921
 10
12.7055564024
 20
9.6977019461
 10
13.1931531177
 20
8.9487478149
 10
13.6635979344
 20
8.1875329797
 10
14.1159791434
 20
7.4155326539
 10
14.5494200425
 20
6.6342429526
 10
14.9630806352
 20
5.8451779938
 10
15.3561592588
 20
5.0498669635
 10
15.7278941376
 20
4.2498511525
 10
16.0775648599
 20
3.4466809692
 10
16.4044937735
 20
2.6419129353
 10
16.7080472991
 20
1.8371066689
 10
16.9876371584
 20
1.0338218623
 10
17.2427215141
 20
0.2336152593
 10
17.4728060196
 20
-0.561962362
 10
17.6774447776
 20
-1.3513691941
 10
17.8562412039
 20
-2.1330753883
 10
18.0088487958
 20
-2.9055660198
 10
18.1349718042
 20
-3.6673440231
 10
18.2343658061
 20
-4.4169330934
 10
18.3068381786
 20
-5.1528805479
 10
18.3522484725
 20
-5.8737601408
 10
18.3705086836
 20
-6.5781748274
 10
18.3615834244
 20
-7.2647594715
 10
18.3254899915
 20
-7.932183491
 10
18.2622983333
 20
-8.5791534368
 10
18.1721309132
 20
-9.2044154989
 10
18.0551624734
 20
-9.8067579368
 10
17.9116196953
 20
-10.3850134274
 10
17.741780761
 20
-10.9380613277
 10
17.5459748135
 20
-11.4648298462
 10
17.3245813195
 20
-11.9642981199
 10
17.0780293333
 20
-12.4354981933
 10
16.8067966658
 20
-12.8775168935
 10
16.5114089586
 20
-13.2894976007
 10
16.1924386647
 20
-13.6706419076
 10
15.8505039398
 20
-14.020211167
 10
15.4862674439
 20
-14.3375279235
 10
15.1004350574
 20
-14.6219772258
 10
14.8511557099
 20
-14.781310022
  0
LWPOLYLINE
  5
77
330
1F
100
AcDbEntity
  8
0
  6
Continuous
 62
     7
370
    25
100
AcDbPolyline
 90
       22
 70
   128
 43
0.0
 10
-6.1657199802
 20
20.0256797391
 10
-6.1561459713
 20
20.0314480517
 10
-5.7364884103
 20
20.2607540481
 10
-5.2972976265
 20
20.4558769855
 10
-4.8394247594
 20
20.616438721
 10
-4.3637571541
 20
20.7421280905
 10
-3.871216641
 20
20.8327015114
 10
-3.3627577502
 20
20.8879834549
 10
-2.8393658608
 20
20.9078667862
 10
-2.3020552919
 20
20.8923129719
 10
-1.7518673365
 20
20.8413521549
 10
-1.1898682437
 20
20.7550830958
 10
-0.617147152
 20
20.6336729817
 10
-0.0348139792
 20
20.477357102
 10
0.5560027292
 20
20.2864383925
 10
1.1541579867
 20
20.0612868486
 10
1.7584925851
 20
19.8023388075
 10
2.3678353405
 20
19.5100961035
 10
2.9810053636
 20
19.1851250948
 10
3.5968143479
 20
18.8280555662
 10
4.2140688725
 20
18.4395795087
 10
4.8315727153
 20
18.020449778
  0
LWPOLYLINE
  5
79
330
1F
100
AcDbEntity
  8
0
  6
Continuous
 62
     7
370
    25
100
AcDbPolyline
 90
      137
 70
   128
 43
0.0
 10
4.5524984871
 20
11.8566655621
 10
5.1320765871
 20
11.2324989267
 10
5.7017088647
 20
10.5865640192
 10
6.2602913883
 20
9.9201126435
 10
6.8067416404
 20
9.234436364
 10
7.3400006156
 20
8.5308640024
 10
7.8590348726
 20
7.8107590625
 10
8.3628385376
 20
7.0755170876
 10
8.8504352529
 20
6.3265629563
 10
9.3208800695
 20
5.5653481212
 10
9.7732612786
 20
4.7933477953
 10
10.2067021777
 20
4.0120580941
 10
10.6203627704
 20
3.2229931353
 10
11.0134413939
 20
2.427682105
 10
11.3851762728
 20
1.627666294
 10
11.7348469951
 20
0.8244961107
 10
12.0617759086
 20
0.0197280768
 10
12.3653294343
 20
-0.7850781896
 10
12.6449192936
 20
-1.5883629962
 10
12.9000036492
 20
-2.3885695993
 10
13.1300881547
 20
-3.1841472205
 10
13.3347269128
 20
-3.9735540526
 10
13.513523339
 20
-4.7552602469
 10
13.666130931
 20
-5.5277508784
 10
13.7922539393
 20
-6.2895288816
 10
13.8916479412
 20
-7.0391179519
 10
13.9641203138
 20
-7.7750654064
 10
14.0095306076
 20
-8.4959449993
 10
14.0277908188
 20
-9.2003596859
 10
14.0188655595
 20
-9.88694433
 10
13.9827721267
 20
-10.5543683496
 10
13.9195804684
 20
-11.2013382953
 10
13.8294130484
 20
-11.8266003574
 10
13.7124446085
 20
-12.4289427953
 10
13.5689018305
 20
-13.007198286
 10
13.3990628962
 20
-13.5602461863
 10
13.2032569487
 20
-14.0870147047
 10
12.9818634546
 20
-14.5864829784
 10
12.7353114684
 20
-15.0576830518
 10
12.464078801
 20
-15.4997017521
 10
12.1686910937
 20
-15.9116824592
 10
11.8497207998
 20
-16.2928267661
 10
11.507786075
 20
-16.6423960255
 10
11.1435495791
 20
-16.959712782
 10
10.7577171925
 20
-17.2441620844
 10
10.3510366477
 20
-17.4951926778
 10
9.9242960803
 20
-17.712318072
 10
9.4783225017
 20
-17.8951174838
 10
9.0139801963
 20
-18.0432366531
 10
8.5321690468
 20
-18.1563885291
 10
8.0338227897
 20
-18.2343538266
 10
7.5199072064
 20
-18.2769814509
 10
6.9914182511
 20
-18.2841887909
 10
6.4493801206
 20
-18.2559618789
 10
5.8948432699
 20
-18.192355418
 10
5.328882376
 20
-18.0934926757
 10
4.7525942556
 20
-17.9595652453
 10
4.167095739
 20
-17.7908326744
 10
3.5735215062
 20
-17.5876219621
 10
2.9730218876
 20
-17.3503269251
 10
2.3667606349
 20
-17.0794074346
 10
1.7559126655
 20
-16.7753885251
 10
1.1416617859
 20
-16.4388593769
 10
0.5251983975
 20
-16.070472174
 10
-0.092282811
 20
-15.6709408408
 10
-0.7095851779
 20
-15.2410396579
 10
-1.3255123884
 20
-14.7816017619
 10
-1.9388707925
 20
-14.2935175306
 10
-2.5484717187
 20
-13.777732858
 10
-3.1531337772
 20
-13.2352473203
 10
-3.7516851498
 20
-12.6671122395
 10
-4.3429658603
 20
-12.0744286457
 10
-4.9258300231
 20
-11.4583451433
 10
-5.4991480637
 20
-10.8200556851
 10
-6.0618089075
 20
-10.1607972584
 10
-6.6127221334
 20
-9.4818474878
 10
-7.1508200867
 20
-8.7845221591
 10
-7.6750599486
 20
-8.0701726695
 10
-8.1844257567
 20
-7.3401834087
 10
-8.6779303742
 20
-6.5959690755
 10
-9.1546174027
 20
-5.8389719367
 10
-9.613563036
 20
-5.0706590319
 10
-10.0538778502
 20
-4.2925193302
 10
-10.4747085273
 20
-3.5060608448
 10
-10.8752395091
 20
-2.7128077106
 10
-11.2546945777
 20
-1.91429723
 10
-11.6123383597
 20
-1.1120768944
 10
-11.9474777512
 20
-0.3077013846
 10
-12.2594632615
 20
0.4972704421
 10
-12.5476902711
 20
1.3012785723
 10
-12.8116002043
 20
2.1027648607
 10
-13.0506816108
 20
2.900176049
 10
-13.2644711574
 20
3.6919667764
 10
-13.452554526
 20
4.4766025743
 10
-13.6145672161
 20
5.2525628403
 10
-13.7501952518
 20
6.0183437848
 10
-13.8591757895
 20
6.7724613456
 10
-13.941297628
 20
7.5134540638
 10
-13.9964016176
 20
8.2398859159
 10
-14.024380968
 20
8.9503490971
 10
-14.0251814563
 20
9.6434667494
 10
-13.998801531
 20
10.31789563
 10
-13.9452923156
 20
10.9723287143
 10
-13.8647575097
 20
11.6054977293
 10
-13.7573531873
 20
12.2161756108
 10
-13.6232874952
 20
12.8031788819
 10
-13.4628202489
 20
13.3653699467
 10
-13.2762624294
 20
13.9016592944
 10
-13.0639755808
 20
14.4110076111
 10
-12.826371109
 20
14.8924277937
 10
-12.5639094848
 20
15.3449868634
 10
-12.2770993518
 20
15.7678077732
 10
-11.96649654
 20
16.1600711078
 10
-11.632702989
 20
16.5210166718
 10
-11.2763655814
 20
16.8499449627
 10
-10.8981748895
 20
17.1462185264
 10
-10.4988638361
 20
17.4092631932
 10
-10.0792062752
 20
17.6385691896
 10
-9.6400154914
 20
17.8336921269
 10
-9.1821426243
 20
17.9942538625
 10
-8.7064750189
 20
18.1199432319
 10
-8.2139345058
 20
18.2105166528
 10
-7.705475615
 20
18.2657985964
 10
-7.1820837257
 20
18.2856819276
 10
-6.6447731568
 20
18.2701281133
 10
-6.0945852014
 20
18.2191672963
 10
-5.5325861085
 20
18.1328982372
 10
-4.9598650169
 20
18.0114881231
 10
-4.3775318441
 20
17.8551722434
 10
-3.7867151357
 20
17.664253534
 10
-3.1885598781
 20
17.43910199
 10
-2.5842252798
 20
17.180153949
 10
-1.9748825244
 20
16.8879112449
 10
-1.3617125013
 20
16.5629402362
 10
-0.745903517
 20
16.2058707077
 10
-0.1286489924
 20
15.8173946501
 10
0.4888548505
 20
15.3982649194
  0
LWPOLYLINE
  5
7C
330
1F
100
AcDbEntity
  8
0
  6
Continuous
 62
     7
370
    25
100
AcDbPolyline
 90
      125
 70
   128
 43
0.0
 10
4.2334843779
 20
9.729955936
 10
4.763785291
 20
9.1360958382
 10
5.2831721782
 20
8.521304573
 10
5.790455103
 20
7.8869906523
 10
6.2844718595
 20
7.2346073151
 10
6.7640906353
 20
6.5656491981
 10
7.2282126042
 20
5.8816489117
 10
7.6757744438
 20
5.1841735282
 10
8.1057507719
 20
4.4748209923
 10
8.5171564952
 20
3.7552164594
 10
8.9090490663
 20
3.0270085728
 10
9.2805306435
 20
2.2918656864
 10
9.6307501474
 20
1.5514720424
 10
9.9589052108
 20
0.8075239129
 10
10.2642440172
 20
0.0617257132
 10
10.5460670228
 20
-0.6842139026
 10
10.8037285597
 20
-1.4285859566
 10
11.036638315
 20
-2.1696850619
 10
11.2442626827
 20
-2.9058133305
 10
11.4261259871
 20
-3.6352842625
 10
11.5818115719
 20
-4.3564266104
 10
11.7109627551
 20
-5.0675882076
 10
11.8132836462
 20
-5.7671397541
 10
11.8885398237
 20
-6.4534785486
 10
11.9365588727
 20
-7.1250321613
 10
11.9572307796
 20
-7.7802620353
 10
11.9505081843
 20
-8.4176670124
 10
11.9164064884
 20
-9.0357867719
 10
11.8550038204
 20
-9.6332051762
 10
11.7664408562
 20
-10.2085535155
 10
11.6509204972
 20
-10.7605136432
 10
11.5087074053
 20
-11.2878209964
 10
11.3401273965
 20
-11.7892674923
 10
11.1455666943
 20
-12.2637042967
 10
10.9254710453
 20
-12.7100444555
 10
10.6803446976
 20
-13.1272653853
 10
10.4107492456
 20
-13.514411216
 10
10.1173023434
 20
-13.8705949806
 10
9.8006762899
 20
-14.1950006477
 10
9.4615964882
 20
-14.4868849908
 10
9.100839784
 20
-14.7455792908
 10
8.7192326855
 20
-14.9704908687
 10
8.3176494701
 20
-15.1611044428
 10
7.8970101813
 20
-15.3169833097
 10
7.4582785208
 20
-15.4377703446
 10
7.0024596408
 20
-15.5231888195
 10
6.5305978408
 20
-15.5730430371
 10
6.0437741755
 20
-15.5872187795
 10
5.5431039775
 20
-15.5656835693
 10
5.0297343028
 20
-15.5084867448
 10
4.5048413022
 20
-15.415759346
 10
3.9696275268
 20
-15.2877138153
 10
3.4253191732
 20
-15.1246435102
 10
2.873163274
 20
-14.9269220313
 10
2.3144248409
 20
-14.6950023667
 10
1.7503839662
 20
-14.4294158538
 10
1.1823328907
 20
-14.1307709619
 10
0.6115730424
 20
-13.7997518988
 10
0.0394120554
 20
-13.4371170426
 10
-0.5328392263
 20
-13.0436972044
 10
-1.1038697516
 20
-12.6203937252
 10
-1.6723712664
 20
-12.1681764105
 10
-2.2370413105
 20
-11.6880813084
 10
-2.796586202
 20
-11.1812083365
 10
-3.3497240007
 20
-10.6487187613
 10
-3.8951874454
 20
-10.0918325381
 10
-4.4317268572
 20
-9.5118255159
 10
-4.9581130024
 20
-8.9100265144
 10
-5.473139909
 20
-8.2878142797
 10
-5.9756276293
 20
-7.6466143251
 10
-6.4644249436
 20
-6.987895666
 10
-6.9384119973
 20
-6.3131674536
 10
-7.3965028668
 20
-5.6239755177
 10
-7.8376480472
 20
-4.921898825
 10
-8.2608368571
 20
-4.2085458618
 10
-8.6650997536
 20
-3.4855509488
 10
-9.0495105539
 20
-2.7545704967
 10
-9.4131885573
 20
-2.0172792116
 10
-9.7553005627
 20
-1.2753662577
 10
-10.0750627776
 20
-0.5305313878
 10
-10.3717426137
 20
0.2155189511
 10
-10.6446603654
 20
0.9610755273
 10
-10.8931907671
 20
1.7044302404
 10
-11.1167644255
 20
2.4438800344
 10
-11.3148691242
 20
3.1777307999
 10
-11.4870509974
 20
3.9043012547
 10
-11.6329155693
 20
4.6219267966
 10
-11.7521286582
 20
5.328963316
 10
-11.8444171423
 20
6.0237909637
 10
-11.9095695847
 20
6.7048178611
 10
-11.9474367185
 20
7.370483748
 10
-11.9579317887
 20
8.0192635568
 10
-11.9410307506
 20
8.6496709064
 10
-11.8967723251
 20
9.260261508
 10
-11.8252579101
 20
9.8496364736
 10
-11.7266513481
 20
10.4164455214
 10
-11.6011785507
 20
10.9593900686
 10
-11.4491269812
 20
11.4772262071
 10
-11.2708449959
 20
11.9687675535
 10
-11.0667410461
 20
12.4328879663
 10
-10.8372827422
 20
12.8685241269
 10
-10.5829957825
 20
13.2746779751
 10
-10.304462749
 20
13.6504189959
 10
-10.0023217719
 20
13.9948863513
 10
-9.6772650687
 20
14.3072908527
 10
-9.3300373574
 20
14.5869167685
 10
-8.9614341509
 20
14.8331234644
 10
-8.5722999341
 20
15.0453468709
 10
-8.1635262293
 20
15.2231007756
 10
-7.7360495538
 20
15.3659779369
 10
-7.2908492739
 20
15.4736510175
 10
-6.8289453617
 20
15.545873334
 10
-6.3513960578
 20
15.582479422
 10
-5.8592954471
 20
15.5833854157
 10
-5.3537709521
 20
15.5485892393
 10
-4.83598075
 20
15.4781706123
 10
-4.3071111192
 20
15.3722908665
 10
-3.7683737216
 20
15.2311925769
 10
-3.2210028264
 20
15.0551990053
 10
-2.6662524827
 20
14.8447133602
 10
-2.1053936461
 20
14.6002178727
 10
-1.5397112669
 20
14.322272692
 10
-0.9705013466
 20
14.0115146017
 10
-0.3990679682
 20
13.6686555614
 10
0.1732796911
 20
13.294481075
  0
LWPOLYLINE
  5
7E
330
1F
100
AcDbEntity
  8
0
  6
Continuous
 62
     7
370
    25
100
AcDbPolyline
 90
       56
 70
   128
 43
0.0
 10
10.7860494205
 20
-12.9560825797
 10
10.3864920403
 20
-12.9650339209
 10
9.8858218424
 20
-12.9434987108
 10
9.3724521677
 20
-12.8863018862
 10
8.847559167
 20
-12.7935744875
 10
8.3123453916
 20
-12.6655289568
 10
7.768037038
 20
-12.5024586517
 10
7.2158811389
 20
-12.3047371728
 10
6.6571427057
 20
-12.0728175082
 10
6.0931018311
 20
-11.8072309952
 10
5.5250507555
 20
-11.5085861034
 10
4.9542909072
 20
-11.1775670403
 10
4.3821299202
 20
-10.8149321841
 10
3.8098786386
 20
-10.4215123459
 10
3.2388481133
 20
-9.9982088667
 10
2.6703465985
 20
-9.5459915519
 10
2.1056765543
 20
-9.0658964499
 10
1.5461316628
 20
-8.559023478
 10
0.9929938641
 20
-8.0265339028
 10
0.4475304194
 20
-7.4696476796
 10
-0.0890089923
 20
-6.8896406574
 10
-0.6153951376
 20
-6.2878416559
 10
-1.1304220441
 20
-5.6656294211
 10
-1.6329097645
 20
-5.0244294666
 10
-2.1217070788
 20
-4.3657108075
 10
-2.5956941325
 20
-3.6909825951
 10
-3.0537850019
 20
-3.0017906591
 10
-3.4949301824
 20
-2.2997139664
 10
-3.9181189922
 20
-1.5863610032
 10
-4.3223818887
 20
-0.8633660902
 10
-4.706792689
 20
-0.1323856382
 10
-5.0704706925
 20
0.604905647
 10
-5.4125826979
 20
1.3468186009
 10
-5.7323449128
 20
2.0916534708
 10
-6.0290247488
 20
2.8377038097
 10
-6.3019425006
 20
3.5832603859
 10
-6.5504729022
 20
4.3266150989
 10
-6.7740465606
 20
5.066064893
 10
-6.9721512594
 20
5.7999156584
 10
-7.1443331325
 20
6.5264861133
 10
-7.2901977044
 20
7.2441116551
 10
-7.4094107934
 20
7.9511481746
 10
-7.5016992774
 20
8.6459758222
 10
-7.5668517198
 20
9.3270027197
 10
-7.6047188537
 20
9.9926686066
 10
-7.6152139238
 20
10.6414484153
 10
-7.5983128857
 20
11.2718557649
 10
-7.5540544603
 20
11.8824463665
 10
-7.4825400453
 20
12.4718213322
 10
-7.3839334833
 20
13.0386303799
 10
-7.2584606859
 20
13.5815749271
 10
-7.1064091163
 20
14.0994110657
 10
-6.928127131
 20
14.590952412
 10
-6.7240231812
 20
15.0550728248
 10
-6.4945648773
 20
15.4907089854
 10
-6.4433315556
 20
15.5782674383
  0
LINE
  5
80
330
1F
100
AcDbEntity
  8
0
  6
Continuous
 62
     7
370
    25
100
AcDbLine
 10
10.508437845
 20
-17.4034948805
 30
0.0
 11
14.8511557099
 21
-14.781310022
 31
0.0
  0
LINE
  5
81
330
1F
100
AcDbEntity
  8
0
  6
Continuous
 62
     7
370
    25
100
AcDbLine
 10
-6.1657199802
 20
20.0256797391
 30
0.0
 11
-10.508437845
 21
17.4034948805
 31
0.0
  0
LINE
  5
82
330
1F
100
AcDbEntity
  8
0
  6
Continuous
 62
     7
370
    25
100
AcDbLine
 10
8.895216352
 20
14.4788504207
 30
0.0
 11
4.5524984871
 21
11.8566655621
 31
0.0
  0
LINE
  5
83
330
1F
100
AcDbEntity
  8
0
  6
Continuous
 62
     7
370
    25
100
AcDbLine
 10
0.4888548505
 20
15.3982649194
 30
0.0
 11
4.8315727153
 21
18.020449778
 31
0.0
  0
LINE
  5
84
330
1F
100
AcDbEntity
  8
0
  6
Continuous
 62
     7
370
    25
100
AcDbLine
 10
4.5524984871
 20
11.8566655621
 30
0.0
 11
4.2334843779
 21
9.729955936
 31
0.0
  0
LINE
  5
85
330
1F
100
AcDbEntity
  8
0
  6
Continuous
 62
     7
370
    25
100
AcDbLine
 10
0.4888548505
 20
15.3982649194
 30
0.0
 11
0.1732796911
 21
13.294481075
 31
0.0
  0
LINE
  5
86
330
1F
100
AcDbEntity
  8
0
  6
Continuous
 62
     7
370
    25
100
AcDbLine
 10
4.5159975559
 20
15.9166659335
 30
0.0
 11
0.1732796911
 21
13.294481075
 31
0.0
  0
LINE
  5
87
330
1F
100
AcDbEntity
  8
0
  6
Continuous
 62
     7
370
    25
100
AcDbLine
 10
4.8315727153
 20
18.020449778
 30
0.0
 11
4.5159975559
 21
15.9166659335
 31
0.0
  0
MTEXT
  5
137
330
1F
100
AcDbEntity
  8
0
  6
Continuous
 62
     7
100
AcDbMText
 10
-14.0251814563
 20
-19.3037551825
 30
0.0
 40
4.83362
 41
0.0
 71
     1
 72
     1
  1
SOLIDWORKS Educational Product.
  7
SLDTEXTSTYLE0
 73
     1
 44
1.0
  0
MTEXT
  5
138
330
1F
100
AcDbEntity
  8
0
  6
Continuous
 62
     7
100
AcDbMText
 10
-14.0251814563
 20
-26.5541851825
 30
0.0
 40
4.83362
 41
0.0
 71
     1
 72
     1
  1
For Instructional Use Only.
  7
SLDTEXTSTYLE0
 73
     1
 44
1.0
  0
LINE
  5
8C
330
1B
100
AcDbEntity
 67
     1
  8
0
  6
Continuous
 62
     7
370
    25
100
AcDbLine
 10
-20.33
 20
0.0
 30
0.0
 11
-20.33
 21
-6.0
 31
0.0
  0
LINE
  5
8D
330
1B
100
AcDbEntity
 67
     1
  8
0
  6
Continuous
 62
     7
370
    25
100
AcDbLine
 10
20.33
 20
-6.0
 30
0.0
 11
20.33
 21
0.0
 31
0.0
  0
LINE
  5
8E
330
1B
100
AcDbEntity
 67
     1
  8
0
  6
Continuous
 62
     7
370
    25
100
AcDbLine
 10
20.33
 20
-6.0
 30
0.0
 11
-20.33
 21
-6.0
 31
0.0
  0
LINE
  5
8F
330
1B
100
AcDbEntity
 67
     1
  8
0
  6
Continuous
 62
     7
370
    25
100
AcDbLine
 10
20.33
 20
0.0
 30
0.0
 11
-20.33
 21
0.0
 31
0.0
  0
VIEWPORT
  5
122
330
1B
100
AcDbEntity
 67
     1
  8
0
100
AcDbViewport
 10
0.0
 20
0.0
 30
0.0
 40
205.6
 41
156.0
 68
     1
 69
     1
 12
2.1726636137
 22
1.3118389977
 13
0.0
 23
0.0
 14
10.0
 24
10.0
 15
10.0
 25
10.0
 16
0.0
 26
0.0
 36
1.0
 17
0.0
 27
0.0
 37
0.0
 42
50.0
 43
0.0
 44
0.0
 45
39.9758966886
 50
0.0
 51
0.0
 72
   100
 90
   557152
  1

281
     0
 71
     1
 74
     0
110
0.0
120
0.0
130
0.0
111
1.0
121
0.0
131
0.0
112
0.0
122
1.0
132
0.0
 79
     0
146
0.0
  0
MTEXT
  5
135
330
1B
100
AcDbEntity
 67
     1
  8
0
  6
Continuous
 62
     7
100
AcDbMText
 10
-20.33
 20
-7.0195663917
 30
0.0
 40
4.83362
 41
0.0
 71
     1
 72
     1
  1
SOLIDWORKS Educational Product.
  7
SLDTEXTSTYLE0
 73
     1
 44
1.0
  0
MTEXT
  5
136
330
1B
100
AcDbEntity
 67
     1
  8
0
  6
Continuous
 62
     7
100
AcDbMText
 10
-20.33
 20
-14.2699963917
 30
0.0
 40
4.83362
 41
0.0
 71
     1
 72
     1
  1
For Instructional Use Only.
  7
SLDTEXTSTYLE0
 73
     1
 44
1.0
  0
ENDSEC
  0
SECTION
  2
OBJECTS
  0
DICTIONARY
  5
C
330
0
100
AcDbDictionary
281
     1
  3
ACAD_GROUP
350
D
  3
ACAD_LAYOUT
350
1A
  3
ACAD_MLINESTYLE
350
17
  3
ACAD_PLOTSETTINGS
350
19
  3
ACAD_PLOTSTYLENAME
350
E
  3
ACAD_SCALELIST
350
47
  3
DWGPROPS
350
149
  0
DICTIONARY
  5
D
102
{ACAD_REACTORS
330
C
102
}
330
C
100
AcDbDictionary
281
     1
  0
DICTIONARY
  5
1A
102
{ACAD_REACTORS
330
C
102
}
330
C
100
AcDbDictionary
281
     1
  3
_Back
350
26
  3
_Bottom
350
C1
  3
_Dimetric
350
109
  3
_Front
350
99
  3
_Isometric
350
D5
  3
_Left
350
A5
  3
_Right
350
B1
  3
_Top
350
1E
  3
_Trimetric
350
EF
  3
Model
350
22
  0
DICTIONARY
  5
17
102
{ACAD_REACTORS
330
C
102
}
330
C
100
AcDbDictionary
281
     1
  3
Standard
350
18
  0
DICTIONARY
  5
19
102
{ACAD_REACTORS
330
C
102
}
330
C
100
AcDbDictionary
281
     1
  0
ACDBDICTIONARYWDFLT
  5
E
102
{ACAD_REACTORS
330
C
102
}
330
C
100
AcDbDictionary
281
     1
  3
Normal
350
F
100
AcDbDictionaryWithDefault
340
F
  0
DICTIONARY
  5
47
102
{ACAD_REACTORS
330
C
102
}
330
C
100
AcDbDictionary
281
     1
  3
A0
350
48
  3
A1
350
49
  3
A2
350
4A
  3
A3
350
4B
  3
A4
350
4C
  3
A5
350
4D
  3
A6
350
4E
  3
A7
350
4F
  3
A8
350
50
  3
A9
350
51
  3
B0
350
52
  3
B1
350
53
  3
B2
350
54
  3
B3
350
55
  3
B4
350
56
  3
B5
350
57
  3
B6
350
58
  3
B7
350
59
  3
B8
350
5A
  3
B9
350
5B
  3
C0
350
5C
  3
C1
350
5D
  3
C2
350
5E
  3
C3
350
5F
  3
C4
350
60
  3
C5
350
61
  3
C6
350
62
  3
C7
350
63
  3
C8
350
64
  3
C9
350
65
  3
D0
350
66
  3
D1
350
67
  3
D2
350
68
  0
XRECORD
  5
149
102
{ACAD_REACTORS
330
C
102
}
330
C
100
AcDbXrecord
280
     1
  1
DWGPROPS COOKIE
  2

  3

  4

  6

  7

  8
$5PDJ00-CKN991J3FMM0
  9

300
=
301
=
302
=
303
=
304
=
305
=
306
=
307
=
308
=
309
=
 40
0.0
 41
2459700.038653333
 42
2459700.038699421
  1

 90
        0
  0
LAYOUT
  5
26
102
{ACAD_REACTORS
330
1A
102
}
330
1A
100
AcDbPlotSettings
  1

  2
none_device
  4
ISO_A4_(210.00_x_297.00_MM)
  6

 40
7.5
 41
20.0
 42
7.5
 43
20.0
 44
210.0
 45
297.0
 46
0.0
 47
0.0
 48
0.0
 49
0.0
140
0.0
141
0.0
142
1.0
143
0.1582101167
 70
   688
 72
     1
 73
     1
 74
     1
  7

 75
     0
147
6.3207083128
148
20.33
149
6.0
100
AcDbLayout
  1
_Back
 70
     1
 71
     2
 10
0.0
 20
0.0
 11
0.0
 21
0.0
 12
0.0
 22
0.0
 32
0.0
 14
0.0
 24
0.0
 34
0.0
 15
0.0
 25
0.0
 35
0.0
146
0.0
 13
0.0
 23
0.0
 33
0.0
 16
1.0
 26
0.0
 36
0.0
 17
0.0
 27
1.0
 37
0.0
 76
     0
330
23
331
124
  0
LAYOUT
  5
C1
102
{ACAD_REACTORS
330
1A
102
}
330
1A
100
AcDbPlotSettings
  1

  2
none_device
  4
ISO_A4_(210.00_x_297.00_MM)
  6

 40
7.5
 41
20.0
 42
7.5
 43
20.0
 44
210.0
 45
297.0
 46
0.0
 47
0.0
 48
0.0
 49
0.0
140
0.0
141
0.0
142
1.0
143
0.1582101167
 70
   688
 72
     1
 73
     1
 74
     1
  7

 75
     0
147
6.3207083128
148
20.33
149
6.0
100
AcDbLayout
  1
_Bottom
 70
     1
 71
     6
 10
0.0
 20
0.0
 11
0.0
 21
0.0
 12
0.0
 22
0.0
 32
0.0
 14
0.0
 24
0.0
 34
0.0
 15
0.0
 25
0.0
 35
0.0
146
0.0
 13
0.0
 23
0.0
 33
0.0
 16
1.0
 26
0.0
 36
0.0
 17
0.0
 27
1.0
 37
0.0
 76
     0
330
C0
331
12C
  0
LAYOUT
  5
109
102
{ACAD_REACTORS
330
1A
102
}
330
1A
100
AcDbPlotSettings
  1

  2
none_device
  4
ISO_A4_(210.00_x_297.00_MM)
  6

 40
7.5
 41
20.0
 42
7.5
 43
20.0
 44
210.0
 45
297.0
 46
0.0
 47
0.0
 48
0.0
 49
0.0
140
0.0
141
0.0
142
1.0
143
0.1582101167
 70
   688
 72
     1
 73
     1
 74
     1
  7

 75
     0
147
6.3207083128
148
20.33
149
6.0
100
AcDbLayout
  1
_Dimetric
 70
     1
 71
     9
 10
0.0
 20
0.0
 11
0.0
 21
0.0
 12
0.0
 22
0.0
 32
0.0
 14
0.0
 24
0.0
 34
0.0
 15
0.0
 25
0.0
 35
0.0
146
0.0
 13
0.0
 23
0.0
 33
0.0
 16
1.0
 26
0.0
 36
0.0
 17
0.0
 27
1.0
 37
0.0
 76
     0
330
108
331
132
  0
LAYOUT
  5
99
102
{ACAD_REACTORS
330
1A
102
}
330
1A
100
AcDbPlotSettings
  1

  2
none_device
  4
ISO_A4_(210.00_x_297.00_MM)
  6

 40
7.5
 41
20.0
 42
7.5
 43
20.0
 44
210.0
 45
297.0
 46
0.0
 47
0.0
 48
0.0
 49
0.0
140
0.0
141
0.0
142
1.0
143
0.1582101167
 70
   688
 72
     1
 73
     1
 74
     1
  7

 75
     0
147
6.3207083128
148
20.33
149
6.0
100
AcDbLayout
  1
_Front
 70
     1
 71
     3
 10
0.0
 20
0.0
 11
0.0
 21
0.0
 12
0.0
 22
0.0
 32
0.0
 14
0.0
 24
0.0
 34
0.0
 15
0.0
 25
0.0
 35
0.0
146
0.0
 13
0.0
 23
0.0
 33
0.0
 16
1.0
 26
0.0
 36
0.0
 17
0.0
 27
1.0
 37
0.0
 76
     0
330
98
331
126
  0
LAYOUT
  5
D5
102
{ACAD_REACTORS
330
1A
102
}
330
1A
100
AcDbPlotSettings
  1

  2
none_device
  4
ISO_A4_(210.00_x_297.00_MM)
  6

 40
7.5
 41
20.0
 42
7.5
 43
20.0
 44
210.0
 45
297.0
 46
0.0
 47
0.0
 48
0.0
 49
0.0
140
0.0
141
0.0
142
1.0
143
0.1582101167
 70
   688
 72
     1
 73
     1
 74
     1
  7

 75
     0
147
6.3207083128
148
20.33
149
6.0
100
AcDbLayout
  1
_Isometric
 70
     1
 71
     7
 10
0.0
 20
0.0
 11
0.0
 21
0.0
 12
0.0
 22
0.0
 32
0.0
 14
0.0
 24
0.0
 34
0.0
 15
0.0
 25
0.0
 35
0.0
146
0.0
 13
0.0
 23
0.0
 33
0.0
 16
1.0
 26
0.0
 36
0.0
 17
0.0
 27
1.0
 37
0.0
 76
     0
330
D4
331
12E
  0
LAYOUT
  5
A5
102
{ACAD_REACTORS
330
1A
102
}
330
1A
100
AcDbPlotSettings
  1

  2
none_device
  4
ISO_A4_(210.00_x_297.00_MM)
  6

 40
7.5
 41
20.0
 42
7.5
 43
20.0
 44
210.0
 45
297.0
 46
0.0
 47
0.0
 48
0.0
 49
0.0
140
0.0
141
0.0
142
1.0
143
0.1582101167
 70
   688
 72
     1
 73
     1
 74
     1
  7

 75
     0
147
6.3207083128
148
20.33
149
6.0
100
AcDbLayout
  1
_Left
 70
     1
 71
     4
 10
0.0
 20
0.0
 11
0.0
 21
0.0
 12
0.0
 22
0.0
 32
0.0
 14
0.0
 24
0.0
 34
0.0
 15
0.0
 25
0.0
 35
0.0
146
0.0
 13
0.0
 23
0.0
 33
0.0
 16
1.0
 26
0.0
 36
0.0
 17
0.0
 27
1.0
 37
0.0
 76
     0
330
A4
331
128
  0
LAYOUT
  5
B1
102
{ACAD_REACTORS
330
1A
102
}
330
1A
100
AcDbPlotSettings
  1

  2
none_device
  4
ISO_A4_(210.00_x_297.00_MM)
  6

 40
7.5
 41
20.0
 42
7.5
 43
20.0
 44
210.0
 45
297.0
 46
0.0
 47
0.0
 48
0.0
 49
0.0
140
0.0
141
0.0
142
1.0
143
0.1582101167
 70
   688
 72
     1
 73
     1
 74
     1
  7

 75
     0
147
6.3207083128
148
20.33
149
6.0
100
AcDbLayout
  1
_Right
 70
     1
 71
     5
 10
0.0
 20
0.0
 11
0.0
 21
0.0
 12
0.0
 22
0.0
 32
0.0
 14
0.0
 24
0.0
 34
0.0
 15
0.0
 25
0.0
 35
0.0
146
0.0
 13
0.0
 23
0.0
 33
0.0
 16
1.0
 26
0.0
 36
0.0
 17
0.0
 27
1.0
 37
0.0
 76
     0
330
B0
331
12A
  0
LAYOUT
  5
1E
102
{ACAD_REACTORS
330
1A
102
}
330
1A
100
AcDbPlotSettings
  1

  2
none_device
  4
ISO_A4_(210.00_x_297.00_MM)
  6

 40
7.5
 41
20.0
 42
7.5
 43
20.0
 44
210.0
 45
297.0
 46
0.0
 47
0.0
 48
0.0
 49
0.0
140
0.0
141
0.0
142
1.0
143
0.1582101167
 70
   688
 72
     1
 73
     1
 74
     1
  7

 75
     0
147
6.3207083128
148
20.33
149
6.0
100
AcDbLayout
  1
_Top
 70
     1
 71
     1
 10
-23.4942023346
 20
-7.1865758755
 11
23.4942023346
 21
26.0375486381
 12
0.0
 22
0.0
 32
0.0
 14
-20.33
 24
-6.0
 34
0.0
 15
20.33
 25
0.0
 35
0.0
146
0.0
 13
0.0
 23
0.0
 33
0.0
 16
1.0
 26
0.0
 36
0.0
 17
0.0
 27
1.0
 37
0.0
 76
     0
330
1B
331
122
  0
LAYOUT
  5
EF
102
{ACAD_REACTORS
330
1A
102
}
330
1A
100
AcDbPlotSettings
  1

  2
none_device
  4
ISO_A4_(210.00_x_297.00_MM)
  6

 40
7.5
 41
20.0
 42
7.5
 43
20.0
 44
210.0
 45
297.0
 46
0.0
 47
0.0
 48
0.0
 49
0.0
140
0.0
141
0.0
142
1.0
143
0.1582101167
 70
   688
 72
     1
 73
     1
 74
     1
  7

 75
     0
147
6.3207083128
148
20.33
149
6.0
100
AcDbLayout
  1
_Trimetric
 70
     1
 71
     8
 10
0.0
 20
0.0
 11
0.0
 21
0.0
 12
0.0
 22
0.0
 32
0.0
 14
0.0
 24
0.0
 34
0.0
 15
0.0
 25
0.0
 35
0.0
146
0.0
 13
0.0
 23
0.0
 33
0.0
 16
1.0
 26
0.0
 36
0.0
 17
0.0
 27
1.0
 37
0.0
 76
     0
330
EE
331
130
  0
LAYOUT
  5
22
102
{ACAD_REACTORS
330
1A
102
}
330
1A
100
AcDbPlotSettings
  1

  2
none_device
  4
ANSI_A_(11.00_x_8.50_Inches)
  6

 40
6.35
 41
19.05
 42
6.35000508
 43
19.05000254
 44
279.4
 45
215.9
 46
121.5009814639
 47
81.7456462708
 48
0.0
 49
0.0
140
0.0
141
0.0
142
0.2147118817
143
1.0
 70
  1696
 72
     0
 73
     0
 74
     0
  7

 75
     0
147
0.0179189148
148
-1300.4909072572
149
0.0
100
AcDbLayout
  1
Model
 70
     1
 71
     0
 10
0.0
 20
0.0
 11
420.0
 21
297.0
 12
0.0
 22
0.0
 32
0.0
 14
-14.0251814563
 24
-18.2841887909
 34
0.0
 15
18.3705086836
 25
20.9078667862
 35
0.0
146
0.0
 13
0.0
 23
0.0
 33
0.0
 16
1.0
 26
0.0
 36
0.0
 17
0.0
 27
1.0
 37
0.0
 76
     0
330
1F
331
29
  0
MLINESTYLE
  5
18
102
{ACAD_REACTORS
330
17
102
}
330
17
100
AcDbMlineStyle
  2
Standard
 70
     0
  3

 62
   256
 51
90.0
 52
90.0
 71
     2
 49
0.5
 62
   256
  6
BYLAYER
 49
-0.5
 62
   256
  6
BYLAYER
  0
ACDBPLACEHOLDER
  5
F
102
{ACAD_REACTORS
330
E
102
}
330
E
  0
SCALE
  5
48
102
{ACAD_REACTORS
330
47
102
}
330
47
100
AcDbScale
 70
     0
300
1:1
140
1.0
141
1.0
290
     1
  0
SCALE
  5
49
102
{ACAD_REACTORS
330
47
102
}
330
47
100
AcDbScale
 70
     0
300
1:2
140
1.0
141
2.0
290
     0
  0
SCALE
  5
4A
102
{ACAD_REACTORS
330
47
102
}
330
47
100
AcDbScale
 70
     0
300
1:4
140
1.0
141
4.0
290
     0
  0
SCALE
  5
4B
102
{ACAD_REACTORS
330
47
102
}
330
47
100
AcDbScale
 70
     0
300
1:5
140
1.0
141
5.0
290
     0
  0
SCALE
  5
4C
102
{ACAD_REACTORS
330
47
102
}
330
47
100
AcDbScale
 70
     0
300
1:8
140
1.0
141
8.0
290
     0
  0
SCALE
  5
4D
102
{ACAD_REACTORS
330
47
102
}
330
47
100
AcDbScale
 70
     0
300
1:10
140
1.0
141
10.0
290
     0
  0
SCALE
  5
4E
102
{ACAD_REACTORS
330
47
102
}
330
47
100
AcDbScale
 70
     0
300
1:16
140
1.0
141
16.0
290
     0
  0
SCALE
  5
4F
102
{ACAD_REACTORS
330
47
102
}
330
47
100
AcDbScale
 70
     0
300
1:20
140
1.0
141
20.0
290
     0
  0
SCALE
  5
50
102
{ACAD_REACTORS
330
47
102
}
330
47
100
AcDbScale
 70
     0
300
1:30
140
1.0
141
30.0
290
     0
  0
SCALE
  5
51
102
{ACAD_REACTORS
330
47
102
}
330
47
100
AcDbScale
 70
     0
300
1:40
140
1.0
141
40.0
290
     0
  0
SCALE
  5
52
102
{ACAD_REACTORS
330
47
102
}
330
47
100
AcDbScale
 70
     0
300
1:50
140
1.0
141
50.0
290
     0
  0
SCALE
  5
53
102
{ACAD_REACTORS
330
47
102
}
330
47
100
AcDbScale
 70
     0
300
1:100
140
1.0
141
100.0
290
     0
  0
SCALE
  5
54
102
{ACAD_REACTORS
330
47
102
}
330
47
100
AcDbScale
 70
     0
300
2:1
140
2.0
141
1.0
290
     0
  0
SCALE
  5
55
102
{ACAD_REACTORS
330
47
102
}
330
47
100
AcDbScale
 70
     0
300
4:1
140
4.0
141
1.0
290
     0
  0
SCALE
  5
56
102
{ACAD_REACTORS
330
47
102
}
330
47
100
AcDbScale
 70
     0
300
8:1
140
8.0
141
1.0
290
     0
  0
SCALE
  5
57
102
{ACAD_REACTORS
330
47
102
}
330
47
100
AcDbScale
 70
     0
300
10:1
140
10.0
141
1.0
290
     0
  0
SCALE
  5
58
102
{ACAD_REACTORS
330
47
102
}
330
47
100
AcDbScale
 70
     0
300
100:1
140
100.0
141
1.0
290
     0
  0
SCALE
  5
59
102
{ACAD_REACTORS
330
47
102
}
330
47
100
AcDbScale
 70
     0
300
1/128" = 1'-0"
140
0.0078125
141
12.0
290
     0
  0
SCALE
  5
5A
102
{ACAD_REACTORS
330
47
102
}
330
47
100
AcDbScale
 70
     0
300
1/64" = 1'-0"
140
0.015625
141
12.0
290
     0
  0
SCALE
  5
5B
102
{ACAD_REACTORS
330
47
102
}
330
47
100
AcDbScale
 70
     0
300
1/32" = 1'-0"
140
0.03125
141
12.0
290
     0
  0
SCALE
  5
5C
102
{ACAD_REACTORS
330
47
102
}
330
47
100
AcDbScale
 70
     0
300
1/16" = 1'-0"
140
0.0625
141
12.0
290
     0
  0
SCALE
  5
5D
102
{ACAD_REACTORS
330
47
102
}
330
47
100
AcDbScale
 70
     0
300
3/32" = 1'-0"
140
0.09375
141
12.0
290
     0
  0
SCALE
  5
5E
102
{ACAD_REACTORS
330
47
102
}
330
47
100
AcDbScale
 70
     0
300
1/8" = 1'-0"
140
0.125
141
12.0
290
     0
  0
SCALE
  5
5F
102
{ACAD_REACTORS
330
47
102
}
330
47
100
AcDbScale
 70
     0
300
3/16" = 1'-0"
140
0.1875
141
12.0
290
     0
  0
SCALE
  5
60
102
{ACAD_REACTORS
330
47
102
}
330
47
100
AcDbScale
 70
     0
300
1/4" = 1'-0"
140
0.25
141
12.0
290
     0
  0
SCALE
  5
61
102
{ACAD_REACTORS
330
47
102
}
330
47
100
AcDbScale
 70
     0
300
3/8" = 1'-0"
140
0.375
141
12.0
290
     0
  0
SCALE
  5
62
102
{ACAD_REACTORS
330
47
102
}
330
47
100
AcDbScale
 70
     0
300
1/2" = 1'-0"
140
0.5
141
12.0
290
     0
  0
SCALE
  5
63
102
{ACAD_REACTORS
330
47
102
}
330
47
100
AcDbScale
 70
     0
300
3/4" = 1'-0"
140
0.75
141
12.0
290
     0
  0
SCALE
  5
64
102
{ACAD_REACTORS
330
47
102
}
330
47
100
AcDbScale
 70
     0
300
1" = 1'-0"
140
1.0
141
12.0
290
     0
  0
SCALE
  5
65
102
{ACAD_REACTORS
330
47
102
}
330
47
100
AcDbScale
 70
     0
300
1-1/2" = 1'-0"
140
1.5
141
12.0
290
     0
  0
SCALE
  5
66
102
{ACAD_REACTORS
330
47
102
}
330
47
100
AcDbScale
 70
     0
300
3" = 1'-0"
140
3.0
141
12.0
290
     0
  0
SCALE
  5
67
102
{ACAD_REACTORS
330
47
102
}
330
47
100
AcDbScale
 70
     0
300
6" = 1'-0"
140
6.0
141
12.0
290
     0
  0
SCALE
  5
68
102
{ACAD_REACTORS
330
47
102
}
330
47
100
AcDbScale
 70
     0
300
1'-0" = 1'-0"
140
12.0
141
12.0
290
     0
  0
ENDSEC
  0
EOF
