  0
SECTION
  2
HEADER
  9
$ACADVER
  1
AC1015
  9
$ACADMAINTVER
 70
     6
  9
$DWGCODEPAGE
  3
ANSI_1252
  9
$INSBASE
 10
0.0
 20
0.0
 30
0.0
  9
$EXTMIN
 10
-19.1310248109
 20
-13.2873330816
 30
0.0
  9
$EXTMAX
 10
19.1299343154
 20
13.2875254507
 30
0.0
  9
$LIMMIN
 10
0.0
 20
0.0
  9
$LIMMAX
 10
420.0
 20
297.0
  9
$ORTHOMODE
 70
     0
  9
$REGENMODE
 70
     1
  9
$FILLMODE
 70
     1
  9
$QTEXTMODE
 70
     0
  9
$MIRRTEXT
 70
     1
  9
$LTSCALE
 40
1.0
  9
$ATTMODE
 70
     1
  9
$TEXTSIZE
 40
3.5
  9
$TRACEWID
 40
1.0
  9
$TEXTSTYLE
  7
Standard
  9
$CLAYER
  8
0
  9
$CELTYPE
  6
ByLayer
  9
$CECOLOR
 62
   256
  9
$CELTSCALE
 40
1.0
  9
$DISPSILH
 70
     0
  9
$DIMSCALE
 40
1.0
  9
$DIMASZ
 40
3.302
  9
$DIMEXO
 40
0.0
  9
$DIMDLI
 40
3.75
  9
$DIMRND
 40
0.0
  9
$DIMDLE
 40
0.0
  9
$DIMEXE
 40
1.0
  9
$DIMTP
 40
0.0
  9
$DIMTM
 40
0.0
  9
$DIMTXT
 40
3.5
  9
$DIMCEN
 40
2.5
  9
$DIMTSZ
 40
0.0
  9
$DIMTOL
 70
     0
  9
$DIMLIM
 70
     0
  9
$DIMTIH
 70
     1
  9
$DIMTOH
 70
     1
  9
$DIMSE1
 70
     0
  9
$DIMSE2
 70
     0
  9
$DIMTAD
 70
     1
  9
$DIMZIN
 70
     1
  9
$DIMBLK
  1

  9
$DIMASO
 70
     1
  9
$DIMSHO
 70
     1
  9
$DIMPOST
  1

  9
$DIMAPOST
  1

  9
$DIMALT
 70
     0
  9
$DIMALTD
 70
     3
  9
$DIMALTF
 40
0.0393700787
  9
$DIMLFAC
 40
1.0
  9
$DIMTOFL
 70
     1
  9
$DIMTVP
 40
0.0
  9
$DIMTIX
 70
     0
  9
$DIMSOXD
 70
     0
  9
$DIMSAH
 70
     0
  9
$DIMBLK1
  1

  9
$DIMBLK2
  1

  9
$DIMSTYLE
  2
ISO-25
  9
$DIMCLRD
 70
     0
  9
$DIMCLRE
 70
     0
  9
$DIMCLRT
 70
     0
  9
$DIMTFAC
 40
1.0
  9
$DIMGAP
 40
1.524
  9
$DIMJUST
 70
     0
  9
$DIMSD1
 70
     0
  9
$DIMSD2
 70
     0
  9
$DIMTOLJ
 70
     0
  9
$DIMTZIN
 70
     1
  9
$DIMALTZ
 70
     0
  9
$DIMALTTZ
 70
     0
  9
$DIMUPT
 70
     0
  9
$DIMDEC
 70
     2
  9
$DIMTDEC
 70
     2
  9
$DIMALTU
 70
     2
  9
$DIMALTTD
 70
     3
  9
$DIMTXSTY
  7
Standard
  9
$DIMAUNIT
 70
     0
  9
$DIMADEC
 70
     2
  9
$DIMALTRND
 40
0.0
  9
$DIMAZIN
 70
     0
  9
$DIMDSEP
 70
    44
  9
$DIMATFIT
 70
     3
  9
$DIMFRAC
 70
     0
  9
$DIMLDRBLK
  1

  9
$DIMLUNIT
 70
     2
  9
$DIMLWD
 70
    -2
  9
$DIMLWE
 70
    -2
  9
$DIMTMOVE
 70
     0
  9
$LUNITS
 70
     2
  9
$LUPREC
 70
     2
  9
$SKETCHINC
 40
1.0
  9
$FILLETRAD
 40
10.0
  9
$AUNITS
 70
     0
  9
$AUPREC
 70
     2
  9
$MENU
  1
.
  9
$ELEVATION
 40
0.0
  9
$PELEVATION
 40
0.0
  9
$THICKNESS
 40
0.0
  9
$LIMCHECK
 70
     0
  9
$CHAMFERA
 40
0.0
  9
$CHAMFERB
 40
0.0
  9
$CHAMFERC
 40
0.0
  9
$CHAMFERD
 40
0.0
  9
$SKPOLY
 70
     0
  9
$TDCREATE
 40
2459700.121017789
  9
$TDUCREATE
 40
2459700.037684456
  9
$TDUPDATE
 40
2459700.12107684
  9
$TDUUPDATE
 40
2459700.037743507
  9
$TDINDWG
 40
0.0000000116
  9
$TDUSRTIMER
 40
0.0000000116
  9
$USRTIMER
 70
     1
  9
$ANGBASE
 50
0.0
  9
$ANGDIR
 70
     0
  9
$PDMODE
 70
     0
  9
$PDSIZE
 40
-1.0
  9
$PLINEWID
 40
0.0
  9
$SPLFRAME
 70
     0
  9
$SPLINETYPE
 70
     6
  9
$SPLINESEGS
 70
     8
  9
$HANDSEED
  5
129
  9
$SURFTAB1
 70
     6
  9
$SURFTAB2
 70
     6
  9
$SURFTYPE
 70
     6
  9
$SURFU
 70
     6
  9
$SURFV
 70
     6
  9
$UCSBASE
  2

  9
$UCSNAME
  2

  9
$UCSORG
 10
0.0
 20
0.0
 30
0.0
  9
$UCSXDIR
 10
1.0
 20
0.0
 30
0.0
  9
$UCSYDIR
 10
0.0
 20
1.0
 30
0.0
  9
$UCSORTHOREF
  2

  9
$UCSORTHOVIEW
 70
     0
  9
$UCSORGTOP
 10
0.0
 20
0.0
 30
0.0
  9
$UCSORGBOTTOM
 10
0.0
 20
0.0
 30
0.0
  9
$UCSORGLEFT
 10
0.0
 20
0.0
 30
0.0
  9
$UCSORGRIGHT
 10
0.0
 20
0.0
 30
0.0
  9
$UCSORGFRONT
 10
0.0
 20
0.0
 30
0.0
  9
$UCSORGBACK
 10
0.0
 20
0.0
 30
0.0
  9
$PUCSBASE
  2

  9
$PUCSNAME
  2

  9
$PUCSORG
 10
0.0
 20
0.0
 30
0.0
  9
$PUCSXDIR
 10
1.0
 20
0.0
 30
0.0
  9
$PUCSYDIR
 10
0.0
 20
1.0
 30
0.0
  9
$PUCSORTHOREF
  2

  9
$PUCSORTHOVIEW
 70
     0
  9
$PUCSORGTOP
 10
0.0
 20
0.0
 30
0.0
  9
$PUCSORGBOTTOM
 10
0.0
 20
0.0
 30
0.0
  9
$PUCSORGLEFT
 10
0.0
 20
0.0
 30
0.0
  9
$PUCSORGRIGHT
 10
0.0
 20
0.0
 30
0.0
  9
$PUCSORGFRONT
 10
0.0
 20
0.0
 30
0.0
  9
$PUCSORGBACK
 10
0.0
 20
0.0
 30
0.0
  9
$USERI1
 70
     0
  9
$USERI2
 70
     0
  9
$USERI3
 70
     0
  9
$USERI4
 70
     0
  9
$USERI5
 70
     0
  9
$USERR1
 40
0.0
  9
$USERR2
 40
0.0
  9
$USERR3
 40
0.0
  9
$USERR4
 40
0.0
  9
$USERR5
 40
0.0
  9
$WORLDVIEW
 70
     1
  9
$SHADEDGE
 70
     3
  9
$SHADEDIF
 70
    70
  9
$TILEMODE
 70
     1
  9
$MAXACTVP
 70
    64
  9
$PINSBASE
 10
0.0
 20
0.0
 30
0.0
  9
$PLIMCHECK
 70
     0
  9
$PEXTMIN
 10
-18.55
 20
-5.0
 30
0.0
  9
$PEXTMAX
 10
18.55
 20
5.0
 30
0.0
  9
$PLIMMIN
 10
-21.4371595331
 20
-6.0826848249
  9
$PLIMMAX
 10
21.4371595331
 20
24.2324902724
  9
$UNITMODE
 70
     0
  9
$VISRETAIN
 70
     1
  9
$PLINEGEN
 70
     0
  9
$PSLTSCALE
 70
     1
  9
$TREEDEPTH
 70
  3020
  9
$CMLSTYLE
  2
Standard
  9
$CMLJUST
 70
     0
  9
$CMLSCALE
 40
20.0
  9
$PROXYGRAPHICS
 70
     1
  9
$MEASUREMENT
 70
     1
  9
$CELWEIGHT
370
    -1
  9
$ENDCAPS
280
     0
  9
$JOINSTYLE
280
     0
  9
$LWDISPLAY
290
     1
  9
$INSUNITS
 70
     4
  9
$HYPERLINKBASE
  1

  9
$STYLESHEET
  1

  9
$XEDIT
290
     1
  9
$CEPSNTYPE
380
     0
  9
$PSTYLEMODE
290
     1
  9
$FINGERPRINTGUID
  2
{f477b646-e5c5-4e4f-b5d8-d93826f79abe}
  9
$VERSIONGUID
  2
{FAEB1C32-E019-11D5-929B-00C0DF256EC4}
  9
$EXTNAMES
290
     1
  9
$PSVPSCALE
 40
0.0
  9
$OLESTARTUP
290
     0
  0
ENDSEC
  0
SECTION
  2
CLASSES
  0
CLASS
  1
ACDBDICTIONARYWDFLT
  2
AcDbDictionaryWithDefault
  3
ObjectDBX Classes
 90
        0
280
     0
281
     0
  0
CLASS
  1
VISUALSTYLE
  2
AcDbVisualStyle
  3
ObjectDBX Classes
 90
     4095
280
     0
281
     0
  0
CLASS
  1
MATERIAL
  2
AcDbMaterial
  3
ObjectDBX Classes
 90
     1153
280
     0
281
     0
  0
CLASS
  1
SCALE
  2
AcDbScale
  3
ObjectDBX Classes
 90
     1153
280
     0
281
     0
  0
CLASS
  1
TABLESTYLE
  2
AcDbTableStyle
  3
ObjectDBX Classes
 90
     4095
280
     0
281
     0
  0
CLASS
  1
MLEADERSTYLE
  2
AcDbMLeaderStyle
  3
ACDB_MLEADERSTYLE_CLASS
 90
     4095
280
     0
281
     0
  0
CLASS
  1
SUN
  2
AcDbSun
  3
SCENEOE
 90
     1153
280
     0
281
     0
  0
CLASS
  1
ACDBPLACEHOLDER
  2
AcDbPlaceHolder
  3
ObjectDBX Classes
 90
        0
280
     0
281
     0
  0
CLASS
  1
LAYOUT
  2
AcDbLayout
  3
ObjectDBX Classes
 90
        0
280
     0
281
     0
  0
ENDSEC
  0
SECTION
  2
TABLES
  0
TABLE
  2
VPORT
  5
8
330
0
100
AcDbSymbolTable
 70
     1
  0
VPORT
  5
29
330
8
100
AcDbSymbolTableRecord
100
AcDbViewportTableRecord
  2
*Active
 70
     0
 10
0.0
 20
0.0
 11
1.0
 21
1.0
 12
-0.0005452478
 22
0.0000961845
 13
0.0
 23
0.0
 14
10.0
 24
10.0
 15
10.0
 25
10.0
 16
0.0
 26
0.0
 36
1.0
 17
0.0
 27
0.0
 37
0.0
 40
27.106355703
 41
1.4397427207
 42
50.0
 43
0.0
 44
0.0
 50
0.0
 51
0.0
 71
     0
 72
   100
 73
     1
 74
     3
 75
     0
 76
     0
 77
     0
 78
     0
281
     0
 65
     1
110
0.0
120
0.0
130
0.0
111
1.0
121
0.0
131
0.0
112
0.0
122
1.0
132
0.0
 79
     0
146
0.0
  0
ENDTAB
  0
TABLE
  2
LTYPE
  5
5
330
0
100
AcDbSymbolTable
 70
     6
  0
LTYPE
  5
14
330
5
100
AcDbSymbolTableRecord
100
AcDbLinetypeTableRecord
  2
ByBlock
 70
     0
  3

 72
    65
 73
     0
 40
0.0
  0
LTYPE
  5
15
330
5
100
AcDbSymbolTableRecord
100
AcDbLinetypeTableRecord
  2
ByLayer
 70
     0
  3

 72
    65
 73
     0
 40
0.0
  0
LTYPE
  5
16
330
5
100
AcDbSymbolTableRecord
100
AcDbLinetypeTableRecord
  2
Continuous
 70
     0
  3
Solid line
 72
    65
 73
     0
 40
0.0
  0
LTYPE
  5
6E
330
5
100
AcDbSymbolTableRecord
100
AcDbLinetypeTableRecord
  2
HIDDEN
 70
     0
  3
Hidden __ __ __ __ __ __ __ __ __ __ __ __ __ __
 72
    65
 73
     2
 40
1.905
 49
1.27
 74
     0
 49
-0.635
 74
     0
  0
LTYPE
  5
6F
330
5
100
AcDbSymbolTableRecord
100
AcDbLinetypeTableRecord
  2
PHANTOM
 70
     0
  3
Phantom ______  __  __  ______  __  __  ______
 72
    65
 73
     6
 40
12.7
 49
6.35
 74
     0
 49
-1.27
 74
     0
 49
1.27
 74
     0
 49
-1.27
 74
     0
 49
1.27
 74
     0
 49
-1.27
 74
     0
  0
LTYPE
  5
70
330
5
100
AcDbSymbolTableRecord
100
AcDbLinetypeTableRecord
  2
CENTER
 70
     0
  3
Center ____ _ ____ _ ____ _ ____ _ ____ _ ____
 72
    65
 73
     4
 40
10.16
 49
6.35
 74
     0
 49
-1.27
 74
     0
 49
1.27
 74
     0
 49
-1.27
 74
     0
  0
LTYPE
  5
71
330
5
100
AcDbSymbolTableRecord
100
AcDbLinetypeTableRecord
  2
CENTERX2
 70
     0
  3
Center (2x) ________  __  ________  __  _____
 72
    65
 73
     4
 40
20.32
 49
12.7
 74
     0
 49
-2.54
 74
     0
 49
2.54
 74
     0
 49
-2.54
 74
     0
  0
LTYPE
  5
72
330
5
100
AcDbSymbolTableRecord
100
AcDbLinetypeTableRecord
  2
DOT2
 70
     0
  3
Dot (.5x) ........................................
 72
    65
 73
     2
 40
0.635
 49
0.0
 74
     0
 49
-0.635
 74
     0
  0
ENDTAB
  0
TABLE
  2
LAYER
  5
2
330
0
100
AcDbSymbolTable
 70
     1
  0
LAYER
  5
10
330
2
100
AcDbSymbolTableRecord
100
AcDbLayerTableRecord
  2
0
 70
     0
 62
     7
  6
Continuous
370
    -3
390
F
  0
ENDTAB
  0
TABLE
  2
STYLE
  5
3
330
0
100
AcDbSymbolTable
 70
     2
  0
STYLE
  5
11
330
3
100
AcDbSymbolTableRecord
100
AcDbTextStyleTableRecord
  2
Standard
 70
     0
 40
0.0
 41
1.0
 50
0.0
 71
     0
 42
3.5
  3
txt
  4

  0
STYLE
  5
113
330
3
100
AcDbSymbolTableRecord
100
AcDbTextStyleTableRecord
  2
SLDTEXTSTYLE0
 70
     0
 40
0.0
 41
0.7
 50
0.0
 71
     0
 42
3.5
  3
TXT
  4

  0
ENDTAB
  0
TABLE
  2
VIEW
  5
6
330
0
100
AcDbSymbolTable
 70
     0
  0
ENDTAB
  0
TABLE
  2
UCS
  5
7
330
0
100
AcDbSymbolTable
 70
     0
  0
ENDTAB
  0
TABLE
  2
APPID
  5
9
330
0
100
AcDbSymbolTable
 70
     1
  0
APPID
  5
12
330
9
100
AcDbSymbolTableRecord
100
AcDbRegAppTableRecord
  2
ACAD
 70
     0
  0
ENDTAB
  0
TABLE
  2
DIMSTYLE
  5
A
330
0
100
AcDbSymbolTable
 70
     1
100
AcDbDimStyleTable
  0
DIMSTYLE
105
27
330
A
100
AcDbSymbolTableRecord
100
AcDbDimStyleTableRecord
  2
ISO-25
 70
     0
 41
2.5
 42
0.625
 43
3.75
 44
1.25
 73
     0
 74
     0
 77
     1
 78
     8
140
2.5
141
2.5
143
0.0393700787
147
0.625
171
     3
172
     1
178
     0
271
     2
272
     2
274
     3
278
    44
283
     0
284
     8
340
11
  0
ENDTAB
  0
TABLE
  2
BLOCK_RECORD
  5
1
330
0
100
AcDbSymbolTable
 70
     8
  0
BLOCK_RECORD
  5
1F
330
1
100
AcDbSymbolTableRecord
100
AcDbBlockTableRecord
  2
*Model_Space
340
22
  0
BLOCK_RECORD
  5
1B
330
1
100
AcDbSymbolTableRecord
100
AcDbBlockTableRecord
  2
*Paper_Space
340
1E
  0
BLOCK_RECORD
  5
23
330
1
100
AcDbSymbolTableRecord
100
AcDbBlockTableRecord
  2
*Paper_Space0
340
26
  0
BLOCK_RECORD
  5
96
330
1
100
AcDbSymbolTableRecord
100
AcDbBlockTableRecord
  2
*Paper_Space1
340
97
  0
BLOCK_RECORD
  5
A4
330
1
100
AcDbSymbolTableRecord
100
AcDbBlockTableRecord
  2
*Paper_Space2
340
A5
  0
BLOCK_RECORD
  5
B4
330
1
100
AcDbSymbolTableRecord
100
AcDbBlockTableRecord
  2
*Paper_Space3
340
B5
  0
BLOCK_RECORD
  5
C8
330
1
100
AcDbSymbolTableRecord
100
AcDbBlockTableRecord
  2
*Paper_Space4
340
C9
  0
BLOCK_RECORD
  5
DC
330
1
100
AcDbSymbolTableRecord
100
AcDbBlockTableRecord
  2
*Paper_Space5
340
DD
  0
BLOCK_RECORD
  5
E7
330
1
100
AcDbSymbolTableRecord
100
AcDbBlockTableRecord
  2
*Paper_Space6
340
E8
  0
BLOCK_RECORD
  5
F4
330
1
100
AcDbSymbolTableRecord
100
AcDbBlockTableRecord
  2
*Paper_Space7
340
F5
  0
ENDTAB
  0
ENDSEC
  0
SECTION
  2
BLOCKS
  0
BLOCK
  5
20
330
1F
100
AcDbEntity
  8
0
100
AcDbBlockBegin
  2
*Model_Space
 70
     0
 10
0.0
 20
0.0
 30
0.0
  3
*Model_Space
  1

  0
ENDBLK
  5
21
330
1F
100
AcDbEntity
  8
0
100
AcDbBlockEnd
  0
BLOCK
  5
1C
330
1B
100
AcDbEntity
 67
     1
  8
0
100
AcDbBlockBegin
  2
*Paper_Space
 70
     0
 10
0.0
 20
0.0
 30
0.0
  3
*Paper_Space
  1

  0
ENDBLK
  5
1D
330
1B
100
AcDbEntity
 67
     1
  8
0
100
AcDbBlockEnd
  0
BLOCK
  5
24
330
23
100
AcDbEntity
  8
0
100
AcDbBlockBegin
  2
*Paper_Space0
 70
     0
 10
0.0
 20
0.0
 30
0.0
  3
*Paper_Space0
  1

  0
CIRCLE
  5
94
330
23
100
AcDbEntity
  8
0
  6
Continuous
 62
     7
370
    25
100
AcDbCircle
 10
0.0
 20
11.0
 30
0.0
 40
5.999999999999998
  0
CIRCLE
  5
95
330
23
100
AcDbEntity
  8
0
  6
Continuous
 62
     7
370
    25
100
AcDbCircle
 10
0.0
 20
0.0
 30
0.0
 40
18.55000000000002
  0
VIEWPORT
  5
103
330
23
100
AcDbEntity
  8
0
100
AcDbViewport
 10
0.0
 20
0.0
 30
0.0
 40
205.6
 41
156.0
 68
     1
 69
     1
 12
-0.0005452478
 22
0.0000961845
 13
0.0
 23
0.0
 14
10.0
 24
10.0
 15
10.0
 25
10.0
 16
0.0
 26
0.0
 36
1.0
 17
0.0
 27
0.0
 37
0.0
 42
50.0
 43
0.0
 44
0.0
 45
29.6113026079
 50
0.0
 51
0.0
 72
   100
 90
   557152
  1

281
     0
 71
     1
 74
     0
110
0.0
120
0.0
130
0.0
111
1.0
121
0.0
131
0.0
112
0.0
122
1.0
132
0.0
 79
     0
146
0.0
  0
MTEXT
  5
118
330
23
100
AcDbEntity
  8
0
  6
Continuous
 62
     7
100
AcDbMText
 10
-18.55
 20
-19.5695663917
 30
0.0
 40
4.83362
 41
0.0
 71
     1
 72
     1
  1
SOLIDWORKS Educational Product.
  7
SLDTEXTSTYLE0
 73
     1
 44
1.0
  0
MTEXT
  5
119
330
23
100
AcDbEntity
  8
0
  6
Continuous
 62
     7
100
AcDbMText
 10
-18.55
 20
-26.8199963917
 30
0.0
 40
4.83362
 41
0.0
 71
     1
 72
     1
  1
For Instructional Use Only.
  7
SLDTEXTSTYLE0
 73
     1
 44
1.0
  0
ENDBLK
  5
25
330
23
100
AcDbEntity
  8
0
100
AcDbBlockEnd
  0
BLOCK
  5
98
330
96
100
AcDbEntity
  8
0
100
AcDbBlockBegin
  2
*Paper_Space1
 70
     0
 10
0.0
 20
0.0
 30
0.0
  3
*Paper_Space1
  1

  0
CIRCLE
  5
9D
330
96
100
AcDbEntity
  8
0
  6
Continuous
 62
     7
370
    25
100
AcDbCircle
 10
0.0
 20
11.0
 30
0.0
 40
5.999999999999998
  0
LINE
  5
A0
330
96
100
AcDbEntity
  8
0
  6
Continuous
 62
     7
370
    25
100
AcDbLine
 10
-3.1495858714
 20
-18.2806621554
 30
0.0
 11
-3.1495858714
 21
0.0
 31
0.0
  0
LINE
  5
A1
330
96
100
AcDbEntity
  8
0
  6
Continuous
 62
     7
370
    25
100
AcDbLine
 10
2.8504141286
 20
0.0
 30
0.0
 11
2.8504141286
 21
-18.3296928314
 31
0.0
  0
LINE
  5
A2
330
96
100
AcDbEntity
  8
0
  6
Continuous
 62
     7
370
    25
100
AcDbLine
 10
-3.1495858714
 20
0.0
 30
0.0
 11
2.8504141286
 21
0.0
 31
0.0
  0
ARC
  5
A3
330
96
100
AcDbEntity
  8
0
  6
Continuous
 62
     7
370
    25
100
AcDbCircle
 10
0.0
 20
0.0
 30
0.0
 40
18.55000000000031
100
AcDbArc
 50
278.8391549632
 51
260.2244489447
  0
VIEWPORT
  5
105
330
96
100
AcDbEntity
  8
0
100
AcDbViewport
 10
0.0
 20
0.0
 30
0.0
 40
205.6
 41
156.0
 68
     1
 69
     1
 12
-0.0005452478
 22
0.0000961845
 13
0.0
 23
0.0
 14
10.0
 24
10.0
 15
10.0
 25
10.0
 16
0.0
 26
0.0
 36
1.0
 17
0.0
 27
0.0
 37
0.0
 42
50.0
 43
0.0
 44
0.0
 45
29.6113026079
 50
0.0
 51
0.0
 72
   100
 90
   557152
  1

281
     0
 71
     1
 74
     0
110
0.0
120
0.0
130
0.0
111
1.0
121
0.0
131
0.0
112
0.0
122
1.0
132
0.0
 79
     0
146
0.0
  0
MTEXT
  5
11A
330
96
100
AcDbEntity
  8
0
  6
Continuous
 62
     7
100
AcDbMText
 10
-18.55
 20
-19.3492592231
 30
0.0
 40
4.83362
 41
0.0
 71
     1
 72
     1
  1
SOLIDWORKS Educational Product.
  7
SLDTEXTSTYLE0
 73
     1
 44
1.0
  0
MTEXT
  5
11B
330
96
100
AcDbEntity
  8
0
  6
Continuous
 62
     7
100
AcDbMText
 10
-18.55
 20
-26.5996892231
 30
0.0
 40
4.83362
 41
0.0
 71
     1
 72
     1
  1
For Instructional Use Only.
  7
SLDTEXTSTYLE0
 73
     1
 44
1.0
  0
ENDBLK
  5
99
330
96
100
AcDbEntity
  8
0
100
AcDbBlockEnd
  0
BLOCK
  5
A6
330
A4
100
AcDbEntity
  8
0
100
AcDbBlockBegin
  2
*Paper_Space2
 70
     0
 10
0.0
 20
0.0
 30
0.0
  3
*Paper_Space2
  1

  0
LINE
  5
AE
330
A4
100
AcDbEntity
  8
0
  6
Continuous
 62
     7
370
    25
100
AcDbLine
 10
5.0
 20
18.55
 30
0.0
 11
-5.0
 21
18.55
 31
0.0
  0
LINE
  5
AF
330
A4
100
AcDbEntity
  8
0
  6
Continuous
 62
     7
370
    25
100
AcDbLine
 10
0.0
 20
-18.55
 30
0.0
 11
5.0
 21
-18.55
 31
0.0
  0
LINE
  5
B0
330
A4
100
AcDbEntity
  8
0
  6
Continuous
 62
     7
370
    25
100
AcDbLine
 10
5.0
 20
18.55
 30
0.0
 11
5.0
 21
-18.55
 31
0.0
  0
LINE
  5
B1
330
A4
100
AcDbEntity
  8
0
  6
Continuous
 62
     7
370
    25
100
AcDbLine
 10
-5.0
 20
18.55
 30
0.0
 11
-5.0
 21
-18.3296928314
 31
0.0
  0
LINE
  5
B2
330
A4
100
AcDbEntity
  8
0
  6
Continuous
 62
     7
370
    25
100
AcDbLine
 10
0.0
 20
-18.55
 30
0.0
 11
0.0
 21
-18.3296928314
 31
0.0
  0
LINE
  5
B3
330
A4
100
AcDbEntity
  8
0
  6
Continuous
 62
     7
370
    25
100
AcDbLine
 10
0.0
 20
-18.3296928314
 30
0.0
 11
-5.0
 21
-18.3296928314
 31
0.0
  0
VIEWPORT
  5
107
330
A4
100
AcDbEntity
  8
0
100
AcDbViewport
 10
0.0
 20
0.0
 30
0.0
 40
205.6
 41
156.0
 68
     1
 69
     1
 12
-0.0005452478
 22
0.0000961845
 13
0.0
 23
0.0
 14
10.0
 24
10.0
 15
10.0
 25
10.0
 16
0.0
 26
0.0
 36
1.0
 17
0.0
 27
0.0
 37
0.0
 42
50.0
 43
0.0
 44
0.0
 45
29.6113026079
 50
0.0
 51
0.0
 72
   100
 90
   557152
  1

281
     0
 71
     1
 74
     0
110
0.0
120
0.0
130
0.0
111
1.0
121
0.0
131
0.0
112
0.0
122
1.0
132
0.0
 79
     0
146
0.0
  0
MTEXT
  5
11C
330
A4
100
AcDbEntity
  8
0
  6
Continuous
 62
     7
100
AcDbMText
 10
-5.0
 20
-19.5695663917
 30
0.0
 40
4.83362
 41
0.0
 71
     1
 72
     1
  1
SOLIDWORKS Educational Product.
  7
SLDTEXTSTYLE0
 73
     1
 44
1.0
  0
MTEXT
  5
11D
330
A4
100
AcDbEntity
  8
0
  6
Continuous
 62
     7
100
AcDbMText
 10
-5.0
 20
-26.8199963917
 30
0.0
 40
4.83362
 41
0.0
 71
     1
 72
     1
  1
For Instructional Use Only.
  7
SLDTEXTSTYLE0
 73
     1
 44
1.0
  0
ENDBLK
  5
A7
330
A4
100
AcDbEntity
  8
0
100
AcDbBlockEnd
  0
BLOCK
  5
B6
330
B4
100
AcDbEntity
  8
0
100
AcDbBlockBegin
  2
*Paper_Space3
 70
     0
 10
0.0
 20
0.0
 30
0.0
  3
*Paper_Space3
  1

  0
LINE
  5
C1
330
B4
100
AcDbEntity
  8
0
  6
Continuous
 62
     7
370
    25
100
AcDbLine
 10
-5.0
 20
-18.55
 30
0.0
 11
0.0
 21
-18.55
 31
0.0
  0
LINE
  5
C2
330
B4
100
AcDbEntity
  8
0
  6
Continuous
 62
     7
370
    25
100
AcDbLine
 10
5.0
 20
18.55
 30
0.0
 11
-5.0
 21
18.55
 31
0.0
  0
LINE
  5
C3
330
B4
100
AcDbEntity
  8
0
  6
Continuous
 62
     7
370
    25
100
AcDbLine
 10
-5.0
 20
-18.55
 30
0.0
 11
-5.0
 21
18.55
 31
0.0
  0
LINE
  5
C4
330
B4
100
AcDbEntity
  8
0
  6
Continuous
 62
     7
370
    25
100
AcDbLine
 10
5.0
 20
-18.3296928314
 30
0.0
 11
5.0
 21
18.55
 31
0.0
  0
LINE
  5
C5
330
B4
100
AcDbEntity
  8
0
  6
Continuous
 62
     7
370
    25
100
AcDbLine
 10
5.0
 20
-18.2806621554
 30
0.0
 11
0.0
 21
-18.2806621554
 31
0.0
  0
LINE
  5
C6
330
B4
100
AcDbEntity
  8
0
  6
Continuous
 62
     7
370
    25
100
AcDbLine
 10
0.0
 20
-18.2806621554
 30
0.0
 11
0.0
 21
-18.55
 31
0.0
  0
LINE
  5
C7
330
B4
100
AcDbEntity
  8
0
  6
Continuous
 62
     7
370
    25
100
AcDbLine
 10
0.0
 20
-18.3296928314
 30
0.0
 11
5.0
 21
-18.3296928314
 31
0.0
  0
VIEWPORT
  5
109
330
B4
100
AcDbEntity
  8
0
100
AcDbViewport
 10
0.0
 20
0.0
 30
0.0
 40
205.6
 41
156.0
 68
     1
 69
     1
 12
-0.0005452478
 22
0.0000961845
 13
0.0
 23
0.0
 14
10.0
 24
10.0
 15
10.0
 25
10.0
 16
0.0
 26
0.0
 36
1.0
 17
0.0
 27
0.0
 37
0.0
 42
50.0
 43
0.0
 44
0.0
 45
29.6113026079
 50
0.0
 51
0.0
 72
   100
 90
   557152
  1

281
     0
 71
     1
 74
     0
110
0.0
120
0.0
130
0.0
111
1.0
121
0.0
131
0.0
112
0.0
122
1.0
132
0.0
 79
     0
146
0.0
  0
MTEXT
  5
11E
330
B4
100
AcDbEntity
  8
0
  6
Continuous
 62
     7
100
AcDbMText
 10
-5.0
 20
-19.5695663917
 30
0.0
 40
4.83362
 41
0.0
 71
     1
 72
     1
  1
SOLIDWORKS Educational Product.
  7
SLDTEXTSTYLE0
 73
     1
 44
1.0
  0
MTEXT
  5
11F
330
B4
100
AcDbEntity
  8
0
  6
Continuous
 62
     7
100
AcDbMText
 10
-5.0
 20
-26.8199963917
 30
0.0
 40
4.83362
 41
0.0
 71
     1
 72
     1
  1
For Instructional Use Only.
  7
SLDTEXTSTYLE0
 73
     1
 44
1.0
  0
ENDBLK
  5
B7
330
B4
100
AcDbEntity
  8
0
100
AcDbBlockEnd
  0
BLOCK
  5
CA
330
C8
100
AcDbEntity
  8
0
100
AcDbBlockBegin
  2
*Paper_Space4
 70
     0
 10
0.0
 20
0.0
 30
0.0
  3
*Paper_Space4
  1

  0
LINE
  5
D5
330
C8
100
AcDbEntity
  8
0
  6
Continuous
 62
     7
370
    25
100
AcDbLine
 10
-18.55
 20
5.0
 30
0.0
 11
-18.55
 21
-5.0
 31
0.0
  0
LINE
  5
D6
330
C8
100
AcDbEntity
  8
0
  6
Continuous
 62
     7
370
    25
100
AcDbLine
 10
18.55
 20
-5.0
 30
0.0
 11
18.55
 21
5.0
 31
0.0
  0
LINE
  5
D7
330
C8
100
AcDbEntity
  8
0
  6
Continuous
 62
     7
370
    25
100
AcDbLine
 10
-18.55
 20
5.0
 30
0.0
 11
18.55
 21
5.0
 31
0.0
  0
LINE
  5
D8
330
C8
100
AcDbEntity
  8
0
  6
Continuous
 62
     7
370
    25
100
AcDbLine
 10
-18.55
 20
-5.0
 30
0.0
 11
18.55
 21
-5.0
 31
0.0
  0
LINE
  5
D9
330
C8
100
AcDbEntity
  8
0
  6
Continuous
 62
     7
370
    25
100
AcDbLine
 10
3.1495858714
 20
-5.0
 30
0.0
 11
3.1495858714
 21
0.0
 31
0.0
  0
LINE
  5
DA
330
C8
100
AcDbEntity
  8
0
  6
Continuous
 62
     7
370
    25
100
AcDbLine
 10
3.1495858714
 20
0.0
 30
0.0
 11
-2.8504141286
 21
0.0
 31
0.0
  0
LINE
  5
DB
330
C8
100
AcDbEntity
  8
0
  6
Continuous
 62
     7
370
    25
100
AcDbLine
 10
-2.8504141286
 20
0.0
 30
0.0
 11
-2.8504141286
 21
-5.0
 31
0.0
  0
VIEWPORT
  5
10B
330
C8
100
AcDbEntity
  8
0
100
AcDbViewport
 10
0.0
 20
0.0
 30
0.0
 40
205.6
 41
156.0
 68
     1
 69
     1
 12
-0.0005452478
 22
0.0000961845
 13
0.0
 23
0.0
 14
10.0
 24
10.0
 15
10.0
 25
10.0
 16
0.0
 26
0.0
 36
1.0
 17
0.0
 27
0.0
 37
0.0
 42
50.0
 43
0.0
 44
0.0
 45
29.6113026079
 50
0.0
 51
0.0
 72
   100
 90
   557152
  1

281
     0
 71
     1
 74
     0
110
0.0
120
0.0
130
0.0
111
1.0
121
0.0
131
0.0
112
0.0
122
1.0
132
0.0
 79
     0
146
0.0
  0
MTEXT
  5
120
330
C8
100
AcDbEntity
  8
0
  6
Continuous
 62
     7
100
AcDbMText
 10
-18.55
 20
-6.0195663917
 30
0.0
 40
4.83362
 41
0.0
 71
     1
 72
     1
  1
SOLIDWORKS Educational Product.
  7
SLDTEXTSTYLE0
 73
     1
 44
1.0
  0
MTEXT
  5
121
330
C8
100
AcDbEntity
  8
0
  6
Continuous
 62
     7
100
AcDbMText
 10
-18.55
 20
-13.2699963917
 30
0.0
 40
4.83362
 41
0.0
 71
     1
 72
     1
  1
For Instructional Use Only.
  7
SLDTEXTSTYLE0
 73
     1
 44
1.0
  0
ENDBLK
  5
CB
330
C8
100
AcDbEntity
  8
0
100
AcDbBlockEnd
  0
BLOCK
  5
DE
330
DC
100
AcDbEntity
  8
0
100
AcDbBlockBegin
  2
*Paper_Space5
 70
     0
 10
0.0
 20
0.0
 30
0.0
  3
*Paper_Space5
  1

  0
LWPOLYLINE
  5
E2
330
DC
100
AcDbEntity
  8
0
  6
Continuous
 62
     7
370
    25
100
AcDbPolyline
 90
      142
 70
   128
 43
0.0
 10
9.5812968851
 20
-9.6132055167
 10
9.5682757584
 20
-8.9309449024
 10
9.5292382306
 20
-8.2350049805
 10
9.464261807
 20
-7.5267674753
 10
9.3734754923
 20
-6.8076385269
 10
9.2570595344
 20
-6.0790458991
 10
9.1152450664
 20
-5.3424361453
 10
8.9483136477
 20
-4.5992717358
 10
8.7565967053
 20
-3.8510281549
 10
8.5404748754
 20
-3.0991909709
 10
8.3003772478
 20
-2.345252887
 10
8.0367805142
 20
-1.5907107773
 10
7.7502080215
 20
-0.8370627155
 10
7.4412287329
 20
-0.085805
 10
7.1104560981
 20
0.6615708166
 10
6.7585468357
 20
1.4035808887
 10
6.3861996287
 20
2.138752024
 10
5.9941537382
 20
2.8656246083
 10
5.5831875351
 20
3.5827555034
 10
5.1541169545
 20
4.2887209122
 10
4.7077938766
 20
4.9821192058
 10
4.2451044343
 20
5.6615737061
 10
3.7669672549
 20
6.3257354189
 10
3.2743316353
 20
6.9732857128
 10
2.7681756581
 20
7.6029389366
 10
2.249504249
 20
8.213444972
 10
1.7193471822
 20
8.8035917158
 10
1.1787570354
 20
9.3722074864
 10
0.6288071002
 20
9.9181633497
 10
0.0705892515
 20
10.4403753609
 10
-0.4947882209
 20
10.9378067163
 10
-1.0662028125
 20
11.4094698122
 10
-1.6425200323
 20
11.854428205
 10
-2.222595656
 20
12.2717984711
 10
-2.805277997
 20
12.6607519604
 10
-3.3894101936
 20
13.0205164417
 10
-3.9738325052
 20
13.3503776361
 10
-4.5573846156
 20
13.6496806346
 10
-5.1389079359
 20
13.9178311989
 10
-5.7172479056
 20
14.1542969407
 10
-6.291256284
 20
14.3586083794
 10
-6.8597934308
 20
14.5303598733
 10
-7.4217305679
 20
14.6692104259
 10
-7.9759520213
 20
14.7748843622
 10
-8.5213574356
 20
14.8471718763
 10
-9.0568639588
 20
14.8859294482
 10
-9.5814083922
 20
14.8910801283
 10
-10.0939493014
 20
14.8626136903
 10
-10.593469084
 20
14.8005866517
 10
-11.0789759896
 20
14.7051221615
 10
-11.5495060892
 20
14.5764097555
 10
-12.0041251888
 20
14.4147049804
 10
-12.4419306843
 20
14.2203288861
 10
-12.8620533534
 20
13.9936673881
 10
-13.2636590815
 20
13.7351705021
 10
-13.6459505175
 20
13.4453514496
 10
-14.0081686572
 20
13.1247856395
 10
-14.34959435
 20
12.7741095255
 10
-14.6695497268
 20
12.3940193427
 10
-14.9673995458
 20
11.9852697249
 10
-15.2425524537
 20
11.5486722066
 10
-15.49446216
 20
11.0850936118
 10
-15.7226285211
 20
10.5954543328
 10
-15.9265985341
 20
10.0807265033
 10
-16.1059672351
 20
9.5419320675
 10
-16.2603785044
 20
8.980140752
 10
-16.3895257726
 20
8.3964679415
 10
-16.4931526297
 20
7.7920724642
 10
-16.5710533343
 20
7.1681542915
 10
-16.6230732217
 20
6.5259521551
 10
-16.6491090112
 20
5.8667410879
 10
-16.6491090112
 20
5.1918298926
 10
-16.6230732217
 20
4.5025585427
 10
-16.5710533343
 20
3.8002955227
 10
-16.4931526297
 20
3.086435111
 10
-16.3895257726
 20
2.3623946111
 10
-16.2603785044
 20
1.6296115386
 10
-16.1059672351
 20
0.8895407664
 10
-15.9265985341
 20
0.1436516366
 10
-15.7226285211
 20
-0.6065749572
 10
-15.49446216
 20
-1.3596495094
 10
-15.2425524537
 20
-2.1140768601
 10
-14.9673995458
 20
-2.8683591638
 10
-14.6695497268
 20
-3.6209988627
 10
-14.34959435
 20
-4.3705016604
 10
-14.0081686572
 20
-5.1153794884
 10
-13.6459505175
 20
-5.8541534608
 10
-13.2636590815
 20
-6.5853568102
 10
-12.8620533534
 20
-7.3075378001
 10
-12.4419306843
 20
-8.0192626069
 10
-12.0041251888
 20
-8.719118167
 10
-11.5495060892
 20
-9.4057149819
 10
-11.0789759896
 20
-10.0776898771
 10
-10.593469084
 20
-10.7337087088
 10
-10.0939493014
 20
-11.3724690122
 10
-9.5814083922
 20
-11.9927025879
 10
-9.0568639588
 20
-12.5931780196
 10
-8.5213574356
 20
-13.1727031188
 10
-7.9759520213
 20
-13.7301272922
 10
-7.4217305679
 20
-14.2643438256
 10
-6.8597934308
 20
-14.7742920815
 10
-6.291256284
 20
-15.2589596049
 10
-5.7172479056
 20
-15.7173841333
 10
-5.1389079359
 20
-16.1486555072
 10
-4.5573846156
 20
-16.5519174772
 10
-3.9738325052
 20
-16.926369404
 10
-3.3894101936
 20
-17.271267848
 10
-2.805277997
 20
-17.5859280453
 10
-2.222595656
 20
-17.869725267
 10
-1.6425200323
 20
-18.1220960602
 10
-1.0662028125
 20
-18.342539366
 10
-0.4947882209
 20
-18.5306175145
 10
0.0705892515
 20
-18.6859570941
 10
0.6288071002
 20
-18.8082496924
 10
1.1787570354
 20
-18.8972525087
 10
1.7193471822
 20
-18.9527888362
 10
2.249504249
 20
-18.9747484127
 10
2.7681756581
 20
-18.9630876394
 10
3.2743316353
 20
-18.9178296678
 10
3.7669672549
 20
-18.8390643533
 10
4.2451044343
 20
-18.7269480772
 10
4.7077938766
 20
-18.581703436
 10
5.1541169545
 20
-18.4036187995
 10
5.5831875351
 20
-18.1930477382
 10
5.9941537382
 20
-17.9504083215
 10
6.3861996287
 20
-17.6761822874
 10
6.7585468357
 20
-17.3709140865
 10
7.1104560981
 20
-17.0352098004
 10
7.4412287329
 20
-16.6697359389
 10
7.7502080215
 20
-16.2752181166
 10
8.0367805142
 20
-15.8524396121
 10
8.3003772478
 20
-15.4022398129
 10
8.5404748754
 20
-14.9255125492
 10
8.7565967053
 20
-14.4232043186
 10
8.9483136477
 20
-13.8963124078
 10
9.1152450664
 20
-13.3458829119
 10
9.2570595344
 20
-12.7730086576
 10
9.3734754923
 20
-12.1788270338
 10
9.464261807
 20
-11.5645177331
 10
9.5292382306
 20
-10.9313004098
 10
9.5682757584
 20
-10.2804322582
 10
9.5812968851
 20
-9.6132055167
  0
LWPOLYLINE
  5
E3
330
DC
100
AcDbEntity
  8
0
  6
Continuous
 62
     7
370
    25
100
AcDbPolyline
 90
       73
 70
   128
 43
0.0
 10
12.8097801511
 20
-14.0241861176
 10
12.8819156903
 20
-13.9818903648
 10
13.2817562862
 20
-13.7224640984
 10
13.6623305288
 20
-13.4318765424
 10
14.0228860984
 20
-13.1107021311
 10
14.3627102477
 20
-12.7595757626
 10
14.6811312119
 20
-12.3791915443
 10
14.9775195355
 20
-11.9703014206
 10
15.2512893175
 20
-11.5337136863
 10
15.5018993693
 20
-11.0702913889
 10
15.7288542844
 20
-10.5809506228
 10
15.9317054178
 20
-10.0666587176
 10
16.1100517729
 20
-9.5284323269
 10
16.2635407943
 20
-8.9673354176
 10
16.3918690646
 20
-8.3844771673
 10
16.4947829042
 20
-7.7810097714
 10
16.5720788727
 20
-7.1581261656
 10
16.6236041714
 20
-6.5170576675
 10
16.6492569449
 20
-5.8590715427
 10
16.6489864827
 20
-5.1854684996
 10
16.6227933196
 20
-4.497580118
 10
16.5707292342
 20
-3.7967662173
 10
16.4928971469
 20
-3.0844121677
 10
16.3894509163
 20
-2.3619261524
 10
16.2605950352
 20
-1.6307363832
 10
16.1065842262
 20
-0.8922882777
 10
15.9277229381
 20
-0.1480416015
 10
15.7243647444
 20
0.6005324169
 10
15.4969116439
 20
1.3519539948
 10
15.2458132663
 20
2.1047377203
 10
14.9715659836
 20
2.8573954891
 10
14.6747119284
 20
3.6084394456
 10
14.3558379223
 20
4.3563849246
 10
14.0155743161
 20
5.0997533858
 10
13.6545937438
 20
5.8370753369
 10
13.2736097924
 20
6.5668932383
 10
12.8733755918
 20
7.2877643844
 10
12.454682326
 20
7.9982637555
 10
12.0183576685
 20
8.6969868351
 10
11.5652641469
 20
9.3825523858
 10
11.0962974375
 20
10.0536051802
 10
10.6123845947
 20
10.7088186796
 10
10.1144822183
 20
11.3468976568
 10
9.6035745629
 20
11.9665807557
 10
9.0806715918
 20
12.5666429855
 10
8.5468069807
 20
13.145898142
 10
8.0030360743
 20
13.7032011522
 10
7.4504338001
 20
14.2374503385
 10
6.8900925435
 20
14.7475895958
 10
6.3231199882
 20
15.2326104798
 10
5.7506369268
 20
15.6915542002
 10
5.173775045
 20
16.1235135161
 10
4.5936746847
 20
16.5276345294
 10
4.0114825894
 20
16.9031183727
 10
3.4283496377
 20
17.2492227889
 10
2.8454285681
 20
17.565263598
 10
2.2638717003
 20
17.8506160498
 10
1.6848286569
 20
18.104716059
 10
1.1094440917
 20
18.3270613202
 10
0.538855426
 20
18.5172123008
 10
-0.0258093993
 20
18.6747931099
 10
-0.5834341536
 20
18.7994922414
 10
-1.1329165231
 20
18.8910631898
 10
-1.6731702898
 20
18.9493249376
 10
-2.2031274789
 20
18.9741623126
 10
-2.72174047
 20
18.9655262165
 10
-3.2279840678
 20
18.9234337209
 10
-3.7208575289
 20
18.8479680345
 10
-4.1993865399
 20
18.7392783379
 10
-4.6626251437
 20
18.5975794893
 10
-5.1096576092
 20
18.4231515992
 10
-5.5396002417
 20
18.2163394769
 10
-5.7387123393
 20
18.1062266767
  0
LWPOLYLINE
  5
E4
330
DC
100
AcDbEntity
  8
0
  6
Continuous
 62
     7
370
    25
100
AcDbPolyline
 90
       81
 70
   128
 43
0.0
 10
0.7071067812
 20
4.4917043157
 10
0.6940281359
 20
4.8836447793
 10
0.6548728341
 20
5.2882690821
 10
0.5898822813
 20
5.7030825807
 10
0.4994571659
 20
6.1255278119
 10
0.3841549887
 20
6.5530002605
 10
0.2446866261
 20
6.9828644166
 10
0.0819119468
 20
7.4124700247
 10
-0.103165489
 20
7.8391684235
 10
-0.3094046175
 20
8.2603288754
 10
-0.5355339059
 20
8.6733547861
 10
-0.7801591919
 20
9.0756997137
 10
-1.0417722793
 20
9.4648830677
 10
-1.3187602363
 20
9.8385054035
 10
-1.6094153402
 20
10.1942632151
 10
-1.9119456055
 20
10.5299631372
 10
-2.2244858326
 20
10.8435354683
 10
-2.545109107
 20
11.1330469306
 10
-2.8718386797
 20
11.3967125896
 10
-3.2026601541
 20
11.632906859
 10
-3.5355339059
 20
11.8401735225
 10
-3.8684076577
 20
12.0172347122
 10
-4.1992291322
 20
12.162998787
 10
-4.5259587048
 20
12.2765670629
 10
-4.8465819793
 20
12.3572393537
 10
-5.1591222064
 20
12.4045182879
 10
-5.4616524717
 20
12.4181123752
 10
-5.7523075756
 20
12.3979378034
 10
-6.0292955326
 20
12.3441189556
 10
-6.2909086199
 20
12.2569876429
 10
-6.5355339059
 20
12.1370810586
 10
-6.7616631943
 20
11.9851384669
 10
-6.9679023228
 20
11.8020966443
 10
-7.1529797587
 20
11.5890841046
 10
-7.3157544379
 20
11.3474141408
 10
-7.4552228006
 20
11.0785767286
 10
-7.5705249777
 20
10.7842293401
 10
-7.6609500931
 20
10.4661867249
 10
-7.7259406459
 20
10.1264097214
 10
-7.7650959477
 20
9.7669931678
 10
-7.7781745931
 20
9.3901529867
 10
-7.7650959477
 20
8.9982125231
 10
-7.7259406459
 20
8.5935882203
 10
-7.6609500931
 20
8.1787747217
 10
-7.5705249777
 20
7.7563294905
 10
-7.4552228006
 20
7.3288570419
 10
-7.3157544379
 20
6.8989928858
 10
-7.1529797587
 20
6.4693872777
 10
-6.9679023228
 20
6.0426888789
 10
-6.7616631943
 20
5.621528427
 10
-6.5355339059
 20
5.2085025162
 10
-6.2909086199
 20
4.8061575887
 10
-6.0292955326
 20
4.4169742346
 10
-5.7523075756
 20
4.0433518988
 10
-5.4616524717
 20
3.6875940873
 10
-5.1591222064
 20
3.3518941651
 10
-4.8465819793
 20
3.0383218341
 10
-4.5259587048
 20
2.7488103718
 10
-4.1992291322
 20
2.4851447128
 10
-3.8684076577
 20
2.2489504434
 10
-3.5355339059
 20
2.0416837799
 10
-3.2026601541
 20
1.8646225902
 10
-2.8718386797
 20
1.7188585154
 10
-2.545109107
 20
1.6052902395
 10
-2.2244858326
 20
1.5246179487
 10
-1.9119456055
 20
1.4773390145
 10
-1.6094153402
 20
1.4637449272
 10
-1.3187602363
 20
1.4839194989
 10
-1.0417722793
 20
1.5377383467
 10
-0.7801591919
 20
1.6248696595
 10
-0.5355339059
 20
1.7447762437
 10
-0.3094046175
 20
1.8967188354
 10
-0.103165489
 20
2.079760658
 10
0.0819119468
 20
2.2927731978
 10
0.2446866261
 20
2.5344431616
 10
0.3841549887
 20
2.8032805738
 10
0.4994571659
 20
3.0976279622
 10
0.5898822813
 20
3.4156705775
 10
0.6548728341
 20
3.755447581
 10
0.6940281359
 20
4.1148641346
 10
0.7071067812
 20
4.4917043157
  0
LINE
  5
E5
330
DC
100
AcDbEntity
  8
0
  6
Continuous
 62
     7
370
    25
100
AcDbLine
 10
5.7387123393
 20
-18.1062266767
 30
0.0
 11
12.8097801511
 21
-14.0241861176
 31
0.0
  0
LINE
  5
E6
330
DC
100
AcDbEntity
  8
0
  6
Continuous
 62
     7
370
    25
100
AcDbLine
 10
-5.7387123393
 20
18.1062266767
 30
0.0
 11
-12.8097801511
 21
14.0241861176
 31
0.0
  0
VIEWPORT
  5
10D
330
DC
100
AcDbEntity
  8
0
100
AcDbViewport
 10
0.0
 20
0.0
 30
0.0
 40
205.6
 41
156.0
 68
     1
 69
     1
 12
-0.0005452478
 22
0.0000961845
 13
0.0
 23
0.0
 14
10.0
 24
10.0
 15
10.0
 25
10.0
 16
0.0
 26
0.0
 36
1.0
 17
0.0
 27
0.0
 37
0.0
 42
50.0
 43
0.0
 44
0.0
 45
29.6113026079
 50
0.0
 51
0.0
 72
   100
 90
   557152
  1

281
     0
 71
     1
 74
     0
110
0.0
120
0.0
130
0.0
111
1.0
121
0.0
131
0.0
112
0.0
122
1.0
132
0.0
 79
     0
146
0.0
  0
MTEXT
  5
122
330
DC
100
AcDbEntity
  8
0
  6
Continuous
 62
     7
100
AcDbMText
 10
-16.6491090112
 20
-19.9943148044
 30
0.0
 40
4.83362
 41
0.0
 71
     1
 72
     1
  1
SOLIDWORKS Educational Product.
  7
SLDTEXTSTYLE0
 73
     1
 44
1.0
  0
MTEXT
  5
123
330
DC
100
AcDbEntity
  8
0
  6
Continuous
 62
     7
100
AcDbMText
 10
-16.6491090112
 20
-27.2447448044
 30
0.0
 40
4.83362
 41
0.0
 71
     1
 72
     1
  1
For Instructional Use Only.
  7
SLDTEXTSTYLE0
 73
     1
 44
1.0
  0
ENDBLK
  5
DF
330
DC
100
AcDbEntity
  8
0
100
AcDbBlockEnd
  0
BLOCK
  5
E9
330
E7
100
AcDbEntity
  8
0
100
AcDbBlockBegin
  2
*Paper_Space6
 70
     0
 10
0.0
 20
0.0
 30
0.0
  3
*Paper_Space6
  1

  0
LWPOLYLINE
  5
ED
330
E7
100
AcDbEntity
  8
0
  6
Continuous
 62
     7
370
    25
100
AcDbPolyline
 90
      142
 70
   128
 43
0.0
 10
14.0724792125
 20
-6.7363323804
 10
14.0561929588
 20
-6.0235909886
 10
14.0073665326
 20
-5.3034121694
 10
13.9260968743
 20
-4.577225771
 10
13.8125453373
 20
-3.8464735694
 10
13.6669373675
 20
-3.1126064054
 10
13.4895620562
 20
-2.3770813044
 10
13.2807715656
 20
-1.6413585833
 10
13.0409804299
 20
-0.9068989515
 10
12.7706647322
 20
-0.1751606106
 10
12.4703611593
 20
0.5524036405
 10
12.1406659362
 20
1.2743492906
 10
11.7822336422
 20
1.9892429832
 10
11.3957759114
 20
2.6956653632
 10
10.9820600199
 20
3.3922138943
 10
10.5419073624
 20
4.0775056439
 10
10.076191821
 20
4.7501800286
 10
9.5858380311
 20
5.4089015157
 10
9.0718195445
 20
6.0523622746
 10
8.5351568975
 20
6.6792847737
 10
7.9769155841
 20
7.2884243162
 10
7.3982039407
 20
7.8785715121
 10
6.8001709456
 20
8.4485546787
 10
6.1840039382
 20
8.9972421671
 10
5.5509262609
 20
9.5235446092
 10
4.9021948308
 20
10.0264170802
 10
4.2390976441
 20
10.5048611733
 10
3.562951219
 20
10.9579269821
 10
2.8750979816
 20
11.3847149863
 10
2.1769036008
 20
11.7843778379
 10
1.469754277
 20
12.1561220432
 10
0.7550539896
 20
12.4992095387
 10
0.0342217099
 20
12.8129591557
 10
-0.6913114163
 20
13.0967479735
 10
-1.4201049102
 20
13.3500125556
 10
-2.1507118197
 20
13.5722500687
 10
-2.8816815924
 20
13.7630192808
 10
-3.6115629556
 20
13.9219414372
 10
-4.3389067972
 20
14.0487010127
 10
-5.0622690436
 20
14.1430463379
 10
-5.7802135258
 20
14.2047900989
 10
-6.4913148316
 20
14.2338097091
 10
-7.1941611351
 20
14.2300475529
 10
-7.8873570001
 20
14.1935110996
 10
-8.5695261503
 20
14.124272889
 10
-9.2393142021
 20
14.0224703872
 10
-9.8953913532
 20
13.8883057135
 10
-10.5364550232
 20
13.7220452395
 10
-11.1612324396
 20
13.5240190601
 10
-11.7684831645
 20
13.2946203378
 10
-12.357001558
 20
13.0343045226
 10
-12.9256191711
 20
12.7435884474
 10
-13.4732070664
 20
12.4230493021
 10
-13.9986780586
 20
12.0733234875
 10
-14.5009888737
 20
11.6951053519
 10
-14.9791422203
 20
11.2891458122
 10
-15.4321887689
 20
10.8562508637
 10
-15.8592290377
 20
10.3972799792
 10
-16.2594151777
 20
9.9131444028
 10
-16.6319526565
 20
9.404805341
 10
-16.9761018352
 20
8.8732720539
 10
-17.2911794375
 20
8.3195998516
 10
-17.5765599062
 20
7.7448879991
 10
-17.8316766446
 20
7.1502775335
 10
-18.056023142
 20
6.5369489988
 10
-18.2491539793
 20
5.9061201022
 10
-18.4106857131
 20
5.259043296
 10
-18.5402976371
 20
4.5970032913
 10
-18.6377324188
 20
3.9213145072
 10
-18.7027966104
 20
3.2333184612
 10
-18.735361033
 20
2.5343811059
 10
-18.735361033
 20
1.8258901167
 10
-18.7027966104
 20
1.1092521368
 10
-18.6377324188
 20
0.3858899847
 10
-18.5402976371
 20
-0.3427601712
 10
-18.4106857131
 20
-1.0752516633
 10
-18.2491539793
 20
-1.8101301976
 10
-18.056023142
 20
-2.5459367408
 10
-17.8316766446
 20
-3.2812104171
 10
-17.5765599062
 20
-4.0144914087
 10
-17.2911794375
 20
-4.7443238541
 10
-16.9761018352
 20
-5.4692587384
 10
-16.6319526565
 20
-6.1878567707
 10
-16.2594151777
 20
-6.8986912409
 10
-15.8592290377
 20
-7.6003508531
 10
-15.4321887689
 20
-8.291442527
 10
-14.9791422203
 20
-8.9705941641
 10
-14.5009888737
 20
-9.6364573717
 10
-13.9986780586
 20
-10.2877101401
 10
-13.4732070664
 20
-10.9230594671
 10
-12.9256191711
 20
-11.5412439254
 10
-12.357001558
 20
-12.1410361671
 10
-11.7684831645
 20
-12.7212453602
 10
-11.1612324396
 20
-13.2807195529
 10
-10.5364550232
 20
-13.8183479612
 10
-9.8953913532
 20
-14.3330631735
 10
-9.2393142021
 20
-14.8238432705
 10
-8.5695261503
 20
-15.2897138536
 10
-7.8873570001
 20
-15.7297499801
 10
-7.1941611351
 20
-16.1430779988
 10
-6.4913148316
 20
-16.5288772852
 10
-5.7802135258
 20
-16.8863818706
 10
-5.0622690436
 20
-17.2148819628
 10
-4.3389067972
 20
-17.5137253552
 10
-3.6115629556
 20
-17.7823187218
 10
-2.8816815924
 20
-18.0201287955
 10
-2.1507118197
 20
-18.2266834263
 10
-1.4201049102
 20
-18.4015725192
 10
-0.6913114163
 20
-18.544448848
 10
0.0342217099
 20
-18.655028745
 10
0.7550539896
 20
-18.7330926641
 10
1.469754277
 20
-18.7784856166
 10
2.1769036008
 20
-18.7911174789
 10
2.8750979816
 20
-18.7709631717
 10
3.562951219
 20
-18.7180627095
 10
4.2390976441
 20
-18.6325211213
 10
4.9021948308
 20
-18.514508242
 10
5.5509262609
 20
-18.3642583751
 10
6.1840039382
 20
-18.182069828
 10
6.8001709456
 20
-17.9683043191
 10
7.3982039407
 20
-17.72338626
 10
7.9769155841
 20
-17.4478019129
 10
8.5351568975
 20
-17.142098425
 10
9.0718195445
 20
-16.8068827423
 10
9.5858380311
 20
-16.4428204045
 10
10.076191821
 20
-16.0506342236
 10
10.5419073624
 20
-15.631102849
 10
10.9820600199
 20
-15.1850592214
 10
11.3957759114
 20
-14.7133889192
 10
11.7822336422
 20
-14.2170284001
 10
12.1406659362
 20
-13.6969631419
 10
12.4703611593
 20
-13.1542256862
 10
12.7706647322
 20
-12.5898935877
 10
13.0409804299
 20
-12.0050872758
 10
13.2807715656
 20
-11.4009678292
 10
13.4895620562
 20
-10.7787346711
 10
13.6669373675
 20
-10.1396231879
 10
13.8125453373
 20
-9.4849022763
 10
13.9260968743
 20
-8.815871824
 10
14.0073665326
 20
-8.1338601291
 10
14.0561929588
 20
-7.4402212626
 10
14.0724792125
 20
-6.7363323804
  0
LWPOLYLINE
  5
EE
330
E7
100
AcDbEntity
  8
0
  6
Continuous
 62
     7
370
    25
100
AcDbPolyline
 90
       73
 70
   128
 43
0.0
 10
15.2902467876
 20
-10.9974169334
 10
15.4505966982
 20
-10.8375505987
 10
15.8756338268
 20
-10.3785331987
 10
16.2739007909
 20
-9.8944972363
 10
16.6446102953
 20
-9.3863995548
 10
16.9870295209
 20
-8.8552445628
 10
17.3004815726
 20
-8.3020822486
 10
17.5843468176
 20
-7.7280061047
 10
17.8380641105
 20
-7.134150966
 10
18.0611319026
 20
-6.5216907665
 10
18.2531092328
 20
-5.891836219
 10
18.4136166
 20
-5.2458324212
 10
18.5423367128
 20
-4.5849563949
 10
18.6390151172
 20
-3.9105145611
 10
18.7034606989
 20
-3.2238401579
 10
18.7355460619
 20
-2.5262906048
 10
18.7352077797
 20
-1.8192448191
 10
18.7024465211
 20
-1.1041004905
 10
18.6373270486
 20
-0.3822713178
 10
18.5399780904
 20
0.3448157854
 10
18.4105920862
 20
1.075723512
 10
18.2494248066
 20
1.809007002
 10
18.0567948474
 20
2.5432166989
 10
17.8330829998
 20
3.2769012155
 10
17.578731498
 20
4.0086102026
 10
17.2942431445
 20
4.7368972165
 10
16.9801803165
 20
5.4603225777
 10
16.6371638541
 20
6.1774562175
 10
16.2658718329
 20
6.8868805046
 10
15.8670382238
 20
7.5871930474
 10
15.441451442
 20
8.2770094668
 10
14.9899527882
 20
8.9549661321
 10
14.5134347861
 20
9.6197228572
 10
14.0128394173
 20
10.2699655495
 10
13.48915626
 20
10.9044088079
 10
12.943420532
 20
11.5217984636
 10
12.3767110449
 20
12.1209140594
 10
11.7901480712
 20
12.7005712624
 10
11.18489113
 20
13.259624205
 10
10.5621366943
 20
13.79696775
 10
9.9231158265
 20
14.3115396757
 10
9.2690917443
 20
14.8023227751
 10
8.6013573241
 20
15.2683468672
 10
7.9212325446
 20
15.7086907146
 10
7.2300618779
 20
16.1224838446
 10
6.5292116317
 20
16.5089082701
 10
5.8200672482
 20
16.8672001064
 10
5.1040305656
 20
17.1966510814
 10
4.3825170467
 20
17.4966099359
 10
3.6569529809
 20
17.7664837104
 10
2.9287726649
 20
18.005738918
 10
2.1994155671
 20
18.2139025984
 10
1.470323482
 20
18.3905632532
 10
0.7429376806
 20
18.5353716593
 10
0.0186960606
 20
18.6480415591
 10
-0.7009696957
 20
18.7283502265
 10
-1.4146369513
 20
18.7761389071
 10
-2.1208949274
 20
18.7913131322
 10
-2.8183474918
 20
18.7738429054
 10
-3.5056159186
 20
18.7237627618
 10
-4.1813416142
 20
18.6411717
 10
-4.8441888026
 20
18.5262329861
 10
-5.492847166
 20
18.3791738312
 10
-6.1260344353
 20
18.2002849423
 10
-6.7424989244
 20
17.9899199472
 10
-7.3410220052
 20
17.7484946959
 10
-7.9204205158
 20
17.4764864383
 10
-8.4795491
 20
17.174432881
 10
-9.0173024714
 20
16.8429311241
 10
-9.5326175978
 20
16.4826364809
 10
-10.0244758032
 20
16.0942611827
 10
-10.4919047814
 20
15.6785729706
 10
-10.6232928983
 20
15.5525070014
  0
LWPOLYLINE
  5
EF
330
E7
100
AcDbEntity
  8
0
  6
Continuous
 62
     7
370
    25
100
AcDbPolyline
 90
       81
 70
   128
 43
0.0
 10
2.9730317854
 20
5.7090999056
 10
2.95667359
 20
6.1170611404
 10
2.9076998573
 20
6.5313987726
 10
2.8264125268
 20
6.9495582728
 10
2.7133127619
 20
7.3689615487
 10
2.5690978601
 20
7.7870228397
 10
2.3946569545
 20
8.2011646588
 10
2.1910655311
 20
8.608833684
 10
1.9595787988
 20
9.0075165003
 10
1.7016239502
 20
9.3947550954
 10
1.4187913628
 20
9.7681620147
 10
1.1128247935
 20
10.1254350804
 10
0.785610628
 20
10.4643715851
 10
0.4391662505
 20
10.7828818727
 10
0.0756276056
 20
11.0790022213
 10
-0.30276397
 20
11.3509069504
 10
-0.6936755663
 20
11.5969196771
 10
-1.0946970834
 20
11.815523651
 10
-1.5033560902
 20
12.0053711059
 10
-1.9171330682
 20
12.1652915691
 10
-2.3334769447
 20
12.2942990779
 10
-2.7498208211
 20
12.391598258
 10
-3.1635977991
 20
12.4565892277
 10
-3.5722568059
 20
12.4888712959
 10
-3.973278323
 20
12.488245433
 10
-4.3641899193
 20
12.4547154976
 10
-4.7425814949
 20
12.3884882131
 10
-5.1061201398
 20
12.2899718925
 10
-5.4525645173
 20
12.1597739217
 10
-5.7797786828
 20
11.9986970147
 10
-6.0857452521
 20
11.8077342639
 10
-6.3685778395
 20
11.5880630184
 10
-6.6265326881
 20
11.3410376243
 10
-6.8580194204
 20
11.0681810754
 10
-7.0616108438
 20
10.7711756231
 10
-7.2360517494
 20
10.4518524046
 10
-7.3802666512
 20
10.1121801539
 10
-7.4933664161
 20
9.7542530634
 10
-7.5746537466
 20
9.3802778725
 10
-7.6236274793
 20
8.9925602626
 10
-7.6399856747
 20
8.5934906418
 10
-7.6236274793
 20
8.185529407
 10
-7.5746537466
 20
7.7711917748
 10
-7.4933664161
 20
7.3530322746
 10
-7.3802666512
 20
6.9336289987
 10
-7.2360517494
 20
6.5155677077
 10
-7.0616108438
 20
6.1014258886
 10
-6.8580194204
 20
5.6937568634
 10
-6.6265326881
 20
5.2950740471
 10
-6.3685778395
 20
4.907835452
 10
-6.0857452521
 20
4.5344285327
 10
-5.7797786828
 20
4.177155467
 10
-5.4525645173
 20
3.8382189623
 10
-5.1061201398
 20
3.5197086747
 10
-4.7425814949
 20
3.2235883261
 10
-4.3641899193
 20
2.951683597
 10
-3.973278323
 20
2.7056708703
 10
-3.5722568059
 20
2.4870668965
 10
-3.1635977991
 20
2.2972194415
 10
-2.7498208211
 20
2.1372989783
 10
-2.3334769447
 20
2.0082914695
 10
-1.9171330682
 20
1.9109922894
 10
-1.5033560902
 20
1.8460013198
 10
-1.0946970834
 20
1.8137192515
 10
-0.6936755663
 20
1.8143451144
 10
-0.30276397
 20
1.8478750498
 10
0.0756276056
 20
1.9141023343
 10
0.4391662505
 20
2.0126186549
 10
0.785610628
 20
2.1428166257
 10
1.1128247935
 20
2.3038935327
 10
1.4187913628
 20
2.4948562835
 10
1.7016239502
 20
2.714527529
 10
1.9595787988
 20
2.9615529231
 10
2.1910655311
 20
3.234409472
 10
2.3946569545
 20
3.5314149243
 10
2.5690978601
 20
3.8507381428
 10
2.7133127619
 20
4.1904103935
 10
2.8264125268
 20
4.548337484
 10
2.9076998573
 20
4.922312675
 10
2.95667359
 20
5.3100302848
 10
2.9730317854
 20
5.7090999056
  0
LINE
  5
F1
330
E7
100
AcDbEntity
  8
0
  6
Continuous
 62
     7
370
    25
100
AcDbLine
 10
10.6232928983
 20
-15.5525070014
 30
0.0
 11
15.2902467876
 21
-10.9974169334
 31
0.0
  0
LINE
  5
F2
330
E7
100
AcDbEntity
  8
0
  6
Continuous
 62
     7
370
    25
100
AcDbLine
 10
-10.6232928983
 20
15.5525070014
 30
0.0
 11
-15.2902467876
 21
10.9974169334
 31
0.0
  0
ARC
  5
F3
330
E7
100
AcDbEntity
  8
0
  6
Continuous
 62
     7
370
    25
100
AcDbCircle
 10
4.32731616
 20
13.6524335398
 30
0.0
 40
7.35282086251275
100
AcDbArc
 50
189.629309651
 51
258.980757587
  0
VIEWPORT
  5
10F
330
E7
100
AcDbEntity
  8
0
100
AcDbViewport
 10
0.0
 20
0.0
 30
0.0
 40
205.6
 41
156.0
 68
     1
 69
     1
 12
-0.0005452478
 22
0.0000961845
 13
0.0
 23
0.0
 14
10.0
 24
10.0
 15
10.0
 25
10.0
 16
0.0
 26
0.0
 36
1.0
 17
0.0
 27
0.0
 37
0.0
 42
50.0
 43
0.0
 44
0.0
 45
29.6113026079
 50
0.0
 51
0.0
 72
   100
 90
   557152
  1

281
     0
 71
     1
 74
     0
110
0.0
120
0.0
130
0.0
111
1.0
121
0.0
131
0.0
112
0.0
122
1.0
132
0.0
 79
     0
146
0.0
  0
MTEXT
  5
124
330
E7
100
AcDbEntity
  8
0
  6
Continuous
 62
     7
100
AcDbMText
 10
-18.735361033
 20
-19.8106838706
 30
0.0
 40
4.83362
 41
0.0
 71
     1
 72
     1
  1
SOLIDWORKS Educational Product.
  7
SLDTEXTSTYLE0
 73
     1
 44
1.0
  0
MTEXT
  5
125
330
E7
100
AcDbEntity
  8
0
  6
Continuous
 62
     7
100
AcDbMText
 10
-18.735361033
 20
-27.0611138706
 30
0.0
 40
4.83362
 41
0.0
 71
     1
 72
     1
  1
For Instructional Use Only.
  7
SLDTEXTSTYLE0
 73
     1
 44
1.0
  0
ENDBLK
  5
EA
330
E7
100
AcDbEntity
  8
0
100
AcDbBlockEnd
  0
BLOCK
  5
F6
330
F4
100
AcDbEntity
  8
0
100
AcDbBlockBegin
  2
*Paper_Space7
 70
     0
 10
0.0
 20
0.0
 30
0.0
  3
*Paper_Space7
  1

  0
LWPOLYLINE
  5
FA
330
F4
100
AcDbEntity
  8
0
  6
Continuous
 62
     7
370
    25
100
AcDbPolyline
 90
      142
 70
   128
 43
0.0
 10
15.5841691792
 20
-3.745162375
 10
15.5669438477
 20
-2.9639075034
 10
15.5153020524
 20
-2.1798633654
 10
15.4293463235
 20
-1.3945866082
 10
15.309247318
 20
-0.609636326
 10
15.1552434814
 20
0.173429035
 10
14.967640574
 20
0.953054771
 10
14.7468110641
 20
1.7276930074
 10
14.4931933882
 20
2.4958057715
 10
14.2072910807
 20
3.2558680467
 10
13.8896717743
 20
4.0063707995
 10
13.5409660725
 20
4.7458239763
 10
13.1618662984
 20
5.4727594613
 10
12.7531251194
 20
6.1857339912
 10
12.3155540533
 20
6.8833320212
 10
11.850021857
 20
7.564168535
 10
11.3574528015
 20
8.2268917947
 10
10.8388248372
 20
8.8701860245
 10
10.2951676517
 20
9.4927740234
 10
9.7275606262
 20
10.0934197005
 10
9.1371306918
 20
10.6709305294
 10
8.5250500926
 20
11.2241599159
 10
7.8925340579
 20
11.7520094741
 10
7.2408383897
 20
12.2534312076
 10
6.5712569695
 20
12.7274295901
 10
5.8851191892
 20
13.1730635415
 10
5.1837873118
 20
13.589448297
 10
4.468653767
 20
13.9757571631
 10
3.741138386
 20
14.3312231594
 10
3.0026855834
 20
14.655140541
 10
2.2547614889
 20
14.9468661999
 10
1.4988510365
 20
15.2058209418
 10
0.7364550165
 20
15.4314906361
 10
-0.0309129044
 20
15.6234272366
 10
-0.8017291883
 20
15.7812496707
 10
-1.5744634508
 20
15.9046445967
 10
-2.3475814994
 20
15.9933670255
 10
-3.11954838
 20
16.0472408067
 10
-3.8888314236
 20
16.0661589791
 10
-4.6539032901
 20
16.0500839823
 10
-5.4132450001
 20
15.9990477318
 10
-6.1653489508
 20
15.9131515552
 10
-6.9087219095
 20
15.7925659916
 10
-7.641887978
 20
15.6375304524
 10
-8.363391523
 20
15.4483527462
 10
-9.0718000658
 20
15.225408468
 10
-9.7657071271
 20
14.969140253
 10
-10.4437350184
 20
14.6800568979
 10
-11.1045375783
 20
14.358732351
 10
-11.7468028443
 20
14.0058045725
 10
-12.3692556582
 20
13.6219742678
 10
-12.9706601977
 20
13.2080034964
 10
-13.5498224296
 20
12.764714159
 10
-14.1055924809
 20
12.2929863656
 10
-14.6368669217
 20
11.7937566879
 10
-15.1425909558
 20
11.2680163004
 10
-15.6217605148
 20
10.7168090118
 10
-16.073424252
 20
10.1412291933
 10
-16.4966854308
 20
9.5424196053
 10
-16.8907037053
 20
8.9215691287
 10
-17.2546967888
 20
8.2799104048
 10
-17.5879420066
 20
7.6187173876
 10
-17.8897777312
 20
6.9393028145
 10
-18.1596046958
 20
6.2430156004
 10
-18.3968871838
 20
5.531238159
 10
-18.6011540928
 20
4.8053836586
 10
-18.7719998699
 20
4.0668932161
 10
-18.9090853165
 20
3.3172330359
 10
-19.0121382622
 20
2.5578914989
 10
-19.0809541048
 20
1.7903762074
 10
-19.1153962169
 20
1.016210992
 10
-19.1153962169
 20
0.2369328861
 10
-19.0809541048
 20
-0.5459109258
 10
-19.0121382622
 20
-1.3307661798
 10
-18.9090853165
 20
-2.1160746183
 10
-18.7719998699
 20
-2.9002770842
 10
-18.6011540928
 20
-3.6818166161
 10
-18.3968871838
 20
-4.4591415396
 10
-18.1596046958
 20
-5.230708548
 10
-17.8897777312
 20
-5.9949857664
 10
-17.5879420066
 20
-6.7504557931
 10
-17.2546967888
 20
-7.4956187124
 10
-16.8907037053
 20
-8.2289950722
 10
-16.4966854308
 20
-8.9491288217
 10
-16.073424252
 20
-9.654590202
 10
-15.6217605148
 20
-10.3439785847
 10
-15.1425909558
 20
-11.0159252531
 10
-14.6368669217
 20
-11.6690961193
 10
-14.1055924809
 20
-12.3021943729
 10
-13.5498224296
 20
-12.913963056
 10
-12.9706601977
 20
-13.5031875585
 10
-12.3692556582
 20
-14.0686980297
 10
-11.7468028443
 20
-14.6093717008
 10
-11.1045375783
 20
-15.1241351144
 10
-10.4437350184
 20
-15.6119662554
 10
-9.7657071271
 20
-16.0718965802
 10
-9.0718000658
 20
-16.5030129396
 10
-8.363391523
 20
-16.9044593921
 10
-7.641887978
 20
-17.2754389029
 10
-6.9087219095
 20
-17.6152149266
 10
-6.1653489508
 20
-17.9231128691
 10
-5.4132450001
 20
-18.1985214278
 10
-4.6539032901
 20
-18.4408938044
 10
-3.8888314236
 20
-18.649748791
 10
-3.11954838
 20
-18.8246717253
 10
-2.3475814994
 20
-18.9653153141
 10
-1.5744634508
 20
-19.0714003225
 10
-0.8017291883
 20
-19.1427161286
 10
-0.0309129044
 20
-19.1791211413
 10
0.7364550165
 20
-19.1805430821
 10
1.4988510365
 20
-19.1469791276
 10
2.2547614889
 20
-19.0784959161
 10
3.0026855834
 20
-18.9752294145
 10
3.741138386
 20
-18.8373846491
 10
4.468653767
 20
-18.6652352978
 10
5.1837873118
 20
-18.4591231472
 10
5.8851191892
 20
-18.2194574139
 10
6.5712569695
 20
-17.9467139321
 10
7.2408383897
 20
-17.6414342087
 10
7.8925340579
 20
-17.3042243482
 10
8.5250500926
 20
-16.9357538497
 10
9.1371306918
 20
-16.5367542773
 10
9.7275606262
 20
-16.1080178077
 10
10.2951676517
 20
-15.6503956573
 10
10.8388248372
 20
-15.1647963928
 10
11.3574528015
 20
-14.6521841263
 10
11.850021857
 20
-14.1135766023
 10
12.3155540533
 20
-13.5500431759
 10
12.7531251194
 20
-12.9627026908
 10
13.1618662984
 20
-12.352721257
 10
13.5409660725
 20
-11.7213099363
 10
13.8896717743
 20
-11.0697223373
 10
14.2072910807
 20
-10.3992521269
 10
14.4931933882
 20
-9.7112304617
 10
14.7468110641
 20
-9.007023345
 10
14.967640574
 20
-8.2880289149
 10
15.1552434814
 20
-7.5556746681
 10
15.309247318
 20
-6.8114146264
 10
15.4293463235
 20
-6.0567264491
 10
15.5153020524
 20
-5.2931084997
 10
15.5669438477
 20
-4.522076871
 10
15.5841691792
 20
-3.745162375
  0
LWPOLYLINE
  5
FB
330
F4
100
AcDbEntity
  8
0
  6
Continuous
 62
     7
370
    25
100
AcDbPolyline
 90
       73
 70
   128
 43
0.0
 10
14.0374386578
 20
-12.353476089
 10
14.1318678829
 20
-12.2694591506
 10
14.6608072732
 20
-11.7700387499
 10
15.164259674
 20
-11.2442694297
 10
15.6412298594
 20
-10.693190532
 10
16.0907749538
 20
-10.1178914306
 10
16.5120062954
 20
-9.5195093782
 10
16.9040911933
 20
-8.8992272575
 10
17.2662545733
 20
-8.2582712437
 10
17.5977805098
 20
-7.5979083799
 10
17.8980136419
 20
-6.9194440728
 10
18.1663604679
 20
-6.2242195121
 10
18.4022905194
 20
-5.5136090193
 10
18.6053374092
 20
-4.7890173306
 10
18.7750997539
 20
-4.0518768205
 10
18.9112419669
 20
-3.3036446699
 10
19.0134949219
 20
-2.5457999857
 10
19.0816564852
 20
-1.7798408768
 10
19.1155919147
 20
-1.0072814929
 10
19.115234127
 20
-0.229649031
 10
19.0805838291
 20
0.5515192833
 10
19.011709518
 20
1.334679235
 10
18.9087473445
 20
2.1182826717
 10
18.7719008444
 20
2.9007805644
 10
18.6014405362
 20
3.6806260698
 10
18.3977033863
 20
4.4562775875
 10
18.1610921425
 20
5.2262018079
 10
17.8920745387
 20
5.9888767433
 10
17.5911823692
 20
6.7427947362
 10
17.2590104384
 20
7.4864654398
 10
16.8962153845
 20
8.2184187645
 10
16.5035143816
 20
8.9372077831
 10
16.0816837217
 20
9.6414115922
 10
15.6315572806
 20
10.3296381201
 10
15.1540248694
 20
11.0005268792
 10
14.6500304749
 20
11.652751655
 10
14.1205703945
 20
12.2850231284
 10
13.5666912659
 20
12.8960914237
 10
12.9894879986
 20
13.4847485797
 10
12.3901016092
 20
14.0498309378
 10
11.7697169661
 20
14.590221442
 10
11.1295604468
 20
15.1048518472
 10
10.4708975143
 20
15.5927048308
 10
9.7950302147
 20
16.0528160041
 10
9.103294604
 20
16.4842758183
 10
8.3970581066
 20
16.8862313628
 10
7.6777168123
 20
17.2578880509
 10
6.9466927166
 20
17.5985111909
 10
6.2054309094
 20
17.9074274384
 10
5.4553967186
 20
18.1840261269
 10
4.6980728134
 20
18.4277604756
 10
3.9349562734
 20
18.6381486699
 10
3.1675556289
 20
18.814774814
 10
2.3973878792
 20
18.957289753
 10
1.6259754935
 20
19.065411763
 10
0.8548434014
 20
19.1389271082
 10
0.0855159786
 20
19.1776904634
 10
-0.680485967
 20
19.1816252009
 10
-1.4416482009
 20
19.1507235427
 10
-2.1964660561
 20
19.0850465752
 10
-2.9434474071
 20
18.9847241287
 10
-3.6811156195
 20
18.849954521
 10
-4.4080124692
 20
18.6810041648
 10
-5.122701025
 20
18.4782070415
 10
-5.8237684891
 20
18.241964041
 10
-6.5098289897
 20
17.9727421689
 10
-7.179526321
 20
17.6710736236
 10
-7.8315366239
 20
17.3375547441
 10
-8.464571003
 20
16.9728448312
 10
-9.0773780747
 20
16.5776648443
 10
-9.6687464406
 20
16.152795976
 10
-10.2375070824
 20
15.699078108
 10
-10.5019047527
 20
15.4715239107
  0
LWPOLYLINE
  5
FC
330
F4
100
AcDbEntity
  8
0
  6
Continuous
 62
     7
370
    25
100
AcDbPolyline
 90
       81
 70
   128
 43
0.0
 10
3.8447191278
 20
8.104768766
 10
3.8274177063
 20
8.5507802093
 10
3.7756201107
 20
8.9984013922
 10
3.6896456906
 20
9.4448725813
 10
3.5700245068
 20
9.8874411331
 10
3.4174940636
 20
10.3233784654
 10
3.2329947619
 20
10.7499968796
 10
3.0176641014
 20
11.1646661313
 10
2.7728296671
 20
11.5648296466
 10
2.5000009448
 20
11.9480202845
 10
2.2008600142
 20
12.3118755472
 10
1.8772511786
 20
12.6541521461
 10
1.5311695942
 20
12.972739832
 10
1.1647489689
 20
13.2656744059
 10
0.7802484078
 20
13.5311498289
 10
0.3800384848
 20
13.7675293566
 10
-0.033413373
 20
13.9733556306
 10
-0.4575580974
 20
14.1473596636
 10
-0.889780695
 20
14.2884686627
 10
-1.3274163699
 20
14.3958126442
 10
-1.7677669526
 20
14.4687297965
 10
-2.2081175352
 20
14.5067705614
 10
-2.6457532101
 20
14.5097004047
 10
-3.0779758077
 20
14.4775012631
 10
-3.5021205321
 20
14.4103716549
 10
-3.9155723899
 20
14.3087254565
 10
-4.315782313
 20
14.1731893505
 10
-4.700282874
 20
14.0045989621
 10
-5.0667034993
 20
13.8039937071
 10
-5.4127850837
 20
13.5726103836
 10
-5.7363939193
 20
13.3118755468
 10
-6.0355348499
 20
13.0233967135
 10
-6.3083635723
 20
12.7089524517
 10
-6.5531980065
 20
12.370481415
 10
-6.7685286671
 20
12.0100703897
 10
-6.9530279687
 20
11.6299414297
 10
-7.1055584119
 20
11.2324381564
 10
-7.2251795957
 20
10.8200113097
 10
-7.3111540159
 20
10.3952036382
 10
-7.3629516114
 20
9.9606342226
 10
-7.3802530329
 20
9.5189823277
 10
-7.3629516114
 20
9.0729708844
 10
-7.3111540159
 20
8.6253497015
 10
-7.2251795957
 20
8.1788785125
 10
-7.1055584119
 20
7.7363099607
 10
-6.9530279687
 20
7.3003726284
 10
-6.7685286671
 20
6.8737542142
 10
-6.5531980065
 20
6.4590849625
 10
-6.3083635723
 20
6.0589214471
 10
-6.0355348499
 20
5.6757308092
 10
-5.7363939193
 20
5.3118755465
 10
-5.4127850837
 20
4.9695989477
 10
-5.0667034993
 20
4.6510112618
 10
-4.700282874
 20
4.3580766878
 10
-4.315782313
 20
4.0926012649
 10
-3.9155723899
 20
3.8562217372
 10
-3.5021205321
 20
3.6503954631
 10
-3.0779758077
 20
3.4763914302
 10
-2.6457532101
 20
3.335282431
 10
-2.2081175352
 20
3.2279384496
 10
-1.7677669526
 20
3.1550212972
 10
-1.3274163699
 20
3.1169805324
 10
-0.889780695
 20
3.114050689
 10
-0.4575580974
 20
3.1462498307
 10
-0.033413373
 20
3.2133794389
 10
0.3800384848
 20
3.3150256373
 10
0.7802484078
 20
3.4505617432
 10
1.1647489689
 20
3.6191521316
 10
1.5311695942
 20
3.8197573866
 10
1.8772511786
 20
4.0511407101
 10
2.2008600142
 20
4.311875547
 10
2.5000009448
 20
4.6003543803
 10
2.7728296671
 20
4.914798642
 10
3.0176641014
 20
5.2532696788
 10
3.2329947619
 20
5.6136807041
 10
3.4174940636
 20
5.9938096641
 10
3.5700245068
 20
6.3913129374
 10
3.6896456906
 20
6.8037397841
 10
3.7756201107
 20
7.2285474555
 10
3.8274177063
 20
7.6631168711
 10
3.8447191278
 20
8.104768766
  0
LINE
  5
FE
330
F4
100
AcDbEntity
  8
0
  6
Continuous
 62
     7
370
    25
100
AcDbLine
 10
10.5019047527
 20
-15.4715239107
 30
0.0
 11
14.0374386578
 21
-12.353476089
 31
0.0
  0
LINE
  5
FF
330
F4
100
AcDbEntity
  8
0
  6
Continuous
 62
     7
370
    25
100
AcDbLine
 10
-10.5019047527
 20
15.4715239107
 30
0.0
 11
-14.0374386578
 21
12.353476089
 31
0.0
  0
ARC
  5
100
330
F4
100
AcDbEntity
  8
0
  6
Continuous
 62
     7
370
    25
100
AcDbCircle
 10
2.5150670067
 20
12.5889800679
 30
0.0
 40
6.332660302155507
100
AcDbArc
 50
163.3842763894
 51
279.4349678306
  0
VIEWPORT
  5
111
330
F4
100
AcDbEntity
  8
0
100
AcDbViewport
 10
0.0
 20
0.0
 30
0.0
 40
205.6
 41
156.0
 68
     1
 69
     1
 12
-0.0005452478
 22
0.0000961845
 13
0.0
 23
0.0
 14
10.0
 24
10.0
 15
10.0
 25
10.0
 16
0.0
 26
0.0
 36
1.0
 17
0.0
 27
0.0
 37
0.0
 42
50.0
 43
0.0
 44
0.0
 45
29.6113026079
 50
0.0
 51
0.0
 72
   100
 90
   557152
  1

281
     0
 71
     1
 74
     0
110
0.0
120
0.0
130
0.0
111
1.0
121
0.0
131
0.0
112
0.0
122
1.0
132
0.0
 79
     0
146
0.0
  0
MTEXT
  5
126
330
F4
100
AcDbEntity
  8
0
  6
Continuous
 62
     7
100
AcDbMText
 10
-19.1153962169
 20
-20.2001094737
 30
0.0
 40
4.83362
 41
0.0
 71
     1
 72
     1
  1
SOLIDWORKS Educational Product.
  7
SLDTEXTSTYLE0
 73
     1
 44
1.0
  0
MTEXT
  5
127
330
F4
100
AcDbEntity
  8
0
  6
Continuous
 62
     7
100
AcDbMText
 10
-19.1153962169
 20
-27.4505394737
 30
0.0
 40
4.83362
 41
0.0
 71
     1
 72
     1
  1
For Instructional Use Only.
  7
SLDTEXTSTYLE0
 73
     1
 44
1.0
  0
ENDBLK
  5
F7
330
F4
100
AcDbEntity
  8
0
100
AcDbBlockEnd
  0
ENDSEC
  0
SECTION
  2
ENTITIES
  0
LWPOLYLINE
  5
75
330
1F
100
AcDbEntity
  8
0
  6
Continuous
 62
     7
370
    25
100
AcDbPolyline
 90
       73
 70
   128
 43
0.0
 10
17.3534576168
 20
-7.9330454886
 10
17.3245246032
 20
-8.0682029831
 10
17.2221733343
 20
-8.4255803727
 10
17.083932707
 20
-8.7749389549
 10
16.9100771855
 20
-9.1155851108
 10
16.7009519438
 20
-9.4468425188
 10
16.4569721806
 20
-9.768053498
 10
16.1786222951
 20
-10.0785803138
 10
15.8664549255
 20
-10.3778064439
 10
15.5210898509
 20
-10.6651378025
 10
15.1432127619
 20
-10.9400039199
 10
14.7335738984
 20
-11.2018590748
 10
14.2929865605
 20
-11.4501833779
 10
13.8223254935
 20
-11.6844838045
 10
13.3225251514
 20
-11.9042951727
 10
12.7945778415
 20
-12.1091810673
 10
12.2395317544
 20
-12.2987347064
 10
11.6584888827
 20
-12.4725797488
 10
11.0526028332
 20
-12.6303710412
 10
10.4230765365
 20
-12.7717953037
 10
9.7711598589
 20
-12.8965717514
 10
9.0981471207
 20
-13.0044526523
 10
8.4053745262
 20
-13.0952238188
 10
7.6942175113
 20
-13.1687050332
 10
6.9660880126
 20
-13.2247504053
 10
6.2224316636
 20
-13.2632486623
 10
5.4647249252
 20
-13.2841233693
 10
4.6944721541
 20
-13.2873330816
 10
3.9132026158
 20
-13.2728714267
 10
3.1224674486
 20
-13.2407671168
 10
2.3238365841
 20
-13.1910838919
 10
1.5188956299
 20
-13.1239203937
 10
0.7092427218
 20
-13.0394099689
 10
-0.1035146495
 20
-12.9377204053
 10
-0.9177628292
 20
-12.819053598
 10
-1.731885203
 20
-12.6836451489
 10
-2.5442654064
 20
-12.5317638991
 10
-3.3532905336
 20
-12.3637113947
 10
-4.1573543401
 20
-12.1798212883
 10
-4.9548604316
 20
-11.9804586768
 10
-5.7442254337
 20
-11.7660193762
 10
-6.5238821351
 20
-11.5369291359
 10
-7.2922825998
 20
-11.2936427933
 10
-8.0479012396
 20
-11.0366433709
 10
-8.7892378437
 20
-10.7664411173
 10
-9.5148205569
 20
-10.4835724941
 10
-10.2232088019
 20
-10.1885991107
 10
-10.9129961394
 20
-9.8821066095
 10
-11.5828130605
 20
-9.564703503
 10
-12.2313297056
 20
-9.2370199656
 10
-12.8572585052
 20
-8.8997065828
 10
-13.4593567353
 20
-8.5534330589
 10
-14.0364289858
 20
-8.198886888
 10
-14.5873295331
 20
-7.8367719888
 10
-15.1109646151
 20
-7.4678073068
 10
-15.6062946029
 20
-7.0927253873
 10
-16.0723360646
 20
-6.7122709206
 10
-16.508163718
 20
-6.327199264
 10
-16.9129122678
 20
-5.9382749415
 10
-17.285778123
 20
-5.5462701265
 10
-17.6260209931
 20
-5.1519631081
 10
-17.9329653573
 20
-4.7561367464
 10
-18.206001806
 20
-4.3595769181
 10
-18.4445882506
 20
-3.963070956
 10
-18.6482509999
 20
-3.5674060859
 10
-18.8165857002
 20
-3.1733678639
 10
-18.9492581386
 20
-2.7817386164
 10
-19.0460049063
 20
-2.393295887
 10
-19.1066339215
 20
-2.0088108927
 10
-19.1310248109
 20
-1.6290469929
 10
-19.1191291487
 20
-1.2547581738
 10
-19.0709705526
 20
-0.886687551
 10
-19.0622527393
 20
-0.8403704456
  0
LWPOLYLINE
  5
76
330
1F
100
AcDbEntity
  8
0
  6
Continuous
 62
     7
370
    25
100
AcDbPolyline
 90
      135
 70
   128
 43
0.0
 10
-7.5023926927
 20
-1.8308213933
 10
-8.2166632611
 20
-1.5415191109
 10
-8.9130021372
 20
-1.2404978966
 10
-9.5900327967
 20
-0.9283528097
 10
-10.246416884
 20
-0.6057008994
 10
-10.8808568577
 20
-0.2731799846
 10
-11.4920985555
 20
0.0685526066
 10
-12.0789336735
 20
0.4188213366
 10
-12.6402021547
 20
0.7769337933
 10
-13.1747944824
 20
1.1421820593
 10
-13.6816538735
 20
1.5138441109
 10
-14.1597783671
 20
1.891185246
 10
-14.6082228057
 20
2.2734595358
 10
-15.0261007035
 20
2.6599112995
 10
-15.4125859984
 20
3.0497765985
 10
-15.7669146856
 20
3.4422847463
 10
-16.0883863274
 20
3.836659832
 10
-16.3763654379
 20
4.232122254
 10
-16.6302827394
 20
4.6278902613
 10
-16.8496362876
 20
5.023181499
 10
-17.033992464
 20
5.4172145545
 10
-17.1829868329
 20
5.8092105023
 10
-17.2963248619
 20
6.1983944441
 10
-17.3737825041
 20
6.5839970402
 10
-17.4152066412
 20
6.9652560305
 10
-17.4205153857
 20
7.3414177416
 10
-17.3896982435
 20
7.7117385761
 10
-17.3228161337
 20
8.075486483
 10
-17.2200012692
 20
8.4319424047
 10
-17.0814568947
 20
8.7804016983
 10
-16.9074568848
 20
9.1201755288
 10
-16.6983452032
 20
9.4505922306
 10
-16.4545352223
 20
9.7709986351
 10
-16.1765089063
 20
10.0807613624
 10
-15.864815858
 20
10.3792680728
 10
-15.5200722331
 20
10.6659286776
 10
-15.1429595213
 20
10.9401765056
 10
-14.7342232001
 20
11.2014694229
 10
-14.2946712601
 20
11.4492909054
 10
-13.8251726085
 20
11.6831510588
 10
-13.3266553514
 20
11.9025875879
 10
-12.8001049587
 20
12.1071667103
 10
-12.2465623164
 20
12.2964840133
 10
-11.6671216686
 20
12.4701652542
 10
-11.062928455
 20
12.6278670995
 10
-10.4351770459
 20
12.7692778039
 10
-9.7851083816
 20
12.8941178264
 10
-9.1140075194
 20
13.0021403829
 10
-8.4232010927
 20
13.0931319343
 10
-7.7140546893
 20
13.1669126083
 10
-6.9879701512
 20
13.223336555
 10
-6.2463828039
 20
13.2622922355
 10
-5.4907586189
 20
13.2837026421
 10
-4.7225913156
 20
13.2875254507
 10
-3.9433994088
 20
13.2737531044
 10
-3.1547232068
 20
13.2424128282
 10
-2.3581217663
 20
13.1935665759
 10
-1.5551698107
 20
13.1273109066
 10
-0.7474546172
 20
13.0437767949
 10
0.0634271211
 20
12.9431293711
 10
0.8758724514
 20
12.8255675952
 10
1.6882753301
 20
12.6913238636
 10
2.4990297975
 20
12.5406635496
 10
3.3065331524
 20
12.3738844789
 10
4.1091891204
 20
12.1913163406
 10
4.9054110095
 20
11.9933200359
 10
5.6936248466
 20
11.7802869642
 10
6.4722724889
 20
11.5526382498
 10
7.2398147041
 20
11.3108239092
 10
7.9947342131
 20
11.0553219614
 10
8.7355386893
 20
10.7866374833
 10
9.460763709
 20
10.5053016109
 10
10.1689756458
 20
10.2118704895
 10
10.8587745048
 20
9.9069241745
 10
11.5287966901
 20
9.5910654843
 10
12.1777177004
 20
9.264918809
 10
12.8042547474
 20
8.9291288762
 10
13.4071692913
 20
8.584359476
 10
13.9852694893
 20
8.2312921495
 10
14.5374125517
 20
7.8706248407
 10
15.0625070008
 20
7.5030705176
 10
15.559514829
 20
7.1293557623
 10
16.0274535501
 20
6.7502193351
 10
16.4653981417
 20
6.3664107136
 10
16.8724828742
 20
5.9786886115
 10
17.2479030215
 20
5.5878194786
 10
17.5909164522
 20
5.1945759859
 10
17.9008450968
 20
4.799735498
 10
18.1770762876
 20
4.4040785365
 10
18.4190639702
 20
4.0083872367
 10
18.6263297828
 20
3.6134438022
 10
18.7984640019
 20
3.2200289579
 10
18.9351263523
 20
2.8289204071
 10
19.0360466794
 20
2.4408912942
 10
19.1010254839
 20
2.0567086757
 10
19.1299343154
 20
1.6771320049
 10
19.122716027
 20
1.3029116295
 10
19.0793848877
 20
0.9347873094
 10
19.0000265546
 20
0.5734867533
 10
18.8847979035
 20
0.2197241811
 10
18.7339267185
 20
-0.1258010887
 10
18.5477112423
 20
-0.462406021
 10
18.3265195858
 20
-0.7894252144
 10
18.0707890014
 20
-1.1062122168
 10
17.7810250176
 20
-1.4121408028
 10
17.4578004407
 20
-1.7066062122
 10
17.1017542216
 20
-1.9890263452
 10
16.7135901932
 20
-2.258842913
 10
16.294075679
 20
-2.5155225416
 10
15.8440399763
 20
-2.7585578263
 10
15.3643727165
 20
-2.9874683344
 10
14.8560221069
 20
-3.201801555
 10
14.3199930561
 20
-3.4011337939
 10
13.7573451874
 20
-3.5850710105
 10
13.1691907443
 20
-3.7532495975
 10
12.5566923919
 20
-3.9053370991
 10
11.9210609181
 20
-4.0410328683
 10
11.2635528407
 20
-4.1600686614
 10
10.5854679229
 20
-4.2622091683
 10
9.8881466044
 20
-4.3472524774
 10
9.1729673517
 20
-4.4150304749
 10
8.4413439324
 20
-4.4654091771
 10
7.6947226214
 20
-4.4982889953
 10
6.9345793412
 20
-4.5136049325
 10
6.1624167448
 20
-4.5113267122
 10
5.3797612447
 20
-4.4914588381
 10
4.5881599961
 20
-4.4540405848
 10
3.7891778379
 20
-4.3991459211
 10
2.9843941998
 20
-4.3268833626
 10
2.1753999798
 20
-4.2373957582
 10
1.3637943995
 20
-4.1308600072
 10
0.5511818423
 20
-4.0074867097
 10
-0.2608313173
 20
-3.8675197503
 10
-1.0706398901
 20
-3.7112358159
 10
-1.8766430448
 20
-3.5389438491
  0
LWPOLYLINE
  5
7D
330
1F
100
AcDbEntity
  8
0
  6
Continuous
 62
     7
370
    25
100
AcDbPolyline
 90
       81
 70
   128
 43
0.0
 10
-1.5388587977
 20
10.3505618042
 10
-1.3825151337
 20
10.5282981378
 10
-1.1923615333
 20
10.6945249999
 10
-0.9695703568
 20
10.8482175469
 10
-0.7155151857
 20
10.9884282128
 10
-0.4317623548
 20
11.1142925525
 10
-0.1200612946
 20
11.2250345704
 10
0.2176662543
 20
11.319971505
 10
0.5793380891
 20
11.3985180387
 10
0.9627243828
 20
11.460189906
 10
1.3654614314
 20
11.5046068792
 10
1.785066227
 20
11.531495113
 10
2.2189517665
 20
11.5406888324
 10
2.6644430014
 20
11.5321313552
 10
3.11879333
 20
11.5058754409
 10
3.5792015314
 20
11.4620829662
 10
4.0428290359
 20
11.401023926
 10
4.506817426
 20
11.3230747698
 10
4.9683060587
 20
11.22871608
 10
5.4244497033
 20
11.1185296092
 10
5.8724360825
 20
10.9931946937
 10
6.3095032113
 20
10.853484065
 10
6.7329564255
 20
10.7002590856
 10
7.1401849952
 20
10.5344644383
 10
7.5286782209
 20
10.3571223023
 10
7.8960409126
 20
10.1693260509
 10
8.2400081573
 20
9.9722335104
 10
8.5584592824
 20
9.7670598218
 10
8.8494309308
 20
9.5550699492
 10
9.1111291657
 20
9.3375708806
 10
9.3419405304
 20
9.1159035701
 10
9.5404419959
 20
8.8914346704
 10
9.7054097349
 20
8.6655481069
 10
9.8358266664
 20
8.4396365454
 10
9.9308887265
 20
8.2150928058
 10
9.990009826
 20
7.9933012748
 10
10.0128254638
 20
7.7756293711
 10
9.9991949739
 20
7.5634191143
 10
9.9492023927
 20
7.3579788512
 10
9.8631559411
 20
7.1605751894
 10
9.7415861241
 20
6.972425188
 10
9.5852424601
 20
6.7946888544
 10
9.3950888598
 20
6.6284619923
 10
9.1722976832
 20
6.4747694453
 10
8.9182425122
 20
6.3345587794
 10
8.6344896813
 20
6.2086944397
 10
8.3227886211
 20
6.0979524218
 10
7.9850610722
 20
6.0030154872
 10
7.6233892374
 20
5.9244689535
 10
7.2400029437
 20
5.8627970862
 10
6.8372658951
 20
5.818380113
 10
6.4176610995
 20
5.7914918792
 10
5.9837755599
 20
5.7822981598
 10
5.5382843251
 20
5.790855637
 10
5.0839339965
 20
5.8171115513
 10
4.6235257951
 20
5.860904026
 10
4.1598982905
 20
5.9219630662
 10
3.6959099005
 20
5.9999122224
 10
3.2344212677
 20
6.0942709123
 10
2.7782776231
 20
6.204457383
 10
2.330291244
 20
6.3297922985
 10
1.8932241152
 20
6.4695029272
 10
1.469770901
 20
6.6227279066
 10
1.0625423313
 20
6.7885225539
 10
0.6740491056
 20
6.9658646899
 10
0.3066864138
 20
7.1536609413
 10
-0.0372808308
 20
7.3507534818
 10
-0.3557319559
 20
7.5559271704
 10
-0.6467036044
 20
7.767917043
 10
-0.9084018393
 20
7.9854161116
 10
-1.1392132039
 20
8.2070834221
 10
-1.3377146695
 20
8.4315523218
 10
-1.5026824085
 20
8.6574388853
 10
-1.6330993399
 20
8.8833504468
 10
-1.7281614
 20
9.1078941864
 10
-1.7872824996
 20
9.3296857174
 10
-1.8100981374
 20
9.5473576211
 10
-1.7964676474
 20
9.7595678779
 10
-1.7464750662
 20
9.965008141
 10
-1.6604286146
 20
10.1624118028
 10
-1.5388587977
 20
10.3505618042
  0
LINE
  5
81
330
1F
100
AcDbEntity
  8
0
  6
Continuous
 62
     7
370
    25
100
AcDbLine
 10
17.3534576168
 20
-7.9330454886
 30
0.0
 11
19.0622527393
 21
0.8403704456
 31
0.0
  0
LINE
  5
82
330
1F
100
AcDbEntity
  8
0
  6
Continuous
 62
     7
370
    25
100
AcDbLine
 10
-17.3534576168
 20
7.9330454886
 30
0.0
 11
-19.0622527393
 21
-0.8403704456
 31
0.0
  0
LINE
  5
83
330
1F
100
AcDbEntity
  8
0
  6
Continuous
 62
     7
370
    25
100
AcDbLine
 10
-7.5023926927
 20
-1.8308213933
 30
0.0
 11
-8.3567902539
 21
-6.2175293604
 31
0.0
  0
LINE
  5
84
330
1F
100
AcDbEntity
  8
0
  6
Continuous
 62
     7
370
    25
100
AcDbLine
 10
-2.7310406061
 20
-7.9256518162
 30
0.0
 11
-1.8766430448
 21
-3.5389438491
 31
0.0
  0
LINE
  5
85
330
1F
100
AcDbEntity
  8
0
  6
Continuous
 62
     7
370
    25
100
AcDbLine
 10
-7.5023926927
 20
-1.8308213933
 30
0.0
 11
-2.1063299345
 21
5.2733522469
 31
0.0
  0
LINE
  5
86
330
1F
100
AcDbEntity
  8
0
  6
Continuous
 62
     7
370
    25
100
AcDbLine
 10
3.5338925264
 20
3.5842839388
 30
0.0
 11
-1.8766430448
 21
-3.5389438491
 31
0.0
  0
LINE
  5
87
330
1F
100
AcDbEntity
  8
0
  6
Continuous
 62
     7
370
    25
100
AcDbLine
 10
-2.1063299345
 20
5.2733522469
 30
0.0
 11
3.5338925264
 21
3.5842839388
 31
0.0
  0
LINE
  5
88
330
1F
100
AcDbEntity
  8
0
  6
Continuous
 62
     7
370
    25
100
AcDbLine
 10
-2.1063299345
 20
5.2733522469
 30
0.0
 11
-2.9607274957
 21
0.8866442798
 31
0.0
  0
LINE
  5
89
330
1F
100
AcDbEntity
  8
0
  6
Continuous
 62
     7
370
    25
100
AcDbLine
 10
-8.3567902539
 20
-6.2175293604
 30
0.0
 11
-2.9607274957
 21
0.8866442798
 31
0.0
  0
LINE
  5
8A
330
1F
100
AcDbEntity
  8
0
  6
Continuous
 62
     7
370
    25
100
AcDbLine
 10
-2.9607274957
 20
0.8866442798
 30
0.0
 11
0.6610416508
 21
-0.1979610752
 31
0.0
  0
ARC
  5
8B
330
1F
100
AcDbEntity
  8
0
  6
Continuous
 62
     7
370
    25
100
AcDbCircle
 10
5.660696533
 20
29.8311160021
 30
0.0
 40
38.67809158029273
100
AcDbArc
 50
248.7514699654
 51
257.4692483466
  0
MTEXT
  5
116
330
1F
100
AcDbEntity
  8
0
  6
Continuous
 62
     7
100
AcDbMText
 10
-19.1310248109
 20
-14.3068994733
 30
0.0
 40
4.83362
 41
0.0
 71
     1
 72
     1
  1
SOLIDWORKS Educational Product.
  7
SLDTEXTSTYLE0
 73
     1
 44
1.0
  0
MTEXT
  5
117
330
1F
100
AcDbEntity
  8
0
  6
Continuous
 62
     7
100
AcDbMText
 10
-19.1310248109
 20
-21.5573294733
 30
0.0
 40
4.83362
 41
0.0
 71
     1
 72
     1
  1
For Instructional Use Only.
  7
SLDTEXTSTYLE0
 73
     1
 44
1.0
  0
LINE
  5
90
330
1B
100
AcDbEntity
 67
     1
  8
0
  6
Continuous
 62
     7
370
    25
100
AcDbLine
 10
18.55
 20
-5.0
 30
0.0
 11
18.55
 21
5.0
 31
0.0
  0
LINE
  5
91
330
1B
100
AcDbEntity
 67
     1
  8
0
  6
Continuous
 62
     7
370
    25
100
AcDbLine
 10
-18.55
 20
5.0
 30
0.0
 11
-18.55
 21
-5.0
 31
0.0
  0
LINE
  5
92
330
1B
100
AcDbEntity
 67
     1
  8
0
  6
Continuous
 62
     7
370
    25
100
AcDbLine
 10
18.55
 20
-5.0
 30
0.0
 11
-18.55
 21
-5.0
 31
0.0
  0
LINE
  5
93
330
1B
100
AcDbEntity
 67
     1
  8
0
  6
Continuous
 62
     7
370
    25
100
AcDbLine
 10
18.55
 20
5.0
 30
0.0
 11
-18.55
 21
5.0
 31
0.0
  0
VIEWPORT
  5
101
330
1B
100
AcDbEntity
 67
     1
  8
0
100
AcDbViewport
 10
0.0
 20
0.0
 30
0.0
 40
205.6
 41
156.0
 68
     1
 69
     1
 12
-0.0005452478
 22
0.0000961845
 13
0.0
 23
0.0
 14
10.0
 24
10.0
 15
10.0
 25
10.0
 16
0.0
 26
0.0
 36
1.0
 17
0.0
 27
0.0
 37
0.0
 42
50.0
 43
0.0
 44
0.0
 45
29.6113026079
 50
0.0
 51
0.0
 72
   100
 90
   557152
  1

281
     0
 71
     1
 74
     0
110
0.0
120
0.0
130
0.0
111
1.0
121
0.0
131
0.0
112
0.0
122
1.0
132
0.0
 79
     0
146
0.0
  0
MTEXT
  5
114
330
1B
100
AcDbEntity
 67
     1
  8
0
  6
Continuous
 62
     7
100
AcDbMText
 10
-18.55
 20
-6.0195663917
 30
0.0
 40
4.83362
 41
0.0
 71
     1
 72
     1
  1
SOLIDWORKS Educational Product.
  7
SLDTEXTSTYLE0
 73
     1
 44
1.0
  0
MTEXT
  5
115
330
1B
100
AcDbEntity
 67
     1
  8
0
  6
Continuous
 62
     7
100
AcDbMText
 10
-18.55
 20
-13.2699963917
 30
0.0
 40
4.83362
 41
0.0
 71
     1
 72
     1
  1
For Instructional Use Only.
  7
SLDTEXTSTYLE0
 73
     1
 44
1.0
  0
ENDSEC
  0
SECTION
  2
OBJECTS
  0
DICTIONARY
  5
C
330
0
100
AcDbDictionary
281
     1
  3
ACAD_GROUP
350
D
  3
ACAD_LAYOUT
350
1A
  3
ACAD_MLINESTYLE
350
17
  3
ACAD_PLOTSETTINGS
350
19
  3
ACAD_PLOTSTYLENAME
350
E
  3
ACAD_SCALELIST
350
47
  3
DWGPROPS
350
128
  0
DICTIONARY
  5
D
102
{ACAD_REACTORS
330
C
102
}
330
C
100
AcDbDictionary
281
     1
  0
DICTIONARY
  5
1A
102
{ACAD_REACTORS
330
C
102
}
330
C
100
AcDbDictionary
281
     1
  3
_Back
350
97
  3
_Bottom
350
C9
  3
_Dimetric
350
F5
  3
_Front
350
26
  3
_Isometric
350
DD
  3
_Left
350
A5
  3
_Right
350
B5
  3
_Top
350
1E
  3
_Trimetric
350
E8
  3
Model
350
22
  0
DICTIONARY
  5
17
102
{ACAD_REACTORS
330
C
102
}
330
C
100
AcDbDictionary
281
     1
  3
Standard
350
18
  0
DICTIONARY
  5
19
102
{ACAD_REACTORS
330
C
102
}
330
C
100
AcDbDictionary
281
     1
  0
ACDBDICTIONARYWDFLT
  5
E
102
{ACAD_REACTORS
330
C
102
}
330
C
100
AcDbDictionary
281
     1
  3
Normal
350
F
100
AcDbDictionaryWithDefault
340
F
  0
DICTIONARY
  5
47
102
{ACAD_REACTORS
330
C
102
}
330
C
100
AcDbDictionary
281
     1
  3
A0
350
48
  3
A1
350
49
  3
A2
350
4A
  3
A3
350
4B
  3
A4
350
4C
  3
A5
350
4D
  3
A6
350
4E
  3
A7
350
4F
  3
A8
350
50
  3
A9
350
51
  3
B0
350
52
  3
B1
350
53
  3
B2
350
54
  3
B3
350
55
  3
B4
350
56
  3
B5
350
57
  3
B6
350
58
  3
B7
350
59
  3
B8
350
5A
  3
B9
350
5B
  3
C0
350
5C
  3
C1
350
5D
  3
C2
350
5E
  3
C3
350
5F
  3
C4
350
60
  3
C5
350
61
  3
C6
350
62
  3
C7
350
63
  3
C8
350
64
  3
C9
350
65
  3
D0
350
66
  3
D1
350
67
  3
D2
350
68
  0
XRECORD
  5
128
102
{ACAD_REACTORS
330
C
102
}
330
C
100
AcDbXrecord
280
     1
  1
DWGPROPS COOKIE
  2

  3

  4

  6

  7

  8
$5PDJ00-CKN991J3FMM0
  9

300
=
301
=
302
=
303
=
304
=
305
=
306
=
307
=
308
=
309
=
 40
0.0
 41
2459700.037684456
 42
2459700.037743507
  1

 90
        0
  0
LAYOUT
  5
97
102
{ACAD_REACTORS
330
1A
102
}
330
1A
100
AcDbPlotSettings
  1

  2
none_device
  4
ISO_A4_(210.00_x_297.00_MM)
  6

 40
7.5
 41
20.0
 42
7.5
 43
20.0
 44
210.0
 45
297.0
 46
0.0
 47
0.0
 48
0.0
 49
0.0
140
0.0
141
0.0
142
1.0
143
0.1443579767
 70
   688
 72
     1
 73
     1
 74
     1
  7

 75
     0
147
6.9272237197
148
18.55
149
5.0
100
AcDbLayout
  1
_Back
 70
     1
 71
     3
 10
0.0
 20
0.0
 11
0.0
 21
0.0
 12
0.0
 22
0.0
 32
0.0
 14
0.0
 24
0.0
 34
0.0
 15
0.0
 25
0.0
 35
0.0
146
0.0
 13
0.0
 23
0.0
 33
0.0
 16
1.0
 26
0.0
 36
0.0
 17
0.0
 27
1.0
 37
0.0
 76
     0
330
96
331
105
  0
LAYOUT
  5
C9
102
{ACAD_REACTORS
330
1A
102
}
330
1A
100
AcDbPlotSettings
  1

  2
none_device
  4
ISO_A4_(210.00_x_297.00_MM)
  6

 40
7.5
 41
20.0
 42
7.5
 43
20.0
 44
210.0
 45
297.0
 46
0.0
 47
0.0
 48
0.0
 49
0.0
140
0.0
141
0.0
142
1.0
143
0.1443579767
 70
   688
 72
     1
 73
     1
 74
     1
  7

 75
     0
147
6.9272237197
148
18.55
149
5.0
100
AcDbLayout
  1
_Bottom
 70
     1
 71
     6
 10
0.0
 20
0.0
 11
0.0
 21
0.0
 12
0.0
 22
0.0
 32
0.0
 14
0.0
 24
0.0
 34
0.0
 15
0.0
 25
0.0
 35
0.0
146
0.0
 13
0.0
 23
0.0
 33
0.0
 16
1.0
 26
0.0
 36
0.0
 17
0.0
 27
1.0
 37
0.0
 76
     0
330
C8
331
10B
  0
LAYOUT
  5
F5
102
{ACAD_REACTORS
330
1A
102
}
330
1A
100
AcDbPlotSettings
  1

  2
none_device
  4
ISO_A4_(210.00_x_297.00_MM)
  6

 40
7.5
 41
20.0
 42
7.5
 43
20.0
 44
210.0
 45
297.0
 46
0.0
 47
0.0
 48
0.0
 49
0.0
140
0.0
141
0.0
142
1.0
143
0.1443579767
 70
   688
 72
     1
 73
     1
 74
     1
  7

 75
     0
147
6.9272237197
148
18.55
149
5.0
100
AcDbLayout
  1
_Dimetric
 70
     1
 71
     9
 10
0.0
 20
0.0
 11
0.0
 21
0.0
 12
0.0
 22
0.0
 32
0.0
 14
0.0
 24
0.0
 34
0.0
 15
0.0
 25
0.0
 35
0.0
146
0.0
 13
0.0
 23
0.0
 33
0.0
 16
1.0
 26
0.0
 36
0.0
 17
0.0
 27
1.0
 37
0.0
 76
     0
330
F4
331
111
  0
LAYOUT
  5
26
102
{ACAD_REACTORS
330
1A
102
}
330
1A
100
AcDbPlotSettings
  1

  2
none_device
  4
ISO_A4_(210.00_x_297.00_MM)
  6

 40
7.5
 41
20.0
 42
7.5
 43
20.0
 44
210.0
 45
297.0
 46
0.0
 47
0.0
 48
0.0
 49
0.0
140
0.0
141
0.0
142
1.0
143
0.1443579767
 70
   688
 72
     1
 73
     1
 74
     1
  7

 75
     0
147
6.9272237197
148
18.55
149
5.0
100
AcDbLayout
  1
_Front
 70
     1
 71
     2
 10
0.0
 20
0.0
 11
0.0
 21
0.0
 12
0.0
 22
0.0
 32
0.0
 14
0.0
 24
0.0
 34
0.0
 15
0.0
 25
0.0
 35
0.0
146
0.0
 13
0.0
 23
0.0
 33
0.0
 16
1.0
 26
0.0
 36
0.0
 17
0.0
 27
1.0
 37
0.0
 76
     0
330
23
331
103
  0
LAYOUT
  5
DD
102
{ACAD_REACTORS
330
1A
102
}
330
1A
100
AcDbPlotSettings
  1

  2
none_device
  4
ISO_A4_(210.00_x_297.00_MM)
  6

 40
7.5
 41
20.0
 42
7.5
 43
20.0
 44
210.0
 45
297.0
 46
0.0
 47
0.0
 48
0.0
 49
0.0
140
0.0
141
0.0
142
1.0
143
0.1443579767
 70
   688
 72
     1
 73
     1
 74
     1
  7

 75
     0
147
6.9272237197
148
18.55
149
5.0
100
AcDbLayout
  1
_Isometric
 70
     1
 71
     7
 10
0.0
 20
0.0
 11
0.0
 21
0.0
 12
0.0
 22
0.0
 32
0.0
 14
0.0
 24
0.0
 34
0.0
 15
0.0
 25
0.0
 35
0.0
146
0.0
 13
0.0
 23
0.0
 33
0.0
 16
1.0
 26
0.0
 36
0.0
 17
0.0
 27
1.0
 37
0.0
 76
     0
330
DC
331
10D
  0
LAYOUT
  5
A5
102
{ACAD_REACTORS
330
1A
102
}
330
1A
100
AcDbPlotSettings
  1

  2
none_device
  4
ISO_A4_(210.00_x_297.00_MM)
  6

 40
7.5
 41
20.0
 42
7.5
 43
20.0
 44
210.0
 45
297.0
 46
0.0
 47
0.0
 48
0.0
 49
0.0
140
0.0
141
0.0
142
1.0
143
0.1443579767
 70
   688
 72
     1
 73
     1
 74
     1
  7

 75
     0
147
6.9272237197
148
18.55
149
5.0
100
AcDbLayout
  1
_Left
 70
     1
 71
     4
 10
0.0
 20
0.0
 11
0.0
 21
0.0
 12
0.0
 22
0.0
 32
0.0
 14
0.0
 24
0.0
 34
0.0
 15
0.0
 25
0.0
 35
0.0
146
0.0
 13
0.0
 23
0.0
 33
0.0
 16
1.0
 26
0.0
 36
0.0
 17
0.0
 27
1.0
 37
0.0
 76
     0
330
A4
331
107
  0
LAYOUT
  5
B5
102
{ACAD_REACTORS
330
1A
102
}
330
1A
100
AcDbPlotSettings
  1

  2
none_device
  4
ISO_A4_(210.00_x_297.00_MM)
  6

 40
7.5
 41
20.0
 42
7.5
 43
20.0
 44
210.0
 45
297.0
 46
0.0
 47
0.0
 48
0.0
 49
0.0
140
0.0
141
0.0
142
1.0
143
0.1443579767
 70
   688
 72
     1
 73
     1
 74
     1
  7

 75
     0
147
6.9272237197
148
18.55
149
5.0
100
AcDbLayout
  1
_Right
 70
     1
 71
     5
 10
0.0
 20
0.0
 11
0.0
 21
0.0
 12
0.0
 22
0.0
 32
0.0
 14
0.0
 24
0.0
 34
0.0
 15
0.0
 25
0.0
 35
0.0
146
0.0
 13
0.0
 23
0.0
 33
0.0
 16
1.0
 26
0.0
 36
0.0
 17
0.0
 27
1.0
 37
0.0
 76
     0
330
B4
331
109
  0
LAYOUT
  5
1E
102
{ACAD_REACTORS
330
1A
102
}
330
1A
100
AcDbPlotSettings
  1

  2
none_device
  4
ISO_A4_(210.00_x_297.00_MM)
  6

 40
7.5
 41
20.0
 42
7.5
 43
20.0
 44
210.0
 45
297.0
 46
0.0
 47
0.0
 48
0.0
 49
0.0
140
0.0
141
0.0
142
1.0
143
0.1443579767
 70
   688
 72
     1
 73
     1
 74
     1
  7

 75
     0
147
6.9272237197
148
18.55
149
5.0
100
AcDbLayout
  1
_Top
 70
     1
 71
     1
 10
-21.4371595331
 20
-6.0826848249
 11
21.4371595331
 21
24.2324902724
 12
0.0
 22
0.0
 32
0.0
 14
-18.55
 24
-5.0
 34
0.0
 15
18.55
 25
5.0
 35
0.0
146
0.0
 13
0.0
 23
0.0
 33
0.0
 16
1.0
 26
0.0
 36
0.0
 17
0.0
 27
1.0
 37
0.0
 76
     0
330
1B
331
101
  0
LAYOUT
  5
E8
102
{ACAD_REACTORS
330
1A
102
}
330
1A
100
AcDbPlotSettings
  1

  2
none_device
  4
ISO_A4_(210.00_x_297.00_MM)
  6

 40
7.5
 41
20.0
 42
7.5
 43
20.0
 44
210.0
 45
297.0
 46
0.0
 47
0.0
 48
0.0
 49
0.0
140
0.0
141
0.0
142
1.0
143
0.1443579767
 70
   688
 72
     1
 73
     1
 74
     1
  7

 75
     0
147
6.9272237197
148
18.55
149
5.0
100
AcDbLayout
  1
_Trimetric
 70
     1
 71
     8
 10
0.0
 20
0.0
 11
0.0
 21
0.0
 12
0.0
 22
0.0
 32
0.0
 14
0.0
 24
0.0
 34
0.0
 15
0.0
 25
0.0
 35
0.0
146
0.0
 13
0.0
 23
0.0
 33
0.0
 16
1.0
 26
0.0
 36
0.0
 17
0.0
 27
1.0
 37
0.0
 76
     0
330
E7
331
10F
  0
LAYOUT
  5
22
102
{ACAD_REACTORS
330
1A
102
}
330
1A
100
AcDbPlotSettings
  1

  2
none_device
  4
ANSI_A_(11.00_x_8.50_Inches)
  6

 40
6.35
 41
19.05
 42
6.35000508
 43
19.05000254
 44
279.4
 45
215.9
 46
133.3539393058
 47
88.8993033679
 48
0.0
 49
0.0
140
0.0
141
0.0
142
0.2846243338
143
1.0
 70
  1696
 72
     0
 73
     0
 74
     0
  7

 75
     0
147
0.0179189148
148
-1300.4909072572
149
0.0
100
AcDbLayout
  1
Model
 70
     1
 71
     0
 10
0.0
 20
0.0
 11
420.0
 21
297.0
 12
0.0
 22
0.0
 32
0.0
 14
-19.1310248109
 24
-13.2873330816
 34
0.0
 15
19.1299343154
 25
13.2875254507
 35
0.0
146
0.0
 13
0.0
 23
0.0
 33
0.0
 16
1.0
 26
0.0
 36
0.0
 17
0.0
 27
1.0
 37
0.0
 76
     0
330
1F
331
29
  0
MLINESTYLE
  5
18
102
{ACAD_REACTORS
330
17
102
}
330
17
100
AcDbMlineStyle
  2
Standard
 70
     0
  3

 62
   256
 51
90.0
 52
90.0
 71
     2
 49
0.5
 62
   256
  6
BYLAYER
 49
-0.5
 62
   256
  6
BYLAYER
  0
ACDBPLACEHOLDER
  5
F
102
{ACAD_REACTORS
330
E
102
}
330
E
  0
SCALE
  5
48
102
{ACAD_REACTORS
330
47
102
}
330
47
100
AcDbScale
 70
     0
300
1:1
140
1.0
141
1.0
290
     1
  0
SCALE
  5
49
102
{ACAD_REACTORS
330
47
102
}
330
47
100
AcDbScale
 70
     0
300
1:2
140
1.0
141
2.0
290
     0
  0
SCALE
  5
4A
102
{ACAD_REACTORS
330
47
102
}
330
47
100
AcDbScale
 70
     0
300
1:4
140
1.0
141
4.0
290
     0
  0
SCALE
  5
4B
102
{ACAD_REACTORS
330
47
102
}
330
47
100
AcDbScale
 70
     0
300
1:5
140
1.0
141
5.0
290
     0
  0
SCALE
  5
4C
102
{ACAD_REACTORS
330
47
102
}
330
47
100
AcDbScale
 70
     0
300
1:8
140
1.0
141
8.0
290
     0
  0
SCALE
  5
4D
102
{ACAD_REACTORS
330
47
102
}
330
47
100
AcDbScale
 70
     0
300
1:10
140
1.0
141
10.0
290
     0
  0
SCALE
  5
4E
102
{ACAD_REACTORS
330
47
102
}
330
47
100
AcDbScale
 70
     0
300
1:16
140
1.0
141
16.0
290
     0
  0
SCALE
  5
4F
102
{ACAD_REACTORS
330
47
102
}
330
47
100
AcDbScale
 70
     0
300
1:20
140
1.0
141
20.0
290
     0
  0
SCALE
  5
50
102
{ACAD_REACTORS
330
47
102
}
330
47
100
AcDbScale
 70
     0
300
1:30
140
1.0
141
30.0
290
     0
  0
SCALE
  5
51
102
{ACAD_REACTORS
330
47
102
}
330
47
100
AcDbScale
 70
     0
300
1:40
140
1.0
141
40.0
290
     0
  0
SCALE
  5
52
102
{ACAD_REACTORS
330
47
102
}
330
47
100
AcDbScale
 70
     0
300
1:50
140
1.0
141
50.0
290
     0
  0
SCALE
  5
53
102
{ACAD_REACTORS
330
47
102
}
330
47
100
AcDbScale
 70
     0
300
1:100
140
1.0
141
100.0
290
     0
  0
SCALE
  5
54
102
{ACAD_REACTORS
330
47
102
}
330
47
100
AcDbScale
 70
     0
300
2:1
140
2.0
141
1.0
290
     0
  0
SCALE
  5
55
102
{ACAD_REACTORS
330
47
102
}
330
47
100
AcDbScale
 70
     0
300
4:1
140
4.0
141
1.0
290
     0
  0
SCALE
  5
56
102
{ACAD_REACTORS
330
47
102
}
330
47
100
AcDbScale
 70
     0
300
8:1
140
8.0
141
1.0
290
     0
  0
SCALE
  5
57
102
{ACAD_REACTORS
330
47
102
}
330
47
100
AcDbScale
 70
     0
300
10:1
140
10.0
141
1.0
290
     0
  0
SCALE
  5
58
102
{ACAD_REACTORS
330
47
102
}
330
47
100
AcDbScale
 70
     0
300
100:1
140
100.0
141
1.0
290
     0
  0
SCALE
  5
59
102
{ACAD_REACTORS
330
47
102
}
330
47
100
AcDbScale
 70
     0
300
1/128" = 1'-0"
140
0.0078125
141
12.0
290
     0
  0
SCALE
  5
5A
102
{ACAD_REACTORS
330
47
102
}
330
47
100
AcDbScale
 70
     0
300
1/64" = 1'-0"
140
0.015625
141
12.0
290
     0
  0
SCALE
  5
5B
102
{ACAD_REACTORS
330
47
102
}
330
47
100
AcDbScale
 70
     0
300
1/32" = 1'-0"
140
0.03125
141
12.0
290
     0
  0
SCALE
  5
5C
102
{ACAD_REACTORS
330
47
102
}
330
47
100
AcDbScale
 70
     0
300
1/16" = 1'-0"
140
0.0625
141
12.0
290
     0
  0
SCALE
  5
5D
102
{ACAD_REACTORS
330
47
102
}
330
47
100
AcDbScale
 70
     0
300
3/32" = 1'-0"
140
0.09375
141
12.0
290
     0
  0
SCALE
  5
5E
102
{ACAD_REACTORS
330
47
102
}
330
47
100
AcDbScale
 70
     0
300
1/8" = 1'-0"
140
0.125
141
12.0
290
     0
  0
SCALE
  5
5F
102
{ACAD_REACTORS
330
47
102
}
330
47
100
AcDbScale
 70
     0
300
3/16" = 1'-0"
140
0.1875
141
12.0
290
     0
  0
SCALE
  5
60
102
{ACAD_REACTORS
330
47
102
}
330
47
100
AcDbScale
 70
     0
300
1/4" = 1'-0"
140
0.25
141
12.0
290
     0
  0
SCALE
  5
61
102
{ACAD_REACTORS
330
47
102
}
330
47
100
AcDbScale
 70
     0
300
3/8" = 1'-0"
140
0.375
141
12.0
290
     0
  0
SCALE
  5
62
102
{ACAD_REACTORS
330
47
102
}
330
47
100
AcDbScale
 70
     0
300
1/2" = 1'-0"
140
0.5
141
12.0
290
     0
  0
SCALE
  5
63
102
{ACAD_REACTORS
330
47
102
}
330
47
100
AcDbScale
 70
     0
300
3/4" = 1'-0"
140
0.75
141
12.0
290
     0
  0
SCALE
  5
64
102
{ACAD_REACTORS
330
47
102
}
330
47
100
AcDbScale
 70
     0
300
1" = 1'-0"
140
1.0
141
12.0
290
     0
  0
SCALE
  5
65
102
{ACAD_REACTORS
330
47
102
}
330
47
100
AcDbScale
 70
     0
300
1-1/2" = 1'-0"
140
1.5
141
12.0
290
     0
  0
SCALE
  5
66
102
{ACAD_REACTORS
330
47
102
}
330
47
100
AcDbScale
 70
     0
300
3" = 1'-0"
140
3.0
141
12.0
290
     0
  0
SCALE
  5
67
102
{ACAD_REACTORS
330
47
102
}
330
47
100
AcDbScale
 70
     0
300
6" = 1'-0"
140
6.0
141
12.0
290
     0
  0
SCALE
  5
68
102
{ACAD_REACTORS
330
47
102
}
330
47
100
AcDbScale
 70
     0
300
1'-0" = 1'-0"
140
12.0
141
12.0
290
     0
  0
ENDSEC
  0
EOF
